<svg xmlns="http://www.w3.org/2000/svg" xmlns:xlink="http://www.w3.org/1999/xlink" width="325.047" height="187.288" viewBox="0 0 325.047 187.288">
  <defs>
    <clipPath id="clip-path">
      <rect id="長方形_256" data-name="長方形 256" width="67.182" height="157.698" fill="none"/>
    </clipPath>
    <clipPath id="clip-path-2">
      <rect id="長方形_266" data-name="長方形 266" width="244.092" height="170.781" fill="none"/>
    </clipPath>
  </defs>
  <g id="グループ_484" data-name="グループ 484" transform="translate(-425.135 -3270.777)">
    <g id="グループ_116" data-name="グループ 116" transform="translate(683 3300.367)">
      <g id="グループ_115" data-name="グループ 115" clip-path="url(#clip-path)">
        <path id="パス_569" data-name="パス 569" d="M60.894,59.493l.52.484a2.364,2.364,0,0,1-.343,1.851l-.794.131-.892,1.375.632,1.05a9.025,9.025,0,0,0-.333,1.295,2.127,2.127,0,0,1-.9,1.346,2.406,2.406,0,0,0-.67.982c-.192.48-.425.946-.591,1.434-.633,1.852-1.764,3.474-2.435,5.307-.389.281-.181.915-.679,1.146-.068.031-.062.227-.084.347-.032.178,0,.414-.1.528a11.524,11.524,0,0,0-1.472,3.087,5.037,5.037,0,0,1-.943,1.473,1.814,1.814,0,0,0-.335.551c-.358.831-.7,1.668-1.08,2.572l-.725.208a1.233,1.233,0,0,0-.089.261c-.007.386.559.484.443.976a3.847,3.847,0,0,0,.1,1.144c-.541.2-.706.733-.932,1.307l.287.464-.442.392c.1.268.206.53.3.8s.18.542.275.832a2.746,2.746,0,0,1-.434.658,3.851,3.851,0,0,0-.756,1.162c-.456,1.253-1.315,2.324-1.7,3.614-.737.835-.92,2.026-1.789,2.777a.377.377,0,0,0-.076.176c-.343,1.207-1.175,2.176-1.62,3.336-.163.426-.484.788-.69,1.2a6.438,6.438,0,0,1-.591,1.32c-.383.452-.458,1.074-.827,1.454a6.694,6.694,0,0,0-.758,1.4,2.848,2.848,0,0,1-.529.736,2.713,2.713,0,0,0-.7,1.207,19.031,19.031,0,0,0-1.236,2.444c-.514.313-.528.912-.785,1.372a11.687,11.687,0,0,1-1.092,1.7c-.288.357-.348.842-.72,1.185a12.706,12.706,0,0,0-1.21,2.339c-.092.227-8.589,16.144-8.619,16.2-.41.816-3.438,6.412-3.865,6.68-.306.191-.177.812-.651.989-.021.008-.024.058-.039.087Q20.351,144,19.77,145.13a2.179,2.179,0,0,1-.581.945c-.28.206-.165.744-.594.93-.087.038-.135.213-.165.334a10.829,10.829,0,0,1-1.265,2.43c-.322.6-.8,1.131-1.194,1.709-.066.1-.189.172-.225.277-.433,1.272-1.334,2.316-1.735,3.6a1.706,1.706,0,0,1-.433.7,1.267,1.267,0,0,0-.36,1.2,4.206,4.206,0,0,0-.4.5,6.073,6.073,0,0,0-.3.7l-.784-.027A35.8,35.8,0,0,0,10,161.884a4.493,4.493,0,0,1-.924,1.342,8.529,8.529,0,0,0-.893,1.378c-.528.32-.8.948-1.3,1.581l-1.2.328L5,167.388c-1.34.217-2.36-.507-3.532-.928l-.2-.725-.628-.262a4.66,4.66,0,0,1-.241-4.2l.427-.175,1.165-2.16-.065-.051-.7.741c-.06-.13-.109-.239-.151-.331.341-1.03.673-2.047,1.017-3.06a18.5,18.5,0,0,1,1.537-2.629c-.084-.227-.16-.428-.23-.62.616-.325,1.07.017,1.629.221-.011-.154-.021-.275-.031-.425l.291-.224c-.121-.286-.23-.547-.349-.826l.9-.536.227-.541-.734-.093c-.115.274-.2.474-.268.643l-.418.171c-.041-.12-.081-.24-.139-.408.728-1.742,1.466-3.532,2.231-5.311a7.354,7.354,0,0,1,.627-1.017c.216-.336.154-.835.629-1.027.084-.034.109-.225.154-.346.965-2.656,2.46-5.076,3.443-7.724a4.5,4.5,0,0,1,.458-1.067,18.994,18.994,0,0,0,1.565-3.256c.058-.125.211-.208.31-.3a3.141,3.141,0,0,1,.115-.713,30.528,30.528,0,0,1,1.67-3.922c.923-1.591,1.4-3.366,2.278-4.954a24.8,24.8,0,0,0,1.27-2.644c.123-.306.117-.661.217-.979a2.637,2.637,0,0,1,.42-.972,4.78,4.78,0,0,0,.767-1.387c.215-.5,2.548-4.9,2.8-5.4.018.413-2.073,4.7-2.252,5.11a36.5,36.5,0,0,0-1.427,3.709,1.56,1.56,0,0,0,.23-.38,3.836,3.836,0,0,1,.676-1.1c.236-.36.217-.855.663-1.121.157-.094.186-.4.273-.608.412-.985.809-1.975,1.246-2.948.1-.219.332-.376.264-.662.322-.1.373-.4.484-.657.128-.3.25-.6.375-.894l.337-.806a3.534,3.534,0,0,0,.326-.807,12.54,12.54,0,0,1,1.121-3.126c.243-.571.611-1.087.88-1.648.278-.582.5-1.19.754-1.787a8.621,8.621,0,0,1,.77-1.774c.671-.922.867-2.058,1.457-2.986a38.067,38.067,0,0,0,1.929-4.156c.172-.357.43-.671.625-1.019s.252-.765.626-1.029c.157-.11.179-.4.274-.61.633-1.353,1.22-2.732,1.936-4.04.217-.4.472-.793.69-1.2.036-.066.166-.082.192-.094l.319-1.3.1.058.9-1.042.217.03c.043-.041.1-.074.128-.124.143-.325.3-.648.408-.985.1-.318.36-.577.241-.993-.044-.154.3-.42.51-.7.125.052.262.117.4.166.116.04,1.04.579,1.169.649a2.8,2.8,0,0,0,1.008.356,2.377,2.377,0,0,1-.332-.236c-.126-.125-.23-.275-.382-.462a10.744,10.744,0,0,1,.861-1.987c.6-.882.844-1.921,1.384-2.8.415-.68.64-1.459,1.092-2.079a14.338,14.338,0,0,0,.829-1.574c.179-.319.4-.617.591-.928.178-.284.142-.7.558-.844.06-.021.081-.169.115-.259a8.136,8.136,0,0,1,1.288-2.133,8.42,8.42,0,0,0,.981-1.809,32.921,32.921,0,0,0,1.627-3.333c.057-.184.271-.316.4-.483a6.649,6.649,0,0,0,.518-.747c.141-.253.207-.547.35-.8a5.727,5.727,0,0,1,.486-.639,1.513,1.513,0,0,1,1.286.288l.68-1.626-.591-1.007a1.885,1.885,0,0,1,.288-.4c.195-.166.509.014.718-.279.122-.171.463-.186.7-.271.194-.672.347-1.311.563-1.929s.489-1.189.726-1.757l-.208-.507c.03-.071.06-.161.1-.245a9.2,9.2,0,0,0,.755-3.132,7.706,7.706,0,0,1,.551-1.563c.639-.192,1.262-.432,1.908-.559.674-.132,1.018-.772,1.668-.947a4.665,4.665,0,0,0,1.464-.978A15.465,15.465,0,0,0,63.729,44c.414-.983.809-.915,1.443-2.056-.031-.118.026-.931.506-.918.187-.215.641-.208.842-.439l.43.18c.074.361.157.775.231,1.143-.53.079-.931.7-1,1.682-.086-.144-.355-1.11-.446-1.264a29.447,29.447,0,0,0-2,2.6c-.228.425-.611.751-.517,1.3a.264.264,0,0,1-.072.176c-.874,1.061-1.115,2.422-1.721,3.609-.165.324-.366.628-.569.973l1.2.3c.055.3.106.571.157.848a2.475,2.475,0,0,1-.871,1.412l-.9-.376c-.419-.523-.126-1.144-.112-1.827a1.336,1.336,0,0,0-.357.16,4.573,4.573,0,0,0-.35.447c.009.024.043.114.068.183l-.636.852-.579-.242a2.107,2.107,0,0,1,.243-1.3c.155-.433.537-.815.311-1.361l.343-.2c-.05-.828.513-1.47.707-2.227a2.979,2.979,0,0,0-1.548.757c-.347.454-.794.858-.677,1.551.04.236-.16.5-.136.8.017.214-.259.449-.43.715-.312,1.8-1.2,3.483-1.589,5.324l.706.585c.106-.428.205-.83.31-1.257l.335.024L57.8,55.5c-.014-.171-.034-.43-.055-.69a2.652,2.652,0,0,0,.511-1.2l.92-.205.389.373-.4.222a4.427,4.427,0,0,1-.215.912c-.143.3-.111.724-.522.867a.9.9,0,0,1-.246.934c-.467.347-.479.88-.719,1.312-.049.087.014.236.022.328a6.89,6.89,0,0,1-.574.561c-.216.17-.479.278-.694.449a.734.734,0,0,0-.274.55l.277-.265c.478.078.232.555.433.935l.435-.545c.642-.334,1.186.075,1.778.257a10.716,10.716,0,0,1,1.6.921l.588-.473-.427-.683-.312.259c-.959-.564-2.044-.64-2.769-1.456.063-.152.122-.293.207-.5l2.512,1.05c-.042-.514-.717-.886-.205-1.356l-.357-.868.557-.693-.509-.249c-.057-.176-.127-.39-.214-.661l.288-.689c.5.011.58-.683,1.089-.731.417-.039.837-.032,1.28-.046.394-.813,1.173-1.369,1.413-2.266s.991-1.537,1.213-2.409l.514-.211c-.026-.046-.04-.119-.079-.135-.531-.229-1.067-.451-1.676-.706l-.963,1.126a17.6,17.6,0,0,1,2.551-5.27l.316.106c-.165.395-.3.785-.488,1.151a3.358,3.358,0,0,1-.524.994,4.026,4.026,0,0,0-.564,1.055c.065.161.115.281.154.377l1.162.486c.08-1.332.078-3.222.993-4.477a11.288,11.288,0,0,1-.15,2.124A7.063,7.063,0,0,0,65.9,47.9a3.089,3.089,0,0,0,.43,1.572l-.476.573c-.032.477.415,1.013.252,1.826a5.56,5.56,0,0,1-.614,1.118c-.3.361-.574.769-.88,1.149-.457.566-.8,1.22-1.248,1.8a23.278,23.278,0,0,0-1.607,2.322c-.362.078-.327.436-.475.666-.109.169-.227.331-.386.563m-31.577,48.8a1.513,1.513,0,0,0-.408-1.489c-.263.629-.506,1.207-.749,1.79.1.234.194.474.292.712.087.208.142.571.265.6.4.081-.025.525.328.583a.48.48,0,0,0,.536-.394c.032-.174-.032-.376.033-.531s.235-.263.358-.392l-.055-.626-.6-.251M17.669,132.063c-.074-.125-.134-.226-.21-.356l-.654.465c.106.417-.545.579-.338,1.041.465-.344,1.014-.585,1.27-1.135a3.012,3.012,0,0,0,.482-.059,4.218,4.218,0,0,1,1.257-.375,3.424,3.424,0,0,0,1.949-.526,5.27,5.27,0,0,0,.472-1.574L20.5,130.792l-.1-.771c.43-.468.991-.784.891-1.483l.181-.093-.151-.367a1.5,1.5,0,0,0-.352-.138c-.085-.011-.182.056-.309.1a2.649,2.649,0,0,1-.037-1.093,5.315,5.315,0,0,0,.084-1c.51.09.195.605.444.846l1.7-.985-.736-.374c.084-.2.106-.4.214-.489.411-.35.85-.668,1.312-1.023l-.154-.372a1.937,1.937,0,0,1-.426-.006,1.35,1.35,0,0,1-.306-.175c.241-.385.465-.715.661-1.062.211-.373.4-.76.638-1.224.055-.508.122-1.133.189-1.755.725-.329.387-1.034.558-1.563a10.081,10.081,0,0,0-1.606,2.513c.042.376.371.645.2,1.114l-.643-.414a7.062,7.062,0,0,0-.791,3.319c-.638-.038-.188-.709-.661-.848a10.825,10.825,0,0,0-.93,1.688c-.234.673-.771,1.146-1,1.809-.22.632-.509,1.239-.8,1.933l.358-.1.163.36-.369.881c.045.288.357.494.01.782-.077-.184-.15-.357-.252-.6l-.778.675a6.677,6.677,0,0,1-.042,1.19M5.386,153.416l-.051.074c.192.174.378.357.579.521a8,8,0,0,0,.655.484c.231.153.477.284.715.427a2.9,2.9,0,0,1,.772.493c.168.2.44.082.6.347.119.2.5.239.706.325l.352.63c.309-.166.662-.157.816-.547-.458.078-.763-.024-.837-.482.363-.12.379-.441.483-.793l-1.291-.229c-.075.1-.13.17-.212.278-.189-.079-.39-.16-.588-.249-.021-.01-.026-.057-.047-.109l.141-.336a1.833,1.833,0,0,0,.146-.359,3.228,3.228,0,0,1,.758-1.822c.141-.209.33-.51.273-.7-.12-.412.156-.659.227-.987a7.131,7.131,0,0,0,2.044-1.252c.679-.43,1.425-.756,2.072-1.091.255-.448.289-.908.663-1.163l-.117-.286c-.8.549-1.809.75-2.454,1.539.025.147.049.293.085.5l-1.141.231-.4-.487a12.144,12.144,0,0,1,2.129-1.394c.052-.017.061-.157.115-.312l-.76-.03.306-.731a7.009,7.009,0,0,1,1.445-.966c.541-.189.883-.708,1.489-.831-.054,1.081-1.1,1.039-1.685,1.753-.033.094-.132.372-.227.64l.917-.312.244-.474.509.213c.224-.533.415-1.045.649-1.536s.5-.945.772-1.45c-.89-.017-1.048.389-1.995.88a4.329,4.329,0,0,0-1.29.856.988.988,0,0,1-1.012.293c-.044-.477.316-.648.572-.8,1.118-.668,2.267-1.286,3.428-1.935.174-.416.364-.861.547-1.31.189-.465.407-.921.554-1.353l-.321-.238.893-.6c.213-.509.453-1.075.686-1.643a3.633,3.633,0,0,1,.913-1.537l-.357-.871,1.266-.938c.207-.518.433-1,.664-1.643-1.329,1.071-1.329,1.071-1.318,1.632-.149.062-.372.081-.436.191-.439.753-1.255.956-1.924,1.372a6.318,6.318,0,0,0-.771.5c-.072.061-.017.272-.021.489l-2.015.981c-.01-.121-.024-.3-.044-.554a5.781,5.781,0,0,1,.8-1.576l-.31-.11c-.438,1.292-1.441,2.307-1.669,3.747l.65-.434a1.293,1.293,0,0,1-.064.289,21.361,21.361,0,0,1-1.119,2.291,14.937,14.937,0,0,0-1.186,2.751c-.049.125.016.294.024.4A2.291,2.291,0,0,0,11,144.5c-.558,1.174-1,2.392-1.65,3.535a13.624,13.624,0,0,0-1.532,3.049c-.017.062-.032.147-.077.176-.538.343-.522.969-.861,1.5l1.109.464-1.3.736-1.3-.544m-1.008,3.733a6.156,6.156,0,0,1,1.954,1.043c.069.072.053.227.1.478l-1.771-.74c.021.445.052.762.379.992.049.035-.021.238-.042.421l-.542-.227-.7,1.673-.492.2c-.321.454-.021,1.208-.73,1.481-.535-.158-1.032-.589-1.739-.286l.275.412a4.572,4.572,0,0,0,.493,2.482l.955-.108c.008.155.015.3.022.431l1.667.7.525-.521c-.286-.342-.963-.189-.89-.867a1.58,1.58,0,0,0,1.518-.805,9.1,9.1,0,0,0,1.453-2.36,12.126,12.126,0,0,1,.559-1.34.872.872,0,0,1,1.014-.479l-.311.868.079.033q.476-.722.952-1.442a1.517,1.517,0,0,0,.5-.267c-1.029-.43-1.981-.821-2.926-1.229a5.22,5.22,0,0,1-.635-.376A11.25,11.25,0,0,0,3.909,155.9a2.127,2.127,0,0,1-.467-.313l-.411.982.5.209c.094-.317.338-.4.686-.341.044.2.09.4.159.711M35.89,109.554c-.113.881-1.026,1.484-1.165,2.455l1.224-1.065a4.45,4.45,0,0,1,1.245-1.583c.106.22.173.355.215.444a2.89,2.89,0,0,0-.382.619c-.315,1.045-1.092,1.857-1.434,2.886a.59.59,0,0,1-.239.262c-.307.2-.179.489-.175.751-.445.238-.489.717-.671,1.107-.2.429-.37.872-.562,1.33l.347.091,1.651-3.009-.065-.257c.134-.113.291-.186.354-.309.162-.315.26-.663.427-.975.156-.294.394-.545.547-.841a16.062,16.062,0,0,1,1.136-2.282,11.589,11.589,0,0,0,.856-1.944c.293-.62.65-1.21.959-1.823a8.9,8.9,0,0,0,.412-.982,2.379,2.379,0,0,0,.279-.979c-.057-.462.368-.532.5-.833A20.33,20.33,0,0,1,43,99.085a12.259,12.259,0,0,0,.734-1.684,8.052,8.052,0,0,1,.528-.852l-.057-.243a4.629,4.629,0,0,0,.426-.581c.572-1.166.968-2.4,1.647-3.537A22.8,22.8,0,0,1,47.888,89.6c.56-.049.56-.049.731-.616l-1.525-.312.428.645c-.051.123-.072.324-.182.408a2.189,2.189,0,0,0-.559.841c-.167.325-.415.607-.584.931a15.866,15.866,0,0,1-1.135,2.282,11.294,11.294,0,0,0-.856,1.943c-.307.649-.658,1.279-1,1.909-.239.435-.287.95-.707,1.321-.362.319-.306.937-.769,1.263a.511.511,0,0,0-.125.674c-.656.419-.432,1.4-1.138,1.757a1.121,1.121,0,0,1-.34,1.117,1.374,1.374,0,0,0-.263.369c-.437.831-.867,1.667-1.3,2.5l-.045-.092-.3.273c-.011-.387.085-.733-.387-.828a4.41,4.41,0,0,1-.583.958,1.8,1.8,0,0,0-.48,1.222c.035.7-.378.99-.879,1.385m-9.364,19.3-1.272,1.93L25,130.609a3.042,3.042,0,0,1,.413-.935,5.287,5.287,0,0,0,.807-1.473c.158-.331.219-.7.578-.947.187-.13.209-.5.315-.781l-.338-.062a10.2,10.2,0,0,1-.779,1.4,8.2,8.2,0,0,0-.706,1.584c-.258.53-.584,1.026-.848,1.554-.523,1.046-1.024,2.1-1.534,3.156-.027.059-.04.163-.077.171-.519.116-.392.724-.789,1-.313.218-.375.794-.552,1.211-.17.4-.513.674-.69,1.094-.5,1.2-1.1,2.352-1.66,3.524-.014.029-.017.068-.039.087-.681.6-.734,1.511-1.153,2.22l.317.284c-.132.315-.271.607-.376.911-.1.281-.338.532-.258.9.134-.012.272.012.3-.033a6.053,6.053,0,0,0,.544-.734,26.061,26.061,0,0,1,1.873-4.07,18.5,18.5,0,0,0,1.247-2.432,5.175,5.175,0,0,1,.895-1.641,2.442,2.442,0,0,0,.446-.566c.363-.657.7-1.327,1.049-1.993.045-.085.056-.239.116-.258.423-.134.375-.563.556-.844a9.918,9.918,0,0,0,.591-.926c.55-1.105,1.077-2.222,1.611-3.335.027-.058.033-.145.078-.174.534-.344.517-.994.823-1.46a9.96,9.96,0,0,0,.828-1.457,9.539,9.539,0,0,1,1.421-2.914c-.036-.2-.062-.344-.09-.494-.109.054-.157.062-.163.083-.5,1.557-1.457,2.9-2.06,4.407a3.225,3.225,0,0,1-.246.385c-.156.267-.3.544-.462.806s-.363.488-.509.752c-.044.081.039.231.043.25m3.224-9.1c-.453,1.082-.87,2.079-1.286,3.076l.2-.032-.064.43a11.412,11.412,0,0,0,.808-1.175c.3-.583.562-1.174.915-1.739.5-.794.715-1.739,1.277-2.527.349-.489.412-1.162.951-1.606l-.395-.165c-.12.287-.237.568-.355.848l-.173-.272c-.056.138-.11.275-.164.411-.082-.2-.119-.289-.161-.393.086-.063.234-.113.255-.2.2-.783.833-1.334,1.092-2.082.032-.091.05-.228.116-.26.468-.229.442-.743.667-1.11s.471-.722.664-1.1c.2-.4.355-.83.469-1.1l.425-.49c-.394-.239-.617.042-.873.121a1.49,1.49,0,0,0-1.068.956c-.044.13-.208.214-.289.338a14.777,14.777,0,0,0-1.352,2.177,19.057,19.057,0,0,0-1.345,2.663l-.4-.024c-.434.76-.526,1.664-1.185,2.277C28.12,120,27.27,121,26.841,122.2a.591.591,0,0,0,.007.194l.247.079,2.32-4.289.316.238-.563,1.344.582-.009m.256-8.058.9.378.125-.984,1.236-.931a3.2,3.2,0,0,1,.392-1.8,5.008,5.008,0,0,0,.522-.862c.014-.029-.053-.1-.123-.222l-.419.276-.384-.161c-.087-.559.5-.5.7-.775a.871.871,0,0,0-.1-.289c-.141-.153-.36-.256-.449-.43a6.586,6.586,0,0,1-.165-.708,17.357,17.357,0,0,1-.734-2.867c-.011-.06-.138-.1-.246-.172l-.453,1.083c.262.64.53,1.291.817,1.991-.788-.173-.856-.833-.982-1.456l-.429.392c-.083.358-.146.619-.2.881s-.111.531-.162.775l-.376.439c.208.683.4,1.3.584,1.918l.433-.166c.149-.356.308-.735.467-1.117l.465.195a.936.936,0,0,1-.455.76c.133.591-.3,1.016-.465,1.515-.083.246-.471.469-.439.655.082.486-.277.691-.435,1.029-.583,1.25-1.085,2.537-1.673,3.943.26-.186.4-.272.521-.379a.75.75,0,0,0,.152-.227c.444-.866.886-1.733,1.376-2.691m4.421-22.22c.018.111.1.265.049.344-.224.368-.168.882-.65,1.128-.168.086-.064.4-.092.6a3.718,3.718,0,0,1-.659,1.208c-.495.875-.836,1.828-1.325,2.721A16.545,16.545,0,0,0,30.141,98.7c-.027.093-.049.228-.115.261-.464.232-.388.8-.684,1.093a4.052,4.052,0,0,0-.695,1.207c-.239.469-.281,1.046-.775,1.381a.409.409,0,0,0-.144.346c.116.429-.176.772-.144,1.2l.36-.636.293.416-.37.243c.021.167.046.352.1.737.183-.439.222-.813.417-.934.322-.2.062-.49.241-.7a4.349,4.349,0,0,0,.6-.918c.671-1.369,1.116-2.831,1.92-4.156.77-1.27,1.1-2.767,1.909-4.05.673-1.064.97-2.325,1.632-3.432.827-1.385,1.161-3.028,2.075-4.4a8.662,8.662,0,0,0,.645-1.5l.59-.244.45.189c-.047.182-.162.368-.111.474a2.264,2.264,0,0,1-.019,1.734c-.011.151-.021.3-.042.585.6-.881.617-1.826,1.306-2.4-.029-.214-.056-.418-.081-.607l-1.575-.658-.75.475a8.072,8.072,0,0,1-.628,1.086,20.154,20.154,0,0,0-1.257,2.426c-.17.347-.288.721-.458,1.068a3.046,3.046,0,0,1-.4.488M56.235,62.848l2.46.694.268-.641-.422-.238c-.011-.236-.021-.474-.03-.688l.309-.15-.367-.545-.639,1.308-.416-.174c-.014-.186-.029-.365-.053-.677.083-.2.217-.519.385-.92l-.791-.089-.343.821c-.532.312-.787-.1-1.055-.128-.414-.647.219-.877.4-1.272l-.337-.141-.388.928a1.647,1.647,0,0,0-.3.154.872.872,0,0,0-.143.2l-.625-.146A9.893,9.893,0,0,1,55.762,63a5.286,5.286,0,0,1-1.537-.679,2.534,2.534,0,0,0-1.666-.65c-.094-.009-.2.116-.363.218.94.557,1.787,1.058,2.63,1.565.043.026.057.1.081.147-.052.122-.1.24-.14.335l-.708.138a2.273,2.273,0,0,1-.019.59c-.328,1-1.106,1.775-1.375,2.8-.477.171-.455.661-.626,1.017a9.648,9.648,0,0,1-1.112,1.606c.064.182.135.385.213.6l-.386.469a.849.849,0,0,0,1-.517,6.173,6.173,0,0,1,.726-1.3c.325-.394.476-.922.779-1.371a20.024,20.024,0,0,0,1.293-2.517c.194-.4.347-.821.533-1.264.727.357.677-.508,1.056-.57.036-.293.064-.525.094-.777M10.471,141.726a12.256,12.256,0,0,1,.88-2.028,11.675,11.675,0,0,0,.944-1.836c.293-.683.575-1.372.862-2.057.012-.03.017-.075.039-.087.1-.055.215-.1.338-.157a.645.645,0,0,1,.355-.931c-.033-.168-.058-.287-.059-.295a6.229,6.229,0,0,0,.5-.861c.421-1.127.808-2.266,1.223-3.4a2.335,2.335,0,0,1,.619-1.028c.325-.287.1-.787.29-1.15.056-.106.157-.186.214-.29.146-.268.286-.54.411-.817.028-.062-.044-.17-.014-.228.347-.654.35-.652.271-1.188-.62,1.058-.906,2.234-1.572,3.262a28.581,28.581,0,0,0-1.787,3.678c-.324.7-.542,1.464-.919,2.135s-.249,1.534-.859,2.1l.1.269a3.2,3.2,0,0,0-.439.567c-.822,1.764-1.627,3.535-2.436,5.305-.081.176-.1.431-.234.523-.468.321-.475.878-.743,1.292a7.848,7.848,0,0,0-.788,1.372,3.893,3.893,0,0,1-.88,1.651c-.1.092-.125.277-.192.436l.374.157a11.011,11.011,0,0,1,.89-1.727,8.925,8.925,0,0,1,1.15-1.819,5.689,5.689,0,0,0-.23.7,3.361,3.361,0,0,0-.007.532c-.369.125-.406.472-.534.75a7.006,7.006,0,0,0-.333.807c-.092.29-.6.32-.449.753l.3.127c.292-1.067,1.1-1.846,1.412-2.894a3.112,3.112,0,0,1,.536-1.236,8.242,8.242,0,0,0,.975-1.87l-.214-.52M50.082,74.4c-.006-.541.526-.929.056-1.356l-1.41-.02c.4.384.676.651.947.928.028.029,0,.116-.011.247l-.716.186c-.512.954-.877,2.063-1.467,3.084-.56.97-.99,2.032-1.592,3.031l-.864.17c.062.154.112.273.182.445.4-.019.728.531,1.262.16a11.911,11.911,0,0,0,.6-1.478c.155-.572.67-.911.833-1.455.366-1.226,1.2-2.213,1.641-3.4l.477.14,1.261-1.517c0-.072-.031-.214.023-.3.074-.122.281-.185.315-.306.3-1.051,1.07-1.865,1.432-2.883.243-.681.846-1.177,1-1.907.007-.03.019-.076.04-.084.506-.2.43-.747.665-1.108s.454-.73.669-1.1a1.762,1.762,0,0,0,.067-.424,6.892,6.892,0,0,0-.639.818c-.405.744-.778,1.5-1.162,2.259-.03.058-.036.157-.078.173-.471.182-.379.718-.642,1.009a3.774,3.774,0,0,0-.632,1.018,7.125,7.125,0,0,1-.515.833c.022.118.044.236.071.375-.541.189-.428.791-.733,1.07-.369.338-.462.8-.782,1.044l-.3.358m-15.96,26.752L33.4,100.1l-.76.942-.087-.044.58-1.388-.385-.43c-.409.529-.371,1.23-.953,1.555.1.766.154,1.518.307,2.25s.405,1.447.617,2.18l.838-.535c.149-.357.3-.713.448-1.07a1.818,1.818,0,0,0,.244-1.071.318.318,0,0,1,.109-.26c.452-.314.519-.842.743-1.283a3.305,3.305,0,0,0-.839-1.3c-.059-.058-.2-.03-.35-.046a1.5,1.5,0,0,0,.442,1.016l-.227.544m5.846-15.863a1.247,1.247,0,0,1-.389,1.178c-.1.114-.059.176-.084.271a18.4,18.4,0,0,0-.35,2.508,9.216,9.216,0,0,0,.175,2.771c.043.223.05.6.471.64l.931-2.227-.158-.4-.712-.3c-.206-.4-.126-.653.249-.8l-.382-.549c.072-.172.121-.289.167-.4l.369-.151c.585.813.626.832,1.335.635-.164-.235-.322-.46-.525-.753l-.69-.288c0-.205,0-.372,0-.531l.284-.116c.633-.04.88.782,1.556.726q.108-.68.2-1.254l-2.025-1.14-.419.172M38.292,96.276c-.519-.2-.661-.622-.928-.951-.29-.36-.088-.933-.642-1.183l-.334.62c.273.667.58,1.416.871,2.122-.674-.081-.617-.927-1.15-1.384a7.438,7.438,0,0,0-.546,1.37c-.058.3.137.648.188.978a1.979,1.979,0,0,1-.047.487l-.75-.551c-.084.446-.151.794-.217,1.143l.135-.063c.149.364.3.728.446,1.086l.2-.083c.3-.531.579-1.085.917-1.6a1.688,1.688,0,0,1,.623-.5,4,4,0,0,1,.712-.245l.52-1.244m-17.978,38c-.182.435-.332.827-.509,1.207a6.673,6.673,0,0,0-.5,1c-.086.318-.525.5-.346,1.013.22-.126.4-.224.57-.327a3.114,3.114,0,0,0,.9-1.239c.456-.744.7-1.608,1.207-2.348.405-.585.522-1.328,1-1.914a7.8,7.8,0,0,0,.665-1.5c.249-.5.554-.966.823-1.427l-.166-.405-.432.166a4.957,4.957,0,0,1-.547,1.242,5.644,5.644,0,0,0-.893,1.263c-.205.481-.526.911-.766,1.378-.176.344-.3.712-.364.856-.051.427-.076.632-.1.808l-.545.224M46.283,86.968c-.024-.366-.04-.6-.056-.837-.326.2-.551-.043-.8-.14a1.665,1.665,0,0,1,.3-1.234l.744-.172L44.7,83.846l-.278-.677.841-.344.842.208-.173-.512-1.47-.217-.576.383-1.223-.723-.144.186.8.748-.2.482.966.4a1.251,1.251,0,0,1-.717,1.487c.106.426.42.487.759.574l.3-.709.676-.324c.058.14.107.259.178.433l-.525.888.1.231,1.445.6M53.374,71.3c-.436.439-.547,1.09-1.05,1.5-.313,1.077-1.154,1.895-1.426,2.938a2.063,2.063,0,0,0-.543.29,3.3,3.3,0,0,0-.525.74A14.707,14.707,0,0,1,48.5,79.5c-.29.364-.276,1.023-.608,1.29-.392.314-.326.886-.817,1.1a.657.657,0,0,0-.242.6c.164.467-.154.71-.41.994l.268.112a3.212,3.212,0,0,0,.486-.51c.151-.244.211-.543.352-.8.132-.235.389-.418.465-.663a28.613,28.613,0,0,1,1.594-3.239,2.1,2.1,0,0,1,1.105-1.239,36.782,36.782,0,0,1,1.613-3.376A13.7,13.7,0,0,0,53.374,71.3M41.24,83.253c.389-.072.591-.233.6-.547l-2.506-1.588-.438.16c-.179.427-.353.843-.526,1.259l-.081-.049-.355.578,1.273.532.866-.838c.032.284.067.592.115,1.022l.825-.862.223.335M12.4,156.707a14.394,14.394,0,0,1,.786-1.456c.5-.828.784-1.768,1.306-2.609a16.116,16.116,0,0,0,1.062-2.478c.013-.031-.06-.1-.129-.2l-.476.151c-.725,1.93-1.975,3.547-2.871,5.55l.159.192-.384.624.547.229m14.289-45.183.176.4a.639.639,0,0,0,.692-.46,2.4,2.4,0,0,1,.5-.534l.073.063c-.308.734-.615,1.47-.914,2.184.186.306-.092.812.443.922.513-.833.617-1.822,1.25-2.542-.07-.322.074-.734-.433-.917-.162-.058-.2-.48-.279-.74-.048-.147-.078-.3-.1-.4l-.474-.2c-.319.765-.626,1.5-.931,2.225m10.98-16.972,1.717-.91c-.2-.467-.443-.959-.609-1.478-.154-.486-.221-1-.33-1.516a6.108,6.108,0,0,0-1.1,1.858,1.555,1.555,0,0,0,0,1.257c.1.238.2.478.324.789M15.706,134.684c-.008.287-.322.517-.206.913l3-1.7c-.176-.915.881-1.152,1.33-1.919a6.2,6.2,0,0,0-3.419,2.426l-.706.284m10.338-22.156c-.312.749-.641,1.552-.987,2.348a2.081,2.081,0,0,1-.343.541c-.458.519-.441,1.312-1.027,1.757a.319.319,0,0,0-.108.261c.126.529-.182.86-.5,1.2-.052.055-.04.17-.08.362.344-.335.622-.59.88-.863a1.344,1.344,0,0,0,.173-.334q.652-1.309,1.3-2.618c.029-.058.036-.156.078-.173.427-.167.4-.62.6-.926s.419-.6.576-.823c-.073-.364-.128-.633-.185-.915l-.377.186m-.376,5.292a6.339,6.339,0,0,0,.6-.826,5.471,5.471,0,0,1,1.046-1.87c-.176-.333-.336-.637-.5-.939-.012-.021-.056-.025-.13-.056a13.728,13.728,0,0,0-.9,1.58c-.243.583-.895.967-.839,1.749l.429-.058.293.42m-9.859,13.154.165.108a9.086,9.086,0,0,1,.369-.866c.144-.265.391-.479.508-.752.713-1.661,1.4-3.332,2.095-5,.014-.032-.058-.1-.125-.205l-.5.157c-.2.744-.729,1.362-.683,2.174a1.241,1.241,0,0,0-.627,1.1,6.756,6.756,0,0,1-.613,1.873c-.175.48-.389.944-.586,1.415M3.575,154.759a5.871,5.871,0,0,0,.666.648c.348.246.734.44,1.166.693l.407-.3c.048-.113.157-.373.263-.629a6.564,6.564,0,0,0-2.119-1.326l-.382.915M10.489,144.2l-.109-.061c-.043.042-.108.076-.124.126-.43,1.373-1.289,2.542-1.829,3.862-.036.09-.06.246-.114.257-.5.1-.374.671-.714.943-.31.249-.391.779-.589,1.176-.163.328-.209.7-.581.94-.238.151-.175.486.043.855a6.254,6.254,0,0,1,.308-.717c.119-.205.314-.366.436-.571.3-.514.358-1.149.8-1.606s.408-1.186.956-1.571Zm15.959-23.583c.4-.948.794-1.932,1.221-2.9a9,9,0,0,1,.549-.941l-.154.094c.022-.157.044-.316.084-.592a10.194,10.194,0,0,0-1.366,2.558c-.978.633-1.04,1.663-1.507,2.618l1.174-.834m9.038-11.491c.119-.793.955-1.238.956-2.137-.677.047-.976.614-1.5.831-.094.679-.9,1.031-.876,1.8.025.022.045.055.07.059.576.106.793-.6,1.353-.549M36.1,89.483l-.2-.045c-.421,1.376-1.381,2.489-1.82,3.857a.882.882,0,0,1-.366.527c-.132.085-.04.461-.14.661-.163.325-.127.787-.579.934a13.983,13.983,0,0,0-.842,2.257c.413-.555.648-1.2,1.012-1.779a31.465,31.465,0,0,0,1.673-3.4c.246-.526.452-1.07.676-1.606l.586-1.4m7.019,2.085a4.109,4.109,0,0,0,.824-.775c.423-.693.764-1.438,1.133-2.165.084-.166.146-.344.2-.479l.512-.2-.384-.437-.338.138-.8,1.923-.731.183c-.03.353.132.649-.255.884-.221.134-.29.519-.423.782l.264.149m1.49-13.622c-.233.588-.845.976-1,1.631-.58.427-.594,1.132-.99,1.777.525,0,.725-.389,1.02-.384.368-.658.43-1.4.966-1.822,0-.429,0-.815.007-1.2m-22.916,51.1c.388-.26.631-.411.861-.581a.924.924,0,0,0,.313-.312c.272-.606.519-1.223.854-2.022l-1.086.661-.942,2.253m-2.511-3.013c.147-.112.226-.14.238-.186.247-.934.989-1.619,1.275-2.532.019-.062.033-.155.077-.174.576-.252.432-.747.408-1.2-.016-.3-.046-.59-.069-.886l-.367.151.212.6c-.192.225-.477.4-.485.59a10.621,10.621,0,0,1-.972,2.772c-.083.262-.187.516-.316.87M45.249,75.655a4.317,4.317,0,0,1,.607-1.042,4.1,4.1,0,0,0,.582-1.312c.17-.438.582-.707.726-1.181A3.184,3.184,0,0,1,48,70.567c.055-.049.045-.169.052-.2l-.345.046-1.566,3.106c-.042.083-.067.208-.135.24-.442.211-.408.692-.605,1.037-.214.373-.608.635-.67,1.1-.007.05.03.106.047.159l.473-.4M42.3,80.619a3.234,3.234,0,0,1,.162-1.331c.265-.587.5-1.185.747-1.781a3.564,3.564,0,0,0,.1-.493c-.4.664-.748,1.175-1.023,1.724-.287.572-.5,1.18-.746,1.759l.157.383.6-.259M13.277,149.17l-.169-.207c-.593.127-.88.778-1.476.9-.005.325-.009.589-.013.885l.9-.411.759-1.169m23.48-44.623c.864-.359,1.74-.547,1.855-1.649-.671-.073-.969.541-1.483.758l-.373.891M15.6,144.99l.512.214a5.859,5.859,0,0,0,1.144-2.307,4.81,4.81,0,0,1-.474.319c-.354.173-.4.541-.563.835-.178.313-.4.6-.62.94M35.806,106.4c.567.132.873-.236,1.188-.488a1.45,1.45,0,0,0,.534-1.09,2.394,2.394,0,0,0-1.723,1.578M20.7,118.2l.533-.143c-.229-.273.084-.287.143-.415.267-.586.483-1.2.76-1.777.268-.559.591-1.091.883-1.639.021-.038-.023-.109-.037-.166l-.373.153c-.256.612-.516,1.235-.776,1.857-.113.268-.15.643-.35.782-.483.331-.459.863-.782,1.348M37.846,87.636a1.022,1.022,0,0,0-.594,1.158.782.782,0,0,1-.036.539,1.927,1.927,0,0,0-.163.446,2.066,2.066,0,0,0,.033.355,2.322,2.322,0,0,1-.04.322l.1.011.83-1.986c-.043-.28-.078-.519-.128-.845M28.72,123.22a3.26,3.26,0,0,0-1.48,2.364l0,.364a7.587,7.587,0,0,0,1.483-2.728m-4.331.341a2.207,2.207,0,0,0,1.518-1.943l-.935.547-.583,1.4m-7.44,23.858c-.473-.059-.775.011-.788.359a.941.941,0,0,1-.243.576,4.151,4.151,0,0,0-.375.852l.263.109c.691-.408.746-1.181,1.143-1.9m-5.578,4.014c-.284.341-.494.559-.661.805-.094.139-.247.349.153.471l.928-.546.349-.966-.769.236m12.338-26.694-.452,1.079c.254-.046.5-.017.576-.117a2.561,2.561,0,0,0,.825-1.53c-.5-.049-.611.5-.95.569m31.765-67.5-.645.4,1.01.973c.058.024.293.128.534.216.035.013.1-.055.205-.119-.046-.154-.1-.326-.147-.486l-.8-.334c-.033-.136-.078-.322-.157-.649M33.625,106.494c.065-.843.068-.84.73-1.289.05-.033.031-.169.016-.068l-1.461.589.324.63.392.138m12.356-18.55c.035.309.061.542.079.7-.309.446-.81.7-.829,1.274l.272.113,1.2-1.788-.72-.3M12.64,152.181c.12-.8.918-1.24,1-2.069l-.328-.138c-.121.8-.918,1.241-1,2.069l.328.138m11.833-23.29c.4.629-.608.791-.5,1.358l.306.07c.205-.491.385-.973.606-1.435s.477-.883.741-1.368l-.347-.033c-.317.455-.281,1.084-.809,1.408m4.8-13.148c-.019-.267-.04-.557-.059-.829l.294-.134-.147-.358a1.849,1.849,0,0,0-.833,1.28l.3.423.449-.382M43.736,86.812l-.45-.232c-.269.317-.68.5-.62,1.068l.718.005.351-.842m3.317-.3-.264.63.138.336c.22.092.455.2.695.285.033.012.091-.04.12-.055l-.358-.493c.081-.27.15-.5.248-.821l-.579.117M21.526,118.448a4.126,4.126,0,0,0,1.217-2.363c-.2.285-.243.721-.48.895-.528.385-.474.991-.737,1.468M49.648,72.181l.827.346c.327-.11.544-.258.452-.588l-.626-.262-.654.5M38,94.852c0,.2,0,.441,0,.7l.731-.255c.109-.311.2-.569.312-.882l-.882.362c-.03.012-.058.026-.158.071m3.266.448c.712-.213,1.191-.88.9-1.224l-.439.122c-.149.356-.281.671-.461,1.1M11.552,157.884l-.527-.269-.17.249a3.853,3.853,0,0,0-.709.024c-.1.02-.157.2-.337.44.661-.144,1.21.172,1.742-.443m10.186-36.759c.373-.333-.086-.411-.059-.547a2.235,2.235,0,0,1,.331-.6c-.03-.067-.08-.174-.119-.261l-.763.5.066.7.443-.039.1.243m18.59-23.373c.528-.3.639-.817.845-1.3l-.455-.19c.249.651-.875.712-.389,1.495M14.784,148.509l-.453-.234c-.189.2-.359.357-.509.536-.051.062-.049.166-.1.354l.781.007c.107-.255.18-.43.278-.662M29.6,113.629l.507.211c.119-.285.226-.541.331-.791l-.147-.36-.36.147-.331.791m17.6-21.585-.148-.071c-.157.377-.292.766-.479,1.127s-.433.706-.665,1.077l.341.142c.322-.77.637-1.523.952-2.276m-8.463,9.028-.36.147-.528,1.261.716-.316.171-1.093m.823-1.227a14.818,14.818,0,0,0,.539-1.407l-.458.188a14.771,14.771,0,0,0-.539,1.407l.458-.188m2.6-8.776-.425.174c-.2.481-.392.936-.6,1.432l.425-.175.6-1.432m-16,32.364-.559,1.336.835-.6c.027-.36.045-.613.065-.878l-.341.14m-.965,3.323c-.217-.22.217-.653-.363-.759a7.19,7.19,0,0,0-.467,1.349c.315-.224.533-.38.829-.59M43.165,92.14l-.767.489-.385.919.781-.519c.108-.26.217-.519.371-.889m-7.274,8.4c-.1.239-.2.465-.289.695s-.177.48-.3.807c.729-.287.657-.91.968-1.343l-.381-.16M40.3,95l-.847,1.013c.06.146.109.265.158.385A1.445,1.445,0,0,0,40.3,95M6.684,155.387l-.309.65.365.512.405-.97-.461-.192m54.5-108.374-.142-.075c-.158.378-.328.75-.471,1.134a2.508,2.508,0,0,0-.334,1.2l.947-2.263M2.329,160.153a1.708,1.708,0,0,0-.871,1.275l.316.054.556-1.329m34.878-59.2.424-.174.449-1.074-.425.174-.449,1.074m-.389,1.317-.414.138-.344.825.414-.139.344-.824M26.026,126.185l.108.126c.091-.191.186-.381.273-.574a4.177,4.177,0,0,1,.227-.523,5.176,5.176,0,0,1,.5-.557l-.571.235c-.179.427-.36.861-.541,1.293M9.941,151.58l.75-.307.138-.452-.589.046-.3.714m9.24-28.586-.361.863.3.124.36-.863-.3-.124M38.9,98.4a4.479,4.479,0,0,0,.373-1.211L38.5,98.234l.4.168M11.727,154.253c-.5.021-.722.211-.815.617.538-.05.538-.05.815-.617M33.652,97.507c-.274.546-.274.546-.086.963.122-.291.238-.568.355-.85l-.269-.113m1.973-4.058-.151.014-.244,1.3.089.025q.211-.5.42-1.005l-.108.027-.007-.36M15.3,147.179c-.363-.067-.607-.046-.722.331l.534.224c.066-.2.121-.36.187-.555m.569-.968-.156-.261-.542.039.277.58.421-.358M41.121,93.406c-.523.286-.524.285-.567.836.426-.074.484-.411.567-.836M16.949,146.483c.385.034.656.021.686-.51-.307.091-.607,0-.686.51m22.288-44.8.151.055c.157-.377.317-.753.468-1.132.008-.021-.059-.072-.112-.133l-.506,1.21m-33,47.228-.212.507.3.125c.072-.174.139-.333.212-.507l-.3-.125M47.625,74.332c.071.26-.378.489.173.668l.211-.506-.384-.161M20.206,122.039l-.091-.2-.545.13.171.433.465-.366m-9.811,37.843c.075-.179.15-.358.233-.559l-.347-.069-.163.512.277.116M42.213,90.775a.526.526,0,0,0,.065-.806.552.552,0,0,0-.065.806m-17.86,20.141-.062-.1-.449,1.074.087.042.424-1.014m11-7.64-.673-.281c.013.228.024.42.035.633l.638-.352m-12,28.345a1.179,1.179,0,0,0,.423-1.011l-.423,1.011m-.07-15.954c.059-.229.1-.394.176-.684l-.6.43.419.254m2.522-8.183-.151-.056c-.107.258-.218.515-.318.775-.008.021.059.072.112.133.124-.3.24-.575.357-.852M48.668,68.893c-.155.265-.539.455-.373.893l.373-.893M9.037,157.44l.358.677.3-.4-.657-.274M61.043,57.2c-.4.224.03.558-.135.821.406-.227.279-.515.135-.821M26.175,106.6l-.154-.066c-.077.227-.154.453-.231.68l.112.04.274-.654M1.967,158.63l.154.067q.115-.341.231-.68l-.112-.04-.274.654m5.757-2.158c-.117.282-.167.4-.227.542l.412.082c-.059-.2-.1-.333-.186-.624M34.586,95.964,34.4,96a1.82,1.82,0,0,0,0,.322,1.236,1.236,0,0,0,.1.259l.152-.05c-.024-.19-.048-.38-.071-.57M21.539,127.539c.2-.1.491-.053.433-.457-.2.1-.49.053-.433.457M41.064,83.8l.041.428.152-.014c.046-.169.092-.338.151-.555l-.344.141M32.915,109.98c-.006-.145-.013-.291-.02-.436l-.155.017-.148.553.323-.133m20.67-39.094.158.052.228-.666-.113-.04-.273.654M11.148,155.571l-.09-.038-.224.538.089.037.225-.537M36.177,92.4l.159.065.137-.509-.1-.031-.2.475m.394,7.1.16.065q.067-.254.136-.509l-.1-.031c-.067.158-.133.317-.2.475m.553-12.345.089.037.225-.537-.09-.038-.224.538m-3.871,30.212-.443.017.027.112.308.129.108-.258m-1.457-19.02.163.057.132-.5-.1-.03-.2.475m-16.262,33.36.164.057q.065-.251.132-.5l-.1-.031-.2.475M6.35,150.161l.16.064q.067-.253.136-.508l-.1-.032-.2.476M40.856,98.64l-.163-.045c-.017.106-.034.213-.052.32l.09.021c.042-.1.083-.2.124-.3M54.988,59.486l.163.046.052-.321-.091-.021-.124.3M24.9,109.6l-.089-.037q-.075.179-.15.358l.089.037c.05-.119.1-.238.15-.358m-1.5,3.58-.09-.038-.15.358.09.037q.074-.179.15-.357m8.507-1.528.157.054c.02-.109.04-.217.06-.326l-.094-.024-.124.3m2.592-7.919-.089-.037q-.075.179-.15.358l.089.037q.075-.179.15-.358M5.737,150.116l.157.054c.021-.109.04-.217.06-.326l-.093-.024-.125.3M54.829,68.7l-.089-.038q-.075.179-.15.358l.09.037.149-.357M41.766,96.636l.157.054c.02-.109.04-.217.06-.326l-.094-.025c-.041.1-.082.2-.124.3m2.743-9.328-.059-.025-.075.179.06.024.075-.179M54.186,69.7l-.06-.024-.075.179.059.025.075-.179m-13.2,19.5-.06-.025c-.024.06-.049.119-.075.179l.059.025.075-.179M65.522,49.626l-.059-.025-.075.179.06.024.075-.179M61.9,56.1l.059.025.075-.179-.06-.025L61.9,56.1m-8.3,4.591-.025.059.179.075.025-.06-.179-.075M6.57,148.541l.025-.06-.179-.075-.025.059.179.075M33.146,109.12l-.025.06.179.075.025-.059-.179-.075M48,84.985l-.06-.025c-.025.06-.05.119-.075.179l.059.024L48,84.985M23.668,123.239l-.025.059.179.074c.008-.02.016-.04.024-.059l-.179-.075m26.3-47.808.025-.059-.179-.075-.024.06.179.075M27.983,105.209l-.06-.025c-.024.06-.049.119-.075.179l.059.024.075-.179m5.8-5.986.059.025.075-.179-.06-.024-.075.179" transform="translate(0 -9.73)" fill="#1a1311"/>
        <path id="パス_570" data-name="パス 570" d="M82.3,52.86l1.288.538c-.064.153-.122.292-.2.472l-.6-.13.468.811c-.319-.008-.545-.021-.771-.017a.46.46,0,0,1-.518-.3c-.125-.336-.011-.543.253-.637.026-.232.049-.437.082-.741" transform="translate(-19.636 -12.672)" fill="#1a1311"/>
        <path id="パス_571" data-name="パス 571" d="M83.03,51.7l.748-.09.4.519-.553.265-.6-.694" transform="translate(-19.904 -12.372)" fill="#1a1311"/>
        <path id="パス_572" data-name="パス 572" d="M18.441,172.51a3.5,3.5,0,0,0-.588.707,3.266,3.266,0,0,0-.109.875l-.531-.16c-.205-1.021.465-1.562,1.1-2.057a1.525,1.525,0,0,1,1.133-.511c.17.021.37-.193.551-.309a1.48,1.48,0,0,1,.978-.283c-.513.848-1.555,1.092-1.7,2.086l-.832-.348" transform="translate(-4.118 -40.937)" fill="#1a1311"/>
        <path id="パス_573" data-name="パス 573" d="M21.985,166.791l-.278.663c-.487.232-1.118.386-1.424,1-.509.15-.319.591-.368,1L19,169.127c.152-.817.794-1.17,1.362-1.543a13.871,13.871,0,0,1,1.626-.794" transform="translate(-4.554 -39.984)" fill="#1a1311"/>
        <path id="パス_574" data-name="パス 574" d="M5.828,201.4l-1.092.448-.785-.328a.834.834,0,0,1,.071-.262c.295-.419.623-.775,1.169-.49.655-.2.81-.834,1.213-1.229.253-.249.382-.62.614-.9a2.01,2.01,0,0,1,.568-.319c.127.812-.553,1.147-.74,1.705s-.772.846-1.018,1.373" transform="translate(-0.947 -47.543)" fill="#1a1311"/>
        <path id="パス_575" data-name="パス 575" d="M32.819,159.4c-.091.219-.182.436-.274.654l-.114-.039c.077-.224.153-.449.23-.671l.158.056" transform="translate(-7.774 -38.197)" fill="#1a1311"/>
        <path id="パス_576" data-name="パス 576" d="M12.9,175.093c.055.414-.243.353-.433.468-.055-.414.243-.353.433-.468" transform="translate(-2.986 -41.974)" fill="#1a1311"/>
        <path id="パス_577" data-name="パス 577" d="M38.412,129.647l-.211.5c-.042-.366-.042-.366.211-.5" transform="translate(-9.153 -31.079)" fill="#1a1311"/>
        <path id="パス_578" data-name="パス 578" d="M34.2,42.987q-.058.669-.117,1.34a10.24,10.24,0,0,0-.171,1.082,3.452,3.452,0,0,1-.224,1.175,2.989,2.989,0,0,0-.164,1.506c.078.428-.3.671-.211,1.086.072.331-.188.741-.1,1.062.124.458-.252.709-.252,1.086a14,14,0,0,1-.076,3.13c-.14,1.175-.325,2.34-.579,3.5-.128.586-.306,1.173-.385,1.781a7.008,7.008,0,0,1-.457,1.712,6.718,6.718,0,0,0-.306,1.787,3.249,3.249,0,0,1-.448,1.194c.032-.639.05-1.28.1-1.919a1.71,1.71,0,0,1,.2-.537,5.13,5.13,0,0,0,.37-2.06c.013-.478.107-.953.123-1.442-.177.311-.482.578-.312,1-.3.495-.209,1.1-.449,1.609a4.786,4.786,0,0,0-.381,1.793c-.03.461-.443.841-.293,1.343a10.59,10.59,0,0,0-.715,2.241,12.269,12.269,0,0,0-.342,1.4l-.5-.03c.012.2.023.383.035.594l-.626.312c.061.2.123.408.191.631-.254.468-.775.794-.978,1.425l1-.458.515.215-.258.618a2.145,2.145,0,0,1-.766.225c-.255,0-.512.3-.651.391l-3.042-.437c-.03.335-.059.651-.094,1.032l1.6-.246A1.846,1.846,0,0,0,26.8,72.3a1.435,1.435,0,0,1,.147.359.312.312,0,0,1-.068.185l-.686.279a4.547,4.547,0,0,1-.338.562c-.419-.167-.547.428-.982.325a5.16,5.16,0,0,0-2.059-.118,4.612,4.612,0,0,1-.982-.144c-.453-.033-.929-.373-1.336-.29-.482.1-.807-.406-1.27-.172-.1.049-.292-.1-.439-.16-.538-.224-1.072-.454-1.612-.671-.523-.211-1.067-.388-1.245-1.01l-.425.1c-.488-.531-.915-.528-1.822-.341-.98-.764-1.01-.845-.875-2.449a2.418,2.418,0,0,1,.536-.433.709.709,0,0,0,.506-.542c-.053-.052-.119-.113-.271-.258.068-.647.132-1.386.233-2.12.025-.184.112-.335.024-.542a2.718,2.718,0,0,1,0-1.518,2.975,2.975,0,0,0-.147-2.074c.249-1.285-.136-2.722,1.213-3.55-.063-.278-.128-.566-.207-.913-.741.276-.793,1.191-1.479,1.319l-1.545-.352c-.289-.633-.6-1.232-.182-1.9l.379-.155c.4.537,1.234.555,1.48,1.472.282-.528.807-.511.985-.982.042-.11.389-.1.634-.163.054-.127.127-.3.224-.534l-.325-.612-.646-.271-.668.464a1.975,1.975,0,0,0-.057-1.527,15.238,15.238,0,0,0,.229-2.06,7.89,7.89,0,0,0,.144-.985,5.793,5.793,0,0,1-.049-.715c.106-.514.268-1.018.417-1.523a3.869,3.869,0,0,1,.173-.421,1.809,1.809,0,0,1,.02-1.107,17.477,17.477,0,0,0,.405-2.233,9.588,9.588,0,0,1,.274-1.343,4.7,4.7,0,0,0,.319-1.429c-.051-.465.294-.788.207-1.264-.071-.385.217-.823.27-1.248.173-1.384.673-2.707.711-4.118.011-.419.3-.785.316-1.253a9.763,9.763,0,0,1,.461-1.7,18.949,18.949,0,0,1,.488-2.237c-.182-.353.138-.6.2-.9.052-.267.074-.54.132-.805a7.362,7.362,0,0,0,.289-1.254,3.092,3.092,0,0,1,.177-.9c.085-.254.077-.538.138-.8a11.664,11.664,0,0,0,.508-2.687c0-.09.073-.177.092-.269.072-.36.389-.627.271-1.082-.074-.285.381-.591.175-.978-.01-.018.024-.058.034-.088.242-.746.494-1.489.721-2.239.1-.319.141-.655.206-.984s.411-.587.238-.989c-.036-.086.081-.232.112-.354.094-.363.426-.657.325-1.074-.093-.382.3-.642.2-1.085-.071-.306.257-.706.4-1.042-.049-.291-.1-.563-.165-.963a7.316,7.316,0,0,0-.639,1.393,4.135,4.135,0,0,0-.359,1.248c-.033.444-.328.87-.1,1.342a5.763,5.763,0,0,1-.268.629c-.511.894-.532,1.954-.984,2.866a4.508,4.508,0,0,1-.532,1.792,9.439,9.439,0,0,0-.208.983,3.865,3.865,0,0,0-.262.986,5.677,5.677,0,0,1-.4,1.546l-.315-.02a.614.614,0,0,0-.122.13,2.029,2.029,0,0,0-.218.985c.01.332-.4.592-.233.984-.465,1.118-.294,2.358-.741,3.509a13.481,13.481,0,0,0-.579,2.853,7.445,7.445,0,0,1-.19.893,9,9,0,0,0-.169.894c-.128.776-.325,1.539-.419,2.326a11.565,11.565,0,0,1-.369,1.519,4.578,4.578,0,0,0-.187.99,2.4,2.4,0,0,1-.268,1.167,1.291,1.291,0,0,0-.089.623,15.694,15.694,0,0,1-.293,1.793c-.132.81-.356,1.609-.451,2.42-.091.775-.245,1.54-.3,2.324-.045.626-.269,1.244-.345,1.882-.1.809-.239,1.613-.363,2.418.268.4-.166.695-.179,1.074a9.531,9.531,0,0,1-.355,1.692c-.391-.037-.475-.29-.4-.54.345-1.112.177-2.306.572-3.405a9.955,9.955,0,0,1,.16-2.6c.049-.926.135-1.857.238-2.773.081-.709.287-1.435.439-2.152.222-1.045.369-2.1.649-3.141.172-.64.251-1.313.4-1.969a12.9,12.9,0,0,0,.358-1.877c.054-.728.3-1.413.341-2.145.025-.43.26-.877.323-1.343a5.878,5.878,0,0,0,.274-1.251,8.039,8.039,0,0,1,.246-1.434A2.275,2.275,0,0,1,15.9,28.7c0-.891.563-1.679.473-2.6-.022-.227.206-.468.274-.715.055-.2-.01-.439.069-.621a5.286,5.286,0,0,0,.309-1.616,1.051,1.051,0,0,1,.088-.357,3.431,3.431,0,0,0,.414-1.524,5.033,5.033,0,0,1,.534-1.773l-.234-.368a4.17,4.17,0,0,0,.354-1.353c-.026-.411.409-.75.315-1.257-.045-.239.2-.532.31-.8.69-1.613,1.052-3.348,1.836-4.927a2.858,2.858,0,0,0,.118-.847l4-1.287a2.306,2.306,0,0,1,.306-1.79l.687-.047c.059.216.119.44.2.737l.423.239-.519.226-.254.608c.418.123.8.217,1.175.351a7.4,7.4,0,0,1,1.248.53c.508.3,1.1.217,1.617.452a9.334,9.334,0,0,0,1.6.317c.744.2,1.5.246,2.263.4.084-.2.168-.4.29-.693l-.739.442a1.821,1.821,0,0,1-.246-.524,2.522,2.522,0,0,1,.11-.636,4.844,4.844,0,0,1-.572-.067,4.1,4.1,0,0,1-.5-.2c0,.3.008.5.011.727l-.463.138c-.016-.337-.033-.68-.048-1.01a1.5,1.5,0,0,0-1.272-.325c-.028.19-.054.364-.079.538s-.052.347-.058.392l-.4.4a1.584,1.584,0,0,1-.065-1.6l-2.472-.8c-.041-.23-.076-.424-.127-.706l.94.393a12.916,12.916,0,0,0,.625-1.412,6.281,6.281,0,0,0,.571-1.435,1.237,1.237,0,0,1,.4-.937c.275-.22.208-.68.591-.937.291-.2.4-.661.611-1.039L30.3,1.239l-.756.208a2.237,2.237,0,0,1-.5,1.451,1.749,1.749,0,0,0-.462,1.5c.007.024-.027.058-.034.089-.073.309-.578.39-.475.741.109.373-.148.6-.214.947l-.687.192c-.47-.227-.47-.227-.372-.952L25.925,6.6c-.121-.729.278-1.278.242-1.9-.008-.151.317-.3.377-.48.233-.715.757-1.324.718-2.146-.012-.262.205-.535.335-.845a3.252,3.252,0,0,0,.824-.509A1.469,1.469,0,0,1,29.765.334a2.2,2.2,0,0,0,.89-.083A7.963,7.963,0,0,1,32.816,0c.341-.036.716.233,1.026.346.606.666,1.01,1.482,1.918,1.648a10.2,10.2,0,0,0,1.061,1.4,1.024,1.024,0,0,1,.35.98,3.917,3.917,0,0,0,.147,1.711A3.53,3.53,0,0,1,37.277,7.8a3.446,3.446,0,0,0-.213,1.512,17.921,17.921,0,0,0,.145,2.433,5.586,5.586,0,0,1,.078,2.053,12.589,12.589,0,0,0,.024,1.7,18.214,18.214,0,0,1-.274,3.406,4.727,4.727,0,0,0,0,.984,17.876,17.876,0,0,1-.232,2.687c-.2,1.55-.207,3.119-.515,4.66a19.162,19.162,0,0,0-.176,1.968,15.854,15.854,0,0,1-.2,1.7c-.116.566-.106,1.143-.166,1.708a12.523,12.523,0,0,0-.373,2.774c.033.291-.362.538-.211.893-.36.757-.064,1.665-.541,2.413-.274-.515-.236-.905.08-1.88.044-.534.069-1.072.137-1.6.081-.63.255-1.252.281-1.882.025-.577.268-1.1.25-1.7a13.064,13.064,0,0,1,.161-1.7,20.082,20.082,0,0,0,.191-2.146,9.09,9.09,0,0,1,.195-2.145c.108-.44-.1-.842.02-1.272-.076.037-.164.055-.17.087a7.1,7.1,0,0,0-.3,2.413c.07.4-.233.628-.227.989.009.5-.076,1.01-.086,1.522a13.994,13.994,0,0,1-.235,1.613c-.1.715-.208,1.431-.262,2.15a11.053,11.053,0,0,0-.241,2.06,16.277,16.277,0,0,0-.69,3.766,26.312,26.312,0,0,0-.566,3.756,1.151,1.151,0,0,1-.142.358,3.417,3.417,0,0,0-.263,1.073,16.613,16.613,0,0,1-.366,2.417c-.166.779-.271,1.568-.514,2.339a16.111,16.111,0,0,0-.21,1.6c-.128.649-.131,1.316-.252,1.971-.087.467-.022.949-.12,1.435-.21,1.037-.289,2.1-.513,3.137a5.281,5.281,0,0,0-.269,1.875.434.434,0,0,1-.033.265,7.243,7.243,0,0,0-.468,1.785l.176.1c.056-.021.151-.03.16-.064a8.783,8.783,0,0,0,.442-1.7,6.135,6.135,0,0,1,.151-.714,3.982,3.982,0,0,1,.1-.712,5.947,5.947,0,0,0,.234-1.437c0-.027-.036-.071-.025-.087.5-.733.36-1.619.569-2.424a11.376,11.376,0,0,0,.287-2.236c.038-.7.216-1.37.222-2.058a8.358,8.358,0,0,1,.263-2.063,7.465,7.465,0,0,0,.116-1.251c.3-.243.682-.414.775-.924l-.344.084-.169-.886.39-.274c-.016-.1-.035-.217-.053-.331.09-.093.172-.236.294-.29a.6.6,0,0,0,.371-.4,3.317,3.317,0,0,1,.149-.363l.073.04m-18.369,22.6c-.03.147-.233.306.132.392-.524.441-.094,1.125-.656,1.573-.1-.21-.255-.385-.259-.564-.008-.417.111-.841.068-1.251-.024-.233.211-.562-.141-.731-.075.024-.177.034-.181.06-.139.983-.286,1.967-.389,2.954a2.71,2.71,0,0,0,.119.753l1.989.131a1.524,1.524,0,0,1,1.979-.085c.077-.249.127-.414.175-.571-.8-.372-1.6.053-2.4-.123l.222-.531a2.908,2.908,0,0,1,.444-.071c.538-.011,1.075,0,1.612-.014.04,0,.077-.087.171-.2l-.125-.4-1.974-.1-.192.265-.431-.18a2.539,2.539,0,0,0-.13-.871c.03-.147.232-.306-.053-.421l.049-.021-.064-.2-.08.033a.564.564,0,0,0,.119.173m8.02-36.391-.157-.056c-.026.126-.052.252-.078.379l.122.032a.359.359,0,0,0-.052-.4l.05-.021-.064-.2-.08.033c.031.062.062.124.258.227M19.33,48.757l.167.063.151-.557-.124-.04a.567.567,0,0,0,.1.648l-.166-.063-.152.557.124.04a.567.567,0,0,0-.1-.648m4.941-27.5c.09-.217.153-.365.214-.514l-.211.081c.027-.159.055-.319.1-.563a.562.562,0,0,0-.049.915l-.049.021.064.2.08-.033c-.031-.062-.063-.124-.147-.106M22.929,50.081c-.214.588-.515,1-.246,1.518a1.189,1.189,0,0,0,.059-1.416l.081.032.293-.7-.081-.033c-.1.234-.2.468-.107.6M25.66,14.937c.221-.67.188-1.345-.053-1.342l-.157.376a1.7,1.7,0,0,0,.39.916l-.167-.059-.151.552.124.04c.065-.178.129-.355.014-.483m-8.954,40.5c.1-.229.187-.46.288-.687.137-.308.156-.607-.086-.728.205-.722.671-1.217.378-1.933a2.172,2.172,0,0,0-.34,1.766c-.1.23-.187.46-.288.687a.76.76,0,0,0,.18.949l-.081-.032q-.147.35-.293.7l.081.032a1.44,1.44,0,0,0,.16-.756m3.323-.281.182.057.465-1.87-.153.052c.02-.122.039-.244.058-.366l-.173.03a10.778,10.778,0,0,0-.24,2.143,1.69,1.69,0,0,0-.206.518c-.017.417-.283.812-.11,1.242a7.509,7.509,0,0,0-.5,1.784,17.176,17.176,0,0,1-.338,2.23c-.125.772-.245,1.545-.338,2.32a8.47,8.47,0,0,0-.135,2.587.829.829,0,0,1,0,.151l-.494.149c-.052-.236-.08-.411-.132-.579-.13-.423.088-.869-.173-1.178l.416-.994-.172.048c.019-.122.038-.246.066-.43a1.1,1.1,0,0,0-.228,1.266c-.36.522-.15,1.174-.335,1.774-.6-.31-.2-1-.666-1.311a1.416,1.416,0,0,0-.014,1.562l1.787.086a2.379,2.379,0,0,0,.294-.741,21.354,21.354,0,0,1,.317-2.783,5.937,5.937,0,0,0,.16-2.231,7.412,7.412,0,0,0,.454-2.246,2.318,2.318,0,0,0,.026-1.464,1.676,1.676,0,0,0,.206-.518c.017-.417.283-.811-.029-1.289m8.07-7.173c.383-.626.876-.991.95-1.615a2.711,2.711,0,0,1-.083-.636,2.841,2.841,0,0,1,.288-1.7,13.943,13.943,0,0,1,.618-3.488c-.136-.474.292-.842.277-1.251a11.622,11.622,0,0,1,.334-2.143,12.648,12.648,0,0,0,.249-1.525,6.628,6.628,0,0,1,.276-1.6c.151-.55.044-1.084.142-1.624.176-.974.3-1.962.42-2.947.054-.423.156-.84.2-1.085.055-1.3.1-2.436.151-3.6a1.136,1.136,0,0,0-.3.754,8.22,8.22,0,0,1-.1,1.424c-.224.891-.168,1.8-.37,2.7-.208.924-.3,1.9-.419,2.854-.124.985-.269,1.968-.428,2.947a10.144,10.144,0,0,1-.591,2.954c.2.75-.343,1.41-.267,2.146-.466,1.054-.22,2.269-.749,3.31-.023.046.019.12.009.177a19.8,19.8,0,0,1-.412,2.23,5.542,5.542,0,0,0-.2,1.494l-.352.085a1.547,1.547,0,0,1-.068-1.08c.075-.224.044-.48.1-.712.064-.246.252-.476.261-.718.051-1.406.56-2.729.712-4.116.046-.424.343-.864.268-1.248-.093-.477.393-.814.169-1.261.281-.688.16-1.455.436-2.153a4.192,4.192,0,0,0,.167-1.069,7,7,0,0,1,.195-1.69A10.061,10.061,0,0,0,30.261,32a18.607,18.607,0,0,0,.283-2.052,21.272,21.272,0,0,1,.294-2.681c.246-1.161.186-2.352.5-3.506a9.123,9.123,0,0,0,.3-2.053c.016-.491.3-.9.331-1.344a4.5,4.5,0,0,1,.194-.894c.081-.291.071-.612.179-.89a6.893,6.893,0,0,0,.276-1.524c.065-.436.171-.865.291-1.461.189.274.345.4.342.514-.018.687-.071,1.374-.119,2.06a6.11,6.11,0,0,1-.09.715,6.164,6.164,0,0,0-.155.715c-.07.925-.183,1.851-.246,2.778-.09,1.313-.157,2.627-.229,3.941a16.96,16.96,0,0,0-.21,3.134c-.354.611-.173,1.321-.361,1.981a15.023,15.023,0,0,1-.309,2.137c.211.4-.136.754-.1,1.167a5.51,5.51,0,0,1-.274,1.251,6.239,6.239,0,0,1-.1,1.154,6.724,6.724,0,0,0-.29,1.261c-.041.237-.036.484-.1.715a4.376,4.376,0,0,0-.267.718c-.058.82-.279,1.618-.365,2.42-.092.854-.355,1.661-.451,2.5a3.269,3.269,0,0,0,.094.68c.125-.249.166-.332.208-.414a26.518,26.518,0,0,0,1.349-3.762,3.306,3.306,0,0,0,.033-.915c.292-.1.363-.392.366-.723a.856.856,0,0,1-.005-.267,17.953,17.953,0,0,0,.588-2.861c.292-1.459.354-2.954.75-4.394a2.5,2.5,0,0,0,.013-.662l-.287-.446c.041-.363.063-.605.1-.845a14.567,14.567,0,0,0,.191-2.06c0-.747.052-1.5.127-2.238.078-.776.12-1.546.125-2.329a8.082,8.082,0,0,0,.07-2.239c.236-1.093.055-2.209.228-3.319a7.143,7.143,0,0,0,.072-2.949c.283-.664-.047-1.381.2-2.069a3.49,3.49,0,0,0-.1-1.255,3.147,3.147,0,0,1-.41.383,2.438,2.438,0,0,1-.373.166c-.348.415-.023.653-.052.919a11.818,11.818,0,0,1-.259,1.163,1.145,1.145,0,0,0,.236,1.145c-.135.083-.25.112-.28.179a7.18,7.18,0,0,0-.55,1.385,2.368,2.368,0,0,1-.516,1.144,13.76,13.76,0,0,1-2.082,1.72c-.07.056-.161.086-.128.068a3.36,3.36,0,0,0-.48,2.285l1.89-1.337c-.153.365-.176.542-.276.64a17.782,17.782,0,0,1-1.454,1.33.886.886,0,0,0-.356.712c-.024.357-.025.715-.04,1.2a7.442,7.442,0,0,1,.82-.715,6.608,6.608,0,0,1,.924-.41c0,.517-.365.667-.62.839a2.553,2.553,0,0,0-1.423,2.726c0,.077-.005.154-.007.2l.7-.119A2.417,2.417,0,0,0,28.1,28.8c-.1.993-.3,1.969-.424,2.955-.056.436-.313.978.31,1.368-.323.266-.179.8-.667.991a.378.378,0,0,0-.149.336c.143.468-.082.933-.059,1.351.309.178.5-.176.808-.03-.147.182-.265.316-.368.46-.246.346-.709.588-.712,1.044a4.5,4.5,0,0,1-.309,1.257c.678-.032.686-.046.955-.325.283-.294.584-.571.893-.871l.213.257c-.274.386-.763.548-.894,1.053-.042.16-.3.3-.485.382a1.213,1.213,0,0,0-.859,1.354c.01.1-.109.2-.165.3l-.2-.084-.472-.765c.5-.464.644-.782.38-.977l-.76.286a54.882,54.882,0,0,0-.651,5.607c.731-.268,1.149-.965,1.971-1.029a2.4,2.4,0,0,1-.3.487c-.322.312-.788.459-1.026.873-.949.24-.839,1.108-1.023,1.784-.033.122.042.479.36.41l1.058-1.767.037.081.277-.241a6.185,6.185,0,0,0-.389,2.215,5.471,5.471,0,0,1-.186.985c-.133.805-.257,1.611-.378,2.418,0,.032.061.074.113.133l.447-.342.982.129c.289-1.242,1.35-1.959,1.671-2.908m-4.483,5.982c-.366.353-.861.664-.866,1.152a38.8,38.8,0,0,1-.707,4.117c-.112.965-.48,1.876-.593,2.862a26.617,26.617,0,0,0-.308,3.912l.36.524c-.122.292-.23.551-.369.883l-.7-.067c.005-.464-.01-.853.017-1.24.065-.925.053-1.855.166-2.777a19.706,19.706,0,0,1,.346-2.411c.1-.418.178-.845.3-1.257s.233-.83.337-1.248a21.535,21.535,0,0,1,.52-2.425l-.361-.075a4.171,4.171,0,0,0-.28.818,6.971,6.971,0,0,1-.417,1.879c-.075.179-.257.4-.2.528.167.407-.265.695-.19.986.116.452-.3.736-.245,1.077.065.415-.353.511-.387.839-.023.215-.226.415-.239.628-.072,1.141-.271,2.267-.369,3.4a1.036,1.036,0,0,0,.375,1.067,1.019,1.019,0,0,1-.076.186l-.427.018.208.506-.3.726c.1.391.192.744.251.976.855.3,1.592.569,2.329.83a.81.81,0,0,0,.179.026c.688.083,1.368.232,2.06.275.62.039,1.241.385,1.86.037l.194-.463c.061-.147.122-.293.176-.42a1.636,1.636,0,0,0,1.061-1.384l-2.726,2.075c-.353-.26-.325-.521-.268-.631l3.24-2.318.535-1.281-.278-.116-.283.553a9.286,9.286,0,0,0-3.05,2.17,1.05,1.05,0,0,1-1.182.447,2.531,2.531,0,0,1,.2-.462,1.646,1.646,0,0,1,.329-.3c.491-.4.985-.788,1.475-1.185.03-.024.03-.084.062-.18l-.642.011c-.044-.143-.081-.265-.117-.38.354-.24.737-.479,1.1-.749s.693-.57,1.047-.866l-.292-.56L24.833,66.2l-.533-.267c.1-.238.28-.455.23-.588-.208-.559.213-.807.5-1.086.367-.351.819-.614,1.194-.959a5.217,5.217,0,0,0,.587-.753l-.18-.44-1.005.855-.484-.262a8.227,8.227,0,0,0,1.97-2.022c-.023-.233-.037-.38-.058-.591l-1.167.532c.094-.227.141-.481.214-.488.54-.055.627-.58.915-.874a2.508,2.508,0,0,0,.754-1.238,8.6,8.6,0,0,0,.252-1.3c0-.122-.006-.246-.011-.419a2.631,2.631,0,0,0-.452.333c-.457.559-.9,1.13-1.346,1.7a.447.447,0,0,1-.689.129c.142-.342.286-.684.42-1.007l-.413-.326c1.185.038,1.514-.741,1.831-1.552.951-.249,1.08-1.091,1.428-1.964a2.6,2.6,0,0,0-1.224,1.5,5.541,5.541,0,0,1-1.316.3,7.161,7.161,0,0,1-1.483-.323c-.107.525-.2,1-.292,1.428.284.414.873-.107,1.075.471-.339.386-.807.183-1.232.287a11.321,11.321,0,0,1-.317,1.774,9.9,9.9,0,0,0-.383,2.244,1.348,1.348,0,0,1-.175.493c-.086.157-.238.277-.322.434a4.169,4.169,0,0,0-.369,1.968,2.978,2.978,0,0,1-.184,1.34c-.021.042-.1.054-.226.115l-.395-.425c.052-.362.086-.6.122-.845a20,20,0,0,1,.42-2.588,6.849,6.849,0,0,0,.318-1.443c.027-.493.316-.918.239-1.433a2.41,2.41,0,0,1,.186-.98,11.47,11.47,0,0,0,.42-2.244c.112-1.208.347-2.387.528-3.579a4.126,4.126,0,0,0-.044-.811c-.92.785-.92.785-.877,2.171l.348.5m12.116-40.51a2.04,2.04,0,0,0-.2.483c-.151,1.4-.186,2.812-.4,4.207-.072.474-.026.978-.107,1.426-.179.984-.208,1.979-.33,2.964a6.472,6.472,0,0,0-.15,2.146.476.476,0,0,1-.051.266,7.4,7.4,0,0,0-.306,2.062c-.1.739-.106,1.514-.265,2.227-.2.895-.293,1.8-.442,2.694a20.18,20.18,0,0,1-.416,2.508,9.6,9.6,0,0,0-.26,1.607,9.084,9.084,0,0,1-.148.9c-.167.759-.225,1.542-.324,2.3l.664.278a1.012,1.012,0,0,0,.138-.263c.121-.775.17-1.566.36-2.323a35.478,35.478,0,0,1,.607-3.582c-.213-.3.142-.525.116-.806a12.166,12.166,0,0,1,.29-2.595c.13-1.1.236-2.213.411-3.309.09-.567.041-1.138.188-1.708a9.054,9.054,0,0,0,.1-1.7c.064-1.1.1-2.212.216-3.31a4.156,4.156,0,0,1,.358-2.044l.441-.183c-.015.425-.012.813-.046,1.2-.051.569-.165,1.133-.185,1.7a15.681,15.681,0,0,1-.16,2.244c-.052.3-.341.755.123,1.062a.81.81,0,0,0,.124-.247c.125-1.372.208-2.748.369-4.116.2-1.7.128-3.406.3-5.107a5.488,5.488,0,0,0-.292-2.8c-.69.391-1.413-.17-2.122.164a2.012,2.012,0,0,1,.131.62,10.585,10.585,0,0,0-.153,1.881,10.483,10.483,0,0,1-.058,1.163c-.044.829-.087,1.657-.143,2.711.163-.3.259-.406.27-.515.1-.953.16-1.911.264-2.863a6.76,6.76,0,0,1,.363-2.141l.464.194.251.611M16.33,40.883a2.237,2.237,0,0,1,.009.8,10.6,10.6,0,0,0-.431,2.159c-.075.474-.372.909-.331,1.334.042.443-.306.725-.268,1.075a1.8,1.8,0,0,1-.269,1.072,3.244,3.244,0,0,0-.324,1.526c.008.553-.214,1.055-.162,1.616a7.862,7.862,0,0,1-.228,1.7,1.917,1.917,0,0,0,.272,1.762l.427-.052c.193.2.306.509.731.4-.029-.242.027-.639-.106-.72-.328-.2-.179-.508-.167-.663.145-1.741.411-3.468.678-5.195a6.145,6.145,0,0,0,.078-2.691,1.226,1.226,0,0,1,.047-.623c.288-1.032.393-2.1.627-3.145.226-1.009.479-2.023.731-3.022.2-.778.262-1.571.414-2.346.235-1.208.329-2.45.57-3.665l.566-.284a3.429,3.429,0,0,0,.011-.579c-.062-.4.189-.722.227-1.077a10.147,10.147,0,0,1,.525-3.221c-.291-.445.252-.78.146-1.264-.088-.4.274-.883.286-1.334s.289-.842.31-1.254c.031-.581.236-1.134.229-1.7-.008-.645.512-1.12.443-1.793a2.732,2.732,0,0,1,.3-1.245,2.021,2.021,0,0,0,.076-1.177,8.974,8.974,0,0,0-.546,1.663,7.153,7.153,0,0,1-.646,2.16.767.767,0,0,0-.069.355,14.7,14.7,0,0,1-.744,3.58c-.037.123-.173.274-.135.353.23.49-.4.87-.154,1.349a3.1,3.1,0,0,0-.368,1.436c-.106.56-.357,1.076-.443,1.613a9.4,9.4,0,0,1-.237.98c-.088.322-.139.655-.206.983a4.113,4.113,0,0,1-.216.978,4.388,4.388,0,0,0-.29,1.439c-.019.15-.031.3-.064.447a6.08,6.08,0,0,0-.252,1.165,3.282,3.282,0,0,1-.1.718,8.063,8.063,0,0,1-.6,2.415c.225.384-.247.683-.164.977.116.411-.195.656-.18.989m.6,8.988a8.791,8.791,0,0,0,.344-.845c.049-.167-.014-.365.028-.534a22.552,22.552,0,0,0,.3-2.334,17.14,17.14,0,0,0,.249-1.876,11.607,11.607,0,0,1,.309-1.881,9.749,9.749,0,0,0,.366-2.24,3.524,3.524,0,0,1,.181-1.072,15.793,15.793,0,0,0,.378-2.241,17.192,17.192,0,0,1,.337-1.967,9.791,9.791,0,0,1,.452-2.244c.009-.018-.036-.06-.033-.088a14.059,14.059,0,0,1,.32-2.409,10.021,10.021,0,0,1,.6-2.516c-.224-.4.234-.706.17-1.074-.08-.457.245-.773.348-1.164.024-.093.125-.2.1-.266-.224-.6.259-.817.553-1.118l.356.07a9.133,9.133,0,0,0,.371-1.537,14.018,14.018,0,0,1,.282-1.705c.115-.595.217-1.194.354-1.786a4.2,4.2,0,0,1,.182-.888,2.839,2.839,0,0,0,.147-.9c.052-.332.129-.671.167-.989.053-.454.179-.9.262-1.334a8.656,8.656,0,0,1,.462-2.336c.018-.036-.029-.1-.04-.138l-.546.2c-.106.558-.175,1.07-.306,1.565a8.525,8.525,0,0,1-.621,2.508,2.577,2.577,0,0,1-.166,1.337,10.045,10.045,0,0,0-.379,1.437c-.045.456-.387.816-.377,1.345a8.217,8.217,0,0,1-.379,1.426A20.011,20.011,0,0,1,20.94,24.7c-.084.259-.339.5-.132.805-.261.63-.171,1.354-.426,1.959-.321.764-.17,1.582-.45,2.349a7.81,7.81,0,0,0-.186,1.338,4.732,4.732,0,0,1-.393,1.333c-.135.274.019.664-.341.84a7.239,7.239,0,0,1-.2,1.7,15.1,15.1,0,0,1-.334,2.057,8.5,8.5,0,0,1-.586,2.96c-.021.036.06.119.055.176-.055.538-.09,1.08-.187,1.611-.087.476-.163.948-.208,1.432a20.891,20.891,0,0,1-.289,2.237,20.677,20.677,0,0,0-.347,2.332c-.056.63-.167,1.255-.254,1.885l.268.154m9.884-32.156a1.558,1.558,0,0,0-.045,1.69c-1.035.753-.544,1.61-.229,2.36a19.639,19.639,0,0,0-.68,3.4,2.892,2.892,0,0,1-.015.357,15.332,15.332,0,0,0-.5,3.13,14.85,14.85,0,0,1-.2,1.96,26.131,26.131,0,0,0-.341,2.758,1.388,1.388,0,0,0,.372-.756c-.049-.983.38-1.894.374-2.863.3-.369.15-.85.315-1.251.279-.682.567-1.36.827-1.984a2.352,2.352,0,0,0,1.289-1.591l-.106-.26-.807-.193c.639-1.08,1.47-2.014,1.09-3.275l-.538.37c-.017-.281-.033-.519-.046-.747,1.1-.509.8-1.454.807-2.4.444-.58.21-1.364.382-2.031l-.512.133L28,17.312c-.2-.142-.333-.227-.455-.319-.1-.078-.2-.166-.3-.249l-.084.084.726,1.322-.106.1-.966-.533M22.647,35.874c0,.422-.287.816-.059,1.2.2.337.386.682.626,1.109l-.659.184-.274-.447-.341,1.616.46.762c-.2.538-.381,1.094-.531,1.672a11.6,11.6,0,0,0-.392,1.714c-.056.56-.379,1.093-.2,1.695l.258.012a9.582,9.582,0,0,1,.543-1.262c.258-.428.112-.937.345-1.345a3.974,3.974,0,0,0,.306-1.256c.135-.656.282-1.31.4-1.969a6.19,6.19,0,0,1,.205-1.421c.362-.811.1-1.749.588-2.514.008-.9.249-1.784.3-2.685a3.3,3.3,0,0,1,.02-.536,14.269,14.269,0,0,0,.376-2.561l-.413.011c.007.8-.231,1.464-.249,2.165A3.59,3.59,0,0,1,23.38,34.1c-.373-.5.068-1.083-.217-1.632a3.518,3.518,0,0,0-.309,1.74c.014.376-.078.767.312,1.082.157.126.116.495.167.754l-.441.153-.245-.324m5.771-24.954a6.274,6.274,0,0,0-.607,5.177l.4.169c.1-.161.145-.335.259-.417a1.728,1.728,0,0,0,.606-1.227,7.353,7.353,0,0,1,.582-2.222c.017-.035.109-.032.229-.063l.239.451-.351.841c.02.252.033.429.049.63.141-.078.366-.127.392-.227.142-.553.236-1.119.35-1.695.391-.151.336-.588.572-.906l-2.721-.509M27.49,28.894a3.955,3.955,0,0,0-.5.455c-.128.173-.186.4-.317.568a1.858,1.858,0,0,0-.521,1.414,1.789,1.789,0,0,1-.1.706c-.5.861-.287,1.893-.706,2.774-.1.2.01.495.033.94a11.978,11.978,0,0,0,1.308-1.678,1.7,1.7,0,0,0,.278-1.238c-.106-.483.222-.809.219-1.254a21.96,21.96,0,0,1,.3-2.685M24.805,54.216c.731.218,1.3.719,2.012.55l1.294-1.606-.522-.566c.393-.42.7.026.944-.008l.481-.561a1.148,1.148,0,0,0-.661-.833.508.508,0,0,1,.673-.3c.019,0,.059-.067.1-.122l-.615-.258c-.157.141-.39.253-.454.427-.346.935-1.192,1.527-1.622,2.425l.52.314-.42.2-.166-.3-1.284-.049-.284.681m2.044-2.852c.221-.112.427-.145.484-.255.493-.947,1.4-1.573,1.9-2.51.48-.167.489-.654.6-1.017.047-.161-.016-.415.087-.612a1,1,0,0,0-.014-.909,50.059,50.059,0,0,1-3.268,4.873c.059.12.113.23.211.43M32.083,7.391a3.249,3.249,0,0,0,2.068.345,2.086,2.086,0,0,0,.017-.843,6.124,6.124,0,0,0-.392-1.188c-.246-.414.127-.882.268-1.321.036-.114-.077-.276-.076-.274l-.456-.018c-.058.519.251.963-.167,1.308l-.456-.163c-.4.625-.021,1.157.179,1.748l-.985.406M30.443,55.805a6.868,6.868,0,0,1,.07-.693,5.4,5.4,0,0,0,.278-1.253c-.059-1.307.331-2.56.386-3.85.03-.7.133-1.407.2-2.11-.731,1.454-.538,3.083-1,4.56.072.174.134.324.2.481a5.52,5.52,0,0,0-.591,3.051l.452-.186M29.2,6.035l-.512,1.224c.579.193,1.071.592,1.764.335-.058-.214-.116-.433-.177-.661l.439-.13.288.35c.267-.533-.165-.75-.357-.946-.376-.385-.933-.117-1.445-.172M31,17.157a3.517,3.517,0,0,0-2.019,1.886l.149.338,2.184-1.388a1.237,1.237,0,0,0,.041-1.331L31,17.157m-.277-.692c-.036-.452-.07-.929-.116-1.4,0-.045-.081-.082-.167-.163l-.783.48L29.2,17.1l.277.425,1.237-1.058m1.218,28.878.535-2.044-.687-.655-.286.135c-.134.715-.255,1.365-.379,2.024l.817.54m4.867-38c-.129-.764-.261-1.538-.4-2.333l-.361.169c-.031.511-.061.987-.093,1.508l.2.182c-.084.452-.684.6-.576,1.21l.9.043.325-.779M21.51,39.715c.09-1.39.637-2.526.016-3.752a2.92,2.92,0,0,0-.285,1.541,10.8,10.8,0,0,1-.409,1.594l.678.617m3.653-29.669-.639-.595c-.418.173-.78.309-1.131.469s-.677.338-1.068.536l-.4.952.472-.194.15-.358a7.1,7.1,0,0,1,1.3-.511,2.818,2.818,0,0,0,1.316-.3m-5.59,61.587,1.318.264,1.153-.471-.4-.349c-.273-.006-.768,0-1.259-.035A3.125,3.125,0,0,1,19.7,70.8c-.04.27-.074.493-.125.829m4.558-23.469a3.857,3.857,0,0,0-.413,1.321,3.09,3.09,0,0,1-.18,1.217l.243.126.569-.624c-.087-.756.48-1.448.2-2.214l-.423.174m1.352,3.212-.325,1.578c.254,0,.544.089.645-.011.379-.374.849-.721.833-1.407l-1.153-.159m.551-38.8.5-.417.3-1.178.81-.147-.883-.37.078.175-1.031.3c.122.322.288.629.068.991-.071.118.082.372.155.649m2.877,48.952-.522,1.248.5-.278a6.318,6.318,0,0,0,.295-.724c.063-.229.036-.483.1-.71.081-.277.252-.53.318-.808a2.979,2.979,0,0,0,.006-.693l-.3-.1c-.211.661-.72,1.237-.4,2.069m.546-2.662c.6-.158.632-.673.728-1.073a9.084,9.084,0,0,0,.116-1.512l-.164-.059c-.453.258-.179.743-.338,1.094-.184.4-.346.819-.495,1.175l.154.374M21.616,53.25l.691-2.8-.2-.111-.445.374c-.114.884-.217,1.678-.319,2.466l.27.075m.586-4.962a2.173,2.173,0,0,0-.708,1.438c.171-.016.291.01.341-.038.234-.226.559-.436.648-.717a9.207,9.207,0,0,0,.233-1.561l-.458.188c-.017.2-.035.436-.056.69m-7.1,22,1.033.432.455-.556-.716-.584-.746.055c-.009.22-.017.429-.027.653M26.358,28.214l.289.529c.947-.775.947-.775,1.074-1.922l-.177-.074c-.4.238-.283.635-.281,1.1l-.9.365M31.8,13.606c-.5.736-.3,1.561-.412,2.279l.479-.062c-.157-.782.3-1.5-.067-2.217M26.707,35.439l-.243-.1-.585.675c.23.479-.284.812-.254,1.268l.248.1c.209-.276.583-.55.57-.8a5.161,5.161,0,0,1,.264-1.143m2.007,22.706c-.546.5-.546.5-.779,1.436l0,.367.381-.157c.173-.414.357-.852.544-1.3l-.143-.347M23.881,73.234l-.186-.559-1.05-.173-.414.165c0,.17,0,.335,0,.439l1.651.128m-.516-47.993a3.294,3.294,0,0,0,.435-2.358c-.3.775-.756,1.467-.435,2.358m8.79-12.448c-.167-.315.23-.938-.451-1.368-.06.585-.115,1.079-.157,1.574,0,.037.079.082.206.207l.4-.413m2.8-10.3c-.482.326.062.394.082.586.028.27.1.536.151.821l.81.224a3.894,3.894,0,0,0-1.043-1.632M22.71,45.184c-.259.62-.449,1.074-.678,1.623l.593-.083c.16-.383.292-.7.421-1.006l-.336-.534m-.325-14.391c-.07.564-.139,1.128-.21,1.705l.283.073c.39-.613.155-1.3.342-1.949l-.415.17m7.788,19.731c.1-.7.184-1.321.277-1.986l-.326-.029c-.112.672-.215,1.29-.316,1.9l.366.115m-.834,4.518c-.415.083-.415.083-.683.435.084.2.175.43.284.655.021.043.112.052.17.077a1.268,1.268,0,0,0,.228-1.166m-.051-1.283.418-.36a7.553,7.553,0,0,0,.143-.744,4.191,4.191,0,0,0-.024-.568l-.115-.009-.561,1.342.139.339M28.01,60.8a1.494,1.494,0,0,0-.715,1.267l.585-.151c.094-.36.444-.661.131-1.116m4.8-18.409c-.29-.427-.024-.661.025-.928.008-.039-.066-.094-.146-.2l-.641.238c.072.269.129.484.17.639l.591.247M25.187,20.828a2.653,2.653,0,0,0,.537-1.816L25.394,19a3.868,3.868,0,0,1-.12.9,3.128,3.128,0,0,0-.087.921M28.061,63.5l.331.709.245-.113c.037-.3.075-.566.1-.833,0-.036-.082-.078-.178-.163l-.494.4M31,4.673l-1.262-.528-.24.7c.565-.35,1.01.243,1.5-.173M17.426,51.725a2.765,2.765,0,0,0,.288-1.015l-.531.15c-.1.241-.183.439-.272.65l.515.215m7.542-34.447c-.272.49-.272.49-.076,1.365a1.354,1.354,0,0,0,.076-1.365m3.075,48.347c.02-.35.346-.577.25-.94l-.258-.05-.35.839.359.151M24.809,11.374l-.1-.168-.582.356c.121.22.147.46.337.641.135-.322.24-.576.347-.829m-3.7,43.191c-.324.349-.087.764-.14,1.139l.427-1.02-.287-.119M26.937,5.24c.125-.3.239-.574.362-.865l-.316-.132c-.132.329-.423.611-.046,1M13.782,69.988c.471-.658.471-.658.017-1.023-.006.361-.011.692-.017,1.023M36.134,11.263c.234-.44.3-.967.148-1l-.314.144.166.86M24.471,29.036l.081.031a1.816,1.816,0,0,0,.215-.482,1.572,1.572,0,0,0-.09-.494l-.119.017q-.042.464-.086.928M27.261,64.3l-.157-.062-.23.676.113.04.274-.655m1.293-7.633-.181.7.413-.136-.232-.565m3.009-9.7-.154-.067c-.077.227-.154.454-.231.681l.112.04.274-.654m-13.855,8.5-.159-.051-.228.666.113.039.274-.654m6.785-29.172c-.03-.262-.051-.446-.086-.756l-.257.614.343.143M19.413,49.841l-.089-.037q-.113.268-.224.537l.089.037c.075-.179.15-.358.224-.537m-2.291,7.242.089.037.225-.537-.09-.037c-.075.179-.15.358-.224.537m8.7-18.986c.293.259.429.22.428.022l-.428-.022M18.068,70.688l.064-.159-.508-.136c-.011.032-.021.064-.031.1l.475.2M32.406,40.32c-.255.29-.224.43-.022.428.006-.126.014-.278.022-.428M29.4,49.637l-.164-.059q-.066.252-.132.5l.1.031.2-.475m1.346-3.226-.165-.05-.128.5.1.027.2-.474m-12.554-.478.166.051.128-.5-.094-.029q-.1.238-.2.475m5.965-18.5-.09-.038-.15.358.09.037q.074-.179.15-.357m2-10.309-.09-.037q-.074.179-.15.358l.09.037.15-.358M15.979,63.294l.157.054c.02-.109.04-.217.06-.326L16.1,63l-.124.3m6.309-9.557.157.055c.021-.109.04-.218.06-.327l-.093-.024-.125.3m-.413-36.9-.163-.045-.052.32.09.022.125-.3M18.343,46.869l-.09-.037-.149.358.089.037q.075-.179.15-.358m1.99-2.709-.162-.046c-.017.107-.036.214-.053.322l.091.022c.041-.1.083-.2.124-.3m4.594-10.484-.163-.046-.052.321.091.021.124-.3M24.489,34.9l.163.045c.017-.106.034-.214.052-.32l-.09-.022c-.042.1-.083.2-.124.3m-.7,3.695.157.054c.021-.109.04-.217.06-.326l-.093-.024-.125.3m-4.912,4.536-.162-.046-.052.322.09.022c.042-.1.083-.2.124-.3M23.4,30.45l.163.046.052-.321-.091-.021c-.041.1-.082.2-.124.3m-.522,40.887c-.008.02-.017.04-.024.059l.179.075.025-.059-.179-.075M33.8,9.528l.025-.059-.179-.075-.025.06.179.075M26.61,66.447l.025-.06-.179-.075-.024.06.179.075M35.23,7.112l-.025.059.179.075.025-.06-.179-.075M24.657,73.129l-.025.059.179.075c.008-.021.016-.04.024-.06l-.179-.075M17.989,47.843l-.025.06.179.075.025-.059-.179-.075M32.066,23.731l.024-.059-.179-.075-.025.06.179.075m2.124-4.578.025-.059-.179-.075-.025.06.179.075M18.877,41.7l-.025.06.179.075.025-.059-.179-.075m3.841,3.218-.059-.025-.075.179.06.024.075-.179M34.04,23.365l-.059-.024-.075.179.059.025c.025-.06.05-.119.075-.179m-11.967,31.3.025-.06-.179-.075-.025.059.179.075M25.966,16.7l-.025.059.179.075.025-.06-.179-.075M34.915,5.018l.059.025c.025-.06.05-.119.075-.179l-.059-.024-.075.179M30.47,2.739l-.059-.025-.075.179.06.025.075-.179M26.363,9.712l-.025.06.179.075c.008-.02.017-.04.024-.06l-.179-.075" transform="translate(-2.705 0)" fill="#1a1311"/>
        <path id="パス_579" data-name="パス 579" d="M34.108,94.485l.268.9c-.1.235-.222.531-.36.861l-1.927.561c-.066-.138-.132-.273-.214-.443l1.219-1.022-.071-.214,1.084-.645" transform="translate(-7.641 -22.65)" fill="#1a1311"/>
        <path id="パス_580" data-name="パス 580" d="M36.152,86.315l.181.569c-.378.518-.118,1.314-.729,1.977.205-.89.274-1.667.548-2.546" transform="translate(-8.535 -20.692)" fill="#1a1311"/>
        <path id="パス_581" data-name="パス 581" d="M41.642,53.082l-.256-.107.306-.733c.211.332.218.6-.05.84" transform="translate(-9.921 -12.524)" fill="#1a1311"/>
        <path id="パス_582" data-name="パス 582" d="M35.121,92.9l-.449-.082.268-.642.181.724" transform="translate(-8.312 -22.096)" fill="#1a1311"/>
        <path id="パス_583" data-name="パス 583" d="M41.13,56.254l.194-.533.124.04q-.076.278-.151.557l-.167-.063" transform="translate(-9.86 -13.358)" fill="#1a1311"/>
        <path id="パス_584" data-name="パス 584" d="M34.459,93.9l-.179-.075.025-.06.179.075-.025.059" transform="translate(-8.218 -22.477)" fill="#1a1311"/>
        <path id="パス_585" data-name="パス 585" d="M33.18,46.705l.28-.669.407.287-.687.382" transform="translate(-7.954 -11.036)" fill="#1a1311"/>
        <path id="パス_586" data-name="パス 586" d="M33.152,42.982l.124-.3.094.024c-.02.109-.04.217-.06.326l-.157-.054" transform="translate(-7.947 -10.233)" fill="#1a1311"/>
        <path id="パス_587" data-name="パス 587" d="M36.813,30.61c-.041.1-.083.2-.124.3l-.091-.022.052-.32.163.045" transform="translate(-8.773 -7.327)" fill="#1a1311"/>
        <path id="パス_588" data-name="パス 588" d="M34.83,35.694l.15-.358.09.037q-.075.179-.15.358l-.09-.037" transform="translate(-8.35 -8.471)" fill="#1a1311"/>
        <path id="パス_589" data-name="パス 589" d="M35.985,35.35l-.179-.075c.008-.021.016-.04.024-.06l.179.075-.025.059" transform="translate(-8.584 -8.442)" fill="#1a1311"/>
      </g>
    </g>
    <g id="グループ_122" data-name="グループ 122" transform="translate(425.135 3270.777)">
      <g id="グループ_121" data-name="グループ 121" clip-path="url(#clip-path-2)">
        <path id="パス_1087" data-name="パス 1087" d="M20.31,42.364A6.727,6.727,0,0,1,21.5,41.285,34.492,34.492,0,0,1,25.17,39.5c2.227-.888,2.924-.278,3.355,2.1.544-.282,1.061-.537,1.567-.814a173.728,173.728,0,0,1,18.689-9.051,93.584,93.584,0,0,1,23.993-6.472c3.759-.434,7.6.024,11.41.076.369.005.737,0,1.127,0,.063-1.032.12-1.985.18-2.956a3.219,3.219,0,0,1,.719-.15c1.98.1,3.959.236,5.939.338a1.493,1.493,0,0,1,1.469,1.342c.211.906.46,1.8.694,2.708.921.21,1.816.384,2.7.623a2.529,2.529,0,0,0,2.57-.231c.489-.38,1.428-.068,2.29-.068,1.472-2.566,3.662-4.469,5.775-6.451a1.456,1.456,0,0,0,.358-2.08c-1.1-2.09-.7-3.3,1.289-4.39.67-.369,1.39-.628,2.061-.995s1.3-.8,2-1.237c1.257.522,1.454,2.057,2.265,3.034,2.221-.755,4.462-1.348,6.576-2.287a21.275,21.275,0,0,1,5.277-1.464q13.111-2.158,26.228-4.28c3.18-.517,6.361-1.024,9.539-1.545a3.27,3.27,0,0,0,.64-.259,3.458,3.458,0,0,0,.1-.672c-.114-2.373-.042-2.463,2.084-3.151a12.235,12.235,0,0,1,5.549-.726A11.056,11.056,0,0,0,174.011.3c1.067-.09,2.131-.2,3.2-.292A2.224,2.224,0,0,1,179.575,1.7c.728,1.813.75,1.8,2.577,1.578,1.375-.17,2.749-.348,4.226-.535C186.214,5,188,6.275,188.762,8.109c.126.3.827.4,1.272.44.907.072,1.822-.007,2.729.053a3.11,3.11,0,0,1,2.926,1.586c.012-.183.024-.367.059-.907l.691,1.473c-.794.817-.774,1.1.252,2.574.063-.282.107-.479.151-.676.1.191.295.381.3.575a12.467,12.467,0,0,0,1.419,4.911c3.343,7.489,6.766,14.926,10.508,22.2,2.151,4.181,3.777,8.681,5.7,13.006q4.363,9.818,8.812,19.591Q230.622,88.473,237.7,104c2.145,4.732,4.255,9.483,6.375,14.228a.7.7,0,0,1,0,.286c-.713.271-1.4.569-2.107.791a8.052,8.052,0,0,1-2.184.533c-3.691.059-7.21,1.144-10.758,2.05-7.26,1.853-14.507,3.767-21.769,5.617q-7.44,1.895-14.905,3.673c-2.219.528-4.479.849-6.7,1.378-9.066,2.159-18.134,4.312-27.179,6.572-3.709.927-7.362,2.121-11.043,3.178-.514.148-1.048.206-1.574.306a2.718,2.718,0,0,0-2.558.607c-.725.151-1.453.286-2.174.458-.66.158-1.311.356-1.969.539-.648-.378-1.245-.39-2.021.478l2.064-.522,1.235.42-2.575,1.006a2.444,2.444,0,0,0,.942,2.425c1.238,1.107,2.581,2.076,3.891,3.085.826.636,1.837,1.039,2.284,2.142.231.569.41,1.165.654,1.871l-1.382.123.77,1.471c-.928.669-2.351.268-3,1.834-2.66-3.649-4.238-7.772-5.651-12.29-.763.152-1.583.3-2.394.483-.778.18-1.547.407-2.559.677.621-1.077,1.566-.962,2.218-1.4.677-.455,1.7-.073,2.428-1.359-1.395.309-2.472.521-3.538.785q-15.531,3.854-31.058,7.722c-1.568.39-3.16.681-4.709,1.145-3.667,1.1-7.309,2.3-10.976,3.4-1.548.465-3.133.787-4.7,1.169a1.458,1.458,0,0,1-.63.1c-2.262-.553-4.319.469-6.425,1.02-9.128,2.384-18.245,4.817-27.372,7.209a7.993,7.993,0,0,1-1.54.054,7.4,7.4,0,0,0-1.25.137c-4.51,1.048-9.015,2.115-13.525,3.164-.462.107-.941.125-1.624.211-.345-1.408-.649-2.752-1-4.079-1.718-6.411-3.536-12.792-5.154-19.233-1.732-6.892-3.253-13.847-4.942-20.753-.291-1.19-.206-2.606-1.276-3.489a.661.661,0,0,1-.139-.482c.244-2.852-.9-5.4-1.545-8.037-2.361-9.682-4.829-19.334-7.286-28.988a14.684,14.684,0,0,0-.94-2.184,4.087,4.087,0,0,1-.262-.627c-1.038-4.178-2.108-8.347-3.087-12.541-.742-3.177-1.369-6.386-2.04-9.583-.107-.508-.118-1.036-.7-1.27A.9.9,0,0,1,0,58.808,49.043,49.043,0,0,1,.34,53.574,2.682,2.682,0,0,1,2.534,51.09c.56-.1,1.051-.6,1.611-.775a11.018,11.018,0,0,1,2-.323c.315-.035.664.117.953.022,2.1-.686,4.221-1.322,6.267-2.169a6.43,6.43,0,0,1,2.492-.483c1.336-.011,2.7.184,3.951-.543.186-.107.356-.245.693-.48-.213-.529-.448-1.032-.621-1.56-.3-.924-.456-1.835.484-2.477l.751,3.73,6.647-3.917a2.551,2.551,0,0,0-.006-.6c-.5-1.73-1.057-2.006-2.564-1.276-.49.237-.956.534-1.453.744-1.137.48-2.286.924-3.43,1.382M41.9,159.095c.111-.18.222-.36.408-.659l-.943.123-.03.284.608.214-1.672.809a2.566,2.566,0,0,0,2.353-.448c-.368-.163-.547-.242-.724-.323M17.282,67.974c.147-.864.494-1.76-.317-2.586-.508,1.04.079,1.778.326,2.574.321.7-.1,1.694.838,2.392-.132-1.006.463-2.067-.846-2.379m10.029,40.08c.4.965.014,2.259,1.085,2.968a9.627,9.627,0,0,0-.4-2.528c-.061-.2-.48-.268-.734-.4.135-.344.425-.717.377-1.027-.145-.932-.422-1.838-.68-2.89l-.627.47a5.025,5.025,0,0,0,.169-2.555c-.673-2.448-1.242-4.929-1.869-7.392-.122-.481-.323-.938-.488-1.407a1.657,1.657,0,0,0-.294,1.17c.812,3.39,1.66,6.769,2.5,10.145.316,1.151.632,2.3.959,3.444m152.076,6.835c.622-.061,1.244-.162,1.866-.173a9.492,9.492,0,0,0,1.568.115c2.186-.428,4.359-.935,6.538-1.413a46.15,46.15,0,0,0-6.339.317,26.576,26.576,0,0,0-3.143.6c-.191.044-.328.363-.491.553a3.046,3.046,0,0,0-3.059.436l3.059-.439m-14.541,4.264a8.248,8.248,0,0,0-1.246.3c-3.953,1.621-7.907,3.242-11.846,4.9a5.572,5.572,0,0,0-2.989,2.33c.846-.416,1.51-.769,2.192-1.073,4.254-1.9,8.516-3.785,12.765-5.7a6.977,6.977,0,0,0,1.094-.8c2.233-.017,4.179-1.155,6.235-1.863a18.417,18.417,0,0,0-6.2,1.9M14.793,54.624l-.9-2.691-1.463.84c1.379,1.126,1.556,2.657,1.922,4.1.6,2.361,1.2,4.725,1.817,7.081a3.154,3.154,0,0,0,.416.726,4.619,4.619,0,0,0-.036-2.12c-.589-2.666-1.2-5.325-1.8-7.98l.827.789c-.183-.826-.328-1.478-.473-2.129l-.223.053-.089,1.335m96.824,87.835a30.78,30.78,0,0,0-6.085.915c-2,.635-4.061,1.061-6.092,1.592-2.344.614-4.684,1.242-7.026,1.863a1.207,1.207,0,0,0,.966.179c5.078-1.179,10.156-2.351,15.226-3.57,1.011-.243,1.983-.677,2.977-1.018l5.134-.985a9.727,9.727,0,0,0-5.1,1.024m-7.2-9.982.973-.929a8.4,8.4,0,0,0-.962.071,76.905,76.905,0,0,0-9.988,2.6A191.957,191.957,0,0,0,70.82,144.932c-1.2.616-2.387,1.25-3.58,1.875l.123.355c.534-.2,1.079-.371,1.6-.608,3.168-1.442,6.3-2.992,9.5-4.331,6.413-2.678,12.855-5.273,19.307-7.835,1.8-.716,3.684-1.193,5.529-1.78l-1.652.889.067.191,10.888-2.536a31.054,31.054,0,0,0-8.193,1.325m10.986,2.77a1.434,1.434,0,0,1-1.219.965c-2.379.411-4.772.785-7.117,1.37-5.791,1.445-11.558,3-17.334,4.507.011.1.022.2.033.3l1.433.2c-4.62,1.6-9.349,1.686-13.375,4.356a38.818,38.818,0,0,0,4.719-.683c.808-.178,1.552-.685,2.355-.919,1.707-.5,3.443-.879,5.152-1.372,4.454-1.283,8.814-2.931,13.28-4.16,4.881-1.343,9.783-2.59,14.983-3.96a11.749,11.749,0,0,0-1.823.019c-.551.1-.956.077-1.089-.619a4.172,4.172,0,0,1,1-.441c3.18-.479,6.359-.977,9.55-1.355a4.906,4.906,0,0,1,3.472.363c-1,.331-1.929.727-2.892.94-3.042.677-6.1,1.267-9.145,1.927-1.525.331-3.036.735-4.552,1.113-1.568.39-3.139.768-4.7,1.187a30.3,30.3,0,0,1-4.519,1.231c-1.524.16-2.637,1.679-4.253,1.325-.028-.007-.072.318-.161.362a8.468,8.468,0,0,1-1.437.616c-2.96.823-5.93,1.6-8.887,2.438a6.247,6.247,0,0,0-1.281.721,75.517,75.517,0,0,0,7.442-1.449q5.494-1.274,10.978-2.556c-.167.134-.316.337-.5.395-3.137.963-6.281,1.9-9.418,2.861-.785.241-1.553.55-2.328.827.027.089.054.177.082.266l19.352-5.5a25.094,25.094,0,0,0-4.088.679c-1.039.214-2.093.345-3.14.512.081-.069.154-.18.245-.2,5.3-1.314,10.606-2.633,15.914-3.923,1.664-.4,3.345-.724,5.017-1.084.117.1.227.277.351.288a11.637,11.637,0,0,0,4.853-1.322h-1l.956-.634-.109-.351-26.627,6.634a6.077,6.077,0,0,1,2.369-1.1q11.273-2.847,22.552-5.667a2.14,2.14,0,0,0,1.606-.819c-1.045-.3-1.946-.568-2.856-.838h2.246c.007-.141.013-.281.02-.422a5.951,5.951,0,0,0-4.366-.329l2.164.792q-3.444-.206-6.887-.415a2.876,2.876,0,0,1-.95-.137,11.719,11.719,0,0,0-5.884-.509A75.013,75.013,0,0,0,96.9,136.053c-.454.166-.9.365-1.346.549,4.18-.862,8.292-1.911,12.433-2.806a72.873,72.873,0,0,1,12.494-1.338c-8.845,1.687-17.793,3.112-26.439,7.069,4.328-.982,8.39-1.974,12.479-2.808,2.939-.6,5.915-.989,8.873-1.471m73.308-13.654-.036-.037c-.225.171-.431.437-.68.5-5.741,1.432-11.488,2.838-17.232,4.259-1.462.362-2.917.761-4.375,1.143a3.04,3.04,0,0,0,1.624.114c5.429-1.024,10.851-2.1,16.286-3.084,1.825-.331,3.7-.329,5.52-.7,4.161-.848,8.3-1.805,12.446-2.764,7.548-1.747,15.088-3.53,22.635-5.284a6.056,6.056,0,0,1,1.235.053l-.714.461c1.56-.422,3.52.14,4.157-2.166-.022-.01-.076-.062-.118-.052q-16.906,3.909-33.809,7.825a4.817,4.817,0,0,1-.79.143,6.417,6.417,0,0,1-.794-.043l-.014-.246,37.094-8.68q-.043-.229-.087-.46c-7.766,1.891-15.55,3.685-23.443,5.341.094-.963.588-1,1.067-1.1,2.772-.625,5.54-1.266,8.31-1.9,4.143-.954,8.289-1.893,12.424-2.889.446-.107,1.133.022,1.32-.952a9.368,9.368,0,0,0-1.289.112c-4.135.948-8.267,1.913-12.392,2.868.119-.112.224-.293.359-.325q6.19-1.451,12.388-2.866c.547-.123.756-.32.448-1.037-4.67,1.453-9.576,1.791-14.393,3.982l1.24.206-2.86.672,1-.586-.076-.221-2.611.589c.012.058.024.116.036.173h1.7c-1.831,1.052-3.894,1.01-5.852,1.444-1.4.312-2.872.273-4.27.6-5.495,1.279-10.97,2.651-16.458,3.97-5.018,1.206-10.04,2.386-15.059,3.586-.05.012-.081.116-.113.165l.673.2-.611.614c2-.453,3.716-.848,5.434-1.232q5.343-1.195,10.687-2.38M229.3,108a14.425,14.425,0,0,0-.434-1.422c-3.287-7.383-6.405-14.844-9.251-22.45-1.987-5.314-4.382-10.446-6.594-15.66-4.2-9.895-8.191-19.9-12.651-29.653-4.155-9.086-7.655-18.486-11.695-27.619-.911-2.059-1.855-4.1-2.8-6.14a1.374,1.374,0,0,0-1.681-.882c-2.493.364-5.012.508-7.518.771-3.679.386-7.371.681-11.031,1.229-7.165,1.073-14.317,2.259-21.465,3.467-4.078.688-8.177,1.317-12.192,2.325-4.279,1.075-8.454,2.634-12.7,3.856a28.192,28.192,0,0,0-11.422,6.24,32.083,32.083,0,0,0-5.385,6.257,3.471,3.471,0,0,0-.3,3.777,19.6,19.6,0,0,1,.862,2.263c4.895,13.023,9.23,26.274,13.521,39.543,1.447,4.472,2.72,9.012,4.088,13.514.338,1.112.726,2.207,1.115,3.3s.81,2.173,1.212,3.261.809,2.171,1.2,3.264a19.453,19.453,0,0,0,1.162,3.269,19.1,19.1,0,0,1,1.025,3.14c.815,2.169,1.564,4.368,2.3,6.571q3.652,10.9,7.284,21.806a3.556,3.556,0,0,0,.475.719c.519-.411.95-.745,1.375-1.089a64.6,64.6,0,0,1,10.886-7.491c3.15-1.624,6.428-2.95,9.588-4.552a49.256,49.256,0,0,1,12.255-4.214c8.422-1.769,16.869-3.4,25.308-5.074a150.219,150.219,0,0,1,23.527-2.3c3.215-.123,6.438-.021,9.949-.021M46.221,155.637c2.588-1.123,5.047-2.095,7.435-3.243,6.041-2.906,12.051-5.888,18.069-8.851.437-.215,1.225-.656,1.194-.761-.3-1.012.48-.843.87-1.006,1.754-.73,3.542-1.362,5.281-2.129,7.368-3.249,14.786-6.342,22.359-8.995a52.078,52.078,0,0,1,16.378-3.361,36.823,36.823,0,0,1,11.187,1.073,3.253,3.253,0,0,0,.812.008c-.1-.487-.147-.834-.251-1.158a205.21,205.21,0,0,0-9.048-23.873,54.107,54.107,0,0,1-3.93-11.694c-.608-2.912-1.1-5.857-1.837-8.732-1.818-7.126-4.38-13.97-6.777-20.876-2.606-7.509-5.187-15.029-7.654-22.593a32.6,32.6,0,0,1-1.837-9.768,1.3,1.3,0,0,0-1.192-1.392c-1.266-.248-2.524-.564-3.8-.744-2.5-.352-5.005-.58-7.5-.949a50.356,50.356,0,0,0-12.377-.317,85.337,85.337,0,0,0-15.45,3.3c-9.019,2.632-17.521,6.692-25.867,11.167a118.584,118.584,0,0,0-12.06,7,1.372,1.372,0,0,0-.716,1.708c.132.446.239.9.354,1.353Q24.38,68.6,28.886,86.385c3.186,12.657,6.326,25.327,9.5,37.986,2.086,8.308,4.211,16.6,6.307,24.909.511,2.024.975,4.062,1.523,6.358M215,111.492c-20.319,1.922-40.224,5.79-59.191,14.34a329.016,329.016,0,0,1,47.3-10.951l-1.654.573c2.11.04,4.253.628,6.189-.741a3.542,3.542,0,0,1,1.229-.372q5.543-1.336,11.089-2.661l-.018-.175-1.983-.1c0-.1,0-.209.005-.312h4.262c-1.652-.564-3.4.018-5.023-.755a26.786,26.786,0,0,1,5.41-.1,18.056,18.056,0,0,0,7.263-.914c.043-.012.054-.16.149-.474a17.185,17.185,0,0,0-3.167-.467c-2.729.1-5.452.378-8.178.549-4.336.27-8.693.309-13,.812-5.484.639-10.933,1.639-16.394,2.5-.233.037-.44.282-.808.531,3.411.386,6.513-.414,9.646-.791q5.341-.643,10.686-1.242,3.1-.346,6.216-.606a1.281,1.281,0,0,1,1.55.639,54.442,54.442,0,0,0-5.683.033c-4.2.458-8.385,1.092-12.576,1.65a146.644,146.644,0,0,0-23.327,5.039,150.639,150.639,0,0,0-20.631,7.417c-1.58.744-3.108,1.619-4.66,2.434l.143.42c20.8-9.937,42.666-14.71,65.162-16.283m-169.369,44.4c-8.944-35.726-17.826-71.2-26.7-106.664-1.831.407-1.885.488-1.55,2.116.059.285.1.577.167.857Q20.212,62.6,22.885,73.007c1.588,6.2,3.187,12.394,4.744,18.6,1.332,5.31,2.611,10.636,3.914,15.954.236.963.482,1.922.718,2.885s.459,1.928.7,2.889.484,1.921.738,2.877.264,2.242.847,2.781c.925.856.249,1.751.483,2.586,1.013,3.608,1.891,7.262,2.81,10.9q.958,3.795,1.9,7.6,1.876,7.533,3.755,15.067c.093.374.227.737.381,1.231l1.759-.49m88.8-24.982c-.13-.481-.188-.756-.278-1.018-2.647-7.74-5.357-15.455-7.933-23.222-3.179-9.588-6.175-19.248-9.379-28.826-4.528-13.54-9.2-27.021-13.737-40.559-.842-2.514-2.037-4.89-2.542-7.544-.036-.191-.425-.3-.894-.611.116.76.141,1.213.256,1.637,1.287,4.716,2.431,9.486,3.918,14.126,2.745,8.572,5.677,17.074,8.564,25.592,1.751,5.166,3.678,10.278,4.651,15.7a72.262,72.262,0,0,0,5.373,17.065c1.991,4.413,3.872,8.9,5.591,13.443,1.473,3.895,2.66,7.92,3.944,11.9a2.972,2.972,0,0,0,2.465,2.317m-32.013.536a2.429,2.429,0,0,0,.516.032c2.745-.447,5.482-.963,8.237-1.324a16.562,16.562,0,0,1,3.159.2c.035-.824.759-.605,1.379-.606,3.164,0,6.329-.054,9.492.026,1.371.035,2.819-.383,4.1.642.278.221.831.032,1.507.032-5.115-3.68-21.122-2.714-28.394,1M17.265,56.866c.739,2.857,1.41,5.411,2.059,7.973.657,2.59,1.295,5.186,1.938,7.78s1.3,5.188,1.921,7.79A37.5,37.5,0,0,0,25.55,87.8q-4.393-18.637-8.793-37.3c-1.077.35-1.422.944-1.2,1.921.427,1.9.842,3.809,1.338,6.054.157-.679.23-.99.373-1.609M138.745,134.9c.224.164.451.47.67.464a7.541,7.541,0,0,0,1.416-.294q17.851-4.069,35.7-8.138c2.133-.486,4.265-.983,6.4-1.475a.958.958,0,0,0-.82-.226c-3.512.708-7.025,1.4-10.53,2.151q-7.96,1.7-15.91,3.464a69.649,69.649,0,0,1-7.7,1.739,39.3,39.3,0,0,0-9.229,2.313m61.822-18.182v-.334c-.424,0-.849-.031-1.271.005a39.421,39.421,0,0,0-7.916,1.348c-3.211.951-6.543,1.3-9.777,2.2-3.049.844-6.152,1.455-9.229,2.175-2.021.473-4.039.958-6.059,1.437a.522.522,0,0,0,.506.226c3.566-.759,7.132-1.517,10.693-2.3,1.572-.345,3.154-.668,4.7-1.134,1.507-.454,3.173-.023,4.573-1.029a.536.536,0,0,1,.473-.006c.96.475,1.886.071,2.8-.138,3.506-.8,7-1.632,10.506-2.453m-98.925,19.25c-5.731.705-20.5,6.071-22.753,8.175,7.865-1.791,15.126-5.589,22.753-8.175M109.168,19.1c1.287-.906,2.429-1.759,3.615-2.534,2.113-1.381,2.4-1.006.838-3.945-.047-.09-.163-.137-.264-.217-1.425.855-2.879,1.672-4.281,2.585-.957.622-1.1,1.2-.693,2.362.2.58.5,1.12.786,1.749M179.1,3.524C178.863,1.6,177.889.371,176.7.59c-1.775.326-3.516.872-5.365,1.349.184.9.321,1.564.5,2.429l7.268-.844m-8.176-2.429a15.972,15.972,0,0,0-5.569,1.057c-.814.261-.925.754-.75,1.807.145.877.574,1.12,1.358,1.013,1.317-.179,2.646-.257,3.97-.386.956-.093,1.071-.283,1-1.3-.046-.663-.009-1.333-.009-2.187M63.527,152.627q.03.236.061.472c.408-.071.823-.116,1.225-.219,5.52-1.414,11.034-2.856,16.559-4.243,1.86-.467,3.751-.776,5.618-1.206a21.217,21.217,0,0,0,2.3-.747c.694-.248,1.376-.535,2.063-.805q-.054-.188-.11-.378l-27.72,7.126M85.957,23a7.984,7.984,0,0,0,.284,1.69c.167.381.5.893.816.944,1.99.323,4,.533,6.017.783-.11-2.772-.694-3.287-2.865-2.965a11.572,11.572,0,0,1-2.682-.12A14.622,14.622,0,0,1,85.957,23M63.9,150.518c4.276-1.3,8.877-1.367,12.817-3.956-4.384.89-8.764,1.8-12.817,3.956m98.471-24.433c.5-.089,1-.154,1.5-.271,2.352-.558,4.707-1.1,7.049-1.708,1.095-.284,2.3-.3,3.369-1.437-4.178.9-8.15,1.654-11.915,3.416M22.5,89.167l.444-.037a7.781,7.781,0,0,0-.077-1.5q-.937-3.81-1.956-7.6a9.456,9.456,0,0,0-.567-1.314L20,78.858c.568,3.511,1.642,6.879,2.5,10.309m96.07,50.615c3.632-.279,7.271-.528,10.512-2.674l-10.512,2.674m19.531-2.524.362-.195c-.092-1-.029-2.148-1.072-2.644a1.725,1.725,0,0,0-2.03.661,1.469,1.469,0,0,0-.088,2.114l1.618-1.655,1.211,1.719M68.07,153l-10.132,2.525.077.359A30.452,30.452,0,0,0,68.07,153M14.4,70.729c1.139-1.9-.045-3.492-.288-5.54-.7,1.006-1.153,1.7-.8,2.661s.722,1.919,1.083,2.879m58.959,74.257.139.381a54.735,54.735,0,0,0,9.125-4.028l-.129-.354-9.135,4m87.558-17.712c-3.093-.2-6.017.857-8.921,2.026l8.921-2.026m-34.9,4.427c-1.381-.95-5.763-1.159-8.118-.6l8.118.6M231.394,93.61l.448-.223q-1.8-4.133-3.753-8.183l-.353.187,3.658,8.22M55.844,152.586a9.344,9.344,0,0,0,5.166-2.108,11.011,11.011,0,0,0-5.166,2.108m19.928-6.9a8.182,8.182,0,0,0,6.186-1.965l-6.186,1.965m50.714-11.351q-.045-.238-.091-.475l-6.485.935a19.115,19.115,0,0,0,6.576-.461m17.679,1.892-4.731,1.023a4.487,4.487,0,0,0,4.731-1.023M70.766,147a5.612,5.612,0,0,0-4.286,1.518L70.766,147m-41.4-31.728a5.238,5.238,0,0,0-.574-3.167c-.572,1.356.038,2.262.574,3.167M12.76,60.447l-.494.181L13.418,64.1l.324-.115-.983-3.541m122.225,72.825.151-.413-1.621-1.39-.218.187c.171.559.342,1.118.526,1.718l1.162-.1M23.355,92.811c.648-1.44.57-1.946-.553-2.9.171.9.343,1.8.553,2.9m6.43,22.687a2.756,2.756,0,0,0,.792,3.219c-.3-1.2-.5-2.028-.792-3.219m100.707,22.3c.95-.167,2.011.021,2.969-.99-1.342-.4-2.083.564-2.969.99m-92.853,8.691-.387.053c-.2,1.408-.2,1.408.792,2.446-.17-1.05-.288-1.774-.4-2.5m90.055-6.914-.115-.32-3.28.895c.023.1.046.206.069.31l3.326-.885M57.414,154.495l-.116-.361-3.268.846.056.289,3.328-.774m-12.042,2.242-2.065.71c1,.72,1.572.138,2.065-.71m96.907-21.025-.083-.339c-.974.383-2.069.215-3.014.732.029.137.059.273.087.409l3.009-.8M15.378,73.338c.763-.849.106-1.608.03-2.48-.614,1.169-.614,1.169-.03,2.48m3.236-.138c.418-.955.418-.955-.243-2.282a2.477,2.477,0,0,0,.243,2.282m13.644,56.977a1.821,1.821,0,0,0,.445,2.478q-.222-1.239-.445-2.478m-15.441-54-.357.1a1.858,1.858,0,0,0,.97,2.037l-.613-2.141m45.466,73.069c1.784-.2,1.784-.2,2.747-1.251l-2.747,1.251m-21.39.747a2.057,2.057,0,0,0,.711,2.466q-.355-1.233-.711-2.466M24.6,88.766l.362-.084L24.134,85.9l-.247.081q.359,1.394.717,2.788M190.279,10.629l1.083-1.021L191.23,9.3l-1.546.218.594,1.108M39.923,147.207c-.3.756-.482,1.321.2,1.918a1.5,1.5,0,0,0-.2-1.918m-8.565-18.178.412-.132q-.25-1.18-.5-2.361l-.338.073.426,2.42m4.832,15.3c.929-.927.586-1.5-.1-2.4.04.949.067,1.546.1,2.4m-.9-6.02v2.229a1.628,1.628,0,0,0,0-2.229m13.177,17.592c.042.12.084.239.126.358l1.7-.829-.137-.339-1.691.81M125.528,12.688l-.1-.386-1.868.517c.022.108.044.215.065.323l1.9-.453M100.139,28.074c.7.682.7.682,1.017-.126l-1.017.126m69.576,97.072-.109-.276-1.733.483c.021.088.042.177.064.265l1.778-.473M13.81,58.336l-.3.048q.226.991.453,1.982l.277-.073-.434-1.956M37.013,136l.416-.21-.6-1.6-.368.162q.276.821.552,1.644m1.884,8.792.307-.161q-.261-.665-.523-1.33l-.22.1.436,1.392m-.565,4.422c-.779.311-.65.769-.385,1.246.038.069.184.067.385.131Zm-.774,2.078-.4.036.262,1.206.269-.055-.129-1.187M34.289,138.5l-.381.082c.087.356.167.716.269,1.067.01.035.148.026.346.054-.086-.44-.16-.821-.234-1.2M21.727,77.242l.268-.148-.484-1.5-.213.076q.215.788.429,1.577m19.865,76.7c-.7.522-.543.915.071,1.45-.032-.634-.052-1.042-.071-1.45M15.874,75.423c.75-.553.463-.946.239-1.324-.028-.048-.16-.023-.326-.04.026.409.05.791.086,1.364m123.769,55.931c.147.2.281.429.316.413a4.346,4.346,0,0,0,.6-.4c-.075-.124-.182-.366-.221-.353a4.673,4.673,0,0,0-.691.337M15.453,65.325l-.226.086.4,1.187.2-.079q-.188-.6-.377-1.195m18.721,58.714-.389.112.465,1.354.319-.12q-.2-.673-.394-1.347m-1.4,10.4h.387l-.071-.852h-.265q-.025.425-.052.851m2.2,2.471-.348.058c.022.275.044.55.083,1.054.222-.328.358-.442.369-.567a1.991,1.991,0,0,0-.1-.544m-1.938-15.165.187-.043a2.888,2.888,0,0,0-.046-.634,2.453,2.453,0,0,0-.3-.523l-.207.1.365,1.1m4.018,22.536c-.284.5-.473.684-.463.854a4.14,4.14,0,0,0,.463,1.012Zm5.244,11.68-.441-.17-.214.973.329.1q.162-.453.326-.907m108.24-27.341c-.032-.089-.064-.178-.1-.267l-1.1.489.085.242,1.111-.464m-114.708,3.6.21-.048a2.388,2.388,0,0,0-.048-.6,2.874,2.874,0,0,0-.337-.555l-.208.158.384,1.048M19.012,75.077l.361-.045L19.28,74l-.376.044q.054.516.108,1.032m6.278,16.09.27-.132q-.168-.519-.336-1.037l-.2.087q.136.541.271,1.082" transform="translate(0 0)" fill="#1a1311"/>
        <path id="パス_1088" data-name="パス 1088" d="M350.923,166.363l-4.085,2.972-.208-.348,4.086-2.971.207.347" transform="translate(-113.508 -44.037)" fill="#1a1311"/>
        <path id="パス_1089" data-name="パス 1089" d="M212.568,194.861l1.389,0-2.367.8.979-.8" transform="translate(-69.287 -51.688)" fill="#1a1311"/>
        <path id="パス_1090" data-name="パス 1090" d="M160.1,48.594l4.182-6.231.352.283-5.21,8.165-.275-.172q.216-.576.432-1.154l-.958-.414,5.593-9.1.285.192a23.4,23.4,0,0,1-2.346,4.133c-.825,1.335-1.613,2.7-2.417,4.048l.362.253" transform="translate(-51.942 -10.602)" fill="#1a1311"/>
        <path id="パス_1091" data-name="パス 1091" d="M158.264,44.536a32.512,32.512,0,0,1,6.549-8.623l-6.285,8.856-.264-.233" transform="translate(-51.825 -9.526)" fill="#1a1311"/>
        <path id="パス_1092" data-name="パス 1092" d="M180.159,85.6l-3.943,6.624-.319-.173A8.093,8.093,0,0,1,177,89.833a26.829,26.829,0,0,1,1.383-2.352c.473-.725,1.007-1.4,1.514-2.1l.259.218" transform="translate(-57.599 -22.647)" fill="#1a1311"/>
        <path id="パス_1093" data-name="パス 1093" d="M164.65,48.041a1.758,1.758,0,0,1-.024.515,6.287,6.287,0,0,1-.377.771c-1.1,2.1-2.2,4.2-3.347,6.383-.084-1.479,1.96-5.534,3.781-7.634Z" transform="translate(-52.689 -12.743)" fill="#1a1311"/>
        <path id="パス_1094" data-name="パス 1094" d="M171.408,55.542a32.709,32.709,0,0,1-4.189,7.9,33.529,33.529,0,0,1,4.189-7.9" transform="translate(-54.758 -14.733)" fill="#1a1311"/>
        <path id="パス_1095" data-name="パス 1095" d="M173.566,69.163a2.107,2.107,0,0,1-.153.647c-1.311,2.045-2.64,4.077-4.052,6.248.216-1.548,2.86-5.74,4.238-6.862Z" transform="translate(-55.459 -18.346)" fill="#1a1311"/>
        <path id="パス_1096" data-name="パス 1096" d="M175.539,73.731l-3.283,6.059a14.246,14.246,0,0,1,2.984-6.247l.3.187" transform="translate(-56.407 -19.508)" fill="#1a1311"/>
        <path id="パス_1097" data-name="パス 1097" d="M183.77,114.111a19.129,19.129,0,0,1,4.209-6.244q-1.965,3.206-3.93,6.413l-.28-.169" transform="translate(-60.178 -28.612)" fill="#1a1311"/>
        <path id="パス_1098" data-name="パス 1098" d="M175.057,88.953c.383-2.537,1.7-4.407,2.885-6.365l.29.175Z" transform="translate(-57.324 -21.907)" fill="#1a1311"/>
        <path id="パス_1099" data-name="パス 1099" d="M181.208,103.118c.412-2.256,1.648-3.878,2.8-5.559l.279.184-3.076,5.375" transform="translate(-59.339 -25.878)" fill="#1a1311"/>
        <path id="パス_1100" data-name="パス 1100" d="M185.112,102.119l-3.007,5.292-.272-.176a25.465,25.465,0,0,1,3.008-5.377l.271.261" transform="translate(-59.543 -27.018)" fill="#1a1311"/>
        <path id="パス_1101" data-name="パス 1101" d="M178.454,95.112c.145-2.14,1.648-3.39,2.683-4.973l.264.186-2.948,4.787" transform="translate(-58.437 -23.91)" fill="#1a1311"/>
        <path id="パス_1102" data-name="パス 1102" d="M188.068,114.252l-3,4.739a8.112,8.112,0,0,1,3-4.739" transform="translate(-60.601 -30.306)" fill="#1a1311"/>
        <path id="パス_1103" data-name="パス 1103" d="M187.272,125.626a19.946,19.946,0,0,1,3.152-4.845,18.007,18.007,0,0,1-3.152,4.845" transform="translate(-61.324 -32.038)" fill="#1a1311"/>
        <path id="パス_1104" data-name="パス 1104" d="M185.08,106.6l-2.97,5.051-.273-.2c.822-1.807,1.646-3.613,3.275-4.817l-.032-.032" transform="translate(-59.545 -28.276)" fill="#1a1311"/>
        <path id="パス_1105" data-name="パス 1105" d="M169.864,68.032l2.62-4.505.27.181a19.758,19.758,0,0,1-2.628,4.583l-.263-.259" transform="translate(-55.624 -16.851)" fill="#1a1311"/>
        <path id="パス_1106" data-name="パス 1106" d="M181.188,94.66l-2.311,4.325a10.475,10.475,0,0,1,2.042-4.537l.27.212" transform="translate(-58.575 -25.053)" fill="#1a1311"/>
        <path id="パス_1107" data-name="パス 1107" d="M185.41,94.37l-1.839,2.949-.372-.281,1.863-2.931.348.264" transform="translate(-59.991 -24.962)" fill="#1a1311"/>
        <path id="パス_1108" data-name="パス 1108" d="M169.781,54.054l-2.069,3.613-.319-.209,2.013-3.65.375.246" transform="translate(-54.815 -14.273)" fill="#1a1311"/>
        <path id="パス_1109" data-name="パス 1109" d="M164.969,54.509l2.083-3.547c-.212,1.5-.5,2.048-2.083,3.547" transform="translate(-54.021 -13.518)" fill="#1a1311"/>
        <path id="パス_1110" data-name="パス 1110" d="M175.645,68.123a5.877,5.877,0,0,1,2.138-3,7.82,7.82,0,0,1-2.171,2.971l.033.033" transform="translate(-57.506 -17.273)" fill="#1a1311"/>
        <path id="パス_1111" data-name="パス 1111" d="M199.651,157.378c-.36.743-.719,1.486-1.163,2.4,0-1.358,0-1.358,1.163-2.4" transform="translate(-64.997 -41.745)" fill="#1a1311"/>
        <path id="パス_1112" data-name="パス 1112" d="M176.806,80.283l1.152-1.936.319.228L177.116,80.5l-.31-.22" transform="translate(-57.897 -20.782)" fill="#1a1311"/>
        <path id="パス_1113" data-name="パス 1113" d="M164.159,36.218l-1.268,1.464-.2-.18,1.2-1.563.266.278" transform="translate(-53.276 -9.533)" fill="#1a1311"/>
        <path id="パス_1114" data-name="パス 1114" d="M203.561,156.962l-.832,1.724-.311-.165.816-1.691.327.132" transform="translate(-66.284 -41.6)" fill="#1a1311"/>
        <path id="パス_1115" data-name="パス 1115" d="M185.587,123.387l1.061-1.787.3.195-1,1.824-.355-.231" transform="translate(-60.773 -32.255)" fill="#1a1311"/>
        <path id="パス_1116" data-name="パス 1116" d="M199.352,133.224l-.583,1.431-.282-.115q.273-.753.547-1.505l.317.19" transform="translate(-64.997 -35.288)" fill="#1a1311"/>
        <path id="パス_1117" data-name="パス 1117" d="M186.691,106.054l.855-1.633.37.3-1.258,1.3.033.032" transform="translate(-61.123 -27.698)" fill="#1a1311"/>
        <path id="パス_1118" data-name="パス 1118" d="M166.51,47.583l1.02-1.353-.048-.05c-.221.556-.282,1.253-1.005,1.367l.034.035" transform="translate(-54.514 -12.249)" fill="#1a1311"/>
        <path id="パス_1119" data-name="パス 1119" d="M168.018,45.845l.381-1.118.343.246q-.387.409-.773.821l.048.051" transform="translate(-55.004 -11.864)" fill="#1a1311"/>
        <path id="パス_1120" data-name="パス 1120" d="M190.943,116.593q-.319.522-.637,1.044l-.227-.152.621-1.059.243.167" transform="translate(-62.244 -30.883)" fill="#1a1311"/>
        <path id="パス_1121" data-name="パス 1121" d="M280.571,164.222q4.931-1.2,9.861-2.4c1.1-.267,2.217-.456,3.3-.793a5.818,5.818,0,0,1,3.767-.015c-2.437.536-4.611,1.4-7.033,1.449-2.16.042-4.3.871-6.462,1.287-1.141.22-2.3.3-3.462.439l.032.033" transform="translate(-91.866 -42.629)" fill="#1a1311"/>
        <path id="パス_1122" data-name="パス 1122" d="M193.908,184.312l-2.986.735,2.986-.735" transform="translate(-62.52 -48.89)" fill="#1a1311"/>
        <path id="パス_1123" data-name="パス 1123" d="M140.173,192.683c-.391.14-.779.29-1.175.413-.08.025-.186-.052-.639-.2l1.76-.45c.017.078.036.156.054.234" transform="translate(-45.307 -51.048)" fill="#1a1311"/>
      </g>
    </g>
  </g>
</svg>
