<svg xmlns="http://www.w3.org/2000/svg" width="585.431" height="55.671" viewBox="0 0 585.431 55.671">
  <path id="パス_1454" data-name="パス 1454" d="M-242.935-26.411q0,11.473-6.891,19.4a21.552,21.552,0,0,1-16.9,7.931,23.081,23.081,0,0,1-17.864-8.046q-7.238-8.047-7.238-19.827,0-12.012,6.969-19.673a23.02,23.02,0,0,1,17.826-7.662,21.813,21.813,0,0,1,17.171,8.008Q-242.935-38.269-242.935-26.411Zm-8.624.385q0-14.091-5.775-21.945A11.8,11.8,0,0,0-267.421-52.9q-6.16,0-9.548,3.773-6.237,6.93-6.237,22.561,0,12.4,4.35,19.25a13.7,13.7,0,0,0,12.2,6.853A11.93,11.93,0,0,0-255.64-6.93Q-251.559-14.091-251.559-26.026ZM-164.934-52.9q0,.693-2.618.77-2.926.077-3.888,1.925a66.573,66.573,0,0,0-2.965,7.854q-3.465,10.549-6.16,17.941Q-185.185-11.781-188.958,0q-.308,1-.77,1-.385,0-.731-.77t-2.041-5.39q-2.156-6.006-4.7-12.089-2-4.774-3.927-9.856-5.39,13.013-10.7,27.181-.308.924-.77.924-.385,0-.924-1.309-2.387-5.7-17.71-47.2a18.764,18.764,0,0,0-1.617-3.658q-.539-.732-2.695-.809-3.7-.154-3.7-1.078,0-.693,1.232-.693a4.783,4.783,0,0,1,.924.077q4.081.231,8.778.231.924,0,3.2-.116t5.891-.116h.847q1.309,0,1.309.693,0,.847-2.387.924-4.774.154-4.774,1.232,0,2.156,14.168,40.117,5.159-13.013,7.7-19.173l-7.623-19.712a3.91,3.91,0,0,0-1.424-2.079,7.089,7.089,0,0,0-2.965-.539q-2.156-.077-2.156-.693,0-.847,1.617-.847,1.232,0,3,.154t6.16.154h5.852l8.47.154q2.849,0,6.853-.308a6.633,6.633,0,0,1,1.078-.077q1.848,0,1.848.77,0,.693-1.309.693h-1.309a11.657,11.657,0,0,0-5.236.924q-.77.385-2.849,5.544-.924,2.156-3.08,7.315l-1.386,3.465q.539,1.54,3.388,8.547,3.7,8.932,6.083,15.323,4.312-12.474,10.164-29.491,3.08-9.009,3.08-10.01,0-1.463-2.7-1.463-3.773,0-3.773-.847,0-.77,1.54-.77,1.309,0,2.079.077,1.694.154,3.08.154l6.16-.077a7.846,7.846,0,0,1,2.541.193A.551.551,0,0,1-164.934-52.9Zm-27.8,2.31q0-1.386-4.774-1.386h-.924l-1.309.077q-2.772.154-2.772,1,0,.154,4.543,13.321,1.771-3.85,4.158-10.164.308-.847.924-2.233Zm77.308-2.156q0,.77-1.925.693l-1.694-.077h-1.386q-1.232,0-1.463.423a7.834,7.834,0,0,0-.231,2.58V-4.774q0,4.081-.077,4.774t-.462.693q-.462,0-1.078-.847l-9.856-14.4q-8.547-12.551-20.79-31.339l.077,42.966a1.349,1.349,0,0,0,1.155,1.27,31.217,31.217,0,0,0,5.159.347q1,0,1,.616,0,.77-2,.77-.693,0-4.389-.231-1.232-.077-2.387-.077.077,0-1.348.154t-4.35.154h-.77q-1.771,0-1.771-.693t1.54-.693q4.543-.077,5.275-.577t.732-3.272V-43.12q0-6.391-2.618-8.008a8.891,8.891,0,0,0-4.389-.77q-2,0-2-.77,0-.693,1.155-.693,1.54,0,3.927.077t2.541.077q.231,0,2.156-.077,2.541,0,4.928-.077l26.565,39.5V-48.125q0-2.387-.077-2.888a1.023,1.023,0,0,0-.616-.77,13.2,13.2,0,0,0-3.7-.269q-2.772,0-2.772-.693,0-.77,1.848-.77h4.851q1.232.077,1.463.077.077,0,1.386-.077h4.7Q-115.423-53.515-115.423-52.745Zm46.662,40.271q0,.308-.154,3.773t-.154,6.622V.462Q-76.615.077-98.945.077q-2.695,0-5.313.077h-4.312q-1.463,0-1.463-.693a.494.494,0,0,1,.462-.539q.231,0,2.926-.231,2-.154,2.425-.847a9,9,0,0,0,.424-3.619V-49.049q0-2.233-.654-2.656t-4.2-.423q-1.232,0-1.232-.693t1.694-.693l13.167.077q.693,0,8.7-.077h10.78a26.9,26.9,0,0,0,4.235-.308q.154,3.311.693,9.163l.308,3.311a5.279,5.279,0,0,1,.077,1q0,.77-.693.77-.847,0-1.232-1.925-1.463-6.93-4.774-8.778-2.464-1.386-12.936-1.386h-6.314v22.561h1.848q8.624,0,10.51-1.309t2.58-7.623q.154-1.617.847-1.617.847,0,.847,1.386t-.154,4.081q-.154,2.695-.154,4.081,0,8.239.308,11.319.077.77.077,1.309,0,1-.847,1-.539,0-.731-.654t-.655-4.274q-.616-4.543-3.773-5.621-1.386-.462-7.238-.462h-3.465V-1.617q16.94,0,19.866-.693,5.082-1.155,5.775-9.856.154-1.925,1-1.925Q-68.761-14.091-68.761-12.474ZM-19.173-2.31q0,3.234-5.39,3.234a10.735,10.735,0,0,1-9.394-5,11.87,11.87,0,0,1-1.887-4.158q-.423-2-1.27-10.164-.462-4.928-3.157-6.969t-8.778-2.194V-3.311q0,1.54,2.464,1.925.693.077,3.542.154,1,0,1,.616,0,.693-1.309.693h-.924Q-44.968,0-50.974,0-52.129,0-54.9.077h-6.545q-1.694,0-1.694-.693,0-.539,2.233-.616,3.619-.077,3.927-.924a7.494,7.494,0,0,0,.308-3v-42.5q0-3.08-.654-3.7t-3.965-.693q-1.925,0-1.925-.693,0-.77,1.232-.77a4.632,4.632,0,0,1,.693.077l10.241.231q1.54,0,4.312-.077,3.08-.154,4.312-.154,7.161,0,11.357,3.2a10.313,10.313,0,0,1,4.2,8.662,10.973,10.973,0,0,1-4.312,8.894q-4.312,3.5-11.7,4.12-.693.077-.77.231,0,.308.77.308,8.085,1.386,11.126,5.66T-27.72-6.93Q-27.1-.616-23.408-.616q1.155,0,1.155-.462a.222.222,0,0,0-.077-.154,3.554,3.554,0,0,1-.385-1.386q0-1.617,1.694-1.617Q-19.173-4.235-19.173-2.31ZM-35.112-40.887q0-11.011-9.548-11.011a6.136,6.136,0,0,0-3.465.693,2.9,2.9,0,0,0-.924,2.464v19.558q7.392.077,10.665-2.695T-35.112-40.887Zm33.726-6.16q0,5.621-4.466,8.162a10.98,10.98,0,0,1-5.159,1.771q-.847,0-.847-.616,0-.539.924-.77a11.518,11.518,0,0,0,4.928-2.387,5.421,5.421,0,0,0,1.386-4,6.121,6.121,0,0,0-1-3.542q0,2.618-3.311,2.618a3.811,3.811,0,0,1-2.81-1.116,3.718,3.718,0,0,1-1.117-2.733,4.337,4.337,0,0,1,1.425-3.273,4.905,4.905,0,0,1,3.5-1.347,6.059,6.059,0,0,1,4.7,2.041A7.447,7.447,0,0,1-1.386-47.047ZM41.272-15.015a14.8,14.8,0,0,1-5.044,11.28A17.245,17.245,0,0,1,24.1.924a25.474,25.474,0,0,1-9.933-2.541,6.384,6.384,0,0,0-2.31-.693q-.924,0-1.155,2.233-.077,1.155-1,1.155-.77,0-.77-.924A4.1,4.1,0,0,1,9.009-.77a67.223,67.223,0,0,0,.616-8.7q0-.77-.154-4.312a7.824,7.824,0,0,1-.077-1.232q0-1.155.924-1.155.77,0,1.078,1.848Q13.4-.616,24.409-.616q4.7,0,7.277-2.656t2.579-7.507a11.2,11.2,0,0,0-2.5-7.353q-2.5-3.042-8.586-6.045Q15.862-27.8,13.013-31.185a12.6,12.6,0,0,1-2.849-8.393,14.365,14.365,0,0,1,4.12-10.549,14.07,14.07,0,0,1,10.434-4.158,21.911,21.911,0,0,1,7.238,1.771,7.64,7.64,0,0,0,2.387.616,1.487,1.487,0,0,0,1.117-.308,4.018,4.018,0,0,0,.5-1.617.818.818,0,0,1,.847-.77q.77,0,.77.924a4.1,4.1,0,0,1-.077.924,36.74,36.74,0,0,0-.231,4.466,34.913,34.913,0,0,0,.385,5.852L37.73-41.2q.077.847-.693.847-.847,0-1.155-1.771a13.744,13.744,0,0,0-4-7.584,9.969,9.969,0,0,0-7.084-3.042,7.92,7.92,0,0,0-6.122,2.464,9.5,9.5,0,0,0-2.271,6.7,10.194,10.194,0,0,0,3.311,7.931q1.848,1.694,8.008,4.774,7.238,3.619,10.4,7.353A12.813,12.813,0,0,1,41.272-15.015ZM112.8-52.9q0,.616-1.463.693-3.388.077-4.543,1t-2.387,4.312l-2.618,7.161Q92.323-13.783,88.473.077,88.242,1,87.7,1q-.616,0-2.541-5.775Q81.7-15.323,79.772-20.636q-2.079-5.852-6.16-17.479l-3.7-10.395A6.484,6.484,0,0,0,68.222-51.4a5.346,5.346,0,0,0-3.08-.808Q62.6-52.283,62.1-52.36a.548.548,0,0,1-.5-.616q0-.693,1.54-.693h.693q1.386,0,4.813.116t4.889.116q.385,0,2.965-.116t7.354-.116h1.078q1.386,0,1.386.77,0,.847-2.772.924l-4.7.154q-1.617.077-1.617,1a2.52,2.52,0,0,0,.154.616l.616,2q.154.616,7.469,21.714,1.232,3.619,4.7,13.783,12.705-35.959,12.705-37.807T99.1-52.206l-2.387.077q-.924,0-.924-.616,0-.77,2.31-.77h2.618q2.156.077,3.157.077h2.464l5.082-.077Q112.8-53.515,112.8-52.9Zm52.9,26.488q0,11.473-6.891,19.4a21.552,21.552,0,0,1-16.9,7.931,23.081,23.081,0,0,1-17.864-8.046q-7.238-8.047-7.238-19.827,0-12.012,6.969-19.673A23.02,23.02,0,0,1,141.6-54.285a21.813,21.813,0,0,1,17.171,8.008Q165.7-38.269,165.7-26.411Zm-8.624.385q0-14.091-5.775-21.945A11.8,11.8,0,0,0,141.218-52.9q-6.16,0-9.548,3.773-6.237,6.93-6.237,22.561,0,12.4,4.35,19.25a13.7,13.7,0,0,0,12.2,6.853A11.93,11.93,0,0,0,153-6.93Q157.08-14.091,157.08-26.026ZM193.424-.616q0,.616-.924.616h-.77q-.462-.231-10.472-.231-1.925,0-3.85.154-1,.077-3.08.077-1,0-1-.693,0-.616,2-.693,3.08-.077,3.619-.732t.539-4.428v-40.5q0-3.773-.385-4.235-.462-.77-4.235-.924-1.463-.077-1.463-.616,0-.693.924-.693l10.4.154q1.155,0,4.466-.077l2.926-.077q1.232,0,1.232.693,0,.616-3.388.77-1.925.077-2.348.693a7.24,7.24,0,0,0-.424,3.234V-7.007q0,4.389.385,4.774.847.847,5,1Q193.424-1.232,193.424-.616Zm51.128-16.555q0-.154-.154,2.079-.308,4.466-.308,8.624,0,.462.154,1.886a32.515,32.515,0,0,1,.154,3.427v.693q0,1-.616,1T242.7-.616a7.922,7.922,0,0,0-2.156-3.311A19.542,19.542,0,0,1,227.227.924a24.653,24.653,0,0,1-18.749-7.892q-7.43-7.893-7.43-19.9,0-12.089,6.814-19.75a22.463,22.463,0,0,1,17.594-7.662,24.191,24.191,0,0,1,6.275.654,26.513,26.513,0,0,1,5.814,2.657,5.823,5.823,0,0,0,2.541,1q.693,0,1.309-1.232,1-2.156,1.617-2.156a.544.544,0,0,1,.616.616,5.271,5.271,0,0,1-.154,1q-.847,3.7-.847,13.86a3.312,3.312,0,0,1-.231,1.694.833.833,0,0,1-.616.231q-.77,0-1-1.463-1-6.16-2.849-9.163-3.773-6.16-11.858-6.16a12.392,12.392,0,0,0-9.856,4.158q-6.545,7.469-6.545,21.868,0,12.859,5.39,19.943a14.912,14.912,0,0,0,12.474,6.16,14.074,14.074,0,0,0,7.315-1.963,13.245,13.245,0,0,0,5.082-5.352,31.021,31.021,0,0,0,2.849-8.547q.308-1.848,1-1.848Q244.552-18.326,244.552-17.171Zm49.049,4.7q0,.308-.154,3.773t-.154,6.622V.462Q285.747.077,263.417.077q-2.695,0-5.313.077h-4.312q-1.463,0-1.463-.693a.494.494,0,0,1,.462-.539q.231,0,2.926-.231,2-.154,2.425-.847a9,9,0,0,0,.424-3.619V-49.049q0-2.233-.655-2.656t-4.2-.423q-1.232,0-1.232-.693t1.694-.693l13.167.077q.693,0,8.7-.077h10.78a26.894,26.894,0,0,0,4.235-.308q.154,3.311.693,9.163l.308,3.311a5.279,5.279,0,0,1,.077,1q0,.77-.693.77-.847,0-1.232-1.925-1.463-6.93-4.774-8.778-2.464-1.386-12.936-1.386h-6.314v22.561h1.848q8.624,0,10.51-1.309t2.579-7.623q.154-1.617.847-1.617.847,0,.847,1.386t-.154,4.081q-.154,2.695-.154,4.081,0,8.239.308,11.319.077.77.077,1.309,0,1-.847,1-.539,0-.732-.654t-.654-4.274q-.616-4.543-3.773-5.621-1.386-.462-7.238-.462h-3.465V-1.617q16.94,0,19.866-.693,5.082-1.155,5.775-9.856.154-1.925,1-1.925Q293.6-14.091,293.6-12.474Z" transform="translate(291.83 54.593)"/>
</svg>
