<svg xmlns="http://www.w3.org/2000/svg" width="173.895" height="393.59" viewBox="0 0 173.895 393.59">
  <g id="グループ_491" data-name="グループ 491" transform="translate(-994 -9646)">
    <text id="Timepedia_店舗情報" data-name="Timepedia 店舗情報" transform="translate(999 9646) rotate(90)" font-size="17" font-family="NotoSans-Medium, Noto Sans" font-weight="500" letter-spacing="0.05em"><tspan x="0" y="0">Timepedia </tspan><tspan y="0" font-family="HiraginoSans-W4, Hiragino Sans" font-weight="400">店舗情報</tspan></text>
    <path id="パス_1461" data-name="パス 1461" d="M72.695-30.225q0,13.33-10.153,22.707A34.713,34.713,0,0,1,38.13,1.86q-8.37,0-20-5.115a12.85,12.85,0,0,0-4.65-1.4q-1.86,0-2.325,4.5Q11,2.17,9.145,2.17q-1.55,0-1.55-1.86A8.262,8.262,0,0,1,7.75-1.55,135.319,135.319,0,0,0,8.99-19.065q0-1.55-.31-8.68a15.75,15.75,0,0,1-.155-2.48q0-2.325,1.86-2.325,1.55,0,2.17,3.72Q16.585-1.24,38.75-1.24,48.2-1.24,53.4-6.588T58.59-21.7a22.543,22.543,0,0,0-5.038-14.8Q48.515-42.625,36.27-48.67q-14.725-7.285-20.46-14.1T10.075-79.67q0-12.865,8.293-21.235t21-8.37q5.27,0,14.57,3.565a15.379,15.379,0,0,0,4.805,1.24,2.994,2.994,0,0,0,2.247-.62A8.089,8.089,0,0,0,62-108.345a1.646,1.646,0,0,1,1.705-1.55q1.55,0,1.55,1.86a8.262,8.262,0,0,1-.155,1.86,73.958,73.958,0,0,0-.465,8.99A70.279,70.279,0,0,0,65.41-85.4l.155,2.48q.155,1.7-1.4,1.705-1.7,0-2.325-3.565a27.667,27.667,0,0,0-8.06-15.268q-6.355-6.123-14.26-6.123-7.75,0-12.322,4.96T22.63-87.73q0,9.92,6.665,15.965,3.72,3.41,16.12,9.61,14.57,7.285,20.925,14.8A25.793,25.793,0,0,1,72.695-30.225ZM190.96-1.395q0,1.4-2.945,1.395l-21.39-.155q-2.17,0-6.355.155t-6.2.155q-3.1,0-3.1-1.24t7.285-1.7q3.875-.31,4.495-1.318t.62-7.207v-45.26H116.715V-12.71q0,6.975,1.085,8.215t7.285,1.7q4.03.31,4.03,1.395,0,1.4-3.1,1.395H124.62q-3.72,0-7.827-.155T111.91-.31q-2.17,0-6.51.155T92.38,0q-3.1,0-3.1-1.24t3.1-1.55q2.015-.155,4.185-.31,3.41-.31,4.34-1.55.465-.775.465-8.68V-95.17q0-6.975-.7-8.215T95.79-104.78q-4.8-.31-5.658-.465t-.853-1.24q0-1.24,2.015-1.24.62,0,2.635.155,3.875.31,18.29.31,7.9,0,11.005-.155a20.418,20.418,0,0,1,2.79-.155q2.79,0,2.79,1.55,0,1.4-5.037,1.4t-6.045,1.162q-1.008,1.163-1.007,7.363v35.65H163.37V-93.775q0-8.215-1.24-9.687t-8.68-1.317q-2.325,0-2.325-1.4t2.635-1.395h8.37q5.58.155,8.37.155,9.455,0,12.788-.155t4.262-.155q3.255,0,3.255,1.395t-6.82,1.55a10.124,10.124,0,0,0-2.945.31,2.626,2.626,0,0,0-1.937,1.705,37.093,37.093,0,0,0-.388,7.285v82.46q0,7.44.775,8.68,1.55,1.705,8.99,1.7Q190.96-2.945,190.96-1.395Zm117.18-51.77q0,23.1-13.872,39.06T260.245,1.86q-21.39,0-35.96-16.2T209.715-54.25q0-24.18,14.028-39.6t35.882-15.422q20.615,0,34.565,16.12T308.14-53.165Zm-17.36.775q0-28.365-11.625-44.175-7.285-9.92-20.3-9.92-12.4,0-19.22,7.595-12.555,13.95-12.555,45.415,0,24.955,8.758,38.75T260.4-.93q14.725,0,22.165-13.02Q290.78-28.365,290.78-52.39ZM399.59-81.84q0,15.035-12.865,23.4-8.06,5.27-20.46,5.27A75.084,75.084,0,0,1,354.33-54.25v44.02a19.032,19.032,0,0,0,.31,4.495A4.037,4.037,0,0,0,358.05-3.1a63.542,63.542,0,0,0,8.68.62q1.705,0,1.705,1.085,0,1.55-2.17,1.55A6.521,6.521,0,0,1,364.715,0Q356.19.155,332.63.155h-2.015q-4.65,0-4.65-1.55,0-1.085,3.255-1.085,7.285,0,8.37-1.395,1.24-.62,1.395-3.1v-91.45q0-4.805-2.635-5.89a16.348,16.348,0,0,0-5.425-.62h-1.55a3.435,3.435,0,0,1-1.085.155q-2.325,0-2.325-1.4,0-1.55,4.34-1.55h34.1q17.67,0,25.885,6.2Q399.59-94.55,399.59-81.84Zm-16.275.31q0-23.25-19.53-23.25-6.51,0-8.525,2.17-.93.93-.93,4.805v41.23a22.659,22.659,0,0,0,2.79.155q10.23,0,17.36-4.5Q383.315-66.495,383.315-81.53Z" transform="translate(1058 9640) rotate(90)"/>
  </g>
</svg>
