<svg xmlns="http://www.w3.org/2000/svg" width="697.908" height="219.429" viewBox="0 0 697.908 219.429">
  <g id="グループ_370" data-name="グループ 370" transform="translate(-561.001 -4115.482)">
    <path id="パス_147" data-name="パス 147" d="M78.857,48.04l4.19-.361c1.047-.09,4.863,1.618,5.911,1.528L90.68,51.1l.3,4.047c-.185,1.034,1.166,4.992.98,6.027s.421,9.13.235,10.164l.675,1.979a8.456,8.456,0,0,0,.489,3.013c-.185,1.034-.067,6.117-.254,7.151-.372,2.069.421,9.129.235,10.163l.49,3.013c-.186,1.034.489,3.013.3,4.048s.117,5.082-.068,6.117a20.183,20.183,0,0,1,.3,4.048l.489,3.013c-.185,1.034.608,8.1.422,9.13s.979,6.026.792,7.06,1.35,3.958,1.165,4.992l-.93,5.172a54.628,54.628,0,0,0-1.977,5.262l-1.605,3.195c-.185,1.033-1.976,5.261-2.162,6.3l-1.605,3.195c-.186,1.034-1.791,4.228-1.978,5.262l-21.989,1.895-.862-.944c.185-1.034-.118-5.081.067-6.116s-2.7-7.915-2.515-8.95c.373-2.069-.42-9.129-.049-11.2l-1.047.09c-1.048.091-7.517,1.667-8.564,1.757s-6.469,1.576-6.469,1.576l-1.233,1.125c-.372,2.069-4.512,13.629-5.93,15.787-.186,1.034-2.652,3.285-2.838,4.319l-6.165,5.624-3.328,1.3-2.466,2.25a54.527,54.527,0,0,1-5.422,1.485c-1.047.09-5.422,1.486-6.469,1.576l-4.374,1.4L0,177.051l1.487-8.276,1.606-3.193c.185-1.034,5-10.615,5.187-11.649l1.419-2.16c.186-1.034,2.162-6.3,2.349-7.331a29.5,29.5,0,0,0,1.791-4.228l1.6-3.193c.372-2.069,6.792-14.844,7.164-16.913.186-1.034,2.838-4.318,3.024-5.352l1.977-5.263,1.606-3.193L31,102.07a71.659,71.659,0,0,1,5-10.616l1.605-3.193c.185-1.034,1.977-5.262,2.163-6.3s4.629-8.547,4.814-9.581a54.351,54.351,0,0,0,1.977-5.262c.185-1.033,1.977-5.262,2.163-6.3s6.165-5.624,7.4-6.748,5.98-4.589,7.027-4.679c0,0,9.612-1.847,12.752-2.118l1.048-.09ZM47.287,80.3l-1.419,2.159c-.186,1.033-2.163,6.3-2.35,7.331S39.077,97.3,38.89,98.333L36.914,103.6c-.185,1.034-3.209,6.387-3.4,7.421-.372,2.069-6.792,14.844-7.164,16.913-.186,1.034-3.21,6.387-3.4,7.421l-1.791,4.228-1.605,3.195c-.185,1.034-3.4,7.421-3.581,8.456s-3.211,6.388-3.4,7.422l-1.419,2.158c-.186,1.034-3.4,7.422-3.582,8.457l3.141-.27c1.048-.09,7.7-2.7,8.75-2.791l1.232-1.126,1.42-2.159A54.456,54.456,0,0,0,24.1,157.66c.186-1.034,1.977-5.262,2.163-6.3s1.6-3.195,1.79-4.229l1.605-3.193c.186-1.034,1.79-4.228,1.977-5.262,3.142-.27,18.173-3.6,21.5-4.908l3.327-1.306,8.378-.722a10.46,10.46,0,0,1,2.769,1.8l.862.945c-.372,2.068.421,9.129.235,10.163.3,4.048,1.585,14.122,1.585,14.122l11.519-.993L82,156.744l-.49-3.013c.186-1.034-2.025-5.937-1.84-6.971a54.625,54.625,0,0,1,.255-7.15c.186-1.034.254-7.152.44-8.187l-.675-1.978s-.608-8.1-1.1-11.109l-.3-4.047-.49-3.014a40.226,40.226,0,0,1-.118-5.081c.186-1.034-.117-5.082.069-6.118s-.421-9.129-.235-10.163c.372-2.069-.168-16.281.205-18.35.185-1.034-1.84-6.971-2.515-8.949l-.862-.944-10.472.9c-1.047.091-6.469,1.576-7.516,1.667l-3.328,1.3c-1.79,4.229-2.906,10.435-5.744,14.754M55,123.425c-1.048.091-8.564,1.757-9.612,1.847l-8.377.722L35.1,125.14l1.115-6.207c.186-1.034,1.978-5.262,2.163-6.3,1.977-5.263,7.535-18.982,7.721-20.017s2.839-4.318,3.025-5.353,4.629-8.546,4.815-9.58l1.419-2.16c.186-1.034,2.652-3.284,2.652-3.284.186-1.034,2.467-2.249,2.467-2.249s2.955.763,3.817,1.708l1.722,1.889c-.185,1.034-.44,8.186-.625,9.22s.979,6.027.607,8.1l.489,3.013c-.185,1.033.236,10.163.05,11.2s2.026,5.937,1.84,6.971.3,4.048.117,5.082l-.929,5.171-1.419,2.16-1.048.09c-1.047.091-1.908-.854-2.77-1.8Zm2.553-25.68L56.134,99.9c-.186,1.034-3.21,6.387-3.4,7.421l-.745,4.139,7.33-.633,1.233-1.125-.489-3.013c.185-1.034.068-6.117.254-7.151a20.183,20.183,0,0,0-.3-4.048l-.861-.943Z" transform="matrix(0.978, 0.208, -0.208, 0.978, 597.813, 4069.326)"/>
    <path id="パス_148" data-name="パス 148" d="M113.248,161.285l-.838.072L110.5,160.5l-.86-.944-1.537-2.923-1.723-1.888c.186-1.034-1.127-5.2-.941-6.234l-1.537-2.923-.489-3.012-1.165-4.992a16.187,16.187,0,0,1-.792-7.061c.185-1.034.067-6.117.067-6.117l1.859-10.344c.745-4.138,3.874-15.815,4.06-16.85S113,83.5,113.187,82.463s3.954-10.526,4.14-11.56a20.481,20.481,0,0,1,2.837-4.318c1.42-2.159,5.341-6.775,5.528-7.81s3.885-4.408,3.885-4.408l9.864-9a47.485,47.485,0,0,0,5.794-3.556s4.561-2.429,5.608-2.519c5.608-2.52,9.8-2.882,15.032-3.333l5.235-.451c1.048-.09,4,.674,5.05.584,0,0,4.864,1.617,6.772,2.472,1.048-.09,3.817,1.708,3.817,1.708,1.047-.09,2.77,1.8,2.77,1.8.862.943,3.63,2.742,3.445,3.776s2.4,3.868,2.212,4.9l.489,3.013.639,2.185c-.372,2.069.234,10.164.049,11.2l-1.116,6.207-3.7,3.375-3.885,4.408-6.164,5.624-2.28,1.215-19.9,1.715s-1.908-.854-1.722-1.888l.558-3.1,1.232-1.125,2.045-11.379a20.262,20.262,0,0,1-.3-4.048,8.424,8.424,0,0,0-.489-3.012,2.667,2.667,0,0,0-.675-1.979l-1.909-.854-2.095.18a5.059,5.059,0,0,0-1.418,2.16l-.186,1.034-2.838,4.318a13.677,13.677,0,0,0-1.6,3.193c-.186,1.034-3.21,6.388-3.4,7.422a29.43,29.43,0,0,1-1.791,4.228c-.557,3.1-4.882,15.7-5.254,17.766l-1.9,10.552c-.373,2.069-1.185,12.323-1.556,14.392l1.722,1.888c-.185,1.034.98,6.027.793,7.061l.675,1.979.862.944,1.047-.09a13.7,13.7,0,0,0,3.328-1.306l2.466-2.249c1.233-1.125,4.072-5.443,4.258-6.477.371-2.069,3.649-14.574,4.021-16.643a54.623,54.623,0,0,1,1.977-5.262c.186-1.034,4.932-4.5,6.166-5.624a56.325,56.325,0,0,0,5.83-3.761l2.28-1.215,1.047-.091c2.095-.18,12.38-.049,14.475-.229l1.908.853s1.685,2.1,1.5,3.13l.491,3.013.861.944-2.467,2.249c-.372,2.069-3.092,11.469-3.463,13.538L184,124.43c-.186,1.034-1.791,4.229-1.978,5.263s-1.976,5.262-2.162,6.3-2.838,4.318-3.024,5.353l-1.233,1.125-1.456,2.367c-1.233,1.124-5.118,5.533-6.351,6.657l-3.7,3.375-3.513,2.339-4.747,3.465-4.56,2.43-1.232,1.125-2.281,1.215c-1.047.09-5.607,2.52-6.654,2.61a29.409,29.409,0,0,0-4.375,1.4l-2.095.18a47.888,47.888,0,0,1-12.194-.986,8.431,8.431,0,0,1-2.955-.764,28.216,28.216,0,0,0-3.632-2.742l.558-3.1-.862-.944-1.885.163c.875-.279,1-2.123.163-2.05-1.047.09-1.381,1.952-.581,2.087m9.633-.83.862.944,1.908.854c1.047-.09,6.1.492,7.144.4l2.095-.18c1.047-.09,6.469-1.575,6.469-1.575l3.513-2.341c1.047-.089,5.794-3.554,6.841-3.644l2.467-2.25c1.233-1.124,5.117-5.534,5.3-6.567,1.271-1.332,4.48-7.719,5.713-8.844a13.7,13.7,0,0,0,1.606-3.193c1.419-2.159,3.581-8.456,3.581-8.456L171.5,119.4a20.194,20.194,0,0,0-.3-4.049l-8.377.723-1.233,1.125c-.371,2.069-3.277,12.5-3.649,14.573A29.5,29.5,0,0,1,156.143,136c-.186,1.034-4.072,5.444-5.3,6.569l-2.28,1.215c-1.048.09-4.784,3.671-5.831,3.761l-4.189.361a16.929,16.929,0,0,0-3.966-.881c-1.047.091-4.864-1.616-5.911-1.526l-1.909-.854-3.444-3.776-.675-1.98a8.418,8.418,0,0,1-.49-3.012l-.3-4.048c.185-1.034-1.351-3.958-1.165-4.991s-.118-5.082.068-6.117l3.941-21.931s1.977-5.263,2.163-6.3c1.791-4.228,7.535-18.981,7.721-20.015s3.024-5.354,3.21-6.388l1.233-1.125,1.419-2.159,7.436-6.955c1.047-.09,3.513-2.34,4.56-2.43l4.19-.36c1.046-.091,6.958,1.436,8.866,2.291l.862.944s1.686,2.095,1.5,3.13l.675,1.978c.861.944.98,6.027.98,6.027-.373,2.069-1.185,12.323-1.556,14.392l.861.944,6.283-.542L176.32,81.1l1.86-10.345a33.511,33.511,0,0,1,.067-6.117c-.489-3.013.069-6.117-.383-9.337-.675-1.978-6.7-8.588-8.613-9.442L167.343,45,153.73,46.174c-1.047.09-5.422,1.486-6.655,2.61s-7.026,4.679-8.259,5.8c0,0-6.389,6.865-7.808,9.024-1.233,1.125-3.885,4.409-4.072,5.444s-2.837,4.318-3.023,5.353-3.211,6.387-3.4,7.422l-1.977,5.262-1.605,3.193c-.186,1.034-2.163,6.3-2.349,7.331a54.351,54.351,0,0,0-1.977,5.262c-.6,3.31-3.5,13.745-3.873,15.814-.186,1.034-.255,7.151-.626,9.221-.185,1.033.3,4.047.118,5.081a8.432,8.432,0,0,0,.489,3.013c1.35,3.957,5.551,15,5.366,16.036.674,1.98,5.842,7.644,7.751,8.5Z" transform="matrix(0.978, 0.208, -0.208, 0.978, 601.416, 4069.668)"/>
    <path id="パス_149" data-name="パス 149" d="M203.222,48.617s2.466-2.25,3.513-2.34c1.232-1.125,4.746-3.465,5.794-3.555l2.28-1.215,2.094-.181,3.513-2.339a50.14,50.14,0,0,1,5.631-1.5c2.095-.18,12.939-3.153,13.985-3.243l2.095-.18c2.093-.18,17.126-3.512,19.22-3.694l14.87-1.281,3.328-1.306,3.141-.27c.676,1.979,1.469,9.04,2.33,9.984-.185,1.033,2.212,4.9,2.026,5.935L286.67,45.5s-2.652,3.284-3.885,4.409l-2.466,2.249L278.9,54.315l-1.233,1.125-1.42,2.159-3.513,2.34c-1.047.09-8.749,2.791-11.053,2.989l-1.233,1.125L252.119,110.4c-.558,3.1-1.973,23.595-2.53,26.7l-.745,4.138-1.628,2.177-4.933,4.5-3.885,4.409-1.233,1.124-2.652,3.285a13.666,13.666,0,0,1-3.327,1.306c-1.048.09-5.421,1.485-6.469,1.576l-12.566,1.083-1.723-1.889a8.434,8.434,0,0,1-.489-3.014c.372-2.068.812-10.254,1.184-12.321l1.859-10.346c.372-2.069,1.556-14.392,1.928-16.461l.186-1.034c.185-1.034-.421-9.13-.236-10.163s2.077-17.29,2.634-20.393l1.116-6.207a15.589,15.589,0,0,0-.327-5.065l-16.755,1.445-1.908-.853-.861-.944.93-5.172c.371-2.069,1.741-15.427,2.112-17.5l.186-1.033Zm14.42,104.472,7.33-.632a13.684,13.684,0,0,0,3.327-1.306l.185-1.033c.186-1.036.255-7.152.441-8.186L238,91.449c.185-1.034.811-10.255,1.369-13.358.186-1.034.626-9.22.813-10.255l.929-5.172,1.233-1.125,4.375-1.4c1.047-.09,5.607-2.52,6.654-2.61,2.095-.18,11.914-2.045,14.009-2.225L269.054,46a8.432,8.432,0,0,0-.489-3.013l-4.4.379c-1.047.09-10.656,1.937-11.7,2.028s-13.8,2.207-14.846,2.3a54.767,54.767,0,0,0-5.422,1.486c-2.095.181-12.1,3.081-13.148,3.171s-7.516,1.666-8.564,1.756-3.327,1.306-4.374,1.4l-.185,1.034a40.089,40.089,0,0,0,.117,5.082l.675,1.979a20.251,20.251,0,0,0,.3,4.047L226.078,66a8.425,8.425,0,0,1,.49,3.013c-.186,1.034.117,5.082-.068,6.117-.372,2.069-1.742,15.427-2.113,17.5-.186,1.034-1.89,16.255-2.076,17.29-1.115,6.206-3.855,32.923-4.97,39.128Z" transform="matrix(0.978, 0.208, -0.208, 0.978, 604.859, 4070.109)"/>
    <path id="パス_150" data-name="パス 150" d="M277.242,134.741c.41-2.276,1.594-14.6,1.965-16.668l1.673-9.31c.186-1.034.255-7.152.44-8.187.068-6.116,1.662-20.715,1.847-21.75l6.359-35.379c.185-1.034,1.6-3.193,1.79-4.229,1.232-1.124,6.351-6.657,7.584-7.782s7.236-4.7,8.284-4.788l5.236-.451c4.189-.36,14.684-.246,14.684-.246l1.35,3.957c-.186,1.034-5.262,46.488-7.785,66.26L317.7,112.718c-.372,2.069-1.555,14.391-1.927,16.461l-.966,5.379-3.7,3.375s-2.467,2.248-2.653,3.284-4.071,5.444-4.256,6.477l-1.233,1.125s-4.584,1.414-5.631,1.5-6.469,1.576-6.469,1.576c-1.048.091-9.61,1.847-11.916,2.045l-2.094.181-1.908-.854-.862-.944Zm11.594-35.83c-.372,2.068-1.972,23.594-2.226,30.744-.186,1.035-.291,7.358-.477,8.393a33.508,33.508,0,0,0-.067,6.117l10.471-.9,2.826-15.724c.558-3.1,3.415-24.737,3.972-27.84l1.9-10.552c.185-1.034-.118-5.082.068-6.117l2.6-14.483c.371-2.069,1-11.289,1.369-13.358.186-1.034-.117-5.082.068-6.117s.106-6.324.292-7.357l-1.047.09c-2.095.18-8.773,1.774-8.773,1.774l-2.281,1.216-1.419,2.159-2.639,14.69c-1.116,6.207-3.707,32.1-4.637,37.268" transform="matrix(0.978, 0.208, -0.208, 0.978, 607.486, 4070.611)"/>
    <path id="パス_151" data-name="パス 151" d="M336.075,33.3c1.047-.091,4.932-4.5,5.98-4.589l2.28-1.215a32.284,32.284,0,0,1,7.91-2.719l5.237-.451c1.047-.09,5.049.583,6.1.493l1.047-.09a8.423,8.423,0,0,1,2.956.764,2.66,2.66,0,0,1,.674,1.978,8.449,8.449,0,0,0,.49,3.013c-.185,1.034-.067,6.117-.254,7.151s.3,4.048.117,5.081.491,3.014.3,4.049l.489,3.013.081,5.288c-.186,1.035.979,6.028.792,7.061-.372,2.069.98,6.027.98,6.027l1.722,1.889c-.185,1.034-.254,7.15-.44,8.185a8.454,8.454,0,0,1,.49,3.013l.675,1.979c.185-1.034,1.79-4.228,1.977-5.262,2.162-6.3,11.55-28.7,13.154-31.891l1.605-3.193c.186-1.034,3.4-7.422,3.582-8.456l3.7-3.374c1.234-1.126,7.212-5.715,8.447-6.839l3.513-2.339,7.907.745s6.1.492,8.192.312c1.047-.09,5.05.583,6.1.493l.676,1.979-.743,4.139a144.454,144.454,0,0,1-5.627,19.835l-.409,2.276-2.838,4.318c-.186,1.034-3.768,9.49-3.954,10.526a29.375,29.375,0,0,0-1.79,4.227c-.186,1.035-3.21,6.388-3.4,7.422l-1.977,5.262-1.605,3.193c-.185,1.034-4.814,9.581-5,10.616-1.6,3.193-4.653,7.53-6.258,10.724-.185,1.034-3.061,5.56-3.246,6.594l-1.419,2.159-1.791,4.228-1.605,3.195c-.185,1.034-1.977,5.262-2.163,6.3l-2.279,1.216-3.328,1.306-2.28,1.215c-1.48,1.349-2.764,3.9-7.091,7.332-.95.694-4.375,1.4-4.375,1.4-2.095.181-10.867,1.955-12.961,2.135l-11.519.993c-3.073-5.845-1.772-13.087-2.565-20.148.373-2.069-2.223-16.307-2.341-21.389l-.49-3.013c.186-1.034-1-7.042-.816-8.077s-1.165-4.992-.979-6.027-.979-6.027-.793-7.061-3.005-11.962-2.819-13-1.165-4.992-.979-6.027-.942-6.233-.756-7.267l-.675-1.979-.118-5.082-.489-3.013,1.487-8.276ZM341.3,61.564l.3,4.048c-.185,1.034,2.724,8.931,2.539,9.966,0,0,1.165,4.991.793,7.061l.3,4.048.49,3.012c-.186,1.034.792,7.061.607,8.1s2.143,11.018,1.958,12.052.569,8.3,1.058,11.316a20.261,20.261,0,0,0,.3,4.048l.118,5.082c-.186,1.034.489,3.012.3,4.047a8.425,8.425,0,0,0,.49,3.013l1.908.854,9.424-.813c1.047-.089,5.632-1.5,6.678-1.594a13.687,13.687,0,0,0,3.328-1.3l1.233-1.125,1.419-2.16c.185-1.034,3.4-7.421,3.582-8.456s3.024-5.354,3.21-6.388l1.419-2.158a79.671,79.671,0,0,0,5.038-10.823c.185-1.034,2.35-7.331,2.535-8.366s3.024-5.353,3.209-6.387,3.4-7.421,3.582-8.457,2.839-4.318,3.025-5.353l11.235-22.355c.185-1.035,1.641-3.4,1.828-4.436s2.349-7.33,2.534-8.365l.372-2.07-13.614,1.174a29.47,29.47,0,0,0-4.373,1.395,29.494,29.494,0,0,0-1.791,4.228c-.186,1.034-3.805,9.7-3.991,10.732l-10.931,26.4-.372,2.07a54.58,54.58,0,0,0-1.978,5.262c-.185,1.034-1.605,3.193-1.791,4.228s-3.209,6.387-3.394,7.421-3.606,7.44-3.977,9.509c-.186,1.034-2.014,5.47-2.014,5.47l-1.116,6.207-1.232,1.125-3.142.27-1.908-.853c.185-1.034-1.617-8.212-1.431-9.246l-.3-4.048-.675-1.979c.186-1.034.322-13.267.508-14.3s-.3-4.048-.117-5.082a8.436,8.436,0,0,0-.491-3.012c.186-1.035-2.212-4.9-2.025-5.937.372-2.069-1.585-14.122-1.214-16.19.185-1.034-1.165-4.992-1.165-4.992a10.225,10.225,0,0,0-.453-3.22c.186-1.034-.607-8.095-.42-9.129s-1.35-3.958-1.35-3.958l-4.4.379c-1.047.09-5.422,1.486-6.469,1.576l-1.233,1.125-.372,2.069c.675,1.979,1.734,13.294,2.41,15.273" transform="matrix(0.978, 0.208, -0.208, 0.978, 609.496, 4070.891)"/>
    <path id="パス_152" data-name="パス 152" d="M421.708,122.289c.409-2.276,1.594-14.6,1.965-16.668l1.673-9.31c.185-1.034.254-7.151.44-8.186.068-6.117,1.661-20.715,1.847-21.751L433.993,31c.185-1.034,1.6-3.193,1.79-4.228,1.232-1.125,6.351-6.658,7.584-7.783s7.236-4.7,8.284-4.788l5.234-.45c4.189-.361,14.685-.247,14.685-.247l1.349,3.958c-.185,1.034-5.261,46.487-7.785,66.26l-2.974,16.55c-.372,2.07-1.555,14.392-1.927,16.461l-.967,5.379-3.7,3.375s-2.466,2.249-2.652,3.284-4.071,5.444-4.257,6.478l-1.233,1.125s-4.583,1.413-5.631,1.5-6.469,1.576-6.469,1.576c-1.047.09-9.61,1.847-11.914,2.045l-2.094.18-1.908-.853-.862-.944ZM433.3,86.459c-.372,2.069-1.972,23.595-2.226,30.745-.186,1.034-.292,7.358-.477,8.393a33.442,33.442,0,0,0-.068,6.117l10.472-.9,2.825-15.724c.558-3.1,3.415-24.736,3.973-27.84L449.7,76.7c.186-1.035-.117-5.083.068-6.117l2.6-14.484c.372-2.068,1-11.288,1.37-13.358.186-1.034-.118-5.081.068-6.116s.106-6.324.292-7.358l-1.048.09c-2.095.18-8.773,1.774-8.773,1.774L442,32.343,440.579,34.5l-2.64,14.69c-1.116,6.207-3.707,32.1-4.637,37.268" transform="matrix(0.978, 0.208, -0.208, 0.978, 612.594, 4071.244)"/>
    <path id="パス_153" data-name="パス 153" d="M478.824,24.863s2.467-2.25,3.513-2.34c1.232-1.125,4.746-3.464,5.794-3.555l2.28-1.215,2.094-.181,3.513-2.338a50.324,50.324,0,0,1,5.631-1.5c2.095-.18,12.939-3.153,13.985-3.242l2.095-.181c2.094-.18,17.126-3.512,19.221-3.693L551.82,5.331l3.328-1.3,3.141-.271c.676,1.979,1.468,9.04,2.33,9.984-.185,1.033,2.212,4.9,2.026,5.935l-.372,2.07s-2.652,3.284-3.886,4.408L555.921,28.4,554.5,30.561l-1.233,1.125-1.419,2.16-3.513,2.339c-1.048.09-8.75,2.791-11.053,2.989L536.051,40.3l-8.33,46.344c-.557,3.1-1.973,23.6-2.53,26.7l-.745,4.138-1.628,2.178-4.932,4.5L514,128.564l-1.234,1.125-2.652,3.285a13.675,13.675,0,0,1-3.327,1.3c-1.047.09-5.422,1.486-6.469,1.576l-12.566,1.083-1.723-1.888a8.439,8.439,0,0,1-.489-3.014c.372-2.069.812-10.255,1.184-12.322l1.859-10.345c.372-2.07,1.556-14.392,1.928-16.462l.186-1.034c.185-1.034-.421-9.13-.236-10.163s2.077-17.289,2.634-20.393l1.116-6.207a15.581,15.581,0,0,0-.327-5.064l-16.755,1.443-1.908-.853-.86-.944.93-5.172c.371-2.069,1.741-15.427,2.113-17.5l.185-1.034Zm14.42,104.472,7.33-.632a13.692,13.692,0,0,0,3.327-1.3l.185-1.034c.186-1.034.255-7.151.44-8.186L513.6,67.7c.186-1.034.813-10.255,1.37-13.358.186-1.034.626-9.22.813-10.255l.929-5.172,1.233-1.125,4.375-1.4c1.047-.09,5.607-2.519,6.654-2.61,2.095-.18,11.914-2.045,14.009-2.225l1.673-9.31a8.426,8.426,0,0,0-.49-3.013l-4.4.379c-1.048.091-10.657,1.937-11.705,2.028s-13.8,2.208-14.846,2.3A54.529,54.529,0,0,0,507.8,25.42c-2.095.181-12.1,3.081-13.148,3.171s-7.516,1.666-8.563,1.756-3.327,1.306-4.375,1.4l-.185,1.034a40.088,40.088,0,0,0,.117,5.082l.675,1.979a20.261,20.261,0,0,0,.3,4.048l19.058-1.642a8.421,8.421,0,0,1,.49,3.013c-.186,1.034.117,5.081-.068,6.116-.372,2.069-1.741,15.427-2.113,17.5-.185,1.034-1.89,16.255-2.076,17.29-1.115,6.206-3.855,32.923-4.97,39.128Z" transform="matrix(0.978, 0.208, -0.208, 0.978, 614.604, 4071.318)"/>
    <path id="パス_154" data-name="パス 154" d="M569.092,123.674c1.116-6.207,5.324-23.884,5.509-24.917s3.465-13.539,3.65-14.574l.93-5.172c.185-1.034-2.212-4.9-2.026-5.935-.86-.945-2.063-5.729-1.877-6.764s-3.8-19.023-4.776-25.05a8.425,8.425,0,0,0-.49-3.013l-.3-4.048c.186-1.034-1.165-4.991-.979-6.026s-1.165-4.992-1.165-4.992c.186-1.034-3.445-3.778-3.259-4.811l.743-4.139s1.42-2.159,2.467-2.249c0,0,3.513-2.339,4.559-2.429L575.4,8.249c1.048-.09,5.422-1.486,6.469-1.576l7.329-.632a20.243,20.243,0,0,0,4,.673c1.047-.09,1.907.854,2.77,1.8-.186,1.036,1.536,2.923,1.536,2.923s1.165,4.992.98,6.027l.3,4.048a8.426,8.426,0,0,0,.489,3.013l.676,1.979.861.943.118,5.083c-.186,1.034,1.165,4.991,2.026,5.935.185-1.034,4.071-5.443,4.257-6.477s4.257-6.478,4.442-7.513l1.42-2.159c.185-1.034,4.814-9.581,5-10.616a13.677,13.677,0,0,1,1.6-3.193l3.328-1.3,1.419-2.159,2.467-2.25c1.047-.09,5.607-2.52,6.655-2.61L635.65,0l5.05.583c1.047-.09,7.144.4,8.191.313l1.723,1.889,4,.672.862.945-.744,4.138c-.186,1.034-4.257,6.477-4.442,7.512l-1.6,3.195c-.186,1.033-3.886,4.408-4.072,5.443l-3.024,5.352-2.652,3.285-1.605,3.193c-.185,1.034-3.024,5.352-4.257,6.477-.186,1.035-3.885,4.409-4.072,5.444s-2.652,3.284-2.837,4.318l-1.6,3.193c-.186,1.034-6.873,9.556-7.058,10.59a13.709,13.709,0,0,1-1.6,3.193c-.372,2.068-2.72,9.4-2.907,10.435l-2.232,12.414c-.372,2.069-3.65,14.573-4.022,16.642l-1.419,2.159s-3.885,4.409-5.118,5.534l-1.233,1.126-1.419,2.159-2.466,2.248-1.419,2.16-1.233,1.125a39.882,39.882,0,0,1-8.749,2.792l-12.566,1.083-1.908-.854a20.187,20.187,0,0,1-.3-4.049Zm15.256-39c-.744,4.138-6.556,25.007-7.486,30.181l-1.3,7.241,6.282-.542c1.047-.09,3.327-1.306,4.375-1.4.372-2.069,4.14-11.56,4.512-13.629.185-1.033,2.349-7.331,2.534-8.366s1.977-5.262,2.162-6.3c.372-2.069,3.837-15.606,4.208-17.676.186-1.034,1.977-5.262,3.209-6.387,0,0,2.467-2.25,2.616-3.078l1.233-1.125,1.6-3.193,2.652-3.284c1.6-3.195,11.539-18.309,14.19-21.592.185-1.034,4.443-7.513,5.862-9.672.185-1.034,2.837-4.318,3.024-5.353a13.683,13.683,0,0,1,1.6-3.195l.186-1.034c-1.048.091-4.865-1.617-5.912-1.527l-1.048.09c-1.047.09-5.421,1.487-6.469,1.577-.557,3.1-1.977,5.262-3.582,8.456l-1.419,2.159-1.233,1.125-1.419,2.159a29.791,29.791,0,0,0-4.443,7.513l-1.6,3.193s-2.837,4.319-3.024,5.354l-1.791,4.228c-1.232,1.125-5.489,7.6-6.722,8.726a13.678,13.678,0,0,1-3.328,1.306L592.1,58.75c-.675-1.978-1.468-9.04-2.143-11.018.185-1.034-2.7-7.914-2.515-8.949s-2.33-9.984-2.145-11.019-1.35-3.957-1.164-4.992a2.663,2.663,0,0,0-.675-1.979l-9.424.813c.674,1.978,1.957,12.052,2.632,14.031l.117,5.082c-.185,1.034,2.026,5.935,1.84,6.971l.49,3.012s1.35,3.958,1.164,4.992,1.166,4.992.98,6.027c.675,1.979,2.552,8.743,3.414,9.686l1.722,1.889.676,1.979-.558,3.1c-.185,1.034-1.977,5.262-2.163,6.3" transform="matrix(0.978, 0.208, -0.208, 0.978, 617.756, 4071.852)"/>
    <path id="パス_155" data-name="パス 155" d="M632.254,93.486c.148-.827,6.313-6.45,8.8-7.683a29.425,29.425,0,0,1,4.374-1.4l12.776-1.1c1.047-.089,2.769,1.8,3.817,1.709l.675,1.979c-.186,1.034-.4,7.979-.775,10.047l-.744,4.138c-.186,1.034-5.49,7.6-5.639,8.43l-1.605,3.193-1.233,1.125-2.489,1.233c-1.048.09-3.327,1.3-4.375,1.395-2.094.181-13.147,3.171-15.242,3.351l-1.908-.854a8.443,8.443,0,0,1-.49-3.012c.186-1.035-.154-4.875.031-5.91l1.3-7.241c.373-2.069,2.721-9.4,2.721-9.4m9.565,5.286a33.624,33.624,0,0,0-4.584,1.414,54.4,54.4,0,0,0-1.976,5.262l-1.264,7.034,12.96-2.135a11.48,11.48,0,0,0,1.569-2.987l1.672-9.31Z" transform="matrix(0.978, 0.208, -0.208, 0.978, 619.357, 4075.217)"/>
  </g>
</svg>
