<svg id="グループ_74" data-name="グループ 74" xmlns="http://www.w3.org/2000/svg" width="90.298" height="27.418" viewBox="0 0 90.298 27.418">
  <path id="パス_383" data-name="パス 383" d="M0,4.122v8.9l1.581,1.641L3.519,12.6V4.753L1.526,2.631Z" transform="translate(0 -1.247)" fill="#e5e5e5"/>
  <path id="パス_384" data-name="パス 384" d="M0,28.273v8.9l1.526,1.49,1.993-2.121V28.694L1.581,26.631Z" transform="translate(0 -12.626)" fill="#e5e5e5"/>
  <path id="パス_385" data-name="パス 385" d="M4.609,0,3.514,1.069,5.5,3.184H13.03l1.986-2.115L13.921,0Z" transform="translate(-1.666 0)" fill="#e5e5e5"/>
  <path id="パス_386" data-name="パス 386" d="M13.126,22.214H5.574l-1.881,2L5.46,26.1h7.782l1.766-1.881Z" transform="translate(-1.751 -10.532)" fill="#e5e5e5"/>
  <path id="パス_387" data-name="パス 387" d="M22.209,12.6V4.753L24.2,2.631l1.527,1.491v8.9l-1.581,1.641Z" transform="translate(-10.529 -1.247)" fill="#e5e5e5"/>
  <path id="パス_388" data-name="パス 388" d="M9.378,46.08H5.5L3.515,48.2,4.61,49.265h9.311l1.1-1.069L13.03,46.08Z" transform="translate(-1.666 -21.847)" fill="#e5e5e5"/>
  <path id="パス_389" data-name="パス 389" d="M22.209,28.694l1.938-2.064,1.581,1.642v8.9L24.2,38.66l-1.992-2.121Z" transform="translate(-10.529 -12.625)" fill="#e5e5e5"/>
  <path id="パス_390" data-name="パス 390" d="M0,4.122v8.9l1.581,1.641L3.519,12.6V4.753L1.526,2.631Z" transform="translate(0 -1.247)" fill="#e5e5e5"/>
  <path id="パス_391" data-name="パス 391" d="M0,28.273v8.9l1.526,1.49,1.993-2.121V28.694L1.581,26.631Z" transform="translate(0 -12.626)" fill="#e5e5e5"/>
  <path id="パス_392" data-name="パス 392" d="M4.609,0,3.514,1.069,5.5,3.184H13.03l1.986-2.115L13.921,0Z" transform="translate(-1.666 0)" fill="#e5e5e5"/>
  <path id="パス_393" data-name="パス 393" d="M22.209,12.6V4.753L24.2,2.631l1.527,1.491v8.9l-1.581,1.641Z" transform="translate(-10.529 -1.247)"/>
  <path id="パス_394" data-name="パス 394" d="M9.378,46.08H5.5L3.515,48.2,4.61,49.265h9.311l1.1-1.069L13.03,46.08Z" transform="translate(-1.666 -21.847)" fill="#e5e5e5"/>
  <path id="パス_395" data-name="パス 395" d="M22.209,28.694l1.938-2.064,1.581,1.642v8.9L24.2,38.66l-1.992-2.121Z" transform="translate(-10.529 -12.625)"/>
  <path id="パス_396" data-name="パス 396" d="M107.478,12.6V4.753l-1.992-2.121-1.527,1.491v8.9l1.581,1.641Z" transform="translate(-49.288 -1.247)"/>
  <path id="パス_397" data-name="パス 397" d="M107.478,28.694,105.54,26.63l-1.581,1.642v8.9l1.527,1.49,1.992-2.121Z" transform="translate(-49.288 -12.625)" fill="#e5e5e5"/>
  <path id="パス_398" data-name="パス 398" d="M108.569,0l-1.1,1.07,1.987,2.115h7.529l1.986-2.115L117.88,0Z" transform="translate(-50.954 0)" fill="#e5e5e5"/>
  <path id="パス_399" data-name="パス 399" d="M117.085,22.214h-7.552l-1.881,2,1.766,1.881H117.2l1.766-1.881Z" transform="translate(-51.04 -10.532)" fill="#e5e5e5"/>
  <path id="パス_400" data-name="パス 400" d="M126.168,12.6V4.753l1.992-2.121,1.527,1.491v8.9l-1.581,1.641Z" transform="translate(-59.818 -1.247)" fill="#e5e5e5"/>
  <path id="パス_401" data-name="パス 401" d="M113.337,46.08H109.46L107.474,48.2l1.095,1.069h9.312l1.095-1.069-1.987-2.116Z" transform="translate(-50.955 -21.847)" fill="#e5e5e5"/>
  <path id="パス_402" data-name="パス 402" d="M126.168,28.694l1.938-2.064,1.581,1.642v8.9l-1.527,1.49-1.992-2.121Z" transform="translate(-59.818 -12.625)"/>
  <path id="パス_403" data-name="パス 403" d="M107.478,28.694,105.54,26.63l-1.581,1.642v8.9l1.527,1.49,1.992-2.121Z" transform="translate(-49.288 -12.625)" fill="#e5e5e5"/>
  <path id="パス_404" data-name="パス 404" d="M108.569,0l-1.1,1.07,1.987,2.115h7.529l1.986-2.115L117.88,0Z" transform="translate(-50.954 0)" fill="#e5e5e5"/>
  <path id="パス_405" data-name="パス 405" d="M117.085,22.214h-7.552l-1.881,2,1.766,1.881H117.2l1.766-1.881Z" transform="translate(-51.04 -10.532)"/>
  <path id="パス_406" data-name="パス 406" d="M126.168,12.6V4.753l1.992-2.121,1.527,1.491v8.9l-1.581,1.641Z" transform="translate(-59.818 -1.247)"/>
  <path id="パス_407" data-name="パス 407" d="M113.337,46.08H109.46L107.474,48.2l1.095,1.069h9.312l1.095-1.069-1.987-2.116Z" transform="translate(-50.955 -21.847)" fill="#e5e5e5"/>
  <path id="パス_408" data-name="パス 408" d="M146.324,12.6V4.753l-1.992-2.121-1.527,1.491v8.9l1.581,1.641Z" transform="translate(-67.706 -1.247)" fill="#e5e5e5"/>
  <path id="パス_409" data-name="パス 409" d="M146.324,28.694l-1.938-2.064-1.581,1.642v8.9l1.527,1.49,1.992-2.121Z" transform="translate(-67.706 -12.625)" fill="#e5e5e5"/>
  <path id="パス_410" data-name="パス 410" d="M147.415,0l-1.095,1.07,1.987,2.115h7.529l1.986-2.115L156.727,0Z" transform="translate(-69.372 0)" fill="#e5e5e5"/>
  <path id="パス_411" data-name="パス 411" d="M155.931,22.214H148.38l-1.881,2,1.766,1.881h7.782l1.766-1.881Z" transform="translate(-69.457 -10.532)" fill="#e5e5e5"/>
  <path id="パス_412" data-name="パス 412" d="M165.014,4.752V12.6l1.938,2.064,1.58-1.642v-8.9l-1.527-1.491Z" transform="translate(-78.235 -1.247)" fill="#e5e5e5"/>
  <path id="パス_413" data-name="パス 413" d="M152.184,46.08h-3.877L146.32,48.2l1.095,1.069h9.311l1.095-1.069-1.986-2.116Z" transform="translate(-69.372 -21.847)" fill="#e5e5e5"/>
  <path id="パス_414" data-name="パス 414" d="M165.014,28.694v7.845l1.992,2.121,1.527-1.49v-8.9l-1.58-1.642Z" transform="translate(-78.235 -12.626)" fill="#e5e5e5"/>
  <path id="パス_415" data-name="パス 415" d="M146.324,12.6V4.753l-1.992-2.121-1.527,1.491v8.9l1.581,1.641Z" transform="translate(-67.706 -1.247)"/>
  <path id="パス_416" data-name="パス 416" d="M147.415,0l-1.095,1.07,1.987,2.115h7.529l1.986-2.115L156.727,0Z" transform="translate(-69.372 0)"/>
  <path id="パス_417" data-name="パス 417" d="M155.931,22.214H148.38l-1.881,2,1.766,1.881h7.782l1.766-1.881Z" transform="translate(-69.457 -10.532)"/>
  <path id="パス_418" data-name="パス 418" d="M152.184,46.08h-3.877L146.32,48.2l1.095,1.069h9.311l1.095-1.069-1.986-2.116Z" transform="translate(-69.372 -21.847)"/>
  <path id="パス_419" data-name="パス 419" d="M165.014,28.694v7.845l1.992,2.121,1.527-1.49v-8.9l-1.58-1.642Z" transform="translate(-78.235 -12.626)"/>
  <path id="パス_420" data-name="パス 420" d="M42.365,12.6V4.753L40.373,2.631,38.846,4.122v8.9l1.581,1.641Z" transform="translate(-18.417 -1.247)"/>
  <path id="パス_421" data-name="パス 421" d="M42.365,28.694,40.427,26.63l-1.581,1.642v8.9l1.527,1.49,1.992-2.121Z" transform="translate(-18.417 -12.625)" fill="#e5e5e5"/>
  <path id="パス_422" data-name="パス 422" d="M43.455,0l-1.1,1.07,1.987,2.115h7.529l1.986-2.115L52.767,0Z" transform="translate(-20.083 0)" fill="#e5e5e5"/>
  <path id="パス_423" data-name="パス 423" d="M51.972,22.214H44.42l-1.881,2L44.306,26.1h7.782l1.766-1.881Z" transform="translate(-20.169 -10.532)"/>
  <path id="パス_424" data-name="パス 424" d="M61.055,12.6V4.753l1.992-2.121,1.527,1.491v8.9l-1.581,1.641Z" transform="translate(-28.947 -1.247)" fill="#e5e5e5"/>
  <path id="パス_425" data-name="パス 425" d="M48.224,46.08H44.347L42.36,48.2l1.095,1.069h9.312L53.862,48.2,51.875,46.08Z" transform="translate(-20.084 -21.847)"/>
  <path id="パス_426" data-name="パス 426" d="M61.055,28.694l1.938-2.064,1.581,1.642v8.9l-1.527,1.49-1.992-2.121Z" transform="translate(-28.947 -12.625)" fill="#e5e5e5"/>
  <path id="パス_427" data-name="パス 427" d="M43.455,0l-1.1,1.07,1.987,2.115h7.529l1.986-2.115L52.767,0Z" transform="translate(-20.083 0)"/>
  <path id="パス_428" data-name="パス 428" d="M61.055,12.6V4.753l1.992-2.121,1.527,1.491v8.9l-1.581,1.641Z" transform="translate(-28.947 -1.247)"/>
  <path id="パス_429" data-name="パス 429" d="M61.055,28.694l1.938-2.064,1.581,1.642v8.9l-1.527,1.49-1.992-2.121Z" transform="translate(-28.947 -12.625)"/>
  <rect id="長方形_216" data-name="長方形 216" width="3.519" height="3.519" transform="translate(43.766 18.26)"/>
  <rect id="長方形_217" data-name="長方形 217" width="3.519" height="3.519" transform="translate(43.766 5.639)"/>
</svg>
