<svg id="グループ_76" data-name="グループ 76" xmlns="http://www.w3.org/2000/svg" width="90.298" height="27.418" viewBox="0 0 90.298 27.418">
  <path id="パス_156" data-name="パス 156" d="M0,4.122v8.9l1.581,1.641L3.519,12.6V4.753L1.526,2.631Z" transform="translate(0 -1.247)" fill="#e5e5e5"/>
  <path id="パス_157" data-name="パス 157" d="M0,28.273v8.9l1.526,1.49,1.993-2.121V28.694L1.581,26.631Z" transform="translate(0 -12.626)" fill="#e5e5e5"/>
  <path id="パス_158" data-name="パス 158" d="M4.609,0,3.514,1.069,5.5,3.184H13.03l1.986-2.115L13.921,0Z" transform="translate(-1.666 0)" fill="#e5e5e5"/>
  <path id="パス_159" data-name="パス 159" d="M13.126,22.214H5.574l-1.881,2L5.46,26.1h7.782l1.766-1.881Z" transform="translate(-1.751 -10.532)" fill="#e5e5e5"/>
  <path id="パス_160" data-name="パス 160" d="M22.209,12.6V4.753L24.2,2.631l1.527,1.491v8.9l-1.581,1.641Z" transform="translate(-10.529 -1.247)" fill="#e5e5e5"/>
  <path id="パス_161" data-name="パス 161" d="M9.378,46.08H5.5L3.515,48.2,4.61,49.265h9.311l1.1-1.069L13.03,46.08Z" transform="translate(-1.666 -21.847)" fill="#e5e5e5"/>
  <path id="パス_162" data-name="パス 162" d="M22.209,28.694l1.938-2.064,1.581,1.642v8.9L24.2,38.66l-1.992-2.121Z" transform="translate(-10.529 -12.625)" fill="#e5e5e5"/>
  <path id="パス_163" data-name="パス 163" d="M0,4.122v8.9l1.581,1.641L3.519,12.6V4.753L1.526,2.631Z" transform="translate(0 -1.247)"/>
  <path id="パス_164" data-name="パス 164" d="M0,28.273v8.9l1.526,1.49,1.993-2.121V28.694L1.581,26.631Z" transform="translate(0 -12.626)"/>
  <path id="パス_165" data-name="パス 165" d="M4.609,0,3.514,1.069,5.5,3.184H13.03l1.986-2.115L13.921,0Z" transform="translate(-1.666 0)"/>
  <path id="パス_166" data-name="パス 166" d="M22.209,12.6V4.753L24.2,2.631l1.527,1.491v8.9l-1.581,1.641Z" transform="translate(-10.529 -1.247)"/>
  <path id="パス_167" data-name="パス 167" d="M9.378,46.08H5.5L3.515,48.2,4.61,49.265h9.311l1.1-1.069L13.03,46.08Z" transform="translate(-1.666 -21.847)"/>
  <path id="パス_168" data-name="パス 168" d="M22.209,28.694l1.938-2.064,1.581,1.642v8.9L24.2,38.66l-1.992-2.121Z" transform="translate(-10.529 -12.625)"/>
  <path id="パス_169" data-name="パス 169" d="M107.478,12.6V4.753l-1.992-2.121-1.527,1.491v8.9l1.581,1.641Z" transform="translate(-49.288 -1.247)" fill="#e5e5e5"/>
  <path id="パス_170" data-name="パス 170" d="M107.478,28.694,105.54,26.63l-1.581,1.642v8.9l1.527,1.49,1.992-2.121Z" transform="translate(-49.288 -12.625)" fill="#e5e5e5"/>
  <path id="パス_171" data-name="パス 171" d="M108.569,0l-1.1,1.07,1.987,2.115h7.529l1.986-2.115L117.88,0Z" transform="translate(-50.954 0)" fill="#e5e5e5"/>
  <path id="パス_172" data-name="パス 172" d="M117.085,22.214h-7.552l-1.881,2,1.766,1.881H117.2l1.766-1.881Z" transform="translate(-51.04 -10.532)" fill="#e5e5e5"/>
  <path id="パス_173" data-name="パス 173" d="M126.168,12.6V4.753l1.992-2.121,1.527,1.491v8.9l-1.581,1.641Z" transform="translate(-59.818 -1.247)" fill="#e5e5e5"/>
  <path id="パス_174" data-name="パス 174" d="M113.337,46.08H109.46L107.474,48.2l1.095,1.069h9.312l1.095-1.069-1.987-2.116Z" transform="translate(-50.955 -21.847)" fill="#e5e5e5"/>
  <path id="パス_175" data-name="パス 175" d="M126.168,28.694l1.938-2.064,1.581,1.642v8.9l-1.527,1.49-1.992-2.121Z" transform="translate(-59.818 -12.625)" fill="#e5e5e5"/>
  <path id="パス_176" data-name="パス 176" d="M107.478,28.694,105.54,26.63l-1.581,1.642v8.9l1.527,1.49,1.992-2.121Z" transform="translate(-49.288 -12.625)"/>
  <path id="パス_177" data-name="パス 177" d="M108.569,0l-1.1,1.07,1.987,2.115h7.529l1.986-2.115L117.88,0Z" transform="translate(-50.954 0)"/>
  <path id="パス_178" data-name="パス 178" d="M117.085,22.214h-7.552l-1.881,2,1.766,1.881H117.2l1.766-1.881Z" transform="translate(-51.04 -10.532)"/>
  <path id="パス_179" data-name="パス 179" d="M126.168,12.6V4.753l1.992-2.121,1.527,1.491v8.9l-1.581,1.641Z" transform="translate(-59.818 -1.247)"/>
  <path id="パス_180" data-name="パス 180" d="M113.337,46.08H109.46L107.474,48.2l1.095,1.069h9.312l1.095-1.069-1.987-2.116Z" transform="translate(-50.955 -21.847)"/>
  <path id="パス_181" data-name="パス 181" d="M146.324,12.6V4.753l-1.992-2.121-1.527,1.491v8.9l1.581,1.641Z" transform="translate(-67.706 -1.247)" fill="#e5e5e5"/>
  <path id="パス_182" data-name="パス 182" d="M146.324,28.694l-1.938-2.064-1.581,1.642v8.9l1.527,1.49,1.992-2.121Z" transform="translate(-67.706 -12.625)" fill="#e5e5e5"/>
  <path id="パス_183" data-name="パス 183" d="M147.415,0l-1.095,1.07,1.987,2.115h7.529l1.986-2.115L156.727,0Z" transform="translate(-69.372 0)" fill="#e5e5e5"/>
  <path id="パス_184" data-name="パス 184" d="M155.931,22.214H148.38l-1.881,2,1.766,1.881h7.782l1.766-1.881Z" transform="translate(-69.457 -10.532)" fill="#e5e5e5"/>
  <path id="パス_185" data-name="パス 185" d="M165.014,4.752V12.6l1.938,2.064,1.58-1.642v-8.9l-1.527-1.491Z" transform="translate(-78.235 -1.247)" fill="#e5e5e5"/>
  <path id="パス_186" data-name="パス 186" d="M152.184,46.08h-3.877L146.32,48.2l1.095,1.069h9.311l1.095-1.069-1.986-2.116Z" transform="translate(-69.372 -21.847)" fill="#e5e5e5"/>
  <path id="パス_187" data-name="パス 187" d="M165.014,28.694v7.845l1.992,2.121,1.527-1.49v-8.9l-1.58-1.642Z" transform="translate(-78.235 -12.626)" fill="#e5e5e5"/>
  <path id="パス_188" data-name="パス 188" d="M146.324,12.6V4.753l-1.992-2.121-1.527,1.491v8.9l1.581,1.641Z" transform="translate(-67.706 -1.247)"/>
  <path id="パス_189" data-name="パス 189" d="M147.415,0l-1.095,1.07,1.987,2.115h7.529l1.986-2.115L156.727,0Z" transform="translate(-69.372 0)"/>
  <path id="パス_190" data-name="パス 190" d="M155.931,22.214H148.38l-1.881,2,1.766,1.881h7.782l1.766-1.881Z" transform="translate(-69.457 -10.532)"/>
  <path id="パス_191" data-name="パス 191" d="M152.184,46.08h-3.877L146.32,48.2l1.095,1.069h9.311l1.095-1.069-1.986-2.116Z" transform="translate(-69.372 -21.847)"/>
  <path id="パス_192" data-name="パス 192" d="M165.014,28.694v7.845l1.992,2.121,1.527-1.49v-8.9l-1.58-1.642Z" transform="translate(-78.235 -12.626)"/>
  <path id="パス_193" data-name="パス 193" d="M42.365,12.6V4.753L40.373,2.631,38.846,4.122v8.9l1.581,1.641Z" transform="translate(-18.417 -1.247)"/>
  <path id="パス_194" data-name="パス 194" d="M42.365,28.694,40.427,26.63l-1.581,1.642v8.9l1.527,1.49,1.992-2.121Z" transform="translate(-18.417 -12.625)"/>
  <path id="パス_195" data-name="パス 195" d="M43.455,0l-1.1,1.07,1.987,2.115h7.529l1.986-2.115L52.767,0Z" transform="translate(-20.083 0)" fill="#e5e5e5"/>
  <path id="パス_196" data-name="パス 196" d="M51.972,22.214H44.42l-1.881,2L44.306,26.1h7.782l1.766-1.881Z" transform="translate(-20.169 -10.532)"/>
  <path id="パス_197" data-name="パス 197" d="M61.055,12.6V4.753l1.992-2.121,1.527,1.491v8.9l-1.581,1.641Z" transform="translate(-28.947 -1.247)" fill="#e5e5e5"/>
  <path id="パス_198" data-name="パス 198" d="M48.224,46.08H44.347L42.36,48.2l1.095,1.069h9.312L53.862,48.2,51.875,46.08Z" transform="translate(-20.084 -21.847)"/>
  <path id="パス_199" data-name="パス 199" d="M61.055,28.694l1.938-2.064,1.581,1.642v8.9l-1.527,1.49-1.992-2.121Z" transform="translate(-28.947 -12.625)" fill="#e5e5e5"/>
  <path id="パス_200" data-name="パス 200" d="M43.455,0l-1.1,1.07,1.987,2.115h7.529l1.986-2.115L52.767,0Z" transform="translate(-20.083 0)"/>
  <path id="パス_201" data-name="パス 201" d="M61.055,12.6V4.753l1.992-2.121,1.527,1.491v8.9l-1.581,1.641Z" transform="translate(-28.947 -1.247)"/>
  <path id="パス_202" data-name="パス 202" d="M61.055,28.694l1.938-2.064,1.581,1.642v8.9l-1.527,1.49-1.992-2.121Z" transform="translate(-28.947 -12.625)"/>
  <rect id="長方形_208" data-name="長方形 208" width="3.519" height="3.519" transform="translate(43.766 18.26)"/>
  <rect id="長方形_209" data-name="長方形 209" width="3.519" height="3.519" transform="translate(43.766 5.639)"/>
</svg>
