<svg xmlns="http://www.w3.org/2000/svg" width="192.885" height="55.671" viewBox="0 0 192.885 55.671">
  <path id="パス_1435" data-name="パス 1435" d="M36.113-15.015a14.8,14.8,0,0,1-5.044,11.28A17.245,17.245,0,0,1,18.942.924,25.474,25.474,0,0,1,9.009-1.617,6.384,6.384,0,0,0,6.7-2.31q-.924,0-1.155,2.233-.077,1.155-1,1.155-.77,0-.77-.924A4.1,4.1,0,0,1,3.85-.77a67.223,67.223,0,0,0,.616-8.7q0-.77-.154-4.312a7.824,7.824,0,0,1-.077-1.232q0-1.155.924-1.155.77,0,1.078,1.848Q8.239-.616,19.25-.616q4.7,0,7.277-2.656t2.579-7.507a11.2,11.2,0,0,0-2.5-7.353q-2.5-3.042-8.586-6.045Q10.7-27.8,7.854-31.185A12.6,12.6,0,0,1,5-39.578a14.365,14.365,0,0,1,4.12-10.549,14.07,14.07,0,0,1,10.434-4.158A21.911,21.911,0,0,1,26.8-52.514a7.64,7.64,0,0,0,2.387.616,1.487,1.487,0,0,0,1.116-.308,4.018,4.018,0,0,0,.5-1.617.818.818,0,0,1,.847-.77q.77,0,.77.924a4.1,4.1,0,0,1-.077.924,36.74,36.74,0,0,0-.231,4.466,34.913,34.913,0,0,0,.385,5.852l.077,1.232q.077.847-.693.847-.847,0-1.155-1.771a13.744,13.744,0,0,0-4-7.584,9.969,9.969,0,0,0-7.084-3.042,7.92,7.92,0,0,0-6.122,2.464,9.5,9.5,0,0,0-2.272,6.7,10.194,10.194,0,0,0,3.311,7.931q1.848,1.694,8.008,4.774,7.238,3.619,10.4,7.353A12.813,12.813,0,0,1,36.113-15.015ZM95.48-52.745q0,.77-1.925.693l-1.694-.077H90.475q-1.232,0-1.463.423a7.834,7.834,0,0,0-.231,2.58V-4.774Q88.781-.693,88.7,0t-.462.693q-.462,0-1.078-.847l-9.856-14.4Q68.761-27.1,56.518-45.892L56.6-2.926a1.349,1.349,0,0,0,1.155,1.27,31.217,31.217,0,0,0,5.159.347q1,0,1,.616,0,.77-2,.77-.693,0-4.389-.231-1.232-.077-2.387-.077.077,0-1.348.154t-4.35.154h-.77q-1.771,0-1.771-.693t1.54-.693q4.543-.077,5.274-.577t.732-3.272V-43.12q0-6.391-2.618-8.008a8.891,8.891,0,0,0-4.389-.77q-2,0-2-.77,0-.693,1.155-.693,1.54,0,3.927.077t2.541.077q.231,0,2.156-.077,2.541,0,4.928-.077L86.7-13.86V-48.125q0-2.387-.077-2.888a1.023,1.023,0,0,0-.616-.77,13.2,13.2,0,0,0-3.7-.269q-2.772,0-2.772-.693,0-.77,1.848-.77H86.24q1.232.077,1.463.077.077,0,1.386-.077h4.7Q95.48-53.515,95.48-52.745Zm58.6,52.206q0,.693-1.155.693a11.256,11.256,0,0,1-1.386-.077l-9.779-.154-9.779.154a8.178,8.178,0,0,1-1.155.077q-1.54,0-1.54-.77,0-.847,2.079-.847,6.776-.077,6.776-1.386a4.615,4.615,0,0,0-.154-.616l-.616-2.079-.385-1.078q-.693-2.387-3.388-10.549H117.117Q112.5-4.851,112.5-3a1.186,1.186,0,0,0,.924,1.309q.231.077,3.85.308,2.233.077,2.233.77,0,.77-2,.77-3.542,0-8.239-.308-1.155-.077-2.387-.077a18.049,18.049,0,0,0-2.387.154,8.423,8.423,0,0,1-1,.077q-1.078,0-1.078-.693t2.425-.77a7.515,7.515,0,0,0,3.5-.732,4.414,4.414,0,0,0,1.694-2.5Q119.966-33.033,126.2-50.2a10.212,10.212,0,0,1,.616-2.079l.385-1.386q.231-.847.616-.847.231,0,.385.462,1,3,4.543,12.551Q135.52-34.034,146.531-4a3.6,3.6,0,0,0,1.578,2.156,11.555,11.555,0,0,0,3.965.539Q154.077-1.232,154.077-.539Zm-20.944-18.4-4.081-11.473-3.7-10.549q-3.234,8.47-7.777,22.022Zm63.525-21.714a13.131,13.131,0,0,1-6.391,11.627A18.228,18.228,0,0,1,180.1-26.411a37.3,37.3,0,0,1-5.929-.539V-5.082a9.454,9.454,0,0,0,.154,2.233,2.006,2.006,0,0,0,1.694,1.309,31.566,31.566,0,0,0,4.312.308q.847,0,.847.539,0,.77-1.078.77a3.24,3.24,0,0,1-.77-.077Q175.1.077,163.394.077h-1q-2.31,0-2.31-.77,0-.539,1.617-.539,3.619,0,4.158-.693.616-.308.693-1.54V-48.9q0-2.387-1.309-2.926a8.121,8.121,0,0,0-2.7-.308h-.77a1.706,1.706,0,0,1-.539.077q-1.155,0-1.155-.693,0-.77,2.156-.77h16.94q8.778,0,12.859,3.08A11.509,11.509,0,0,1,196.658-40.656Zm-8.085.154q0-11.55-9.7-11.55-3.234,0-4.235,1.078a3.836,3.836,0,0,0-.462,2.387v20.482a11.256,11.256,0,0,0,1.386.077,15.852,15.852,0,0,0,8.624-2.233Q188.573-33.033,188.573-40.5Z" transform="translate(-3.773 54.593)"/>
</svg>
