<svg id="グループ_75" data-name="グループ 75" xmlns="http://www.w3.org/2000/svg" width="90.298" height="27.418" viewBox="0 0 90.298 27.418">
  <path id="パス_203" data-name="パス 203" d="M0,4.122v8.9l1.581,1.641L3.519,12.6V4.753L1.526,2.631Z" transform="translate(0 -1.247)" fill="#e5e5e5"/>
  <path id="パス_204" data-name="パス 204" d="M0,28.273v8.9l1.526,1.49,1.993-2.121V28.694L1.581,26.631Z" transform="translate(0 -12.626)" fill="#e5e5e5"/>
  <path id="パス_205" data-name="パス 205" d="M4.609,0,3.514,1.069,5.5,3.184H13.03l1.986-2.115L13.921,0Z" transform="translate(-1.666 0)" fill="#e5e5e5"/>
  <path id="パス_206" data-name="パス 206" d="M13.126,22.214H5.574l-1.881,2L5.46,26.1h7.782l1.766-1.881Z" transform="translate(-1.751 -10.532)" fill="#e5e5e5"/>
  <path id="パス_207" data-name="パス 207" d="M22.209,12.6V4.753L24.2,2.631l1.527,1.491v8.9l-1.581,1.641Z" transform="translate(-10.529 -1.247)" fill="#e5e5e5"/>
  <path id="パス_208" data-name="パス 208" d="M9.378,46.08H5.5L3.515,48.2,4.61,49.265h9.311l1.1-1.069L13.03,46.08Z" transform="translate(-1.666 -21.847)" fill="#e5e5e5"/>
  <path id="パス_209" data-name="パス 209" d="M22.209,28.694l1.938-2.064,1.581,1.642v8.9L24.2,38.66l-1.992-2.121Z" transform="translate(-10.529 -12.625)" fill="#e5e5e5"/>
  <path id="パス_210" data-name="パス 210" d="M0,4.122v8.9l1.581,1.641L3.519,12.6V4.753L1.526,2.631Z" transform="translate(0 -1.247)" fill="#e5e5e5"/>
  <path id="パス_211" data-name="パス 211" d="M0,28.273v8.9l1.526,1.49,1.993-2.121V28.694L1.581,26.631Z" transform="translate(0 -12.626)" fill="#e5e5e5"/>
  <path id="パス_212" data-name="パス 212" d="M4.609,0,3.514,1.069,5.5,3.184H13.03l1.986-2.115L13.921,0Z" transform="translate(-1.666 0)" fill="#e5e5e5"/>
  <path id="パス_213" data-name="パス 213" d="M22.209,12.6V4.753L24.2,2.631l1.527,1.491v8.9l-1.581,1.641Z" transform="translate(-10.529 -1.247)"/>
  <path id="パス_214" data-name="パス 214" d="M9.378,46.08H5.5L3.515,48.2,4.61,49.265h9.311l1.1-1.069L13.03,46.08Z" transform="translate(-1.666 -21.847)" fill="#e5e5e5"/>
  <path id="パス_215" data-name="パス 215" d="M22.209,28.694l1.938-2.064,1.581,1.642v8.9L24.2,38.66l-1.992-2.121Z" transform="translate(-10.529 -12.625)"/>
  <path id="パス_216" data-name="パス 216" d="M107.478,12.6V4.753l-1.992-2.121-1.527,1.491v8.9l1.581,1.641Z" transform="translate(-49.288 -1.247)"/>
  <path id="パス_217" data-name="パス 217" d="M107.478,28.694,105.54,26.63l-1.581,1.642v8.9l1.527,1.49,1.992-2.121Z" transform="translate(-49.288 -12.625)" fill="#e5e5e5"/>
  <path id="パス_218" data-name="パス 218" d="M108.569,0l-1.1,1.07,1.987,2.115h7.529l1.986-2.115L117.88,0Z" transform="translate(-50.954 0)" fill="#e5e5e5"/>
  <path id="パス_219" data-name="パス 219" d="M117.085,22.214h-7.552l-1.881,2,1.766,1.881H117.2l1.766-1.881Z" transform="translate(-51.04 -10.532)" fill="#e5e5e5"/>
  <path id="パス_220" data-name="パス 220" d="M126.168,12.6V4.753l1.992-2.121,1.527,1.491v8.9l-1.581,1.641Z" transform="translate(-59.818 -1.247)" fill="#e5e5e5"/>
  <path id="パス_221" data-name="パス 221" d="M113.337,46.08H109.46L107.474,48.2l1.095,1.069h9.312l1.095-1.069-1.987-2.116Z" transform="translate(-50.955 -21.847)" fill="#e5e5e5"/>
  <path id="パス_222" data-name="パス 222" d="M126.168,28.694l1.938-2.064,1.581,1.642v8.9l-1.527,1.49-1.992-2.121Z" transform="translate(-59.818 -12.625)"/>
  <path id="パス_223" data-name="パス 223" d="M107.478,28.694,105.54,26.63l-1.581,1.642v8.9l1.527,1.49,1.992-2.121Z" transform="translate(-49.288 -12.625)" fill="#e5e5e5"/>
  <path id="パス_224" data-name="パス 224" d="M108.569,0l-1.1,1.07,1.987,2.115h7.529l1.986-2.115L117.88,0Z" transform="translate(-50.954 0)"/>
  <path id="パス_225" data-name="パス 225" d="M117.085,22.214h-7.552l-1.881,2,1.766,1.881H117.2l1.766-1.881Z" transform="translate(-51.04 -10.532)"/>
  <path id="パス_226" data-name="パス 226" d="M126.168,12.6V4.753l1.992-2.121,1.527,1.491v8.9l-1.581,1.641Z" transform="translate(-59.818 -1.247)" fill="#e5e5e5"/>
  <path id="パス_227" data-name="パス 227" d="M113.337,46.08H109.46L107.474,48.2l1.095,1.069h9.312l1.095-1.069-1.987-2.116Z" transform="translate(-50.955 -21.847)"/>
  <path id="パス_228" data-name="パス 228" d="M146.324,12.6V4.753l-1.992-2.121-1.527,1.491v8.9l1.581,1.641Z" transform="translate(-67.706 -1.247)" fill="#e5e5e5"/>
  <path id="パス_229" data-name="パス 229" d="M146.324,28.694l-1.938-2.064-1.581,1.642v8.9l1.527,1.49,1.992-2.121Z" transform="translate(-67.706 -12.625)"/>
  <path id="パス_230" data-name="パス 230" d="M147.415,0l-1.095,1.07,1.987,2.115h7.529l1.986-2.115L156.727,0Z" transform="translate(-69.372 0)" fill="#e5e5e5"/>
  <path id="パス_231" data-name="パス 231" d="M155.931,22.214H148.38l-1.881,2,1.766,1.881h7.782l1.766-1.881Z" transform="translate(-69.457 -10.532)" fill="#e5e5e5"/>
  <path id="パス_232" data-name="パス 232" d="M165.014,4.752V12.6l1.938,2.064,1.58-1.642v-8.9l-1.527-1.491Z" transform="translate(-78.235 -1.247)"/>
  <path id="パス_233" data-name="パス 233" d="M152.184,46.08h-3.877L146.32,48.2l1.095,1.069h9.311l1.095-1.069-1.986-2.116Z" transform="translate(-69.372 -21.847)" fill="#e5e5e5"/>
  <path id="パス_234" data-name="パス 234" d="M165.014,28.694v7.845l1.992,2.121,1.527-1.49v-8.9l-1.58-1.642Z" transform="translate(-78.235 -12.626)" fill="#e5e5e5"/>
  <path id="パス_235" data-name="パス 235" d="M146.324,12.6V4.753l-1.992-2.121-1.527,1.491v8.9l1.581,1.641Z" transform="translate(-67.706 -1.247)"/>
  <path id="パス_236" data-name="パス 236" d="M147.415,0l-1.095,1.07,1.987,2.115h7.529l1.986-2.115L156.727,0Z" transform="translate(-69.372 0)"/>
  <path id="パス_237" data-name="パス 237" d="M155.931,22.214H148.38l-1.881,2,1.766,1.881h7.782l1.766-1.881Z" transform="translate(-69.457 -10.532)" fill="#e5e5e5"/>
  <path id="パス_238" data-name="パス 238" d="M152.184,46.08h-3.877L146.32,48.2l1.095,1.069h9.311l1.095-1.069-1.986-2.116Z" transform="translate(-69.372 -21.847)"/>
  <path id="パス_239" data-name="パス 239" d="M165.014,28.694v7.845l1.992,2.121,1.527-1.49v-8.9l-1.58-1.642Z" transform="translate(-78.235 -12.626)"/>
  <path id="パス_240" data-name="パス 240" d="M42.365,12.6V4.753L40.373,2.631,38.846,4.122v8.9l1.581,1.641Z" transform="translate(-18.417 -1.247)"/>
  <path id="パス_241" data-name="パス 241" d="M42.365,28.694,40.427,26.63l-1.581,1.642v8.9l1.527,1.49,1.992-2.121Z" transform="translate(-18.417 -12.625)"/>
  <path id="パス_242" data-name="パス 242" d="M43.455,0l-1.1,1.07,1.987,2.115h7.529l1.986-2.115L52.767,0Z" transform="translate(-20.083 0)" fill="#e5e5e5"/>
  <path id="パス_243" data-name="パス 243" d="M51.972,22.214H44.42l-1.881,2L44.306,26.1h7.782l1.766-1.881Z" transform="translate(-20.169 -10.532)" fill="#e5e5e5"/>
  <path id="パス_244" data-name="パス 244" d="M61.055,12.6V4.753l1.992-2.121,1.527,1.491v8.9l-1.581,1.641Z" transform="translate(-28.947 -1.247)" fill="#e5e5e5"/>
  <path id="パス_245" data-name="パス 245" d="M48.224,46.08H44.347L42.36,48.2l1.095,1.069h9.312L53.862,48.2,51.875,46.08Z" transform="translate(-20.084 -21.847)"/>
  <path id="パス_246" data-name="パス 246" d="M61.055,28.694l1.938-2.064,1.581,1.642v8.9l-1.527,1.49-1.992-2.121Z" transform="translate(-28.947 -12.625)" fill="#e5e5e5"/>
  <path id="パス_247" data-name="パス 247" d="M43.455,0l-1.1,1.07,1.987,2.115h7.529l1.986-2.115L52.767,0Z" transform="translate(-20.083 0)"/>
  <path id="パス_248" data-name="パス 248" d="M61.055,12.6V4.753l1.992-2.121,1.527,1.491v8.9l-1.581,1.641Z" transform="translate(-28.947 -1.247)"/>
  <path id="パス_249" data-name="パス 249" d="M61.055,28.694l1.938-2.064,1.581,1.642v8.9l-1.527,1.49-1.992-2.121Z" transform="translate(-28.947 -12.625)"/>
  <rect id="長方形_210" data-name="長方形 210" width="3.519" height="3.519" transform="translate(43.766 18.26)"/>
  <rect id="長方形_211" data-name="長方形 211" width="3.519" height="3.519" transform="translate(43.766 5.639)"/>
</svg>
