<svg xmlns="http://www.w3.org/2000/svg" width="116.28" height="13.68" viewBox="0 0 116.28 13.68">
  <path id="パス_1459" data-name="パス 1459" d="M-45.676-.133q0,.171-.285.171A2.778,2.778,0,0,1-46.3.019l-2.413-.038-2.413.038a2.018,2.018,0,0,1-.285.019q-.38,0-.38-.19,0-.209.513-.209Q-49.609-.38-49.609-.7a1.139,1.139,0,0,0-.038-.152l-.152-.513-.1-.266q-.171-.589-.836-2.6H-54.8a20.468,20.468,0,0,0-1.14,3.5.293.293,0,0,0,.228.323q.057.019.95.076.551.019.551.19,0,.19-.494.19-.874,0-2.033-.076-.285-.019-.589-.019a4.454,4.454,0,0,0-.589.038A2.078,2.078,0,0,1-58.159,0q-.266,0-.266-.171t.6-.19a1.854,1.854,0,0,0,.864-.18,1.089,1.089,0,0,0,.418-.618q2.451-6.992,3.99-11.229A2.52,2.52,0,0,1-52.4-12.9l.095-.342q.057-.209.152-.209.057,0,.1.114.247.741,1.121,3.1.684,1.843,3.4,9.253a.888.888,0,0,0,.389.532,2.851,2.851,0,0,0,.979.133Q-45.676-.3-45.676-.133Zm-5.168-4.541-1.007-2.831-.912-2.6q-.8,2.09-1.919,5.434ZM-34.086-1.5q0,.494-.057,1.634h-.209q-.114,0-.551-.038t-.988-.038L-43.795,0q-.323,0-.323-.171,0-.133.513-.171A1.858,1.858,0,0,0-42.74-.5q.143-.123.143-.713V-11.894q0-.7-.143-.817a2.389,2.389,0,0,0-1.016-.114q-.361,0-.361-.209,0-.171.228-.171h.171q.627.057,2.489.057.171,0,.665-.028t.817-.029h.209q.342,0,.342.19a.133.133,0,0,1-.1.142,4.588,4.588,0,0,1-.655.048q-.551.019-.655.181a2.6,2.6,0,0,0-.1,1V-.437q.513.019,1.425.019a14.716,14.716,0,0,0,3.135-.228A1.772,1.772,0,0,0-34.922-1.5a4.225,4.225,0,0,0,.38-1.691q.019-.247.228-.247.247,0,.228.285l-.019.475v.171a1.879,1.879,0,0,1,.019.266Zm12.616,0q0,.494-.057,1.634h-.209q-.114,0-.551-.038t-.988-.038L-31.179,0Q-31.5,0-31.5-.171q0-.133.513-.171A1.858,1.858,0,0,0-30.125-.5q.143-.123.143-.713V-11.894q0-.7-.143-.817a2.389,2.389,0,0,0-1.016-.114q-.361,0-.361-.209,0-.171.228-.171h.171q.627.057,2.489.057.171,0,.665-.028t.817-.029h.209q.342,0,.342.19a.133.133,0,0,1-.1.142,4.588,4.588,0,0,1-.656.048q-.551.019-.656.181a2.6,2.6,0,0,0-.1,1V-.437q.513.019,1.425.019a14.716,14.716,0,0,0,3.135-.228A1.772,1.772,0,0,0-22.306-1.5a4.225,4.225,0,0,0,.38-1.691q.019-.247.228-.247.247,0,.228.285l-.019.475v.171a1.879,1.879,0,0,1,.019.266Zm18.05,0q0,.494-.057,1.634h-.209q-.114,0-.551-.038T-5.225.057L-13.129,0q-.323,0-.323-.171,0-.133.513-.171A1.858,1.858,0,0,0-12.074-.5q.143-.123.142-.713V-11.894q0-.7-.142-.817a2.389,2.389,0,0,0-1.017-.114q-.361,0-.361-.209,0-.171.228-.171h.171q.627.057,2.489.057.171,0,.665-.028t.817-.029h.209q.342,0,.342.19a.133.133,0,0,1-.1.142,4.588,4.588,0,0,1-.656.048q-.551.019-.656.181a2.6,2.6,0,0,0-.1,1V-.437q.513.019,1.425.019A14.716,14.716,0,0,0-5.491-.646,1.772,1.772,0,0,0-4.256-1.5a4.225,4.225,0,0,0,.38-1.691q.019-.247.228-.247.247,0,.228.285l-.019.475v.171a1.879,1.879,0,0,1,.019.266ZM4.123-.152Q4.123,0,3.9,0h-.19A24.321,24.321,0,0,0,1.121-.057q-.475,0-.95.038Q-.076,0-.589,0-.836,0-.836-.171q0-.152.494-.171.76-.019.893-.181A2.416,2.416,0,0,0,.684-1.615v-9.994a2.813,2.813,0,0,0-.1-1.045q-.114-.19-1.045-.228-.361-.019-.361-.152,0-.171.228-.171l2.565.038q.285,0,1.1-.019L3.8-13.2q.3,0,.3.171,0,.152-.836.19-.475.019-.58.171a1.786,1.786,0,0,0-.1.8V-1.729A3.356,3.356,0,0,0,2.679-.551,2.243,2.243,0,0,0,3.914-.3Q4.123-.3,4.123-.152ZM18.715-13.015q0,.19-.475.171l-.418-.019H17.48q-.3,0-.361.1a1.933,1.933,0,0,0-.057.637V-1.178q0,1.007-.019,1.178t-.114.171q-.114,0-.266-.209L14.231-3.591q-2.109-3.1-5.13-7.733L9.12-.722a.333.333,0,0,0,.285.313,7.7,7.7,0,0,0,1.273.086q.247,0,.247.152,0,.19-.494.19-.171,0-1.083-.057-.3-.019-.589-.019.019,0-.333.038T7.353.019h-.19q-.437,0-.437-.171t.38-.171a3.672,3.672,0,0,0,1.3-.142q.181-.123.181-.808V-10.64q0-1.577-.646-1.976a2.194,2.194,0,0,0-1.083-.19q-.494,0-.494-.19,0-.171.285-.171.38,0,.969.019l.627.019q.057,0,.532-.019.627,0,1.216-.019L16.549-3.42v-8.455q0-.589-.019-.713a.252.252,0,0,0-.152-.19,3.257,3.257,0,0,0-.912-.066q-.684,0-.684-.171,0-.19.456-.19h1.2q.3.019.361.019l.342-.019H18.3Q18.715-13.2,18.715-13.015ZM31.559-3.078q0,.076-.038.931T31.483-.513V.114Q29.621.019,24.111.019q-.665,0-1.311.019H21.736q-.361,0-.361-.171a.122.122,0,0,1,.114-.133q.057,0,.722-.057.494-.038.6-.209a2.22,2.22,0,0,0,.1-.893V-12.1q0-.551-.162-.655a2.766,2.766,0,0,0-1.035-.1q-.3,0-.3-.171t.418-.171l3.249.019q.171,0,2.147-.019h2.66a6.636,6.636,0,0,0,1.045-.076q.038.817.171,2.261l.076.817a1.3,1.3,0,0,1,.019.247q0,.19-.171.19-.209,0-.3-.475a3.076,3.076,0,0,0-1.178-2.166,8.6,8.6,0,0,0-3.192-.342H24.8v5.567h.456a5.957,5.957,0,0,0,2.594-.323q.465-.323.636-1.881.038-.4.209-.4.209,0,.209.342t-.038,1.007q-.038.665-.038,1.007,0,2.033.076,2.793.019.19.019.323,0,.247-.209.247-.133,0-.181-.161t-.161-1.055a1.51,1.51,0,0,0-.931-1.387,7.922,7.922,0,0,0-1.786-.114H24.8V-.4A36.216,36.216,0,0,0,29.7-.57Q30.951-.855,31.122-3q.038-.475.247-.475Q31.559-3.477,31.559-3.078Zm14.763-9.937q0,.171-.342.171-.057,0-.38-.019a1.434,1.434,0,0,0-.266-.019q-.475,0-.57.247a1.767,1.767,0,0,0-.038.437v7.125A6.35,6.35,0,0,1,43.69-1.035,4.069,4.069,0,0,1,40.356.228Q37.6.228,36.48-1.33a6.1,6.1,0,0,1-.741-3.439l-.019-7.619a.5.5,0,0,0-.456-.418,6.892,6.892,0,0,0-.7-.019q-.323-.038-.323-.19,0-.171.266-.171h.342q.1,0,.437.019h.551l2.717-.019a1.18,1.18,0,0,1,.228-.019q.323,0,.323.209a.133.133,0,0,1-.114.152q-.114.019-.76.038a1.129,1.129,0,0,0-.361.038.3.3,0,0,0-.209.266q-.019.076-.019,1.083v6.8a5.357,5.357,0,0,0,.8,3.42,2.988,2.988,0,0,0,2.375.912q2.888,0,3.268-3.287.057-.494.057-4.18V-8.835l.019-1.52-.019-1.311v-.418a1.722,1.722,0,0,1,.019-.209.476.476,0,0,0-.4-.513,4.324,4.324,0,0,0-.779-.038q-.38,0-.38-.209,0-.171.266-.171a1.3,1.3,0,0,1,.247.019q.228.019,1.653.019.209,0,.475-.019h.646Q46.322-13.2,46.322-13.015Zm11.533,2.983a3.24,3.24,0,0,1-1.577,2.869,4.5,4.5,0,0,1-2.508.646,9.2,9.2,0,0,1-1.463-.133v5.4a2.333,2.333,0,0,0,.038.551.5.5,0,0,0,.418.323A7.789,7.789,0,0,0,53.827-.3q.209,0,.209.133,0,.19-.266.19A.8.8,0,0,1,53.58,0q-1.045.019-3.933.019H49.4q-.57,0-.57-.19,0-.133.4-.133.893,0,1.026-.171.152-.076.171-.38v-11.21q0-.589-.323-.722a2,2,0,0,0-.665-.076h-.19a.421.421,0,0,1-.133.019q-.285,0-.285-.171,0-.19.532-.19h4.18a5.3,5.3,0,0,1,3.173.76A2.84,2.84,0,0,1,57.855-10.032Zm-2,.038q0-2.85-2.394-2.85a1.461,1.461,0,0,0-1.045.266.946.946,0,0,0-.114.589v5.054a2.777,2.777,0,0,0,.342.019,3.912,3.912,0,0,0,2.128-.551A2.754,2.754,0,0,0,55.86-9.994Z" transform="translate(58.425 13.452)" fill="#fff"/>
</svg>
