<svg id="グループ_78" data-name="グループ 78" xmlns="http://www.w3.org/2000/svg" xmlns:xlink="http://www.w3.org/1999/xlink" width="704.583" height="159.522" viewBox="0 0 704.583 159.522">
  <defs>
    <clipPath id="clip-path">
      <rect id="長方形_224" data-name="長方形 224" width="704.583" height="159.522" fill="none"/>
    </clipPath>
  </defs>
  <g id="グループ_77" data-name="グループ 77" clip-path="url(#clip-path)">
    <path id="パス_546" data-name="パス 546" d="M103.1,108.18c3.926,10.867,1.807,6.195-.169,15.842-3.756,8.948,1.58,3.546-8.093,15.108-12.677,14.954-28.507,17.151-42.211,18.354l-26.544,1.008c-5.55,1.752-4.653.184-10.12.6-2.378.347-15.519.673-15.609.181a1.394,1.394,0,0,1-.309-1.309c.567-3.709,1.765-5.8,4.659-5.852,4.618-.016,8.223.211,9.511-1.386,5.341-8.235,5.26-17.226,7.558-26.564L34.4,61.556c2.513-16.02,5.518-22.245,2.914-24.547-1.159-.913-5.385-.927-8.636-1.014-1.527-.051-.928-1.1-.755-1.942.012-1-.2-1.817,1.036-2.245C38.8,27.9,63.845,29.5,76.056,28.08c4.7-1.354,13.808-1.711,17.459.18,4.752,2.14,10.2.9,12.777,5.2,2.418,4.149,2.341,10.153,3.553,14.561.292,5.143.079,1.493-.3,8.02C102.641,77.556,89.6,80.208,78.75,87.194c16.141,6.611,17.341,1.688,24.346,20.986M81.412,125.815c1.04-5.077,6.079-20.287-3.939-27.694-4.349-3.171-4.1.31-8.151-3.383-4.279-3.509-16.652-2.24-22.774-1.443-1.14,20.579-4.838,19.86-7.737,33.075-.1.508-1.633,10.788-1.555,12.281-.626,13.377,5.384,11.257,14.376,12.409,4.122.522,4.053.861,9.581-1.723,2.943-1.223,6.826-2.35,9.459-4.881l4.833-6.7.529-.706c.07-.338.53-.706.759-.891,3.969-5.3,3.289-2.914,4.619-10.346M52.252,69.2C49.3,76.09,48.045,80.351,48.933,87.282,54.879,90.165,82.111,81.108,86.2,63.97c1.027-4.077,2.35-5.842,2.9-8.551a26.216,26.216,0,0,0,.275-8.852c-1.082-6.915-2-13.678-10.756-13.183-.391.03-16.981,3.117-18.186,3.375-7.271,9.215-4.728,24.018-8.185,32.444"/>
    <path id="パス_547" data-name="パス 547" d="M221.486,43.41a3.373,3.373,0,0,1-1.783,2.134c-2.482.855-6.444.488-8.341,1.3-4.025,4.637-7.49,29.059-9.91,35.24-2.12,5.658-2.532,22.685-7.992,35.261-1.809,4.136-2.411,8.013-4.368,10.994-6.779,11.51-4.476,6.837-12.169,13.417l-1.149.92c-3.323,3.084-5.862,3.276-9.85,4.91-16.926,6.612-24.989,6.555-36.752-1.719l-3.75-4.216c-.2.015-.321-.309-.287-.478l-1.089-1.251c-5.961-9.379-.16-28.313-.169-30.145.363-5.526.277-1.354,1.292-4.43,1.557-4.783-.356-.14.351-4.525.406-3.863,2.64-8.2,3.012-11.891.688-8.05-.421-2.635,2.345-10.508.577-1.877.394-2.863,1.04-5.078,1.467-15.606,3.319-18.079.346-19.521s-4.352-.337-6.661-.329c-3.606-.227-3.849.958-3.247-2.92.776-4.724,5.311-3.4,8.47-3.806,7.49-.9,18.538-.4,27.3-1.9,6.617-1.334,6.34.02,6.349,1.852a3.868,3.868,0,0,1-3.266,3.746c-2.378.347-4.779-.139-6.353.98-3.176,4.24-2.849,9.214-3.955,11.8-4.505,11.671-2.139,1.995-2.31,10.339.119,5.989-3.971,15.629-4.664,19.015l-2.993,23.052c-.81,4.894-1.852,2.474-1.135,7.417.353,2.973.334-.691.249,3.481-.133,5.342.241,9.146,6.082,12.536,5.682,3.236,11.679,2.117,18.8-.754,7.711-2.917,3.133,1.6,12.262-5.427,8.474-6.638,6.981-6.859,11.017-19.994,1.891-5.475,4.045-11.3,4.5-16.336,1.713-19.624,9.288-42.524,7.412-48.38-1.48-1.221-4.974-.125-6.7-.161-3.446-.072-2.973-1.442-2.11-2.84.564-.875-1.111-2.082,2.473-2.686a128.747,128.747,0,0,1,22.617-1.544c1.723.037,3.194-.575,4.491-.339,2.24.33,1.09,1.25.583,2.788"/>
    <path id="パス_548" data-name="パス 548" d="M270,37.909c-2.344.177-5.937-1.051-9.408.877-4.265,2.989-2.466,14.85-7.759,32.245a128.492,128.492,0,0,0-4.365,18.493c-2.447,18.512-3.242,12.075-5,25.371-1.368,10.433-5.741,16.762-3.666,19.771,1.216,1.575,3.9-.294,8.957,1.323-.485,2.369.56,1.957-1.453,4.275-1.943,1.98-4.652.185-7.845.759-8.019,1.607-14.473.262-21.976,2.162-2.447.685-5.284,1.4-6.973,1.194-1.527-.051-1.675-1.206-1.628-2.376a2.738,2.738,0,0,1,2.278-2.672c2.712-1.037,4.652-.185,6.756-2.011,3.024-2.56,4.719-8.02,6.172-12.3,3.608-10.1,3.335-21.913,6.024-31.281.819-3.06.4-1.03.693-3.384l6.968-34.018c2.351-5.842-.651-2.45,2.409-15.511a19.386,19.386,0,0,0-8.51-.69c-1.207.258-1.3-.235-1.2-2.574.073-3.171,4.53-3.342,7.1-3.7l23.491-1.11a66.093,66.093,0,0,0,8.89-1.172c5.411-1.075.831,6.269.05,6.328"/>
    <path id="パス_549" data-name="パス 549" d="M318.362,92.57c-.271,6.019,3.514,10.064,1.437,17.386-3.021,10.059-5.885,12.775-12.324,17.927-10.842,8.818-28.417,10.147-41.008,3.1-1.686,7.291-2.81,6.21-5.774,6.6-2.539.192-.752-4.775-.531-6.792A94,94,0,0,1,262.3,121.3c.507-1.538.177-3.679,1.465-5.276,2.048-2.488,1.015-3.075,3.714-3.113,3.25.087,1.741,3.7,1.083,6.916-.807,2.06-1.557,4.783.027,5.5,1.423.558,2.226,1.33,4.466,1.661,12.26,4.906,18.651.923,24.69-6.033,6.269-7.138,3.494-11.427,2.16-18.99-.5-4.128-4.121-10.853-7.468-16.1-2.648-3.965-2.849-8.616-4.994-11.286-3.82-3.877-6.065-8.872-8.86-13.992-2.349-4.489-1.275-9.734,1.029-14.408,4.132-7.977,11.321-15.852,25.854-18.283,9.971-1.754,12.84.195,16.994,3.38l.829-1.229c1.427-2.275,2.048-2.488,2.955-2.223.745.11,4.044-.973,2.821,3.119.1,2.325-2.055,8.153-2.137,9.492-.151,1.678-.542,1.707-.992,3.908-.706,4.385-1.969,3.98-3.692,3.944-1.493-.22-3.033.729-2.361-3.487.428-3.032,1.417-4.106,1-6.74-.717-4.944-8.225-7.709-15.545-4.822-7.976,3.268-3.6,1.6-7.727,6.748-2.312,2.841-2.082,2.657-3.431,6.425-.372,3.694,6.039,10.873,7.833,18.069,3.454,12.236,16.8,21.224,16.355,28.089"/>
    <path id="パス_550" data-name="パス 550" d="M381.4,29.486c-2.344.177-5.937-1.051-9.408.878-4.265,2.988-2.466,14.849-7.759,32.244A128.494,128.494,0,0,0,359.871,81.1c-2.447,18.512-3.243,12.075-5.005,25.371-1.368,10.433-5.742,16.762-3.666,19.771,1.215,1.575,3.906-.294,8.957,1.323-.485,2.369.56,1.957-1.453,4.275-1.943,1.98-4.652.185-7.845.759-8.019,1.607-14.473.262-21.976,2.163-2.447.684-5.284,1.4-6.973,1.193-1.527-.051-1.675-1.206-1.628-2.376a2.737,2.737,0,0,1,2.278-2.672c2.713-1.037,4.652-.185,6.757-2.011,3.023-2.56,4.718-8.02,6.171-12.3,3.608-10.1,3.335-21.913,6.024-31.281.819-3.06.4-1.03.693-3.384l6.969-34.018c2.35-5.842-.652-2.45,2.408-15.511a19.386,19.386,0,0,0-8.51-.69c-1.207.258-1.3-.235-1.2-2.574.073-3.171,4.53-3.342,7.1-3.7l23.49-1.11a66.111,66.111,0,0,0,8.891-1.172c5.411-1.075.831,6.269.05,6.328"/>
    <path id="パス_551" data-name="パス 551" d="M485.755,20.762c-.876,2.4-1.371,2.936-2.9,2.885a23.89,23.89,0,0,0-5.342.737c-3.525,8.764-6.222,16.3-7.752,26.579-1.935,14.142-1.569,5.784-2.656,12.03-.867,4.232-1.608,8.786-1.98,12.48-1.082,10.912-5.341,18.566-6.237,27.631-.684,5.217-2.146,7.661-2.279,13a25.171,25.171,0,0,1-3.508,12.429c-8.183,4.284-6.26-8.858-10.539-12.366-2.191-11.831-7.5-11.263-9.78-23.587L413.949,55.017c-.929-1.1-.768-.942-.825-1.6-.308-1.31-4.87-8.13-4.87-8.13-1.744,6.631-1.972,14.312-4.036,20.633-1.89,5.475-6.924,35.68-8.428,43.959-.81,4.893-2.587,11.692-2.213,15.5.044,1.663,3.71-.28,5.971.882.838.6,1.263.4,1.376,1.728.057.663-.337,3.525-2.68,3.7-10.189.937-19.919,1.506-21.676,1.639-4.1.31-4.869-.631-4.522-2.324.277-1.354.784-2.891,5.367-2.738,2.5-.023,5.15-3.555,6.685-9.169l3.879-16.124c1.248-6.092,1.4-7.77,2.509-13.185,1.63-7.954,3.659-14.106,5.049-23.709,2.986-17.388,3.506-19.926,5.914-35.438-2.066-1.177-5.985.119-7.637-.256-.2.016-.552-.124-.747-.11-.977.075-1.228-.573-.847-2.434s3.392-3.423,5.9-3.445c2.274.161,15.04-3.971,21.915.008L428.3,38.435c.63,1.619-.047,1.171.869,3.267.79,1.774,2.557,3.472,3.542,5.231,4.894,8.96,5.621,15.737,12.123,23.41.608.787,9.761,19.923,10.3,21.048,1.126-9.249,4.517-20.169,5.481-29.573.42-4.864,1.409-5.938,2.1-9.323.879-5.232,3.858-16.954,3.974-18.463.086-4.171,2.5-7.519.471-8.865-.8-.773-3.446-.073-6.111-.2-3.571-.4-1.732-1.869-1.524-2.884.4-1.03-.3-2.311,2.9-2.885,2.768-.376,8.718-.326,14.025-.894,2.378-.346,4.652-.185,6.834-.517,2.929-.222,3.342.58,2.466,2.98"/>
    <path id="パス_552" data-name="パス 552" d="M545.567,109.714c-1.019,5.909,2.392,6.151-5.205,10.391-2.621,1.531-14.845,3.955-17.635,3.5-7.59-1.426-13.991.725-21.537.963l-21.181,1.1c-4.009.8-8.262,2.791-8.271.958l-.066-2.494c-.27-4.312,4.391-2.664,6.712-3.673,5.954-2.782,4.071-2.973,7.132-8.537,6.953-12.355,4.1-10.64,5.922-23.275.555-2.707,1.431-5.107,1.79-7.8.693-3.385.017-3.834.767-6.556,1.1-4.415,2.423-9.015,3.428-13.922,2.115-10.324,4.98-23.371,6.865-33.51-4.123-.521-6.583,1.165-10.463-.542-1.1-.25-.365-1.972-.157-2.987.346-1.693,1.175-2.922,4.586-2.68,2.469.146,2.882.949,5.19.94l25.169-2.735c4.9-1.37,6.709-.841,11.131-.843,12.025.425,7.733-2.084,20.781-2.9,5.272-.4.641,10.948-.42,15.2-1.951,7.644-2.421,6.18-3.753,6.114-2.859-.116-3.594-1.227-3.672-2.721.142-3.51,2.411-8.014,2.644-11.031-7.325-1.778-24.947.72-32.186,2.267-1.4,3.106-.854,3.231-2.19,6-3.824,9.286-3.675,17.939-5.556,25.247-.888,3.4-1.378,8.6-2.414,10.845a45.637,45.637,0,0,0,16.52-2.748c4.113-1.311,4.02-9.3,5.586-12.253.6-1.045,2.16-1.163,3.757-1.45,1.4-.273,3.3-1.082,2.444,2.148-.381,1.862-1.417,4.106-1.833,6.137-.59,2.878-1.135,7.418-1.907,9.308a23.715,23.715,0,0,0-1.508,11.112c-.06,2.17-.533,3.538-3.635,4.607-3.333,1.251-4.444-.831-3.659-3.723,1.556-4.782.8-9.558-.988-9.256-2.812-1.286-8.132.282-16.312,1.734l-6.1,29.786c-1.074,5.246-4.042,8.47-1.337,13.1,18.821,2.909,25.477-1.428,33.163-2.342,1.934-3.811,1.216-8.756,3.52-13.429,1.036-2.244,1.357-1.935,4.838-2.032,1.757-.133,1.492.221,1.7,2.038.422,2.634-1.274,8.094-1.655,9.956"/>
    <path id="パス_553" data-name="パス 553" d="M613.694,70.238c-.272,6.019,3.513,10.064,1.437,17.386-3.022,10.059-5.886,12.775-12.325,17.928-10.842,8.817-28.416,10.146-41.008,3.1-1.686,7.291-2.81,6.21-5.773,6.6-2.539.192-.753-4.775-.531-6.792a93.884,93.884,0,0,1,2.136-9.492c.507-1.538.177-3.679,1.465-5.276,2.048-2.488,1.015-3.075,3.714-3.113,3.25.087,1.741,3.7,1.083,6.916-.807,2.06-1.557,4.783.027,5.5,1.424.558,2.227,1.331,4.466,1.661,12.26,4.906,18.652.923,24.691-6.033,6.268-7.138,3.494-11.427,2.16-18.99-.5-4.128-4.121-10.853-7.469-16.1-2.648-3.965-2.848-8.616-4.993-11.286-3.82-3.877-6.065-8.872-8.861-13.992-2.349-4.489-1.274-9.734,1.029-14.408C579.075,15.871,586.263,8,600.8,5.565c9.972-1.754,12.841.2,16.995,3.38l.828-1.229c1.427-2.274,2.048-2.488,2.955-2.223.746.11,4.044-.973,2.822,3.119.1,2.325-2.056,8.153-2.137,9.492-.151,1.678-.543,1.707-.993,3.908-.706,4.385-1.969,3.98-3.692,3.944-1.492-.22-3.033.73-2.361-3.487.428-3.032,1.418-4.106,1-6.74-.718-4.944-8.226-7.709-15.546-4.822-7.975,3.268-3.6,1.6-7.727,6.749-2.312,2.84-2.082,2.656-3.43,6.424-.373,3.694,6.039,10.873,7.833,18.069,3.453,12.236,16.8,21.224,16.355,28.089"/>
    <path id="パス_554" data-name="パス 554" d="M678.562,65.333C678.29,71.352,682.075,75.4,680,82.719c-3.022,10.059-5.886,12.775-12.325,17.928-10.842,8.817-28.416,10.146-41.008,3.1-1.686,7.291-2.81,6.21-5.773,6.6-2.539.192-.753-4.775-.531-6.792a93.9,93.9,0,0,1,2.136-9.492c.507-1.538.177-3.679,1.465-5.276,2.048-2.488,1.015-3.075,3.714-3.113,3.25.087,1.741,3.7,1.083,6.916-.807,2.06-1.557,4.783.027,5.5,1.424.558,2.227,1.331,4.466,1.661,12.26,4.906,18.652.923,24.691-6.033,6.268-7.138,3.494-11.427,2.16-18.99-.5-4.128-4.121-10.853-7.469-16.1-2.648-3.965-2.848-8.616-4.993-11.286-3.82-3.877-6.065-8.872-8.861-13.992-2.349-4.489-1.274-9.734,1.029-14.408C643.943,10.966,651.131,3.091,665.664.66c9.972-1.754,12.841.195,16.995,3.38l.828-1.229C684.914.537,685.535.323,686.442.588c.746.11,4.044-.973,2.821,3.119.1,2.325-2.055,8.153-2.136,9.492-.152,1.678-.543,1.707-.993,3.908-.706,4.385-1.969,3.98-3.692,3.944-1.492-.22-3.033.73-2.361-3.487.428-3.032,1.418-4.106,1-6.74C680.359,5.88,672.851,3.115,665.531,6c-7.975,3.268-3.6,1.6-7.727,6.749-2.312,2.84-2.082,2.656-3.43,6.424-.373,3.694,6.039,10.873,7.833,18.069,3.453,12.236,16.8,21.224,16.355,28.089"/>
    <path id="パス_555" data-name="パス 555" d="M686.1,98.254c.576-1.876,2.784-4.21,4.107-5.976,5.718-7.264,16.911-2.778,13.858,4.617-6.141,14.96-20.411,9.541-17.965,1.359"/>
  </g>
</svg>
