<svg xmlns="http://www.w3.org/2000/svg" xmlns:xlink="http://www.w3.org/1999/xlink" width="667" height="233" viewBox="0 0 667 233">
  <defs>
    <clipPath id="clip-path">
      <rect id="長方形_461" data-name="長方形 461" width="667" height="233" transform="translate(554 6174)" fill="none" stroke="#707070" stroke-width="1"/>
    </clipPath>
  </defs>
  <g id="マスクグループ_126" data-name="マスクグループ 126" transform="translate(-554 -6174)" clip-path="url(#clip-path)">
    <g id="グループ_371" data-name="グループ 371" transform="matrix(0.999, 0.035, -0.035, 0.999, 220.297, -26.996)">
      <path id="パス_556" data-name="パス 556" d="M192.652,64.422a63.788,63.788,0,0,1-5.455,5.235,133.959,133.959,0,0,1-20.41,12.5,190.821,190.821,0,0,1-21.2,8.923q-9.972,13.227-19.107,26.381t-18.139,26.7a4.929,4.929,0,0,0-.432,2.978,22.215,22.215,0,0,1,.4,2.9l1.734,6.338q.954,1.544,2.316.814a86.329,86.329,0,0,0,16.607-10.757q8.057-6.572,15.8-13.12,4.467-5.451,8.76-10.486t8.759-10.487c.376-.572.749-.741,1.117-.5a1.985,1.985,0,0,1,.084,1.817q-.4,1.051-.75,1.89A66.489,66.489,0,0,1,157,126.9a56.481,56.481,0,0,1-8.184,10.133,77.269,77.269,0,0,1-5.205,6.125,42.889,42.889,0,0,1-6.063,5.186q-2.724,1.45-5.257,2.986a23.16,23.16,0,0,0-4.817,3.964,4.842,4.842,0,0,1-2.288,1.313,3.024,3.024,0,0,0-1.871,1.276,12.611,12.611,0,0,0-4.688,3.242,12.932,12.932,0,0,1-4.478,3.224,24.359,24.359,0,0,1-5.974,1.833,5.282,5.282,0,0,1-5.172-1.48,18.273,18.273,0,0,1-3.742-3.733q-1.743-2.281-.355-5.443a15.449,15.449,0,0,1-1.095-7.609q.357-4.289.929-8.6a37.858,37.858,0,0,1,2.766-6.828,15.174,15.174,0,0,0,1.761-6.943l-.134-.395c.137-.011.195.053.171.188a63.75,63.75,0,0,1,4.157-11.712,107.94,107.94,0,0,1,6.131-11.273q-3.864.943-7.849,1.995t-7.715,2.388a7.375,7.375,0,0,1-3.569,1.017,3.4,3.4,0,0,0-2.994,2.386q-4.9,6.709-10.02,12.927T70.67,135.656a28.816,28.816,0,0,0-6.843,6.672,37.08,37.08,0,0,1-6.464,6.842q-4.7,4.464-9.13,7.984t-9.608,7.215l-5.263,1.871q-2.835,2.07-5.565,4.13a9.521,9.521,0,0,1-6.2,1.953,4.925,4.925,0,0,0-2.79,1.255,6.743,6.743,0,0,1-3.037,1.477A34.606,34.606,0,0,1,8.4,176.1a21.044,21.044,0,0,1-6.828-.831,8.369,8.369,0,0,1-1.118-4.06A24.817,24.817,0,0,0,0,166.887a50.336,50.336,0,0,0,.755-7.06,17.184,17.184,0,0,1,1.761-6.943A35.89,35.89,0,0,0,8.354,146.1a29.093,29.093,0,0,1,6.463-6.843l11.389-9.7q9.774-5.3,19.249-11.188a89.525,89.525,0,0,1,19.714-9.2Q69.8,101.671,74.5,94.373a132.363,132.363,0,0,1,10.676-14.3A80.375,80.375,0,0,0,96.959,67.6q4.983-6.61,10.264-13.151a56.606,56.606,0,0,0-6.582,3.508q-3.235,2-6.533,3.807a67.378,67.378,0,0,1-6.734,3.216,24.287,24.287,0,0,1-7.188,1.734L68.611,68.32a1.325,1.325,0,0,0-1.092-.209q-.542.151-.674-.246a1.672,1.672,0,0,1-.586-1.876,1.05,1.05,0,0,0-.869-1.445,3.341,3.341,0,0,1-3.206-.433,8.352,8.352,0,0,1-2.039-2.359,6.85,6.85,0,0,1-.848-3.271,2.321,2.321,0,0,0-2.039-2.36,14.239,14.239,0,0,0-5.06,2.464,27.966,27.966,0,0,0-4.56,4.245,8.809,8.809,0,0,1-1.568,3.581,34.884,34.884,0,0,1-2.639,3.269q-1.407,1.542-2.811,3.081a15.207,15.207,0,0,0-2.365,3.447A7.734,7.734,0,0,1,36,77.924a3.386,3.386,0,0,1-2.416.31q-1.8-.249-1.96-1.656a21.294,21.294,0,0,1,2.595-7.016,37.516,37.516,0,0,1,4.74-6.389,78.88,78.88,0,0,1,5.983-5.889q3.17-2.8,6.327-5.511a38.083,38.083,0,0,1,4.774-3.149,6.8,6.8,0,0,1,4.953-.731q3.164-.473,6.708-.782a8.947,8.947,0,0,1,5.749,1.127l10.842,8.189A43.645,43.645,0,0,0,95.35,53.143a108.021,108.021,0,0,0,10.63-5.478q5.274-3.087,10.4-6.471t10.362-6.267l2.918-.251a15.98,15.98,0,0,1,6.042-3.358,14.426,14.426,0,0,0,5.835-3.342q1.948-.572,1.69.868a7.866,7.866,0,0,1-1.379,5.39,33.037,33.037,0,0,1-3.9,4.593q-2.247,2.225-4.683,4.358a16.055,16.055,0,0,0-3.677,4.472,41.565,41.565,0,0,0-5.533,9.094A69.23,69.23,0,0,1,119.1,66a87.448,87.448,0,0,1-9.122,16.5A149.019,149.019,0,0,0,100.1,98.653l.171.188q4.351-1.388,9.088-2.607t9.126-2.814A87.3,87.3,0,0,1,124.2,83.9q3.189-4.63,6.434-8.967a44.47,44.47,0,0,1,5.028-5.7q2.6-2.454,5.541-5.142,2.921-3.7,5.759-7.491a24.669,24.669,0,0,1,7.2-6.4,96.169,96.169,0,0,1,10.652-9.028,57.127,57.127,0,0,1,11.877-6.7,18.029,18.029,0,0,1,4.194-1.071q2.208-.29,4.292-.47,2.7-2.463,5.016-1.65a15.545,15.545,0,0,1,2,.841,6.6,6.6,0,0,1,1.892,1.459q2.918-.252,3.99,1.784a24.339,24.339,0,0,0,2.4,3.747q3.216,3.78,1.577,9.494a57.97,57.97,0,0,1-4.162,10.6q-2.7,2.467-5.248,5.217M46.888,125.236a102.735,102.735,0,0,0-12.8,7.289,21.95,21.95,0,0,1-4.86,3.053,10.708,10.708,0,0,0-4.345,3.618q-3.829,4.185-8.021,8.092a32.092,32.092,0,0,0-6.71,8.789,23.8,23.8,0,0,0-1.122,5.672q-.186,2.753-.288,5.6l.857.939a7.4,7.4,0,0,0,4.384-.985q2.164-1.2,4.019-2.375a32.454,32.454,0,0,0,5.69-1.4,14.057,14.057,0,0,0,5.227-3.391,21.366,21.366,0,0,0,7.166-4.469,51.565,51.565,0,0,0,6.113-6.609q1.9-2.6,4.1-5.118a60.549,60.549,0,0,0,4.137-5.324,59.322,59.322,0,0,1,3.246-7.781q1.917-3.814,3.625-7.611a16.913,16.913,0,0,1,1.505-2.663,5.724,5.724,0,0,0,1.014-2.217q-6.429,3.8-12.937,6.892M193.442,49.757a8.531,8.531,0,0,0,.364-3.174,3.791,3.791,0,0,1-1.408-1.3,14.659,14.659,0,0,1-.918-1.744,6.63,6.63,0,0,0-1.126-1.728,5.466,5.466,0,0,0-1.825-1.262,2.285,2.285,0,0,0-1.753.05q-.789.372-1.694.856a22.065,22.065,0,0,1-5.682,5.356A30.992,30.992,0,0,0,173.337,52q-5.222,7.346-10.4,14.48t-9.812,14.633l3.741-2.553q3.1-1.281,6.14-2.759t6.177-2.965l.245-.225.38.171a57.738,57.738,0,0,0,5.448-2.9q2.758-1.653,5.349-3.5,3.645-3.151,7.29-6.305a14.691,14.691,0,0,0,4.765-7.1,26.423,26.423,0,0,1,.783-3.21" transform="matrix(0.995, 0.105, -0.105, 0.995, 572.672, 6158.988)"/>
      <path id="パス_557" data-name="パス 557" d="M241.454,106.339q-.708,1.079-1.308,2.141-1.3,1.531-2.934,3.192a19.615,19.615,0,0,1-3.485,2.834,23.872,23.872,0,0,1-7.7,2.894,34.913,34.913,0,0,1-7.5.647,80.4,80.4,0,0,1-13.562,17.793A162.2,162.2,0,0,1,187.781,150.9q-2.517,1.434-5.275,3.091a34.456,34.456,0,0,1-5.514,2.705,20.275,20.275,0,0,1-5.464,1.282,8.48,8.48,0,0,1-5.124-1.18,9.723,9.723,0,0,1-4.925-3.428,17.834,17.834,0,0,1-2.5-4.954q-.858-2.664-1.777-5.524a13.314,13.314,0,0,0-2.809-4.928,21.463,21.463,0,0,1,.761-12.231q2.188-6.468,4.685-12.364a49.026,49.026,0,0,1,9.339-12.564q5.857-5.775,12.206-11.392a46.548,46.548,0,0,1,10.8-6.4q5.542-2.3,11.163-5.018a38.489,38.489,0,0,1,6.205-.839,20.909,20.909,0,0,1,5.775.414,7.376,7.376,0,0,1,3.949-.846,5.337,5.337,0,0,1,3.371,1.229l1.64,2.292q3.862-.94,5.957,1.109a11.214,11.214,0,0,1,.648,7.243,63.463,63.463,0,0,1-2.136,7.887,50.334,50.334,0,0,0-2.673,6.313,27.5,27.5,0,0,1-3.054,6.143l1.14.509a33.555,33.555,0,0,0,8.922-1.68,86.618,86.618,0,0,0,9.254-3.536,5.688,5.688,0,0,1-.891,2.1m-31.315,11.518a1.882,1.882,0,0,0-.649-.958,6.622,6.622,0,0,0-1.188-.809,1.318,1.318,0,0,1-.716-1.154,17.069,17.069,0,0,1-4.6-12.073,29.41,29.41,0,0,1,3.615-14.4,7.378,7.378,0,0,0-3.717,1.841,41.508,41.508,0,0,0-3.143,3.21A130.444,130.444,0,0,0,180.5,128.623q-.828,2.3-1.752,4.611a14.892,14.892,0,0,1-2.967,4.512l-1.43,6.816a9.768,9.768,0,0,0-.578,2.076,1.98,1.98,0,0,0,.5,1.781,3.018,3.018,0,0,0,3.335-.287,12.512,12.512,0,0,1,3.386-1.711,96.432,96.432,0,0,0,15.787-11.9,70.2,70.2,0,0,0,12.455-15.064c.677-.733.978-1.264.9-1.6M220.275,88.3a10.067,10.067,0,0,0-2.421-.806,5.929,5.929,0,0,0-1.644,1.157A20.7,20.7,0,0,0,212.1,98.934a11.713,11.713,0,0,0,.939,4.481,6.151,6.151,0,0,0,3,3.289q1.705-3.8,3.594-8.013a19.1,19.1,0,0,0,1.793-8.265,2.372,2.372,0,0,0-1.156-2.13" transform="matrix(0.995, 0.105, -0.105, 0.995, 572.672, 6158.988)"/>
      <path id="パス_558" data-name="パス 558" d="M323.9,15.3a24.137,24.137,0,0,1-.967,4.24c-.468,1.459-1,2.893-1.592,4.293A19.471,19.471,0,0,0,320.076,28a18.211,18.211,0,0,1-2.98,5.732,49,49,0,0,1-4.5,5.051,23.131,23.131,0,0,1-4.512,6.267,53.8,53.8,0,0,1-5.959,5.177l-7.72,7.558q-4.272,3.21-8.683,6.629t-8.461,7.115a65.155,65.155,0,0,0-7.378,7.934,36.146,36.146,0,0,0-5.184,8.861q-5.324,10.191-10.935,20.305t-11.523,20.151a32,32,0,0,1-2.554,3.363q-1.425,1.643-2.725,3.175-.4,1.05.347,1.491a5.577,5.577,0,0,1,1.256,1.006,12.166,12.166,0,0,0,6.162-.024,12.932,12.932,0,0,0,5.882-3.041l.171.187A36.813,36.813,0,0,1,257,131.153q3.139-1.488,6.318-3.181a147.313,147.313,0,0,0,13.973-12.659q6.546-6.746,13.532-13.635l2.1-1.4q-3.695,13.7-15.991,23.881a54.236,54.236,0,0,1-6.586,6.955,25.152,25.152,0,0,1-7.845,4.832q-13.881,12.144-30.094,15.569a5.2,5.2,0,0,1-3.665-1.306,7.714,7.714,0,0,1-2.08-3.266,73.545,73.545,0,0,0-.567-8.264,33.4,33.4,0,0,1,.132-8.73,21.174,21.174,0,0,1,.47-9.467,38.733,38.733,0,0,1,3.732-9.344q3.209-7.575,6.674-14.868t6.257-14.832l6.145-12.492q4.9-6.7,9.769-13.817t10.1-13.947a144.092,144.092,0,0,1,11.392-13.147,89.462,89.462,0,0,1,13.647-11.414,38.915,38.915,0,0,1,10.7-7A23.67,23.67,0,0,1,316.763,7.6,12.338,12.338,0,0,0,320.551,8.8a3.213,3.213,0,0,1,2.694,2.707,6.26,6.26,0,0,1,.652,3.8m-8.719,6.835a7.112,7.112,0,0,0,.189-4.478c-.623-.351-1.213-.671-1.776-.96a3.421,3.421,0,0,0-1.889-.346,23.925,23.925,0,0,0-2.76,1.658q-3.489,4.557-7.146,8.928t-7.734,8.776l-9.016,14.766a36.922,36.922,0,0,1-6.134,8.435,36.89,36.89,0,0,0-6.133,8.436q4.307-3.414,8.339-7a60.578,60.578,0,0,1,8.645-6.421,65.092,65.092,0,0,1,6.9-6.981q3.519-3.042,7.584-6.23,2.505-3.66,4.766-7.1t4.728-6.9q.612-2.28,1.439-4.583" transform="matrix(0.995, 0.105, -0.105, 0.995, 572.672, 6158.988)"/>
      <path id="パス_559" data-name="パス 559" d="M339.2,107.14q-2.079,4.132-4.484,8.4a120.457,120.457,0,0,1-14.075,15.5q-7.629,7.046-15.556,14.622a12.592,12.592,0,0,1-4,2.269q-2.076.683-4.477,1.5a7.816,7.816,0,0,1-5.142-1.077,11.73,11.73,0,0,1-3.38-3.459,27.149,27.149,0,0,1-2.362-4.561q-1-2.447-2.049-4.588a2.812,2.812,0,0,1-2.872-2.287,22.129,22.129,0,0,1-.493-4.114q.153-4.269.494-8.456a14.264,14.264,0,0,1,3.718-8.126q2.345-5.067,4.677-10.033a73.214,73.214,0,0,0,3.879-10.167q3.669-5.588,6.842-11.233a33.1,33.1,0,0,1,9.33-10.233,15.638,15.638,0,0,1,4.739-.1,12.492,12.492,0,0,0,4.775-.31,51.828,51.828,0,0,0,5.177-1.967q2.561-1.134,5.214-2.173,1.875-.16,1.892,1.459a6.024,6.024,0,0,0,.629,2.784,7.331,7.331,0,0,1-1.691,3.694,25.94,25.94,0,0,1-2.964,2.79q-1.682,1.36-3.362,2.722a9.86,9.86,0,0,0-2.64,3.269,82.012,82.012,0,0,0-4.688,9.528q-2,4.837-4.2,9.687a91.74,91.74,0,0,1-4.983,9.451,41.633,41.633,0,0,1-6.985,8.611,29.526,29.526,0,0,1-1.936,3.918,26.707,26.707,0,0,0-1.972,4.124,17.637,17.637,0,0,0-1.034,4.042,6.087,6.087,0,0,0,.67,3.693,19.147,19.147,0,0,0,1.6,2.5,3,3,0,0,0,2.868,1.171,10.638,10.638,0,0,0,3.963-2.065q1.8-1.472,3.522-3.041a234.567,234.567,0,0,0,17.865-17.758q8.326-9.234,16.212-18.833a.471.471,0,0,0,.35-.233c.092-.141.185-.082.275.178a46.27,46.27,0,0,1-3.345,8.906m2.271-63.451a45.365,45.365,0,0,1-4.46,3.121,15.833,15.833,0,0,0-2.663,2.257q-1.268,1.327-2.614,2.559a10.3,10.3,0,0,1-2.8,1.862,5.244,5.244,0,0,1-3.042.363,7.681,7.681,0,0,1-3.057-1.258,4.754,4.754,0,0,1-1.965-2.77,22.875,22.875,0,0,0,.735-5.233,7.756,7.756,0,0,1,2.121-4.947,21.179,21.179,0,0,1,4.516-3.431,9.309,9.309,0,0,0,3.793-3.975q1.436-1.137,2.786-2.369A8.446,8.446,0,0,1,337.7,28.1a24.321,24.321,0,0,0,3.224.331,2.742,2.742,0,0,1,2.414,1.414,24.888,24.888,0,0,0,1.27,4.352,7.489,7.489,0,0,1-.091,5.075,9.184,9.184,0,0,1-3.052,4.419" transform="matrix(0.995, 0.105, -0.105, 0.995, 572.672, 6158.988)"/>
      <path id="パス_560" data-name="パス 560" d="M462.032,3.192a14.686,14.686,0,0,0-1,2.112,51.507,51.507,0,0,1-5.413,6.144,29.575,29.575,0,0,0-5.071,6.519,93,93,0,0,1-5.082,10.575Q442.6,33.656,439.334,38.7T432.8,48.793q-3.268,5.049-6.031,10.15a46.68,46.68,0,0,1-4.114,6.335q-2.274,2.933-4.249,5.942a122.007,122.007,0,0,1-7.636,13.937,157.416,157.416,0,0,0-7.807,13.75,32.251,32.251,0,0,0-4.473,8.9,77.476,77.476,0,0,1-3.467,9.017,49.292,49.292,0,0,1-2.832,4.907,21.52,21.52,0,0,0-2.489,5.283,1.1,1.1,0,0,0,.969.321,1.127,1.127,0,0,0,.907-.482,48.541,48.541,0,0,0,9.616-7.824q4.3-4.524,9.175-8.8,4-3.995,7.5-8.047t6.911-8.2q1.3-1.53,2.395-3.046t2.394-3.043l.209-.019a54.646,54.646,0,0,1-3.021,9.384,48.4,48.4,0,0,1-4.994,8.946,73.677,73.677,0,0,1-8.218,8.614,58.048,58.048,0,0,0-8.047,8.8q-4.665,4.255-9.13,7.985a95.641,95.641,0,0,1-9.572,7.009,13.159,13.159,0,0,1-7.491-.573,19.981,19.981,0,0,1-5.893-3.749q-1.507-1.893-.081-5.263l4.861-15.625-.134-.394a17.2,17.2,0,0,0-3.522,3.04q-1.427,1.644-2.782,3.485t-2.78,3.483a17.455,17.455,0,0,1-3.522,3.041q-4.178,3.807-8.3,7.912a41.868,41.868,0,0,1-8.7,6.73,1.843,1.843,0,0,0-2.129.994,2.213,2.213,0,0,1-2.165,1.2,5.588,5.588,0,0,1-4.388-1.852,13.1,13.1,0,0,0-3.785-2.918,12.319,12.319,0,0,1-4.027-6.14,40.228,40.228,0,0,1-1.341-7.386,7.9,7.9,0,0,1,.206-2.856q.36-1.448.622-2.891a7.464,7.464,0,0,1-1.006-4.679,24.648,24.648,0,0,1,1.152-5.269,35.273,35.273,0,0,1,2.3-5.368q1.4-2.653,2.47-5.179a126.216,126.216,0,0,1,11.033-15.144A120.964,120.964,0,0,1,361.5,69.231a19.421,19.421,0,0,1,5.767-3.538,88.26,88.26,0,0,1,7.608-5.218,49.313,49.313,0,0,1,8.115-4.044,25.012,25.012,0,0,1,8.107-1.712,16.085,16.085,0,0,1,7.618,1.573q.893.737,1.788,1.468A3.1,3.1,0,0,1,401.56,59.9a.917.917,0,0,0,1.188.809c.638-.121,1.068-.056,1.3.193a6.9,6.9,0,0,0,1.836-2.793,8.524,8.524,0,0,1,1.873-3,72.151,72.151,0,0,0,5.252-8.663A90.727,90.727,0,0,1,418.05,37.8q3.032-4.315,5.705-8.906t5.117-9.056a15.758,15.758,0,0,0,.641-3,15.253,15.253,0,0,1,.641-2.994,9.52,9.52,0,0,1,1.419-2.759A7.862,7.862,0,0,1,434.549,8.8a13.309,13.309,0,0,1,4.391-1.6q2.328-.4,4.66-.805T448.193,5.4a14.567,14.567,0,0,0,4.361-2,17.757,17.757,0,0,0,2.515-1.433A14.767,14.767,0,0,1,457.792.515,6.754,6.754,0,0,1,460.246,0a2.388,2.388,0,0,1,1.947,1.15,2.163,2.163,0,0,1-.161,2.042m-65.409,63.62a2.3,2.3,0,0,0-1.163-1.521,10.979,10.979,0,0,0-1.9-.85,4.974,4.974,0,0,0-3.745-.286,25.131,25.131,0,0,0-4.079,1.568,48.462,48.462,0,0,0-8.364,7.715,87.69,87.69,0,0,0-6.606,8.781q-2.965,4.512-5.571,9.3t-5.258,9.273l-1.829,2.185a74.649,74.649,0,0,0-5.2,11.8,34.006,34.006,0,0,0-1.975,12.131q.057.807.121,1.612a1.41,1.41,0,0,0,.612,1.163,202.034,202.034,0,0,0,14.8-13.845q7.055-7.3,13.7-14.561,4.25-7.667,8.673-15.144t8.673-15.14a7.52,7.52,0,0,1-.89-4.182" transform="matrix(0.995, 0.105, -0.105, 0.995, 572.672, 6158.988)"/>
      <path id="パス_561" data-name="パス 561" d="M523.482,85.479q-.892,2.1-1.715,4.4A34.3,34.3,0,0,1,516.94,97.9q-3.048,3.813-6.176,7.528a86.813,86.813,0,0,1-14.1,14.494,85.915,85.915,0,0,1-16.485,10.646,7.887,7.887,0,0,1-4.924,1.134,6.683,6.683,0,0,1-3.817-1.6,24.754,24.754,0,0,1-3.76-9.913,27.62,27.62,0,0,1,.878-11.734,108.926,108.926,0,0,1-10.381,12.654,115.617,115.617,0,0,1-12.377,11.2,9.824,9.824,0,0,1-5.827,2.733,28.612,28.612,0,0,1-5.137.037,12.2,12.2,0,0,1-5.936-4.658,19.229,19.229,0,0,1-2.855-6.951q-4.938-5.658-5.1-14.462a35.708,35.708,0,0,1,4.237-17.294A92.068,92.068,0,0,1,435.9,77.212a81.909,81.909,0,0,1,13.813-12.34,8.207,8.207,0,0,1,2.5-1.331q1.306-.416,2.594-.729a47.521,47.521,0,0,1,12.073-7.225,18.7,18.7,0,0,1,12.212-1.154,8.292,8.292,0,0,1,6,4.855,34.685,34.685,0,0,1,2.394,7.8l8.354-14.506a7.55,7.55,0,0,1,3.724-2.45,11.77,11.77,0,0,1,3.752-.323c1.214.1,2.454.229,3.728.388a7.7,7.7,0,0,0,4.138-.762q2.611-.833,5.4-1.479a18.467,18.467,0,0,1,5.42-.467l1.2,1.316a3.988,3.988,0,0,1-1.138,4.051,16.026,16.026,0,0,0-2.732,3.784,27.9,27.9,0,0,1-3.927,3.582,18.379,18.379,0,0,0-3.475,3.341,66.109,66.109,0,0,0-6.716,9.4q-2.817,4.8-5.142,9.769T495.3,92.672q-2.433,4.974-5.331,9.683a14.34,14.34,0,0,1-3.652,3.76q-2.244,1.616-4.394,3.32a20.305,20.305,0,0,0-3.632,3.659,6.707,6.707,0,0,0-1.336,4.575,5.037,5.037,0,0,0,0,1.724,1.485,1.485,0,0,0,1.114,1.22,3.037,3.037,0,0,0,2.316.816,8.287,8.287,0,0,0,2.8-.75,20.085,20.085,0,0,0,2.742-1.554,14.7,14.7,0,0,1,2.724-1.451,114.081,114.081,0,0,0,15.458-13.5,152.164,152.164,0,0,0,12.909-15.305,18.651,18.651,0,0,0,3.432-4.249,8.169,8.169,0,0,1,3.908-3.479,10.94,10.94,0,0,1-.881,4.334M481.025,72.208a43.438,43.438,0,0,0-1.044-4.472,18.356,18.356,0,0,0-2.3-3.755q-1.42-1.8-4.412-1.139a16.424,16.424,0,0,0-8.761,5.925,50.538,50.538,0,0,0-6.055,9.138,24.308,24.308,0,0,0-2.979,5.73,9.328,9.328,0,0,1-4.046,4.809,135.3,135.3,0,0,0-8.207,15.407,38.137,38.137,0,0,0-3.464,16.416c.154.664.325,1.425.513,2.288s.834,1.245,1.948,1.149a4.876,4.876,0,0,0,3.182-.578,30.623,30.623,0,0,0,3.233-2,69.486,69.486,0,0,0,11.317-11.011q4.872-5.993,9.418-11.86,3.042-5.533,6.246-10.777a120.5,120.5,0,0,0,5.829-10.741,26.889,26.889,0,0,0-.417-4.526" transform="matrix(0.995, 0.105, -0.105, 0.995, 572.672, 6158.988)"/>
      <path id="パス_562" data-name="パス 562" d="M637.822,73.9a15.163,15.163,0,0,0-.849,3.013,67.742,67.742,0,0,1-5.7,11.133,48.217,48.217,0,0,1-8.354,9.947q-4.629,4.047-9.015,8.479t-9.016,8.483a101.8,101.8,0,0,1-9.54,7.411,43.659,43.659,0,0,1-10.386,5.253,51.328,51.328,0,0,1-6.777,4.031q-3.5,1.718-7.331,3.673a58.722,58.722,0,0,0-6.261,7.432q-2.752,3.888-5.882,7.6-2.418,2.034-4.921,3.973a27.142,27.142,0,0,1-5.189,3.183l-.32.636q-6.174,5.8-12.966,11.053a76.292,76.292,0,0,1-14.19,8.723,61.733,61.733,0,0,1-9.917,3.795,14.322,14.322,0,0,1-9.8-.27q-1.443-1.092-3.08-2.269a18.966,18.966,0,0,1-2.922-2.587,9.473,9.473,0,0,1-1.909-3.079,6.446,6.446,0,0,1-.008-3.952,16.316,16.316,0,0,1,3.342-5.458,35.833,35.833,0,0,1,4.768-4.264q2.61-1.948,5.4-3.81a34.019,34.019,0,0,0,5.043-4.084,157.322,157.322,0,0,1,17.47-8.7q8.769-3.7,17.724-6.7a91.048,91.048,0,0,0,6.643-8.986q2.985-4.62,6.435-8.968-3.144,1.489-6.232,3.275t-6.355,3.385a44.005,44.005,0,0,1-6.52,2.589,17.355,17.355,0,0,1-6.689.678,8.435,8.435,0,0,1-3.707-2.215q-1.562-1.584-2.933-3.092a.721.721,0,0,1-.808-.639c-.122-.463-.545-.594-1.262-.4a13.236,13.236,0,0,1-3.078-5.714,23.664,23.664,0,0,1-.7-6.935,30.809,30.809,0,0,1,1.228-7.4,39.834,39.834,0,0,1,2.963-7.351,76.321,76.321,0,0,1,11.635-16.208q6.988-7.493,14.711-15.055a.694.694,0,0,0-.1-.6A146.9,146.9,0,0,0,537.19,73.146a57.864,57.864,0,0,0-12.784,13.47,20.122,20.122,0,0,1-5.706,4.343,5.355,5.355,0,0,1,.518-2.882,12.262,12.262,0,0,0,.935-2.92,44.457,44.457,0,0,1,10.29-13.862,131.764,131.764,0,0,1,13.732-11.321,73.582,73.582,0,0,1,11.619-6.982q5.946-2.84,12.194-5.612a4.007,4.007,0,0,1,3.494,1.118,5.438,5.438,0,0,1,.473,4.216,22.3,22.3,0,0,1-1.857,4.621,16.928,16.928,0,0,1-.3,9.656,25.472,25.472,0,0,1-5.436,9.693q-5.487,6.554-11.411,13.248A119.756,119.756,0,0,0,542.509,103.5q-1.086,3.744-1.957,7.468a14.96,14.96,0,0,0-.045,7.1,1.278,1.278,0,0,0,1.029,1.128,12.362,12.362,0,0,1,1.764.456,18.172,18.172,0,0,0,7.937-3.624q3.693-2.852,7.265-5.593,4.834-4.067,9.291-8.3a48.952,48.952,0,0,0,7.6-9.169Q581.1,81.729,586.3,70.536a245.454,245.454,0,0,1,11.666-22.091q2.6-3.06,5.466-3.005t5.707.219a7.175,7.175,0,0,0,3.562-.409q1.758-.656,3.557-1.524T619.852,42a15.232,15.232,0,0,1,3.71-1.233,1.512,1.512,0,0,1,1.226.606c.4.44.712.783.942,1.034a6.237,6.237,0,0,1-.818,3.415,20.525,20.525,0,0,1-2.082,3.018q-1.179,1.422-2.443,2.745a10.184,10.184,0,0,0-1.941,2.8,13.687,13.687,0,0,0-3.561,4.969,34.134,34.134,0,0,1-2.556,5.086q-4.179,7.255-8.335,14.4t-8.163,14.591a88.068,88.068,0,0,1-7.846,15.679q-4.735,7.509-9.537,14.811l.8.134a27.734,27.734,0,0,1,5.651-4.034q2.946-1.571,5.882-3.042t5.8-3.135a19.614,19.614,0,0,0,5.221-4.5q5.3-5.523,11.44-11.124t11.856-11.158a55.7,55.7,0,0,1,5.243-6.332,37.212,37.212,0,0,0,4.788-6.09,5.655,5.655,0,0,0,1.671-1.866,3.129,3.129,0,0,1,1.595-1.455,7.163,7.163,0,0,1-.567,2.583M524.461,153.108a97.187,97.187,0,0,0-15.588,9.656,30.759,30.759,0,0,1-3.295,2.921,9.287,9.287,0,0,0-2.781,3.484,2.334,2.334,0,0,0,.133,2.116c.373.576.778,1.181,1.211,1.822a4.915,4.915,0,0,0,3.891,1.186,15.875,15.875,0,0,0,4.336-1.288,43.83,43.83,0,0,0,4.417-2.306,28.291,28.291,0,0,1,4.171-2.082,52.246,52.246,0,0,0,11.1-10.385q4.77-5.989,8.724-12a151.1,151.1,0,0,0-16.321,6.88" transform="matrix(0.995, 0.105, -0.105, 0.995, 572.672, 6158.988)"/>
      <path id="パス_563" data-name="パス 563" d="M651.97,99.645a27.971,27.971,0,0,1-4.4,7.375q-2,2-3.915,4.087a8.735,8.735,0,0,1-4.283,2.7q-4.53,4.648-9.115,5.043a4.6,4.6,0,0,1-3.151-.742,5.2,5.2,0,0,1-1.848-2.274q.3-1.646.733-3.509a4.338,4.338,0,0,0-.517-3.4,15,15,0,0,1,4.049-8.257,63.4,63.4,0,0,1,7.505-6.931,18.949,18.949,0,0,1,6.95-3.843,10.581,10.581,0,0,1,6.872.017l1.261,2.121q1.662,3.308-.137,7.614" transform="matrix(0.995, 0.105, -0.105, 0.995, 572.672, 6158.988)"/>
    </g>
  </g>
</svg>
