<svg xmlns="http://www.w3.org/2000/svg" width="110.205" height="542.966" viewBox="0 0 110.205 542.966">
  <path id="パス_1457" data-name="パス 1457" d="M86.025-12.245q0,4.03-.465,13.33h-1.7q-.93,0-4.5-.31T71.3.465L6.82,0Q4.185,0,4.185-1.395q0-1.085,4.185-1.395,5.89-.31,7.052-1.318T16.585-9.92V-97.03q0-5.735-1.163-6.665t-8.292-.93q-2.945,0-2.945-1.705,0-1.4,1.86-1.395H7.44q5.115.465,20.305.465,1.395,0,5.425-.233t6.665-.232H41.54q2.79,0,2.79,1.55a1.082,1.082,0,0,1-.853,1.162,37.427,37.427,0,0,1-5.347.388q-4.5.155-5.347,1.473t-.853,8.137v91.45q4.185.155,11.625.155,18.135,0,25.575-1.86T79.2-12.245q2.635-5.115,3.1-13.795.155-2.015,1.86-2.015,2.015,0,1.86,2.325l-.155,3.875v1.4a15.326,15.326,0,0,1,.155,2.17ZM139.81-1.24q0,1.24-1.86,1.24H136.4q-.93-.465-21.08-.465-3.875,0-7.75.31Q105.555,0,101.37,0q-2.015,0-2.015-1.395,0-1.24,4.03-1.395,6.2-.155,7.285-1.472t1.085-8.913v-81.53q0-7.595-.775-8.525-.93-1.55-8.525-1.86-2.945-.155-2.945-1.24,0-1.4,1.86-1.395l20.925.31q2.325,0,8.99-.155l5.89-.155q2.48,0,2.48,1.395,0,1.24-6.82,1.55-3.875.155-4.727,1.395t-.853,6.51V-14.1q0,8.835.775,9.61Q129.735-2.79,138.1-2.48,139.81-2.48,139.81-1.24ZM251.1-106.175q0,1.55-3.875,1.4l-3.41-.155h-2.79q-2.48,0-2.945.852t-.465,5.193V-9.61q0,8.215-.155,9.61t-.93,1.395q-.93,0-2.17-1.7L214.52-29.3q-17.2-25.265-41.85-63.085l.155,86.49a2.715,2.715,0,0,0,2.325,2.557q2.17.543,10.385.7,2.015,0,2.015,1.24,0,1.55-4.03,1.55-1.395,0-8.835-.465-2.48-.155-4.8-.155.155,0-2.713.31t-8.757.31h-1.55q-3.565,0-3.565-1.4t3.1-1.4Q165.54-2.79,167.012-3.8t1.473-6.588V-86.8q0-12.865-5.27-16.12-2.48-1.55-8.835-1.55-4.03,0-4.03-1.55,0-1.4,2.325-1.395,3.1,0,7.9.155t5.115.155q.465,0,4.34-.155,5.115,0,9.92-.155L233.43-27.9V-96.875q0-4.8-.155-5.812a2.06,2.06,0,0,0-1.24-1.55q-1.085-.542-7.44-.542-5.58,0-5.58-1.4,0-1.55,3.72-1.55H232.5q2.48.155,2.945.155.155,0,2.79-.155h9.455Q251.1-107.725,251.1-106.175ZM348.13-25.11q0,.62-.31,7.6t-.31,13.33V.93Q332.32.155,287.37.155q-5.425,0-10.7.155h-8.68q-2.945,0-2.945-1.4a1,1,0,0,1,.93-1.085q.465,0,5.89-.465,4.03-.31,4.883-1.7t.852-7.285v-87.11q0-4.495-1.318-5.348t-8.447-.852q-2.48,0-2.48-1.4t3.41-1.395l26.505.155q1.395,0,17.515-.155h21.7a54.138,54.138,0,0,0,8.525-.62q.31,6.665,1.395,18.445l.62,6.665a10.627,10.627,0,0,1,.155,2.015q0,1.55-1.4,1.55-1.7,0-2.48-3.875-2.945-13.95-9.61-17.67Q326.74-104,305.66-104H292.95V-58.59h3.72q17.36,0,21.158-2.635T323.02-76.57q.31-3.255,1.7-3.255,1.705,0,1.705,2.79t-.31,8.215q-.31,5.425-.31,8.215,0,16.585.62,22.785.155,1.55.155,2.635,0,2.015-1.7,2.015-1.085,0-1.473-1.317t-1.318-8.6q-1.24-9.145-7.6-11.315-2.79-.93-14.57-.93H292.95v52.08q34.1,0,39.99-1.4,10.23-2.325,11.625-19.84.31-3.875,2.015-3.875Q348.13-28.365,348.13-25.11Zm112.685-81.065q0,1.4-2.79,1.4-.465,0-3.1-.155a11.7,11.7,0,0,0-2.17-.155q-3.875,0-4.65,2.015a14.418,14.418,0,0,0-.31,3.565v58.125q0,22.63-8.448,32.937T412.145,1.86q-22.475,0-31.62-12.71Q374.48-19.375,374.48-38.9l-.155-62.155q-.465-2.79-3.72-3.41a56.218,56.218,0,0,0-5.735-.155q-2.635-.31-2.635-1.55,0-1.4,2.17-1.395h2.79q.775,0,3.565.155h4.495l22.165-.155a9.627,9.627,0,0,1,1.86-.155q2.635,0,2.635,1.7a1.083,1.083,0,0,1-.93,1.24q-.93.155-6.2.31a9.208,9.208,0,0,0-2.945.31,2.486,2.486,0,0,0-1.705,2.17q-.155.62-.155,8.835v55.49q0,20.46,6.51,27.9t19.375,7.44q23.56,0,26.66-26.815.465-4.03.465-34.1v-8.835l.155-12.4L442.99-95.17v-3.41a14.044,14.044,0,0,1,.155-1.705,3.88,3.88,0,0,0-3.255-4.185,35.273,35.273,0,0,0-6.355-.31q-3.1,0-3.1-1.7,0-1.4,2.17-1.4a10.626,10.626,0,0,1,2.015.155q1.86.155,13.485.155,1.7,0,3.875-.155h5.27Q460.815-107.725,460.815-106.175ZM547.15-81.84q0,15.035-12.865,23.4-8.06,5.27-20.46,5.27A75.085,75.085,0,0,1,501.89-54.25v44.02a19.032,19.032,0,0,0,.31,4.495A4.037,4.037,0,0,0,505.61-3.1a63.542,63.542,0,0,0,8.68.62q1.7,0,1.705,1.085,0,1.55-2.17,1.55A6.522,6.522,0,0,1,512.275,0Q503.75.155,480.19.155h-2.015q-4.65,0-4.65-1.55,0-1.085,3.255-1.085,7.285,0,8.37-1.395,1.24-.62,1.395-3.1v-91.45q0-4.805-2.635-5.89a16.348,16.348,0,0,0-5.425-.62h-1.55a3.435,3.435,0,0,1-1.085.155q-2.325,0-2.325-1.4,0-1.55,4.34-1.55h34.1q17.67,0,25.885,6.2Q547.15-94.55,547.15-81.84Zm-16.275.31q0-23.25-19.53-23.25-6.51,0-8.525,2.17-.93.93-.93,4.805v41.23a22.659,22.659,0,0,0,2.79.155q10.23,0,17.36-4.5Q530.875-66.495,530.875-81.53Z" transform="translate(1.86 -4.185) rotate(90)"/>
</svg>
