<svg xmlns="http://www.w3.org/2000/svg" width="519.211" height="55.209" viewBox="0 0 519.211 55.209">
  <path id="パス_1456" data-name="パス 1456" d="M-216.331-2.31q0,3.234-5.39,3.234a10.735,10.735,0,0,1-9.394-5A11.871,11.871,0,0,1-233-8.239q-.424-2-1.271-10.164-.462-4.928-3.157-6.969t-8.778-2.194V-3.311q0,1.54,2.464,1.925.693.077,3.542.154,1,0,1,.616,0,.693-1.309.693h-.924q-.693-.077-6.7-.077-1.155,0-3.927.077H-258.6q-1.694,0-1.694-.693,0-.539,2.233-.616,3.619-.077,3.927-.924a7.494,7.494,0,0,0,.308-3v-42.5q0-3.08-.654-3.7t-3.966-.693q-1.925,0-1.925-.693,0-.77,1.232-.77a4.632,4.632,0,0,1,.693.077l10.241.231q1.54,0,4.312-.077,3.08-.154,4.312-.154,7.161,0,11.357,3.2a10.313,10.313,0,0,1,4.2,8.662,10.973,10.973,0,0,1-4.312,8.894q-4.312,3.5-11.7,4.12-.693.077-.77.231,0,.308.77.308,8.085,1.386,11.126,5.66t4.043,15.438q.616,6.314,4.312,6.314,1.155,0,1.155-.462a.222.222,0,0,0-.077-.154,3.554,3.554,0,0,1-.385-1.386q0-1.617,1.694-1.617Q-216.331-4.235-216.331-2.31ZM-232.27-40.887q0-11.011-9.548-11.011a6.136,6.136,0,0,0-3.465.693,2.9,2.9,0,0,0-.924,2.464v19.558q7.392.077,10.665-2.695T-232.27-40.887Zm66.451,28.413q0,.308-.154,3.773t-.154,6.622V.462Q-173.673.077-196,.077q-2.695,0-5.313.077h-4.312q-1.463,0-1.463-.693a.494.494,0,0,1,.462-.539q.231,0,2.926-.231,2-.154,2.426-.847a9,9,0,0,0,.423-3.619V-49.049q0-2.233-.654-2.656t-4.2-.423q-1.232,0-1.232-.693t1.694-.693l13.167.077q.693,0,8.7-.077h10.78a26.9,26.9,0,0,0,4.235-.308q.154,3.311.693,9.163l.308,3.311a5.279,5.279,0,0,1,.077,1q0,.77-.693.77-.847,0-1.232-1.925-1.463-6.93-4.774-8.778-2.464-1.386-12.936-1.386h-6.314v22.561h1.848q8.624,0,10.51-1.309t2.579-7.623q.154-1.617.847-1.617.847,0,.847,1.386t-.154,4.081q-.154,2.695-.154,4.081,0,8.239.308,11.319.077.77.077,1.309,0,1-.847,1-.539,0-.731-.654t-.655-4.274q-.616-4.543-3.773-5.621-1.386-.462-7.238-.462h-3.465V-1.617q16.94,0,19.866-.693,5.082-1.155,5.775-9.856.154-1.925,1-1.925Q-165.819-14.091-165.819-12.474Zm56.056-4.7q0-.154-.154,2.079-.308,4.466-.308,8.624,0,.462.154,1.886a32.517,32.517,0,0,1,.154,3.427v.693q0,1-.616,1t-1.078-1.155a7.922,7.922,0,0,0-2.156-3.311A19.542,19.542,0,0,1-127.089.924a24.653,24.653,0,0,1-18.749-7.892q-7.43-7.893-7.43-19.9,0-12.089,6.814-19.75a22.463,22.463,0,0,1,17.594-7.662,24.191,24.191,0,0,1,6.275.654,26.513,26.513,0,0,1,5.814,2.657,5.823,5.823,0,0,0,2.541,1q.693,0,1.309-1.232,1-2.156,1.617-2.156a.544.544,0,0,1,.616.616,5.27,5.27,0,0,1-.154,1q-.847,3.7-.847,13.86a3.312,3.312,0,0,1-.231,1.694.833.833,0,0,1-.616.231q-.77,0-1-1.463-1-6.16-2.849-9.163-3.773-6.16-11.858-6.16a12.392,12.392,0,0,0-9.856,4.158q-6.545,7.469-6.545,21.868,0,12.859,5.39,19.943a14.912,14.912,0,0,0,12.474,6.16,14.074,14.074,0,0,0,7.315-1.963,13.245,13.245,0,0,0,5.082-5.352,31.022,31.022,0,0,0,2.849-8.547q.308-1.848,1-1.848Q-109.764-18.326-109.764-17.171Zm63.371-9.24q0,11.473-6.891,19.4A21.552,21.552,0,0,1-70.186.924,23.081,23.081,0,0,1-88.049-7.122q-7.238-8.047-7.238-19.827,0-12.012,6.969-19.673a23.02,23.02,0,0,1,17.826-7.662,21.813,21.813,0,0,1,17.171,8.008Q-46.392-38.269-46.392-26.411Zm-8.624.385q0-14.091-5.775-21.945A11.8,11.8,0,0,0-70.878-52.9q-6.16,0-9.548,3.773-6.237,6.93-6.237,22.561,0,12.4,4.351,19.25a13.7,13.7,0,0,0,12.2,6.853A11.93,11.93,0,0,0-59.1-6.93Q-55.016-14.091-55.016-26.026ZM22.061-.616q0,.77-1.617.77H19.6q-1.078,0-3.927-.077T11.281,0q-2.31,0-5.39.077h-4.7Q-.423.077-.423-.616q0-.77,2.233-.77,3.927,0,4.774-.847.385-.385.385-5.159V-47.278q0,.077-.847,2.695Q3.042-35.266-2.81-16.555L-6.429-4.312Q-7.507-.693-7.969-.693q-.539,0-1.155-1.848Q-11.357-9.548-21.752-37.5l-3.08-8.239q.077,1.463.077,4v25.025q0,14.091.231,14.245.539,1,3.7,1,2.541,0,2.541.693,0,.77-1.617.77-1,0-1.848-.077-1.078-.077-1.925-.077l-8.855.231q-1.386,0-1.386-.693,0-.77,4.389-.847,1.848,0,2.156-.616a13.792,13.792,0,0,0,.308-4V-42.966q0-6.391-.154-6.93a2.091,2.091,0,0,0-1.309-1.463,18.529,18.529,0,0,0-4.312-.616q-1.232-.077-1.232-.693,0-.847,2.233-.847.308,0,1.309.077h4q4.543,0,6.391-.077.385,1,4.543,12.089,1.771,4.62,9.933,26.95,1.463-5,3-9.856L5.506-49.819q.693-2.233,1.232-3.7l11.55-.077a9.415,9.415,0,0,1,2.926.231.756.756,0,0,1,.385.693q0,.77-1.309.77a17.928,17.928,0,0,0-2.926.154,3.835,3.835,0,0,0-2.541,1.232q-.385.539-.385,9.009V-5.7q0,3.08.616,3.619,1,.693,5.005.693h.462Q22.061-1.386,22.061-.616Zm65.835,0q0,.77-1.617.77h-.847Q84.353.154,81.5.077T77.115,0q-2.31,0-5.39.077h-4.7q-1.617,0-1.617-.693,0-.77,2.233-.77,3.927,0,4.774-.847.385-.385.385-5.159V-47.278q0,.077-.847,2.695-3.08,9.317-8.932,28.028L59.405-4.312Q58.327-.693,57.865-.693q-.539,0-1.155-1.848Q54.477-9.548,44.082-37.5L41-45.738q.077,1.463.077,4v25.025q0,14.091.231,14.245.539,1,3.7,1,2.541,0,2.541.693,0,.77-1.617.77-1,0-1.848-.077Q43-.154,42.157-.154L33.3.077q-1.386,0-1.386-.693,0-.77,4.389-.847,1.848,0,2.156-.616a13.792,13.792,0,0,0,.308-4V-42.966q0-6.391-.154-6.93a2.091,2.091,0,0,0-1.309-1.463,18.529,18.529,0,0,0-4.312-.616q-1.232-.077-1.232-.693,0-.847,2.233-.847.308,0,1.309.077h4q4.543,0,6.391-.077.385,1,4.543,12.089,1.771,4.62,9.933,26.95,1.463-5,3-9.856L71.34-49.819q.693-2.233,1.232-3.7l11.55-.077a9.415,9.415,0,0,1,2.926.231.756.756,0,0,1,.385.693q0,.77-1.309.77a17.928,17.928,0,0,0-2.926.154,3.835,3.835,0,0,0-2.541,1.232q-.385.539-.385,9.009V-5.7q0,3.08.616,3.619,1,.693,5,.693h.462Q87.9-1.386,87.9-.616Zm51.59-11.858q0,.308-.154,3.773t-.154,6.622V.462Q131.632.077,109.3.077q-2.695,0-5.313.077H99.677q-1.463,0-1.463-.693a.494.494,0,0,1,.462-.539q.231,0,2.926-.231,2-.154,2.425-.847a9,9,0,0,0,.424-3.619V-49.049q0-2.233-.654-2.656t-4.2-.423q-1.232,0-1.232-.693t1.694-.693l13.167.077q.693,0,8.7-.077h10.78a26.9,26.9,0,0,0,4.235-.308q.154,3.311.693,9.163l.308,3.311a5.279,5.279,0,0,1,.077,1q0,.77-.693.77-.847,0-1.232-1.925-1.463-6.93-4.774-8.778-2.464-1.386-12.936-1.386h-6.314v22.561h1.848q8.624,0,10.51-1.309t2.58-7.623q.154-1.617.847-1.617.847,0,.847,1.386t-.154,4.081q-.154,2.695-.154,4.081,0,8.239.308,11.319.077.77.077,1.309,0,1-.847,1-.539,0-.731-.654t-.655-4.274q-.616-4.543-3.773-5.621-1.386-.462-7.238-.462h-3.465V-1.617q16.94,0,19.866-.693,5.082-1.155,5.775-9.856.154-1.925,1-1.925Q139.486-14.091,139.486-12.474ZM198.16-52.745q0,.77-1.925.693l-1.694-.077h-1.386q-1.232,0-1.463.423a7.834,7.834,0,0,0-.231,2.58V-4.774q0,4.081-.077,4.774t-.462.693q-.462,0-1.078-.847l-9.856-14.4Q171.441-27.1,159.2-45.892l.077,42.966a1.349,1.349,0,0,0,1.155,1.27,31.217,31.217,0,0,0,5.159.347q1,0,1,.616,0,.77-2,.77-.693,0-4.389-.231-1.232-.077-2.387-.077.077,0-1.348.154t-4.35.154h-.77q-1.771,0-1.771-.693t1.54-.693q4.543-.077,5.275-.577t.732-3.272V-43.12q0-6.391-2.618-8.008a8.891,8.891,0,0,0-4.389-.77q-2,0-2-.77,0-.693,1.155-.693,1.54,0,3.927.077t2.541.077q.231,0,2.156-.077,2.541,0,4.928-.077l26.565,39.5V-48.125q0-2.387-.077-2.888a1.023,1.023,0,0,0-.616-.77,13.2,13.2,0,0,0-3.7-.269q-2.772,0-2.772-.693,0-.77,1.848-.77h4.851q1.232.077,1.463.077.077,0,1.386-.077h4.7Q198.16-53.515,198.16-52.745Zm60.676,26.1q0,13.552-9.471,21.1Q242.434,0,230.807,0q-.308,0-2.733-.077t-7.046-.077h-3.85L211.1-.077A8.178,8.178,0,0,1,209.941,0q-1.463,0-1.463-.77,0-.693,2.464-.693,3.157,0,3.927-1.155a7.92,7.92,0,0,0,.308-2.926v-41.5q0-3.773-.577-4.389t-3.965-.616q-1.771,0-1.771-.847,0-.616,1.309-.616-.077,0,1.694.077t3.465.077h8.239q13.86,0,19.635,1.925a20.969,20.969,0,0,1,11.319,9.124A28.676,28.676,0,0,1,258.836-26.642Zm-8.624-.308q0-12.782-5.005-18.75t-15.631-5.967q-5.159,0-6.237,1.078-.462.539-.462,3.7V-5.929a16.222,16.222,0,0,0,.116,2.618,1.255,1.255,0,0,0,.654.77q1.848.924,7.777.924a16.88,16.88,0,0,0,13.4-5.852Q250.212-13.629,250.212-26.95Z" transform="translate(260.375 54.285)" fill="#fff"/>
</svg>
