<svg xmlns="http://www.w3.org/2000/svg" width="126.072" height="24.378" viewBox="0 0 126.072 24.378">
  <path id="パス_1447" data-name="パス 1447" d="M11.424-4.318A4.453,4.453,0,0,1,9.979-.969,4.828,4.828,0,0,1,6.528.408,6.7,6.7,0,0,1,3.706-.408a1.7,1.7,0,0,0-.782-.238q-.476,0-.714.646-.136.408-.374.408T1.6.136a2.95,2.95,0,0,1,.034-.408,14.616,14.616,0,0,0,.1-2.006q0-.1-.034-.816t-.034-.952V-4.42q0-.374.238-.374.272,0,.306.374a5.035,5.035,0,0,0,.884,2.448A4.357,4.357,0,0,0,6.732-.2,2.737,2.737,0,0,0,8.7-.918a2.509,2.509,0,0,0,.748-1.9A2.725,2.725,0,0,0,8.6-4.93a3.648,3.648,0,0,0-.867-.629q-.391-.187-2.3-.9Q1.666-7.888,1.666-10.744a4.341,4.341,0,0,1,1.292-3.2,4.341,4.341,0,0,1,3.2-1.292,7.888,7.888,0,0,1,2.04.408,2.154,2.154,0,0,0,.612.1.823.823,0,0,0,.884-.68q.1-.34.306-.34.238,0,.238.272a1.7,1.7,0,0,1-.034.2l-.034,1.428a19.127,19.127,0,0,0,.17,2.618v.068a.24.24,0,0,1-.272.272q-.2,0-.51-1.02a3.924,3.924,0,0,0-1.309-1.972,3.357,3.357,0,0,0-2.159-.748,2.646,2.646,0,0,0-1.9.714,2.385,2.385,0,0,0-.748,1.8q0,1.7,2.278,2.584A15.831,15.831,0,0,1,10.2-7.208,3.88,3.88,0,0,1,11.424-4.318ZM27.438-11.73a1.368,1.368,0,0,1-1.53,1.564q-1.5,0-1.5-1.428a3.077,3.077,0,0,1,.34-1.122,1.2,1.2,0,0,0,.1-.476,1.3,1.3,0,0,0-.7-1.122,3.212,3.212,0,0,0-1.751-.442,3.544,3.544,0,0,0-3.162,1.768,9.254,9.254,0,0,0-1.122,4.964,11.011,11.011,0,0,0,1.156,5.559A3.61,3.61,0,0,0,22.542-.51a4.01,4.01,0,0,0,2.55-.884,8.137,8.137,0,0,0,1.326-1.564.469.469,0,0,1,.306-.17q.34,0,.34.272,0,.442-1.19,1.666a5.177,5.177,0,0,1-3.91,1.6,6.408,6.408,0,0,1-4.947-2.142A7.712,7.712,0,0,1,15.062-7.14a8.319,8.319,0,0,1,2.074-5.8,6.717,6.717,0,0,1,5.2-2.3,6.159,6.159,0,0,1,3.553,1.054A2.98,2.98,0,0,1,27.438-11.73ZM43.35-3.706A3.005,3.005,0,0,1,42.823-2.5a7.5,7.5,0,0,1-1.071,1.411,5.218,5.218,0,0,1-3.91,1.5A6.7,6.7,0,0,1,32.725-1.8a7.729,7.729,0,0,1-2.057-5.474,8.412,8.412,0,0,1,1.955-5.678A6.169,6.169,0,0,1,37.5-15.232a5.968,5.968,0,0,1,4.046,1.411A4.887,4.887,0,0,1,43.282-10.2a17.4,17.4,0,0,1-2.89.136l-2.38-.034q-.238,0-4.08.1a14.314,14.314,0,0,0-.17,2.142,9.085,9.085,0,0,0,1.309,5.287A4.255,4.255,0,0,0,38.76-.714a3.541,3.541,0,0,0,2.176-.612A7.478,7.478,0,0,0,42.7-3.672a.415.415,0,0,1,.374-.272Q43.35-3.944,43.35-3.706Zm-2.958-6.936q-.136-4.08-2.924-4.08-2.754,0-3.434,4.08ZM62.424-.2q0,.272-.51.272h-.408A15.9,15.9,0,0,0,59.84,0Q56.508,0,55.9.068h-.238q-.442,0-.442-.238a.2.2,0,0,1,.187-.2q.187-.034,1.309-.068.646-.034.748-.187a3.1,3.1,0,0,0,.1-1.1V-8.262a19.187,19.187,0,0,0-.272-4.42,2.247,2.247,0,0,0-2.312-1.53,3.488,3.488,0,0,0-2.856,1.5,1.964,1.964,0,0,0-.34,1.224L51.816-.884q0,.408.714.442l1.02.034q.34,0,.34.238t-.408.238h-.544Q52.19,0,50.558,0q-.374,0-1.615.034T47.5.068h-.2q-.51,0-.51-.238T47.4-.476h.85q.51,0,.612-.238l.1-.51V-8.636q0-3.876-.068-4.284t-.85-.408a8.111,8.111,0,0,0-.816.068h-.17q-.68,0-.68-.238,0-.306.714-.306a9.2,9.2,0,0,0,2.21-.374,4.217,4.217,0,0,0,1.666-.782.867.867,0,0,1,.476-.272q.238,0,.238.646v1.632a5.514,5.514,0,0,1,4.556-2.278,3.813,3.813,0,0,1,3.536,1.8,8.35,8.35,0,0,1,.612,3.876V-1.8a3.233,3.233,0,0,0,.1,1.19,1.536,1.536,0,0,0,.986.2,3.619,3.619,0,0,0,.374-.034h.238Q62.424-.442,62.424-.2ZM78-3.706A3.005,3.005,0,0,1,77.469-2.5,7.5,7.5,0,0,1,76.4-1.088a5.218,5.218,0,0,1-3.91,1.5A6.7,6.7,0,0,1,67.371-1.8a7.729,7.729,0,0,1-2.057-5.474,8.412,8.412,0,0,1,1.955-5.678,6.169,6.169,0,0,1,4.879-2.278,5.968,5.968,0,0,1,4.046,1.411A4.887,4.887,0,0,1,77.928-10.2a17.4,17.4,0,0,1-2.89.136l-2.38-.034q-.238,0-4.08.1a14.313,14.313,0,0,0-.17,2.142,9.085,9.085,0,0,0,1.309,5.287A4.255,4.255,0,0,0,73.406-.714a3.541,3.541,0,0,0,2.176-.612A7.478,7.478,0,0,0,77.35-3.672a.415.415,0,0,1,.374-.272Q78-3.944,78-3.706Zm-2.958-6.936q-.136-4.08-2.924-4.08-2.754,0-3.434,4.08ZM86.768-1.6a1.737,1.737,0,0,1-.527,1.275A1.737,1.737,0,0,1,84.966.2a1.777,1.777,0,0,1-1.309-.527,1.777,1.777,0,0,1-.527-1.309,1.737,1.737,0,0,1,.527-1.275,1.777,1.777,0,0,1,1.309-.527,1.737,1.737,0,0,1,1.275.527A1.777,1.777,0,0,1,86.768-1.6Zm21.25-9.792a17.843,17.843,0,0,1-.9,5.712,11.353,11.353,0,0,1-2.465,4.318A5.584,5.584,0,0,1,100.4.408,6.8,6.8,0,0,1,94.571-3.06a15.781,15.781,0,0,1-2.295-8.874q0-6.256,3.23-9.86a6.13,6.13,0,0,1,4.76-2.176,6.055,6.055,0,0,1,5.3,3.026A17.131,17.131,0,0,1,108.018-11.39Zm-3.672-1.224a26.366,26.366,0,0,0-1.122-8.364q-.85-2.516-2.992-2.516-4.284,0-4.284,11.39Q95.948-.17,100.47-.17q2.108,0,3.026-3.468A36.473,36.473,0,0,0,104.346-12.614ZM127.67-6.392a5.352,5.352,0,0,1-.068.544q-.17,1.122-.544,5.542L127.024.1q-3.5-.17-7.99-.17-2.414,0-4.522.068t-1.836.068q-.918,0-.918-.34,0-.272,1.768-1.7a46.111,46.111,0,0,0,6.052-5.644,13.477,13.477,0,0,0,3.128-8.874,8.132,8.132,0,0,0-1.428-5.2,3.7,3.7,0,0,0-3.06-1.36,4,4,0,0,0-3.06,1.19,2.685,2.685,0,0,0-.884,1.836q0,.578.918.612,2.38.1,2.38,2.074,0,1.87-1.972,1.87a2.646,2.646,0,0,1-2.006-.782,2.971,2.971,0,0,1-.748-2.142,5.088,5.088,0,0,1,1.768-4.046,6.866,6.866,0,0,1,4.658-1.53,6.629,6.629,0,0,1,4.794,1.836,7.418,7.418,0,0,1,2.21,5.576A10.961,10.961,0,0,1,123.76-9.6a33.95,33.95,0,0,1-8.466,6.919q2.244-.068,5.644-.068,2.822,0,3.57-.085a3.323,3.323,0,0,0,1.326-.425q.476-.306.816-2.278.238-1.36.68-1.36Q127.67-6.9,127.67-6.392Z" transform="translate(-1.598 23.97)"/>
</svg>
