<svg xmlns="http://www.w3.org/2000/svg" width="171.705" height="107" viewBox="0 0 171.705 107">
  <g id="グループ_492" data-name="グループ 492" transform="translate(-676 -4382)">
    <text id="Wednesday." transform="translate(679 4483)" font-size="20" font-family="DIN2014-Regular, 'DIN \32 014'" letter-spacing="0.06em"><tspan x="0" y="0">Wednesday.</tspan></text>
    <g id="グループ_54" data-name="グループ 54" transform="translate(676 4382)">
      <path id="パス_203" data-name="パス 203" d="M0,5.466V22.385l3.006,3.121,3.685-3.924V6.665L2.9,2.631Z" fill="#e5e5e5"/>
      <path id="パス_204" data-name="パス 204" d="M0,29.753V46.671L2.9,49.5l3.789-4.033V30.555L3.006,26.631Z" fill="#e5e5e5"/>
      <path id="パス_205" data-name="パス 205" d="M5.6,0,3.514,2.034,7.292,6.056H21.608l3.777-4.022L23.3,0Z" fill="#e5e5e5"/>
      <path id="パス_206" data-name="パス 206" d="M21.63,22.214H7.27L3.694,26.023,7.052,29.6h14.8l3.358-3.576Z" fill="#e5e5e5"/>
      <path id="パス_207" data-name="パス 207" d="M22.209,21.582V6.665L26,2.631l2.9,2.835V22.385l-3.006,3.121Z" fill="#e5e5e5"/>
      <path id="パス_208" data-name="パス 208" d="M14.664,46.08H7.292L3.515,50.1,5.6,52.136H23.3L25.386,50.1,21.608,46.08Z" fill="#e5e5e5"/>
      <path id="パス_209" data-name="パス 209" d="M22.209,30.555l3.685-3.925L28.9,29.752V46.671L26,49.5l-3.788-4.033Z" fill="#e5e5e5"/>
      <path id="パス_210" data-name="パス 210" d="M0,5.466V22.385l3.006,3.121,3.685-3.924V6.665L2.9,2.631Z" fill="#e5e5e5"/>
      <path id="パス_211" data-name="パス 211" d="M0,29.753V46.671L2.9,49.5l3.789-4.033V30.555L3.006,26.631Z" fill="#e5e5e5"/>
      <path id="パス_212" data-name="パス 212" d="M5.6,0,3.514,2.034,7.292,6.056H21.608l3.777-4.022L23.3,0Z" fill="#e5e5e5"/>
      <path id="パス_213" data-name="パス 213" d="M22.209,21.582V6.665L26,2.631l2.9,2.835V22.385l-3.006,3.121Z"/>
      <path id="パス_214" data-name="パス 214" d="M14.664,46.08H7.292L3.515,50.1,5.6,52.136H23.3L25.386,50.1,21.608,46.08Z" fill="#e5e5e5"/>
      <path id="パス_215" data-name="パス 215" d="M22.209,30.555l3.685-3.925L28.9,29.752V46.671L26,49.5l-3.788-4.033Z"/>
      <path id="パス_216" data-name="パス 216" d="M110.65,21.582V6.665l-3.788-4.034-2.9,2.835V22.385l3.006,3.121Z"/>
      <path id="パス_217" data-name="パス 217" d="M110.65,30.555l-3.685-3.925-3.006,3.122V46.671l2.9,2.834,3.788-4.033Z" fill="#e5e5e5"/>
      <path id="パス_218" data-name="パス 218" d="M109.556,0l-2.083,2.034,3.778,4.022h14.316l3.777-4.022L127.263,0Z" fill="#e5e5e5"/>
      <path id="パス_219" data-name="パス 219" d="M125.589,22.214h-14.36l-3.576,3.809,3.358,3.576h14.8l3.358-3.576Z" fill="#e5e5e5"/>
      <path id="パス_220" data-name="パス 220" d="M126.168,21.582V6.665l3.788-4.034,2.9,2.835V22.385l-3.006,3.121Z" fill="#e5e5e5"/>
      <path id="パス_221" data-name="パス 221" d="M118.623,46.08h-7.372L107.474,50.1l2.082,2.033h17.707l2.082-2.033-3.778-4.023Z" fill="#e5e5e5"/>
      <path id="パス_222" data-name="パス 222" d="M126.168,30.555l3.685-3.925,3.006,3.122V46.671l-2.9,2.834-3.788-4.033Z"/>
      <path id="パス_223" data-name="パス 223" d="M110.65,30.555l-3.685-3.925-3.006,3.122V46.671l2.9,2.834,3.788-4.033Z" fill="#e5e5e5"/>
      <path id="パス_224" data-name="パス 224" d="M109.556,0l-2.083,2.034,3.778,4.022h14.316l3.777-4.022L127.263,0Z"/>
      <path id="パス_225" data-name="パス 225" d="M125.589,22.214h-14.36l-3.576,3.809,3.358,3.576h14.8l3.358-3.576Z"/>
      <path id="パス_226" data-name="パス 226" d="M126.168,21.582V6.665l3.788-4.034,2.9,2.835V22.385l-3.006,3.121Z" fill="#e5e5e5"/>
      <path id="パス_227" data-name="パス 227" d="M118.623,46.08h-7.372L107.474,50.1l2.082,2.033h17.707l2.082-2.033-3.778-4.023Z"/>
      <path id="パス_228" data-name="パス 228" d="M149.5,21.582V6.665l-3.788-4.034-2.9,2.835V22.385l3.006,3.121Z" fill="#e5e5e5"/>
      <path id="パス_229" data-name="パス 229" d="M149.5,30.555l-3.685-3.925-3.006,3.122V46.671l2.9,2.834,3.788-4.033Z"/>
      <path id="パス_230" data-name="パス 230" d="M148.4,0,146.32,2.034,150.1,6.056h14.316l3.776-4.022L166.109,0Z" fill="#e5e5e5"/>
      <path id="パス_231" data-name="パス 231" d="M164.435,22.214h-14.36L146.5,26.023l3.358,3.576h14.8l3.358-3.576Z" fill="#e5e5e5"/>
      <path id="パス_232" data-name="パス 232" d="M165.014,6.665V21.582l3.686,3.925,3.005-3.122V5.466l-2.9-2.835Z"/>
      <path id="パス_233" data-name="パス 233" d="M157.469,46.08H150.1L146.32,50.1l2.082,2.033h17.706L168.19,50.1l-3.777-4.023Z" fill="#e5e5e5"/>
      <path id="パス_234" data-name="パス 234" d="M165.014,30.555V45.472L168.8,49.5l2.9-2.834V29.753L168.7,26.631Z" fill="#e5e5e5"/>
      <path id="パス_235" data-name="パス 235" d="M149.5,21.582V6.665l-3.788-4.034-2.9,2.835V22.385l3.006,3.121Z"/>
      <path id="パス_236" data-name="パス 236" d="M148.4,0,146.32,2.034,150.1,6.056h14.316l3.776-4.022L166.109,0Z"/>
      <path id="パス_237" data-name="パス 237" d="M164.435,22.214h-14.36L146.5,26.023l3.358,3.576h14.8l3.358-3.576Z" fill="#e5e5e5"/>
      <path id="パス_238" data-name="パス 238" d="M157.469,46.08H150.1L146.32,50.1l2.082,2.033h17.706L168.19,50.1l-3.777-4.023Z"/>
      <path id="パス_239" data-name="パス 239" d="M165.014,30.555V45.472L168.8,49.5l2.9-2.834V29.753L168.7,26.631Z"/>
      <path id="パス_240" data-name="パス 240" d="M45.537,21.582V6.665L41.749,2.631l-2.9,2.835V22.385l3.006,3.121Z"/>
      <path id="パス_241" data-name="パス 241" d="M45.537,30.555,41.852,26.63l-3.006,3.122V46.671l2.9,2.834,3.788-4.033Z"/>
      <path id="パス_242" data-name="パス 242" d="M44.443,0,42.36,2.034l3.778,4.022H60.454l3.777-4.022L62.15,0Z" fill="#e5e5e5"/>
      <path id="パス_243" data-name="パス 243" d="M60.476,22.214H46.116L42.54,26.023,45.9,29.6h14.8l3.358-3.576Z" fill="#e5e5e5"/>
      <path id="パス_244" data-name="パス 244" d="M61.055,21.582V6.665l3.788-4.034,2.9,2.835V22.385L64.74,25.506Z" fill="#e5e5e5"/>
      <path id="パス_245" data-name="パス 245" d="M53.51,46.08H46.137L42.36,50.1l2.082,2.032H62.149L64.231,50.1,60.453,46.08Z"/>
      <path id="パス_246" data-name="パス 246" d="M61.055,30.555,64.74,26.63l3.006,3.122V46.671l-2.9,2.834-3.788-4.033Z" fill="#e5e5e5"/>
      <path id="パス_247" data-name="パス 247" d="M44.443,0,42.36,2.034l3.778,4.022H60.454l3.777-4.022L62.15,0Z"/>
      <path id="パス_248" data-name="パス 248" d="M61.055,21.582V6.665l3.788-4.034,2.9,2.835V22.385L64.74,25.506Z"/>
      <path id="パス_249" data-name="パス 249" d="M61.055,30.555,64.74,26.63l3.006,3.122V46.671l-2.9,2.834-3.788-4.033Z"/>
      <rect id="長方形_210" data-name="長方形 210" width="6.691" height="6.691" transform="translate(83.223 34.722)"/>
      <rect id="長方形_211" data-name="長方形 211" width="6.691" height="6.691" transform="translate(83.223 10.723)"/>
    </g>
  </g>
</svg>
