<svg xmlns="http://www.w3.org/2000/svg" width="171.705" height="107.633" viewBox="0 0 171.705 107.633">
  <g id="グループ_495" data-name="グループ 495" transform="translate(-163 -3300.367)">
    <text id="Monday." transform="translate(166 3402)" font-size="20" font-family="DIN2014-Regular, 'DIN \32 014'" letter-spacing="0.06em"><tspan x="0" y="0">Monday.</tspan></text>
    <g id="グループ_127" data-name="グループ 127" transform="translate(163 3300.367)">
      <path id="パス_1345" data-name="パス 1345" d="M0,5.466V22.385l3.006,3.121,3.685-3.924V6.665L2.9,2.631Z" fill="#e3e3e3"/>
      <path id="パス_1346" data-name="パス 1346" d="M0,29.753V46.671L2.9,49.5l3.789-4.033V30.555L3.006,26.631Z" fill="#e3e3e3"/>
      <path id="パス_1347" data-name="パス 1347" d="M5.6,0,3.514,2.034,7.292,6.056H21.608l3.777-4.022L23.3,0Z" fill="#e3e3e3"/>
      <path id="パス_1348" data-name="パス 1348" d="M21.63,22.214H7.27L3.694,26.023,7.052,29.6h14.8l3.358-3.576Z" fill="#e3e3e3"/>
      <path id="パス_1349" data-name="パス 1349" d="M22.209,21.582V6.665L26,2.631l2.9,2.835V22.385l-3.006,3.121Z" fill="#e3e3e3"/>
      <path id="パス_1350" data-name="パス 1350" d="M14.664,46.08H7.292L3.515,50.1,5.6,52.136H23.3L25.386,50.1,21.608,46.08Z" fill="#e3e3e3"/>
      <path id="パス_1351" data-name="パス 1351" d="M22.209,30.555l3.685-3.925L28.9,29.752V46.671L26,49.5l-3.788-4.033Z" fill="#e3e3e3"/>
      <path id="パス_1352" data-name="パス 1352" d="M0,5.466V22.385l3.006,3.121,3.685-3.924V6.665L2.9,2.631Z"/>
      <path id="パス_1353" data-name="パス 1353" d="M0,29.753V46.671L2.9,49.5l3.789-4.033V30.555L3.006,26.631Z"/>
      <path id="パス_1354" data-name="パス 1354" d="M5.6,0,3.514,2.034,7.292,6.056H21.608l3.777-4.022L23.3,0Z"/>
      <path id="パス_1355" data-name="パス 1355" d="M22.209,21.582V6.665L26,2.631l2.9,2.835V22.385l-3.006,3.121Z"/>
      <path id="パス_1356" data-name="パス 1356" d="M14.664,46.08H7.292L3.515,50.1,5.6,52.136H23.3L25.386,50.1,21.608,46.08Z"/>
      <path id="パス_1357" data-name="パス 1357" d="M22.209,30.555l3.685-3.925L28.9,29.752V46.671L26,49.5l-3.788-4.033Z"/>
      <path id="パス_1358" data-name="パス 1358" d="M110.65,21.582V6.665l-3.788-4.034-2.9,2.835V22.385l3.006,3.121Z" fill="#e3e3e3"/>
      <path id="パス_1359" data-name="パス 1359" d="M110.65,30.555l-3.685-3.925-3.006,3.122V46.671l2.9,2.834,3.788-4.033Z" fill="#e3e3e3"/>
      <path id="パス_1360" data-name="パス 1360" d="M109.556,0l-2.083,2.034,3.778,4.022h14.316l3.777-4.022L127.263,0Z" fill="#e3e3e3"/>
      <path id="パス_1361" data-name="パス 1361" d="M125.589,22.214h-14.36l-3.576,3.809,3.358,3.576h14.8l3.358-3.576Z" fill="#e3e3e3"/>
      <path id="パス_1362" data-name="パス 1362" d="M126.168,21.582V6.665l3.788-4.034,2.9,2.835V22.385l-3.006,3.121Z" fill="#e3e3e3"/>
      <path id="パス_1363" data-name="パス 1363" d="M118.623,46.08h-7.372L107.474,50.1l2.082,2.033h17.707l2.082-2.033-3.778-4.023Z" fill="#e3e3e3"/>
      <path id="パス_1364" data-name="パス 1364" d="M126.168,30.555l3.685-3.925,3.006,3.122V46.671l-2.9,2.834-3.788-4.033Z" fill="#e3e3e3"/>
      <path id="パス_1365" data-name="パス 1365" d="M110.65,30.555l-3.685-3.925-3.006,3.122V46.671l2.9,2.834,3.788-4.033Z"/>
      <path id="パス_1366" data-name="パス 1366" d="M109.556,0l-2.083,2.034,3.778,4.022h14.316l3.777-4.022L127.263,0Z"/>
      <path id="パス_1367" data-name="パス 1367" d="M125.589,22.214h-14.36l-3.576,3.809,3.358,3.576h14.8l3.358-3.576Z"/>
      <path id="パス_1368" data-name="パス 1368" d="M126.168,21.582V6.665l3.788-4.034,2.9,2.835V22.385l-3.006,3.121Z"/>
      <path id="パス_1369" data-name="パス 1369" d="M118.623,46.08h-7.372L107.474,50.1l2.082,2.033h17.707l2.082-2.033-3.778-4.023Z"/>
      <path id="パス_1370" data-name="パス 1370" d="M149.5,21.582V6.665l-3.788-4.034-2.9,2.835V22.385l3.006,3.121Z" fill="#e3e3e3"/>
      <path id="パス_1371" data-name="パス 1371" d="M149.5,30.555l-3.685-3.925-3.006,3.122V46.671l2.9,2.834,3.788-4.033Z" fill="#e3e3e3"/>
      <path id="パス_1372" data-name="パス 1372" d="M148.4,0,146.32,2.034,150.1,6.056h14.316l3.776-4.022L166.109,0Z" fill="#e3e3e3"/>
      <path id="パス_1373" data-name="パス 1373" d="M164.435,22.214h-14.36L146.5,26.023l3.358,3.576h14.8l3.358-3.576Z" fill="#e3e3e3"/>
      <path id="パス_1374" data-name="パス 1374" d="M165.014,6.665V21.582l3.686,3.925,3.005-3.122V5.466l-2.9-2.835Z" fill="#e3e3e3"/>
      <path id="パス_1375" data-name="パス 1375" d="M157.469,46.08H150.1L146.32,50.1l2.082,2.033h17.706L168.19,50.1l-3.777-4.023Z" fill="#e3e3e3"/>
      <path id="パス_1376" data-name="パス 1376" d="M165.014,30.555V45.472L168.8,49.5l2.9-2.834V29.753L168.7,26.631Z" fill="#e3e3e3"/>
      <path id="パス_1377" data-name="パス 1377" d="M149.5,21.582V6.665l-3.788-4.034-2.9,2.835V22.385l3.006,3.121Z"/>
      <path id="パス_1378" data-name="パス 1378" d="M148.4,0,146.32,2.034,150.1,6.056h14.316l3.776-4.022L166.109,0Z"/>
      <path id="パス_1379" data-name="パス 1379" d="M164.435,22.214h-14.36L146.5,26.023l3.358,3.576h14.8l3.358-3.576Z"/>
      <path id="パス_1380" data-name="パス 1380" d="M157.469,46.08H150.1L146.32,50.1l2.082,2.033h17.706L168.19,50.1l-3.777-4.023Z"/>
      <path id="パス_1381" data-name="パス 1381" d="M165.014,30.555V45.472L168.8,49.5l2.9-2.834V29.753L168.7,26.631Z"/>
      <path id="パス_1382" data-name="パス 1382" d="M45.537,21.582V6.665L41.749,2.631l-2.9,2.835V22.385l3.006,3.121Z"/>
      <path id="パス_1383" data-name="パス 1383" d="M45.537,30.555,41.852,26.63l-3.006,3.122V46.671l2.9,2.834,3.788-4.033Z"/>
      <path id="パス_1384" data-name="パス 1384" d="M44.443,0,42.36,2.034l3.778,4.022H60.454l3.777-4.022L62.15,0Z" fill="#e3e3e3"/>
      <path id="パス_1385" data-name="パス 1385" d="M60.476,22.214H46.116L42.54,26.023,45.9,29.6h14.8l3.358-3.576Z"/>
      <path id="パス_1386" data-name="パス 1386" d="M61.055,21.582V6.665l3.788-4.034,2.9,2.835V22.385L64.74,25.506Z" fill="#e3e3e3"/>
      <path id="パス_1387" data-name="パス 1387" d="M53.51,46.08H46.137L42.36,50.1l2.082,2.032H62.149L64.231,50.1,60.453,46.08Z"/>
      <path id="パス_1388" data-name="パス 1388" d="M61.055,30.555,64.74,26.63l3.006,3.122V46.671l-2.9,2.834-3.788-4.033Z" fill="#e3e3e3"/>
      <path id="パス_1389" data-name="パス 1389" d="M44.443,0,42.36,2.034l3.778,4.022H60.454l3.777-4.022L62.15,0Z"/>
      <path id="パス_1390" data-name="パス 1390" d="M61.055,21.582V6.665l3.788-4.034,2.9,2.835V22.385L64.74,25.506Z"/>
      <path id="パス_1391" data-name="パス 1391" d="M61.055,30.555,64.74,26.63l3.006,3.122V46.671l-2.9,2.834-3.788-4.033Z"/>
      <rect id="長方形_289" data-name="長方形 289" width="6.691" height="6.691" transform="translate(83.223 34.722)"/>
      <rect id="長方形_290" data-name="長方形 290" width="6.691" height="6.691" transform="translate(83.223 10.723)"/>
    </g>
  </g>
</svg>
