<svg xmlns="http://www.w3.org/2000/svg" width="727.09" height="381.871" viewBox="0 0 727.09 381.871">
  <g id="グループ_484" data-name="グループ 484" transform="translate(-9.86 -742.509)">
    <path id="パス_1432" data-name="パス 1432" d="M126.65-113.39a23.251,23.251,0,0,1-2.04,4.42q-1.02,2.04-3.06,6.97l-2.89,7.14q-3.74,9.35-4.42,10.71t-1.7,1.36q-1.36,0-1.36-1.19a27.728,27.728,0,0,1,.85-4.08,52.048,52.048,0,0,0,1.87-11.9,15.048,15.048,0,0,0-5.61-11.815,20.574,20.574,0,0,0-13.94-4.845q-11.39,0-23.8,8.245A80.146,80.146,0,0,0,48.62-86.02,132.305,132.305,0,0,0,32.47-52.36a82.963,82.963,0,0,0-4.25,25.33q0,12.75,6.29,19.72T52.19-.34q17.51,0,24.48-14.62,4.76-9.86,4.76-16.15,0-3.23-5.44-3.23H73.78q-1.7,0-4.08.17-2.89,0-2.89-1.53,0-1.7,2.04-1.7a15.918,15.918,0,0,1,2.55.17l18.87.34,21.93-.34q2.89,0,2.89,1.7t-5.44,1.7h-5.61q-3.91,0-5.185,1.02T96.39-27.54l-2.72,9.35Q92.31-13.77,82.96-7.48,68.34,2.21,49.13,2.21q-18.7,0-28.39-8.16Q9.86-14.96,9.86-30.77q0-15.98,8.33-33.15A111.76,111.76,0,0,1,40.97-95.2q25.67-24.82,52.87-24.82,11.56,0,18.87,6.29,4.42,3.74,6.63,3.74,3.06,0,5.27-3.91a1.659,1.659,0,0,1,1.19-.34A.751.751,0,0,1,126.65-113.39Zm36.04,68.17-1.7,9.35H126.65l1.36-9.35Zm102-73.27q0,1.53-3.145,7.48T255.85-92.65q-.68,2.89-2.21,2.89a1.052,1.052,0,0,1-1.19-1.19v-1.02a45.123,45.123,0,0,0,.51-6.29q0-8.33-5.525-13.26t-14.875-4.93q-10.37,0-17.425,6.12A19.248,19.248,0,0,0,208.08-95.2q0,9.52,12.07,21.59l10.2,10.2q13.6,13.6,13.6,27.37,0,15.81-12.155,27.03T202.3,2.21q-10.03,0-16.83-3.74-.85-.51-7.48-5.44a6.335,6.335,0,0,0-3.74-1.36q-3.91,0-6.46,8.33-.68,2.38-1.87,2.38-1.53,0-1.53-1.7,0-.17,1.53-3.91Q171.53-17,175.95-30.26q1.36-4.08,3.4-4.08a1.052,1.052,0,0,1,1.19,1.19,9.469,9.469,0,0,1-.68,2.04q-1.19,1.87-1.19,8.5,0,21.42,23.8,21.42,12.07,0,19.635-6.97t7.565-18.19q0-12.92-11.73-23.8l-9.52-8.84q-14.45-13.43-14.45-26.52,0-13.77,11.22-23.8a38.7,38.7,0,0,1,26.69-10.03,43.6,43.6,0,0,1,17,3.57q5.27,2.21,6.8,2.21,3.23,0,6.12-4.42,1.02-1.7,1.87-1.7Q264.69-119.68,264.69-118.49Zm136.51,2.04q0,1.53-2.21,1.53a20.858,20.858,0,0,1-2.89-.17h-2.21q-7.31,0-9.435,2.04T378.08-99.79L345.61-15.47q-2.21,5.78-3.4,9.52,0,2.21,2.805,2.8t12.495.765q1.87.34,1.87,1.19,0,1.53-3.06,1.53H353.6L328.95,0,312.63.17a13.463,13.463,0,0,1-2.21.17q-2.21,0-2.21-1.53,0-1.87,2.38-1.7l4.08.17h1.7l4.59-.17a6.979,6.979,0,0,0,3.23-.765,7.373,7.373,0,0,0,1.87-2.975q.34-1.02,1.87-5.1l15.3-39.78q.68-1.7,1.87-4.93-.34-1.7-5.1-1.7H312.12q-2.04,0-4.59-.17h-5.27q-2.38,0-3.23,3.23-.17.51-1.87,4.93L282.88-13.77q-2.72,6.97-2.72,8.16,0,2.04,6.46,3.23l9.52-.51q.85,0,.85,1.53T294.78.17h-3.4Q288.49,0,286.96,0L264.52-.34q-2.89,0-8.245.34t-7.9.34q-3.57,0-3.57-1.7a1.653,1.653,0,0,1,1.87-1.87,16.809,16.809,0,0,1,2.38.17h1.19q7.14,0,9.35-.85a4.875,4.875,0,0,0,2.72-2.04,116.672,116.672,0,0,0,5.44-12.07l34.34-85.68q2.89-7.14,2.89-8.33,0-2.55-5.1-3.06-.85-.17-7.14-.17-3.74,0-3.74-1.53,0-1.36,1.87-1.36l11.9.17q11.9.17,19.55.17h7.99q1.7,0,3.4-.17h1.7q3.06,0,3.06,1.53,0,2.04-2.72,2.04-.51,0-4.93-.17a30.737,30.737,0,0,0-4.08-.17q-3.4,0-4.5,1.53t-4.675,10.54L302.77-64.77a4.289,4.289,0,0,0-.51,1.02q0,1.53,6.97,1.7l22.78.34a20.622,20.622,0,0,1,2.55-.17l10.54.17a2.265,2.265,0,0,0,1.955-1.19,65.037,65.037,0,0,0,3.145-6.8l13.43-32.81q3.06-7.48,3.06-9.69t-5.1-2.55h-6.8q-3.91,0-3.91-1.87,0-1.19,3.91-1.19l32.3.17H391q2.89-.17,5.27-.17h2.04Q401.2-117.81,401.2-116.45ZM503.37-79.73a74.886,74.886,0,0,1-8.84,34.765A90.428,90.428,0,0,1,470.39-15.64Q447.78,2.21,425.17,2.21q-17,0-26.52-9.435T389.13-33.66q0-17.17,8.84-35.275a98.336,98.336,0,0,1,23.8-31.195q22.44-19.72,45.9-19.72,17.17,0,26.69,12.41Q503.37-95.71,503.37-79.73ZM487.22-90.61a37.894,37.894,0,0,0-3.74-17.17q-4.76-9.69-17.17-9.69-21.25,0-40.29,30.77a147.782,147.782,0,0,0-14.875,32.13q-5.525,17-5.525,30.77,0,23.63,21.42,23.63,12.75,0,24.99-10.71,16.32-14.11,26.18-39.95Q487.22-74.29,487.22-90.61ZM620.5-110.5q0,2.21-2.55,7.14-7.82,15.13-9.35,21.25-.68,2.72-2.04,2.72t-1.36-1.7a30.108,30.108,0,0,1,1.19-4.25,28.261,28.261,0,0,0,1.02-8.33q0-10.54-5.44-16.66t-14.79-6.12q-22.1,0-37.23,23.97-16.66,26.35-16.66,55.93,0,31.28,22.78,31.28a30.339,30.339,0,0,0,15.3-4.08q12.92-7.48,18.7-17.68,2.21-3.91,3.74-3.91,1.02,0,1.02,1.36,0,3.91-9.52,14.11Q568.65,2.21,547.06,2.21q-15.13,0-23.715-9.605T514.76-34q0-31.96,22.865-58.82t50.065-26.86a27.954,27.954,0,0,1,12.58,2.55q3.57,1.87,10.54,7.82a5.123,5.123,0,0,0,3.4,1.53q2.04,0,3.91-3.23a1.959,1.959,0,0,1,1.36-.68Q620.5-111.69,620.5-110.5Zm116.45-5.78q0,1.53-5.1,1.53a20.108,20.108,0,0,0-11.22,3.74q-4.08,2.72-21.76,17.17L685.95-83.3a82.431,82.431,0,0,1-8.33,6.12q-7.31,4.76-7.31,6.46l.51,1.53.85,2.55,17,53.04q2.38,7.65,3.995,9.18t6.885,1.53h1.36q1.53,0,3.4-.17h1.7q1.87,0,1.87,1.36,0,2.04-6.29,2.04.34,0-6.035-.17T683.74,0h-4.93L665.55.17q-4.25,0-4.25-1.53,0-1.7,2.38-1.7a32.774,32.774,0,0,1,3.57.17h2.55q4.08,0,4.08-2.89-.51-2.04-2.21-8.16L658.58-57.29q-2.04-6.97-3.57-6.97-.85,0-2.72,4.93L636.31-18.7q-4.42,11.22-4.42,12.75,0,3.23,4.93,3.23h1.53q1.36,0,3.06-.17h1.87q4.76,0,4.76,1.36,0,1.53-3.23,1.53l-11.9-.17L599.42.34q-2.55,0-2.55-1.53,0-1.7,2.38-1.7,1.02,0,3.06.17t3.06.17q5.44,0,7.14-1.53a8.432,8.432,0,0,0,1.87-2.72q1.7-3.23,6.29-14.79l30.94-77.69q3.06-7.65,4.76-12.75,0-3.4-7.4-3.23t-7.395-1.53q0-1.36,6.8-1.36l17,.17,15.98-.17q6.46,0,6.46,1.36t-5.1,1.53a33.834,33.834,0,0,0-6.29.68q-3.57,1.02-4.59,3.74l-3.57,9.69L657.39-72.08q-.68,1.7-1.36,3.74,0,1.02.85,1.02a2.327,2.327,0,0,0,1.36-.85,10.373,10.373,0,0,1,3.74-2.55l11.9-8.33,5.61-4.42,14.79-12.07q11.73-9.52,14.45-12.41a6.255,6.255,0,0,0,1.87-4.25q0-2.89-5.27-2.89a33.812,33.812,0,0,0-3.91.17H698.7q-2.04,0-2.04-1.19,0-2.04,3.23-2.04h2.38q.68,0,10.2.17t18.87.17Q736.95-117.81,736.95-116.28Z" transform="translate(0 1122)"/>
    <path id="パス_1431" data-name="パス 1431" d="M132.09-92.31a4.885,4.885,0,0,0,4.25-2.21l2.55-3.57q.68-.85,1.955-2.55t2.04-2.55a2.082,2.082,0,0,1,1.445-.85q1.36,0,6.8,4.5a45.6,45.6,0,0,1,7.65,7.565,3.742,3.742,0,0,1,.85,2.04,2.449,2.449,0,0,1-.85,1.7,5.969,5.969,0,0,1-3.23.85H94.35a3.347,3.347,0,0,0-2.72,1.02,3.394,3.394,0,0,0-.51,2.89q11.73,56.27,68,84.32a9.866,9.866,0,0,1,2.125,1.36q.765.68.6,1.02-.17.51-1.445.85a11.094,11.094,0,0,0-1.615.51,10.562,10.562,0,0,0-6.97,5.27q-1.19,2.21-2.72,2.21a4.231,4.231,0,0,1-1.87-.51Q119.68-5.27,106.25-28.985A154.9,154.9,0,0,1,88.23-80.75q-.17-2.38-.85-2.38-.51,0-1.02,2.38A134.763,134.763,0,0,1,76.16-44.8q-7.31,16.235-22.27,30.6T14.79,11.73a8.211,8.211,0,0,1-2.21.68h-.34a1.323,1.323,0,0,1-1.36-.85,1.623,1.623,0,0,1,.34-1.7,7.051,7.051,0,0,1,1.87-1.53q30.77-17.85,44.625-40.2T75.31-83.64v-.68q0-3.06-3.23-3.06H40.29a176.125,176.125,0,0,0-22.44,1.87H17a3.83,3.83,0,0,1-3.57-2.21l-.68-1.36a9.469,9.469,0,0,1-.68-2.04,1.871,1.871,0,0,1,.85-1.615,3.42,3.42,0,0,1,2.38-.425q5.78.51,17.51.85H72.93a3.364,3.364,0,0,0,3.74-3.4l.51-11.9q.17-2.55.17-7.82a196.485,196.485,0,0,0-1.36-23.63v-.34a2.881,2.881,0,0,1,1.02-2.465,4.1,4.1,0,0,1,2.89-.6,93.472,93.472,0,0,1,10.71,1.615q3.06.765,3.06,1.785,0,.85-1.36,1.7l-.51.51a4.885,4.885,0,0,0-2.21,4.25l-.17,6.12q-.34,18.19-1.36,30.43v.51q0,3.23,3.4,3.23Zm116.28-43.86a3.005,3.005,0,0,1,.935-2.465,3.058,3.058,0,0,1,2.635-.425l4.42.85q.68.17,4.25.51,5.27.17,5.27,1.7,0,.85-1.53,1.87l-.34.34a5.035,5.035,0,0,0-2.21,4.42q2.04,32.47,8.84,56.015A118.641,118.641,0,0,0,292.4-31.28Q307.36-12.75,333.03.34q2.72,1.19,2.72,2.21,0,.51-.85.85a17.647,17.647,0,0,1-2.21.68,11.664,11.664,0,0,0-7.31,5.44,3.4,3.4,0,0,1-2.89,2.04,4.231,4.231,0,0,1-1.87-.51q-27.88-17-41.395-43.01T261.12-94.86q-.51-2.55-.85-2.55t-.68,2.38a170.1,170.1,0,0,1-8.755,39.78q-6.545,18.36-21.08,35.53T190.57,11.39a5.813,5.813,0,0,1-2.72,1.02,1.959,1.959,0,0,1-1.36-.68,1.345,1.345,0,0,1-.17-.85q0-1.19,2.21-2.72,22.95-15.64,35.955-34.085a122.252,122.252,0,0,0,18.36-37.74,196.285,196.285,0,0,0,6.545-42.415q.17-2.55.17-7.65a206.372,206.372,0,0,0-1.19-21.76Z" transform="translate(0 885)"/>
    <line id="線_10" data-name="線 10" x1="149" y2="149" transform="translate(136.5 876.5)" fill="none" stroke="#000" stroke-width="2"/>
    <line id="線_11" data-name="線 11" x2="100" y2="97" transform="translate(163 901.5)" fill="none" stroke="#000" stroke-width="2"/>
  </g>
</svg>
