<svg xmlns="http://www.w3.org/2000/svg" width="90.298" height="95.551" viewBox="0 0 90.298 95.551">
  <g id="グループ_489" data-name="グループ 489" transform="translate(-735.006 -2486)">
    <text id="TOWN" transform="translate(785 2502)" font-size="17" font-family="DIN2014-Regular, 'DIN \32 014'" letter-spacing="0.1em"><tspan x="-24.616" y="0">TOWN</tspan></text>
    <text id="Saturday." transform="translate(785 2576.551)" font-size="14" font-family="DIN2014-Regular, 'DIN \32 014'" letter-spacing="0.05em"><tspan x="-30.737" y="0">Saturday.</tspan></text>
    <g id="グループ_73" data-name="グループ 73" transform="translate(735.006 2522)">
      <path id="パス_336" data-name="パス 336" d="M0,4.122v8.9l1.581,1.641L3.519,12.6V4.753L1.526,2.631Z" transform="translate(0 -1.247)" fill="#e5e5e5"/>
      <path id="パス_337" data-name="パス 337" d="M0,28.273v8.9l1.526,1.49,1.993-2.121V28.694L1.581,26.631Z" transform="translate(0 -12.626)" fill="#e5e5e5"/>
      <path id="パス_338" data-name="パス 338" d="M4.609,0,3.514,1.069,5.5,3.184H13.03l1.986-2.115L13.921,0Z" transform="translate(-1.666 0)" fill="#e5e5e5"/>
      <path id="パス_339" data-name="パス 339" d="M13.126,22.214H5.574l-1.881,2L5.46,26.1h7.782l1.766-1.881Z" transform="translate(-1.751 -10.532)" fill="#e5e5e5"/>
      <path id="パス_340" data-name="パス 340" d="M22.209,12.6V4.753L24.2,2.631l1.527,1.491v8.9l-1.581,1.641Z" transform="translate(-10.529 -1.247)" fill="#e5e5e5"/>
      <path id="パス_341" data-name="パス 341" d="M9.378,46.08H5.5L3.515,48.2,4.61,49.265h9.311l1.1-1.069L13.03,46.08Z" transform="translate(-1.666 -21.847)" fill="#e5e5e5"/>
      <path id="パス_342" data-name="パス 342" d="M22.209,28.694l1.938-2.064,1.581,1.642v8.9L24.2,38.66l-1.992-2.121Z" transform="translate(-10.529 -12.625)" fill="#e5e5e5"/>
      <path id="パス_343" data-name="パス 343" d="M0,4.122v8.9l1.581,1.641L3.519,12.6V4.753L1.526,2.631Z" transform="translate(0 -1.247)" fill="#e5e5e5"/>
      <path id="パス_344" data-name="パス 344" d="M0,28.273v8.9l1.526,1.49,1.993-2.121V28.694L1.581,26.631Z" transform="translate(0 -12.626)" fill="#e5e5e5"/>
      <path id="パス_345" data-name="パス 345" d="M4.609,0,3.514,1.069,5.5,3.184H13.03l1.986-2.115L13.921,0Z" transform="translate(-1.666 0)" fill="#e5e5e5"/>
      <path id="パス_346" data-name="パス 346" d="M22.209,12.6V4.753L24.2,2.631l1.527,1.491v8.9l-1.581,1.641Z" transform="translate(-10.529 -1.247)"/>
      <path id="パス_347" data-name="パス 347" d="M9.378,46.08H5.5L3.515,48.2,4.61,49.265h9.311l1.1-1.069L13.03,46.08Z" transform="translate(-1.666 -21.847)" fill="#e5e5e5"/>
      <path id="パス_348" data-name="パス 348" d="M22.209,28.694l1.938-2.064,1.581,1.642v8.9L24.2,38.66l-1.992-2.121Z" transform="translate(-10.529 -12.625)"/>
      <path id="パス_349" data-name="パス 349" d="M107.478,12.6V4.753l-1.992-2.121-1.527,1.491v8.9l1.581,1.641Z" transform="translate(-49.288 -1.247)" fill="#e5e5e5"/>
      <path id="パス_350" data-name="パス 350" d="M107.478,28.694,105.54,26.63l-1.581,1.642v8.9l1.527,1.49,1.992-2.121Z" transform="translate(-49.288 -12.625)" fill="#e5e5e5"/>
      <path id="パス_351" data-name="パス 351" d="M108.569,0l-1.1,1.07,1.987,2.115h7.529l1.986-2.115L117.88,0Z" transform="translate(-50.954 0)" fill="#e5e5e5"/>
      <path id="パス_352" data-name="パス 352" d="M117.085,22.214h-7.552l-1.881,2,1.766,1.881H117.2l1.766-1.881Z" transform="translate(-51.04 -10.532)" fill="#e5e5e5"/>
      <path id="パス_353" data-name="パス 353" d="M126.168,12.6V4.753l1.992-2.121,1.527,1.491v8.9l-1.581,1.641Z" transform="translate(-59.818 -1.247)" fill="#e5e5e5"/>
      <path id="パス_354" data-name="パス 354" d="M113.337,46.08H109.46L107.474,48.2l1.095,1.069h9.312l1.095-1.069-1.987-2.116Z" transform="translate(-50.955 -21.847)" fill="#e5e5e5"/>
      <path id="パス_355" data-name="パス 355" d="M126.168,28.694l1.938-2.064,1.581,1.642v8.9l-1.527,1.49-1.992-2.121Z" transform="translate(-59.818 -12.625)"/>
      <path id="パス_356" data-name="パス 356" d="M107.478,28.694,105.54,26.63l-1.581,1.642v8.9l1.527,1.49,1.992-2.121Z" transform="translate(-49.288 -12.625)" fill="#e5e5e5"/>
      <path id="パス_357" data-name="パス 357" d="M108.569,0l-1.1,1.07,1.987,2.115h7.529l1.986-2.115L117.88,0Z" transform="translate(-50.954 0)" fill="#e5e5e5"/>
      <path id="パス_358" data-name="パス 358" d="M117.085,22.214h-7.552l-1.881,2,1.766,1.881H117.2l1.766-1.881Z" transform="translate(-51.04 -10.532)" fill="#e5e5e5"/>
      <path id="パス_359" data-name="パス 359" d="M126.168,12.6V4.753l1.992-2.121,1.527,1.491v8.9l-1.581,1.641Z" transform="translate(-59.818 -1.247)"/>
      <path id="パス_360" data-name="パス 360" d="M113.337,46.08H109.46L107.474,48.2l1.095,1.069h9.312l1.095-1.069-1.987-2.116Z" transform="translate(-50.955 -21.847)" fill="#e5e5e5"/>
      <path id="パス_361" data-name="パス 361" d="M146.324,12.6V4.753l-1.992-2.121-1.527,1.491v8.9l1.581,1.641Z" transform="translate(-67.706 -1.247)" fill="#e5e5e5"/>
      <path id="パス_362" data-name="パス 362" d="M146.324,28.694l-1.938-2.064-1.581,1.642v8.9l1.527,1.49,1.992-2.121Z" transform="translate(-67.706 -12.625)"/>
      <path id="パス_363" data-name="パス 363" d="M147.415,0l-1.095,1.07,1.987,2.115h7.529l1.986-2.115L156.727,0Z" transform="translate(-69.372 0)" fill="#e5e5e5"/>
      <path id="パス_364" data-name="パス 364" d="M155.931,22.214H148.38l-1.881,2,1.766,1.881h7.782l1.766-1.881Z" transform="translate(-69.457 -10.532)" fill="#e5e5e5"/>
      <path id="パス_365" data-name="パス 365" d="M165.014,4.752V12.6l1.938,2.064,1.58-1.642v-8.9l-1.527-1.491Z" transform="translate(-78.235 -1.247)"/>
      <path id="パス_366" data-name="パス 366" d="M152.184,46.08h-3.877L146.32,48.2l1.095,1.069h9.311l1.095-1.069-1.986-2.116Z" transform="translate(-69.372 -21.847)" fill="#e5e5e5"/>
      <path id="パス_367" data-name="パス 367" d="M165.014,28.694v7.845l1.992,2.121,1.527-1.49v-8.9l-1.58-1.642Z" transform="translate(-78.235 -12.626)" fill="#e5e5e5"/>
      <path id="パス_368" data-name="パス 368" d="M146.324,12.6V4.753l-1.992-2.121-1.527,1.491v8.9l1.581,1.641Z" transform="translate(-67.706 -1.247)"/>
      <path id="パス_369" data-name="パス 369" d="M147.415,0l-1.095,1.07,1.987,2.115h7.529l1.986-2.115L156.727,0Z" transform="translate(-69.372 0)"/>
      <path id="パス_370" data-name="パス 370" d="M155.931,22.214H148.38l-1.881,2,1.766,1.881h7.782l1.766-1.881Z" transform="translate(-69.457 -10.532)" fill="#e5e5e5"/>
      <path id="パス_371" data-name="パス 371" d="M152.184,46.08h-3.877L146.32,48.2l1.095,1.069h9.311l1.095-1.069-1.986-2.116Z" transform="translate(-69.372 -21.847)"/>
      <path id="パス_372" data-name="パス 372" d="M165.014,28.694v7.845l1.992,2.121,1.527-1.49v-8.9l-1.58-1.642Z" transform="translate(-78.235 -12.626)"/>
      <path id="パス_373" data-name="パス 373" d="M42.365,12.6V4.753L40.373,2.631,38.846,4.122v8.9l1.581,1.641Z" transform="translate(-18.417 -1.247)"/>
      <path id="パス_374" data-name="パス 374" d="M42.365,28.694,40.427,26.63l-1.581,1.642v8.9l1.527,1.49,1.992-2.121Z" transform="translate(-18.417 -12.625)" fill="#e5e5e5"/>
      <path id="パス_375" data-name="パス 375" d="M43.455,0l-1.1,1.07,1.987,2.115h7.529l1.986-2.115L52.767,0Z" transform="translate(-20.083 0)" fill="#e5e5e5"/>
      <path id="パス_376" data-name="パス 376" d="M51.972,22.214H44.42l-1.881,2L44.306,26.1h7.782l1.766-1.881Z" transform="translate(-20.169 -10.532)"/>
      <path id="パス_377" data-name="パス 377" d="M61.055,12.6V4.753l1.992-2.121,1.527,1.491v8.9l-1.581,1.641Z" transform="translate(-28.947 -1.247)" fill="#e5e5e5"/>
      <path id="パス_378" data-name="パス 378" d="M48.224,46.08H44.347L42.36,48.2l1.095,1.069h9.312L53.862,48.2,51.875,46.08Z" transform="translate(-20.084 -21.847)"/>
      <path id="パス_379" data-name="パス 379" d="M61.055,28.694l1.938-2.064,1.581,1.642v8.9l-1.527,1.49-1.992-2.121Z" transform="translate(-28.947 -12.625)" fill="#e5e5e5"/>
      <path id="パス_380" data-name="パス 380" d="M43.455,0l-1.1,1.07,1.987,2.115h7.529l1.986-2.115L52.767,0Z" transform="translate(-20.083 0)"/>
      <path id="パス_381" data-name="パス 381" d="M61.055,12.6V4.753l1.992-2.121,1.527,1.491v8.9l-1.581,1.641Z" transform="translate(-28.947 -1.247)" fill="#e5e5e5"/>
      <path id="パス_382" data-name="パス 382" d="M61.055,28.694l1.938-2.064,1.581,1.642v8.9l-1.527,1.49-1.992-2.121Z" transform="translate(-28.947 -12.625)"/>
      <rect id="長方形_214" data-name="長方形 214" width="3.519" height="3.519" transform="translate(43.766 18.26)"/>
      <rect id="長方形_215" data-name="長方形 215" width="3.519" height="3.519" transform="translate(43.766 5.639)"/>
    </g>
  </g>
</svg>
