<svg id="グループ_64" data-name="グループ 64" xmlns="http://www.w3.org/2000/svg" xmlns:xlink="http://www.w3.org/1999/xlink" width="398.01" height="232.858" viewBox="0 0 398.01 232.858">
  <defs>
    <clipPath id="clip-path">
      <rect id="長方形_213" data-name="長方形 213" width="398.01" height="232.858" fill="none"/>
    </clipPath>
  </defs>
  <g id="グループ_63" data-name="グループ 63" clip-path="url(#clip-path)">
    <path id="パス_331" data-name="パス 331" d="M296.532,5.938a9.9,9.9,0,0,0-1.119.605l-.4.343-.569.356a.8.8,0,0,0,.482.069l.168-.013a1.155,1.155,0,0,0,.526-.143l-.966,2.266-1.119.605-1.265.513a7.743,7.743,0,0,1-2.083.469l-.672.05a20.157,20.157,0,0,1-2.769-.211l-2.7-.529a27.041,27.041,0,0,0-5.451-.846l-.5.037-2.141-.049a4.023,4.023,0,0,0-1.3-.112l-.5.038-3.676.17a30.441,30.441,0,0,1-3.822.077,14.084,14.084,0,0,1-5.932-.915,8.2,8.2,0,0,1-2.968.744,12.9,12.9,0,0,1-1.66.019l-2.1-.261-1.928-.274a2.625,2.625,0,0,0-.82-.043,5.441,5.441,0,0,0-1.029.181l-.841.063-.694.156-.336.026A1.253,1.253,0,0,1,246.98,8.7L245,9.474a7.755,7.755,0,0,1-2.031-.58l-2.353.176q-2.356.176-5.524.309l-3.822.077-3.822.076q-2.334.071-4.515.233A70.03,70.03,0,0,0,212.188,11.3a1.614,1.614,0,0,0-1.087-.337l-1.134-.124c-1.091-.057-1.665-.223-1.716-.5l-2.172.894a44.934,44.934,0,0,0-5.648.108l-1.513.113q-2.523.189-7.462.872-4.922.577-8.448.839-3.364.251-5.5.2a3.834,3.834,0,0,1,1.768-.55,4,4,0,0,1,.819.043l1.155.019a4.045,4.045,0,0,0,1.265-.513l.315.081.189-.118-.5.037a2.457,2.457,0,0,0-1.447-.2l-.841.063-1.029.182-1.009.075a2.945,2.945,0,0,1-2.075-.367,4.389,4.389,0,0,0,2.507-.919l.783-.581a7.269,7.269,0,0,1,1.074-.394c.111-.008.161.024.147.094s-.2.155-.549.251c-.24.087-.365.168-.381.237-.03.142.053.274.249.4a1.494,1.494,0,0,0,.942.243,2.76,2.76,0,0,0,.885-.274l.548-.251.381-.237a.812.812,0,0,1,.357-.131l.169-.012q.261,1.13,2.819,1.564a6.225,6.225,0,0,0,1.637.087,5.241,5.241,0,0,0,2.675-.931,1.262,1.262,0,0,0-.651-.056,8.148,8.148,0,0,0-1.03.182l-1.053.288-.862.169a.93.93,0,0,0-.394-.492,1.755,1.755,0,0,0-.459-.176c-.323-.044-.475-.1-.461-.174l.19-.118a15.993,15.993,0,0,1,1.871-.245l3.529-.264a12.132,12.132,0,0,0,5.306-1.649l1.037,1.385c.46-.1.716-.263.76-.475l.022-.106-.08-.412c.029-.141.162-.256.4-.344a4.526,4.526,0,0,0,.987.032,2.592,2.592,0,0,0,1.432-.525c.738.154,1.122.439,1.146.854a2.782,2.782,0,0,0,1.264-.512l.4-.344.38-.236a2.121,2.121,0,0,1,.607.267l.248.4a1.342,1.342,0,0,0,1.234.43l.336-.025c-.247-.4-.357-.669-.328-.812a.4.4,0,0,1,.4-.342,1.532,1.532,0,0,0,1,.761l.438.28.607.268a25.462,25.462,0,0,0,3.472-.781l1.768-.55,1.578-.432A12.4,12.4,0,0,1,218.044,7a7.224,7.224,0,0,1,3.69.559A7.95,7.95,0,0,1,224.2,6.85a1.868,1.868,0,0,1,1.425.311l-.044.212c-.059.283.182.44.73.468l1.009-.075.819.043-.373-.6c.044-.212.3-.405.782-.581l.461.175.627.161q.774.257.833.774a8.27,8.27,0,0,1,3.369-1.087l1.871-.244q1.174-.087,2.207-.269a1.546,1.546,0,0,0-.278.543.837.837,0,0,0,.473.905,1.59,1.59,0,0,0,.739-.369l.109-.53a.468.468,0,0,1-.1-.306c.045-.212.241-.365.593-.462a4.741,4.741,0,0,1,1.221-.3,4.44,4.44,0,0,1,1.929.274l1.065.442,1.235.43a.538.538,0,0,1-.079-.411l.044-.213a1.158,1.158,0,0,1,.906-.381,5.828,5.828,0,0,0,1.805.075l2.521-.189a6.362,6.362,0,0,1,3.084.292l-.336.025a4.46,4.46,0,0,0-1.053.288,2.077,2.077,0,0,0,1.279.218l.5-.037,1.221-.3,1.052-.287a13.036,13.036,0,0,1,2.062-.364,3.124,3.124,0,0,1,2.221.461c-.463.1-.709.227-.738.368-.015.071.025.139.124.2a.8.8,0,0,0,.358-.131.641.641,0,0,0,.256-.437,13.814,13.814,0,0,1,2.923-.532,13.383,13.383,0,0,1,1.66-.02,6.389,6.389,0,0,1,4.084,1.054,5.745,5.745,0,0,1,2.653-.825l.336-.025a3.459,3.459,0,0,1,2.659.741,2.882,2.882,0,0,1,1.791-.656l.336-.025.987.031a7.484,7.484,0,0,0,1.366-.206l.124.2.168-.012a.514.514,0,0,1,.315.081l.394.493a7.493,7.493,0,0,1,1.366-.207,11.739,11.739,0,0,1,2.141.049l1.615.193a6.268,6.268,0,0,0,1.637.086l-1.863-.593L282.766,5.3a9.545,9.545,0,0,0-2.287-.143,5.781,5.781,0,0,0-1.558.326l-.124-.2a256.638,256.638,0,0,0-34.242-.053c.1.063.139.13.125.2-.045.213-.307.406-.783.581l.044-.213a1.021,1.021,0,0,0-.058-.518l-3.3-.068-3.105-.186q-1.326,0-2.5.083a26.371,26.371,0,0,0-4.626.763l-.227-.506-9.58.716-9.054.573q-5.863.335-10.567.685-4.537.339-7.921.7a6.048,6.048,0,0,1-2.463.706,6.371,6.371,0,0,1-2.244-.355A68.361,68.361,0,0,1,180.44,9.6l-3.719.382-3.53.263a112.02,112.02,0,0,0-15.874,2.336,1.9,1.9,0,0,0-.628-.162l-.84.064a2.345,2.345,0,0,1-1.739-.393l-.615.568-.592.461a2.123,2.123,0,0,1-1.287.619l.935,1.08,1.871-.244,2.038-.257,1.008-.076a11.95,11.95,0,0,1,2.477.025l-.906.38-.088.424.1.306.738-.369.381-.237c.124-.078.2-.154.212-.225.03-.141-.117-.234-.439-.28a.571.571,0,0,0,.593-.462l.234-.331a1.6,1.6,0,0,1,.739-.369l.641.892a40.473,40.473,0,0,1,8.222-1.346q2.52-.188,5.5-.2a20.861,20.861,0,0,1-2.419.5l-2.375.281a10.848,10.848,0,0,0-3.975.819,15.892,15.892,0,0,0,1.994-.044l2.375-.282.84-.063q2.182-.163,2.748.317-3.87.289-11.517,1.279l-5.782.746q-3.068.439-5.254.6a99.912,99.912,0,0,1-9.775,16.817l-2.81,3.971L137.31,41.23q-3.467,4.753-5.406,7.717a3.632,3.632,0,0,0-1.118.605l-.68.887a2.772,2.772,0,0,1-1.923,1.292.263.263,0,0,0,.1.306l.292.187a.268.268,0,0,1,.1.306,1.594,1.594,0,0,1-.278.543q-2.341,3.309-5.318,7.292l-2.509,3.321L118.087,66.9a140.615,140.615,0,0,0-8.537,12.441,3.378,3.378,0,0,0-.906.381l-.213.225-.066.318a1.534,1.534,0,0,1-1.118.606l-.336.026a1.663,1.663,0,0,1,.116,1.036,2.618,2.618,0,0,1-.556,1.086,3.748,3.748,0,0,1-2.618,1.449.535.535,0,0,0,.08.411l.27.294q.438.281.373.6l-.045.213q-7.416,9.434-8.661,12.242a12.609,12.609,0,0,0-2.421,2.9l-.672.05a1.893,1.893,0,0,1,.014.731l-.3.649-.424.449-.257.437q-.791,1.417-1.625,3.047l-.168.012-.688,1.722q-.536.981-.834,1.63a6.116,6.116,0,0,1-3.151,2.429l-.11.53a.8.8,0,0,0,.482.068c.322.047.468.14.438.281-.014.071-.087.146-.212.224a4.663,4.663,0,0,0-1.63,1.48l-.512.874-.535.98a5.444,5.444,0,0,1-2.991,3.252,2.645,2.645,0,0,1,.174,1.553q-.418,2.017-4.248,2.929a1.377,1.377,0,0,0,.351.705,1.2,1.2,0,0,0,.751.362,38.05,38.05,0,0,0-2.451,3.839l-1.112,2.172-1.281,2.185a63.5,63.5,0,0,1-6.285,9.557q-2.5,4.889-6.564,12.5l-6.542,12.4q-7.7,14.78-12.441,25.686-.588,2.028-1.495,4.812L37.6,203.7q-2.016,6.522-2.954,10.249l-.307,1.486q-2.179,10.5,1.114,15.376l-.879,1.841a4.05,4.05,0,0,1-1.03.182,11.888,11.888,0,0,1-1.491.007l-1.491.006-1.492.007a2.051,2.051,0,0,0-.6-1.1l-.563-.479-.584-.375c-.876-.56-1.262-1.091-1.16-1.585a.91.91,0,0,1,.256-.437q-6.559-5.883-3.323-21.479.661-3.183,1.766-6.922,1.109.23.905,2.021a.5.5,0,0,0,.314.081.794.794,0,0,0,.593-.462l.234-.33.19-.119a.78.78,0,0,1,.358-.131l.336-.025-.066.319a1.564,1.564,0,0,1-.893,1.111l-.884.275-1.054.288a13.025,13.025,0,0,1-.1,3.663l-.946,4.563q-1.089,6.035-.439,8.494l.682-3.289.515-3.277a44.325,44.325,0,0,1,1.912-6.829.634.634,0,0,0-.614.568l-.11.531-.425.449.066-.319-.1-.305.009-.836c.147-.708.5-1.082,1.059-1.123l.169-.013a.929.929,0,0,0,.234-.331c.044-.212-.088-.377-.394-.492l-.607-.268c-.2-.125-.277-.259-.248-.4a1.415,1.415,0,0,1,.929-.487l.168-.012a.907.907,0,0,1,.775.255,2.729,2.729,0,0,1,.052-1.047l.41-1.181c.19-.92-.109-1.35-.891-1.292a1.991,1.991,0,0,0,1.331-.83,2.644,2.644,0,0,0,.367-.968,1.691,1.691,0,0,1-.037-.624.824.824,0,0,1,.637-.673,1.2,1.2,0,0,0-.037-.625l-.562-.48a.767.767,0,0,1-.183-.717,1.765,1.765,0,0,1,.3-.649l.19-.119a.508.508,0,0,1,.315.081l.291.187.169-.012.088-.424a2.281,2.281,0,0,0,.446-.556c.014-.071-.035-.1-.146-.094l-.549.25-.526.144a3.979,3.979,0,0,0,.367-.967l.242-1.167a2.263,2.263,0,0,1,.344-.861c.446-.034.65.056.606.268a.945.945,0,0,1-.233.331l-.469.661-.154.743a5.031,5.031,0,0,0,1.594-2.1,5.656,5.656,0,0,0,.411-1.18,4.862,4.862,0,0,0,.095-1.261l-.168.012a.4.4,0,0,0-.4.344l-.256.437-.089.424a2.508,2.508,0,0,1-.152-1.661,7.292,7.292,0,0,1,.454-1.391q.817.042.62,1l-.065.319a3.061,3.061,0,0,0,1.382-1.879l.41-1.18a2.823,2.823,0,0,1,.7-.994c.03-.142-.013-.207-.124-.2a2.881,2.881,0,0,0-.716.263,1.612,1.612,0,0,1-.717.262c-.113.009-.2-.125-.248-.4a22.138,22.138,0,0,0,5.64-8.047l.944-2.16.966-2.266a25.506,25.506,0,0,1,2.248-4.451l.986.031a1.778,1.778,0,0,1,.628.162.944.944,0,0,0,.235-.331q.131-.637-1.863-.593a2.983,2.983,0,0,0,1.953-2.235l.131-.636.3-.649a2.918,2.918,0,0,1,.724-1.1c.03-.142-.061-.24-.27-.293l-.8-.149c-.435-.039-.628-.162-.584-.375l.044-.212a1.124,1.124,0,0,0,.943.243l.694-.156.84-.063q.759-2.877,4.538-9.114l1.514-2.516,1.683-2.528a48.764,48.764,0,0,0,2.759-5.324,2.557,2.557,0,0,1,.693-.157l1.01-.075a1.617,1.617,0,0,0,1.1-.5c-.04-.344-.17-.509-.394-.492a.8.8,0,0,0-.358.131l-.212.225-.358.131-.168.013a1.96,1.96,0,0,1-.65-.056q4.884-8.408,9.533-15.65,1.009-.075.943.243l-.044.213-.447.555-.468.662.168-.012a1.944,1.944,0,0,0,1.163-.818l.323-.755a.752.752,0,0,1,.57-.356c-.085-.132-.292-.187-.628-.161l-.169.012-.525.144a3.871,3.871,0,0,1-.819-.043l1.17-1.654,1.193-1.761a27.11,27.11,0,0,1,2.194-3.4,1.587,1.587,0,0,1,.717-.262l.628.161a1.964,1.964,0,0,0,.65.056.807.807,0,0,0,.549-.251l.044-.212c.045-.213-.1-.306-.438-.281l-.5.037-.526.144-.357.131c-.337.025-.483-.069-.439-.281l3.131-4.726,3.11-4.619a.758.758,0,0,0-.753-.362,2.586,2.586,0,0,0-.694.156l-.884.274a2.2,2.2,0,0,1-.965-.136l-1.3,2.291-1.449,2.2q-1.772,2.953-2.795,4.7-2.512,3.321-5.193,7.49l-2.261,3.721-2.071,3.6a104.864,104.864,0,0,1-8.434,12.747q-.6,2.865-4.794,9.551l-1.514,2.516-1.537,2.622a25.676,25.676,0,0,0-2.21,5.074,105.9,105.9,0,0,0-6.038,12.359l-2.9,6.8q-1.822,4-3.257,6.928L28.146,195a5.824,5.824,0,0,1-2.977,3.983q11.5-34.7,48.1-90.713l-.168.013.19-.119q.487-.765,1-1.641l.089-.424.189-.119.044-.212,1.3-1.455a4.806,4.806,0,0,0,1.171-1.654l-.168.012a7.129,7.129,0,0,0,.966-2.266l.336-.025A13.8,13.8,0,0,1,80.2,97.2a10.952,10.952,0,0,1,3.071-2.841,1.619,1.619,0,0,0,.279-.543,1.2,1.2,0,0,0-.037-.624l-.058-.518.132-.637L86.8,87.728l3.234-4.42,6.7-9.17q7.68-10.7,12.517-18.067a5.041,5.041,0,0,0,1.286-.619l.4-.343.548-.25a65.171,65.171,0,0,1,4.947-7.891l2.932-3.77,2.765-3.758q7.462-9.646,10.176-14.758l2.209-2.672a26.949,26.949,0,0,1,2.4-2.791l-.335.026-.854-.667c-.367.168-.556.286-.571.356l-.109.531-.527.144-.168.012a4.585,4.585,0,0,0-.987-.031l-1.053.287a4.671,4.671,0,0,1-.862.169,1.766,1.766,0,0,1-1.11-.23q-12.245,2.378-30.622,5.629l-14.93,2.578L69.829,30.706a269.826,269.826,0,0,1-31.354,7.565q-3.222,1.181-7.243,2.212l-3.64.794-3.471.782A101.338,101.338,0,0,0,9.634,46.484,10.475,10.475,0,0,1,8.1,46.7l-1.155-.018-.5.038a6.03,6.03,0,0,0-2.462.706,4.084,4.084,0,0,1-2.666-2.308l-.35-.705L.8,43.592Q.349,42.583,0,41.876a8.853,8.853,0,0,1,2.977-3.982,8.481,8.481,0,0,1,4.51-1.8,13.366,13.366,0,0,1,1.659-.019,103.243,103.243,0,0,1,18.148-5.325l4.5-.963,4.524-1.069q5.218-1.226,9.137-2.563a9.106,9.106,0,0,0,1.972.062l1.915-.457a14.589,14.589,0,0,1,1.7-.231,7.125,7.125,0,0,1,2.287.143A6.186,6.186,0,0,0,55,24.815l.593-.461.424-.449.1.305.1.305q20.148-3.8,33.208-6.136,19.239-3.421,34.3-5.8l.84-.063-.021.106.189-.119,2.185-.163q3.531-.263,7.775-.79l1.2-.193.168-.013,3.574-.476q2.039-.254,3.427-.569l2.017-.151a28.431,28.431,0,0,0,2.9-.425l3.406-.463q3.068-.437,5.466-.826a35.748,35.748,0,0,0,4.166-.938,46.848,46.848,0,0,0,4.83-.152q4.2-.314,10.34-1.19l3.91-.5,3.888-.4q1.7-.229,3.215-.345a36.793,36.793,0,0,1,4.158-.1A7.692,7.692,0,0,1,193.97,4.2l1.366-.206,1.389-.312a41.781,41.781,0,0,0,5.313-.084l5.21-.389q1.871-.242,3.552-.37a36.537,36.537,0,0,1,6.3-.052,26.7,26.7,0,0,1,5.656-.945q1.174-.087,2.332-.07l3.989-.089,3.99-.089q1.535-.217,3.552-.37,2.857-.213,7.015-.315l5.334-.191,5.211-.388L254.8.49l.651.056a3.721,3.721,0,0,1,1.256.324A8.054,8.054,0,0,1,258.546,0q1.381.524,6.211.372l2-.044,1.8.074a11.543,11.543,0,0,1,3.376.478,3.2,3.2,0,0,1,1.432-.524l.5-.038L274.4.175q4.763.169,11.436.713l5.349.541,5.538.422a1.444,1.444,0,0,1,.387,1.329,2.017,2.017,0,0,1-.323.755l-.533.98a1.194,1.194,0,0,0,.284,1.024M31.507,214.7l.388-1.074.066-.319c.132-.636-.006-1.044-.407-1.223a2.437,2.437,0,0,1-.032.943l-.388,1.073-.109.53c-.117.566-.023.906.283,1.024Zm2.646-11.167a1.242,1.242,0,0,0,.593-.462.95.95,0,0,0,.256-.436.264.264,0,0,0-.1-.306c.059-.284.039-.457-.058-.518a.5.5,0,0,0-.315-.081.638.638,0,0,0-.38.237l.168-.012c.111-.009.154.057.124.2a1.623,1.623,0,0,1-.278.544l-.212.224-.066.319c-.044.212.045.31.27.293m2.687-6.572.132-.637a.322.322,0,0,0-.292-.188l-.168.013a1.089,1.089,0,0,0-.278.543l.168-.012.146.094c-.014.069.081.132.292.187m1.875-5.051a7.81,7.81,0,0,1,.475-1.5l.937-1.324a5.583,5.583,0,0,0,1.047-1.854,83841.155,83841.155,0,0,0-.161-.824,1.637,1.637,0,0,0-.46-.175l-.643,1.511-.812,1.523a13.6,13.6,0,0,0-.543,1.817l-.154.743a2.366,2.366,0,0,0-.512.874c-.044.213-.011.314.1.306s.245-.123.4-.344a2.017,2.017,0,0,0,.323-.755m-.435-5.086a1.086,1.086,0,0,1,.278-.543l.446-.556.022-.106c.015-.071-.091-.1-.315-.081l-.5.038-.132.636a.528.528,0,0,0,.2.611m.96-3.832a.808.808,0,0,0,.5.8l.11-.53.277-.544c.074-.355,0-.521-.226-.5l-.167.012a1.112,1.112,0,0,0-.491.768m2.584-6.879-.84.063-.11.53.672-.05a1.621,1.621,0,0,1,.278-.543m-.949,9.368.168-.012c.672-.05,1.214-.544,1.631-1.48l.088-.424c.162-.779.032-1.222-.387-1.329a8,8,0,0,1-.475,1.5l-.491.769Zm.48-6.3a.712.712,0,0,0,.328.811l.11-.53.447-.556.089-.425c.044-.212.007-.313-.1-.3a1.463,1.463,0,0,0-.869,1.005m1.06-9.9-.256.438c-.059.281.08.411.416.386l.168-.013a2.131,2.131,0,0,0,.68-.886c.044-.212-.208-.334-.753-.362Zm.565,6.852-.066.318.914-1.216.768-1.312a4.157,4.157,0,0,0,.6-1.3.893.893,0,0,0-.16-.824,14.587,14.587,0,0,0-2.057,4.332m.881,4.531.658-.781a1.615,1.615,0,0,0,.278-.544.544.544,0,0,0-.349-.7.959.959,0,0,0,.256-.438c.014-.071-.029-.138-.124-.2l.022-.107a.786.786,0,0,0-.359.132.487.487,0,0,0-.233.33c-.03.141.116.235.439.281q-.281.541-.557,1.085l-.257.438-.424.449a.917.917,0,0,0-.257.437c-.044.213.1.341.416.387a1.743,1.743,0,0,1,.491-.768m3.183-5.774a.923.923,0,0,0,.234-.331c.059-.284-.138-.409-.583-.375l-.132.637c-.045.212-.011.314.1.305.031-.142.155-.22.381-.236m.732-1.935.491-.769q.724-1.1,1.214-1.866a6.727,6.727,0,0,0,.711-1.829,1.918,1.918,0,0,0-.2-1.447q-.258.434-.835,1.629l-1.047,1.855a11.731,11.731,0,0,0-.8,2.253,1.649,1.649,0,0,0-.007.836Zm1.022-8.12a.78.78,0,0,0-.358.131l.5-.038c.223-.017.344-.061.358-.131Zm-.287-7.4.673-.05a.806.806,0,0,0,.548-.25l-.358.131-.336.025c-.336.026-.512.074-.526.144m1.85,8.637.336-.026.124.2.167-.012.213-.224c.031-.143-.068-.2-.292-.188a.8.8,0,0,0-.548.251m1.675-1.691.614-.569a.5.5,0,0,0,.234-.33q.044-.216-.775-.256l-.109.53-.447.556-.065.319c-.045.212-.018.349.079.412a1.262,1.262,0,0,1,.468-.662m3.227-5.987,1.814-3.165,1.793-3.059a30.207,30.207,0,0,0,2.488-5.617l-2.026,3.389-2.049,3.5a21.88,21.88,0,0,0-2.789,6.267l-.11.53a.89.89,0,0,0,.446-.555l.132-.636a1.717,1.717,0,0,1,.3-.649m.061-4.287.089-.424c.058-.281-.138-.408-.584-.374l-.337.025-.088.425c-.089.424.146.615.709.573Zm3.8-6.342a2.057,2.057,0,0,0-.651-.056l-.548.249-.19.119-.022.106c-.015.072.147.094.483.069l.19-.119.168-.012a.76.76,0,0,0,.57-.356m1.74-10.785a.5.5,0,0,1-.234.331l-.4.343c-.127.079-.2.155-.212.225-.03.143.059.24.27.293.014-.07.147-.184.4-.343l.425-.449c.124-.079.2-.154.212-.225q.044-.212-.438-.281Zm.1,2.708-.11.53,1.008-.075a.924.924,0,0,1,.257-.437ZM64.248,143a.712.712,0,0,0-.329-.812.558.558,0,0,1,.08.412,1.613,1.613,0,0,1-.278.543l-.659.781a1.767,1.767,0,0,0-.49.768.263.263,0,0,0,.1.306,4.625,4.625,0,0,0,1.574-2m-.52-7.065a2.768,2.768,0,0,0-.783.581,4.785,4.785,0,0,0,.694-.157,4.212,4.212,0,0,0,.782-.581l.022-.106c.014-.07-.146-.094-.483-.069Zm.4,6.028.672-.05c.223-.017.35-.094.38-.237l-.672.05c-.226.018-.351.1-.38.237m.322-.754a5.424,5.424,0,0,0,2.692-2.6A9.482,9.482,0,0,0,68,136.87a7.014,7.014,0,0,0,.476-1.5,14.178,14.178,0,0,0-1.917,2.86l-.958,1.429Zm.956.973a.493.493,0,0,0,.316.08l.167-.012a.761.761,0,0,0,.571-.356c.124-.078.2-.153.211-.224s-.036-.1-.146-.094a.457.457,0,0,0-.46-.175.758.758,0,0,1-.57.356ZM68.9,123.745l.146.094.147.094.168-.012.212-.225.022-.106-.147-.094-.357.131Zm1.461.936a4.64,4.64,0,0,0-.411,1.18l-.088.424a3.893,3.893,0,0,0,.7-.993c.632-.4.979-.735,1.037-1.017a.452.452,0,0,0-.225-.506,2.61,2.61,0,0,0-1.016.912m-.091,2.827.46.174.607.268a.49.49,0,0,0,.314.081.809.809,0,0,0,.549-.25.3.3,0,0,1-.248-.4l.234-.33.234-.331.066-.319c.058-.282-.025-.416-.248-.4l-.168.012a2.4,2.4,0,0,1-.827.793l-.38.237Zm.488-7.14c-.044.213.045.311.27.293l.337-.025.065-.319c.059-.281-.079-.412-.415-.387a1.7,1.7,0,0,0-.257.438m2.5-95.037c-.044.214.045.311.271.294l.5-.038a.8.8,0,0,0,.548-.25c.124-.078.2-.154.213-.225s-.03-.136-.124-.2l-.38.237c-.227.017-.33-.01-.316-.081-.24.089-.477.176-.716.262m1.1,100.827.424-.45a1.249,1.249,0,0,0,.447-.555.3.3,0,0,0-.248-.4,1.629,1.629,0,0,0-.424.449l-.636.675a1.718,1.718,0,0,0-.257.437c-.058.283.073.449.4.493a1.735,1.735,0,0,1,.3-.649m.023-11.284a18.964,18.964,0,0,0,2.67-2.5,4.873,4.873,0,0,0,1.047-1.854,1.431,1.431,0,0,0-.014-.731l-.937,1.324-.915,1.217a23.805,23.805,0,0,0-1.85,2.541m4.669-9.75a2.576,2.576,0,0,0,1.521-.949.8.8,0,0,1-.483-.069.538.538,0,0,1-.079-.411l.168-.012a2.675,2.675,0,0,0,1.688-.963c-.113.009-.153-.056-.123-.2l.066-.318a2.007,2.007,0,0,0-.651-.056,5.477,5.477,0,0,0-1.031.182l-.693.156a3.874,3.874,0,0,1-.819-.043l-.278.543-.447.556-.065.319a.3.3,0,0,0,.247.4l.213-.225.066-.318a.8.8,0,0,1,.548-.25l-.6,1.3-1.492.007-.021.106a.262.262,0,0,0,.1.306,1.575,1.575,0,0,0,.46.175,1.672,1.672,0,0,0,.694-.156.5.5,0,0,0,.234-.331l.022-.107a.75.75,0,0,0,.751.362m-1.168,16.8a1.6,1.6,0,0,0-.277.543,1.539,1.539,0,0,0,.46.175l.5-.038c.124-.078.2-.154.212-.224l.044-.213-.168.013-.146-.094a1.869,1.869,0,0,0-.629-.162m2.445-14.18a.3.3,0,0,0-.247-.4,1.334,1.334,0,0,0-.738.368l.314.08.147.094a2.213,2.213,0,0,0,.525-.144m-.948,6.965q-.089.425.518.693l.257-.437.278-.544q.087-.424-.416-.386l-.168.012a1.265,1.265,0,0,0-.468.662m8.847-91.332.212-.225a.92.92,0,0,0,.234-.331c.029-.141-.062-.238-.271-.293l-1.893.35-2.061.363q-2.566.4-4.268.632a3.818,3.818,0,0,0,.489,1.636l.168-.013a7.865,7.865,0,0,0,1.959-.668.9.9,0,0,0-.775-.256l-.84.063a2.385,2.385,0,0,1,1.074-.394,2.223,2.223,0,0,1,.964.137l.775.255a3.586,3.586,0,0,0,.65.056l.973-.7.76-.475a1.169,1.169,0,0,1,.526-.144,2.3,2.3,0,0,1,1.4.417.534.534,0,0,1-.079-.411M82.885,22c-.24.087-.478.176-.716.261l-.84.064c-.463.105-.709.228-.738.368-.015.071.024.139.123.2l1.156.019a3.809,3.809,0,0,0,1.41-.418Zm23.239,46.733a2.069,2.069,0,0,1,.008-.836,4.258,4.258,0,0,1,.622-1.4l.869-1.005,1.038-1.017a5.308,5.308,0,0,0,1.47-2.3,1.19,1.19,0,0,0-.407-1.223A10.912,10.912,0,0,1,107.21,62.7c.095.063.193.126.291.187l.483.068.5-.037a.947.947,0,0,1,.271.293,3.169,3.169,0,0,0-1.565,1.162l-.8.686-.491.769a3.287,3.287,0,0,1-2.091,1.305,2.215,2.215,0,0,1-.964-.137.675.675,0,0,1,.2.611l-.3.649a.925.925,0,0,0-.257.437c-.045.213.08.412.372.6a1.229,1.229,0,0,0-.593.462l-.277.543a2.807,2.807,0,0,1-1.689.962l.291.187.5-.037c.432.038.635.127.607.267l-.022.107a10.98,10.98,0,0,1-.87,1l-1.229,1.136a3.168,3.168,0,0,0-.556,1.086.879.879,0,0,0,.16.823l-.672.05-.526.144-.168.012a.984.984,0,0,1-.628-.161.96.96,0,0,0,.08.411l.225.506-.021.106q-.089.425-1.1.5l-.336.025a1.686,1.686,0,0,1-.008.836,7.873,7.873,0,0,1-1.346,2.5l-1.551,1.892a5.678,5.678,0,0,0-.879,1.841,2.263,2.263,0,0,1-.526.144l-.168.012-.146-.094a2.032,2.032,0,0,0-.651-.056l-.044.212a3.787,3.787,0,0,1-.344.861l-.578,1.192a2.614,2.614,0,0,0-.323.755,1.054,1.054,0,0,0,.409,1.223,5.159,5.159,0,0,0-1.389.313l-.549.25-.717.263-.11.53-.468.662a1.6,1.6,0,0,0-.278.543c-.03.142.059.241.271.293.029-.141.154-.221.38-.237a1.672,1.672,0,0,1,.482.069c.53.1.783.221.753.362a1.417,1.417,0,0,0-.929.487l-.4.344a.809.809,0,0,1-.358.131l-.168.012a.492.492,0,0,1-.315-.08l.089-.425a.562.562,0,0,0-.4-.492l-1.4,1.985-1.214,1.866a18.809,18.809,0,0,1-2.342,3.309,2.289,2.289,0,0,1,.526-.144q.67-.05.563.48l-.11.53a.3.3,0,0,0,.247.4c.044-.213.122-.323.234-.331a.511.511,0,0,1,.314.081l.46.175a1.968,1.968,0,0,0,.651.056,1.772,1.772,0,0,0,.3-.649,1.2,1.2,0,0,0-.036-.624l-.227-.506-.058-.518,1.492-.007a20.972,20.972,0,0,1,2.092-3.708l1.383-1.879,1.36-1.773q3.166-4.1,3.52-5.8l.044-.213,1.74-2.01a30.23,30.23,0,0,0,2.188-2.566,15.075,15.075,0,0,0,2.927-5.337l.336-.026.4-.342.592-.462a2.9,2.9,0,0,1,1.141-.712.763.763,0,0,1-.182-.717,3.508,3.508,0,0,1,.958-1.43,10.081,10.081,0,0,1,2.435-2.166M83.05,112.974a.854.854,0,0,0,.27.293.824.824,0,0,0,.46.175,1.454,1.454,0,0,0,.57-.356.488.488,0,0,1-.315-.08l-.1-.306a.459.459,0,0,0-.459-.175l-.169.012a.928.928,0,0,0-.256.438m2.486-3.215-1.008.075a.8.8,0,0,0-.548.251c.222-.017.328.011.313.08l.1.306c.066.2.263.329.584.374Zm-.173-87.734c.1.064.241.157.439.281l.168-.012.145.094.717-.262c-.083-.132-.167-.266-.247-.4l-.168.013a.5.5,0,0,1-.315-.081,3.9,3.9,0,0,1-.738.368m.539,86.767c.254-.158.4-.307.425-.45l.045-.212c.044-.212-.153-.337-.584-.374l-.132.636c-.058.283.022.416.247.4m2.249-6.853c.238-.087.366-.167.381-.237l-.336.025a.8.8,0,0,0-.549.25Zm.9-80.919-.694.156c-.35.1-.542.214-.57.356l-.022.106,1.345-.1c.351-.094.541-.214.57-.356a.561.561,0,0,0-.079-.411.811.811,0,0,1-.549.25m.5,82.172-.672.05a.942.942,0,0,0-.257.437,1.975,1.975,0,0,0,.652.056Zm-.584-9.148a1.965,1.965,0,0,0,.65.056l.323-.755a1.971,1.971,0,0,1-.651-.056Zm14.365-73.255.738-.368c.5-.316.774-.545.8-.687.015-.07-.029-.137-.123-.2l-3.765.595-3.953.713q-4.647.871-8,1.85a1.387,1.387,0,0,1,.877.561,5.046,5.046,0,0,1,2.844-.943,2.612,2.612,0,0,1,2.448.966l.38-.237.716-.262a.889.889,0,0,0,.446-.556l.022-.106a2.085,2.085,0,0,1-1.1.5,1.267,1.267,0,0,1-.8-.149l.358-.131.213-.224c.013-.07.083-.146.212-.225a1.778,1.778,0,0,0,.819.043l.672-.05.885-.275a2.616,2.616,0,0,1,.818.043l-.928.487a.5.5,0,0,0-.235.331l-.044.213a6.3,6.3,0,0,1,2.441-.6l1.366-.206,1.22-.3a1.861,1.861,0,0,0-.628-.162l-.65-.056c-.336.026-.491-.032-.46-.174a.9.9,0,0,1,.234-.332,1.177,1.177,0,0,1,.526-.143c.336-.025.676.195,1.022.655Zm-7.76-.883-1.7.233a4.348,4.348,0,0,0-2.55,1.129,4.121,4.121,0,0,1,1.389-.312l1.2-.194a7.2,7.2,0,0,0,2.989-.85l.124.2a.8.8,0,0,1,.358-.131c.109-.008.16.024.146.094l.907-.382a.834.834,0,0,0-.483-.068,4.472,4.472,0,0,0-1.053.288Zm-3.854,69.65.314.08.461.176.154-.744c-.069-.2-.271-.292-.607-.267Zm2.969-3.146.278-.544.446-.555a2.419,2.419,0,0,0,.513-.874c.058-.281-.073-.446-.394-.492l-.512.874-.512.874a5.444,5.444,0,0,0-.41,1.18L94,87.294a9.981,9.981,0,0,0,.68-.887m.654,6.428a10.955,10.955,0,0,0,.979-1.536,1.676,1.676,0,0,0-.482-.069,1.165,1.165,0,0,0-.526.145,2.086,2.086,0,0,0-.615.568l-.132.636a1.91,1.91,0,0,0,.776.256m2.2-6.642q.087-.422-.4-.493l-.322.755c-.044.213-.011.314.1.306.154-.221.288-.334.4-.343l.147.094Zm0,4.805.066-.319q.131-.637-.35-.7a1.112,1.112,0,0,1-.279.543.323.323,0,0,1,.293.187Zm12.143-73.716a11.821,11.821,0,0,1-2.8.731L104,18.335a12.254,12.254,0,0,0-5.095,1.425,14.988,14.988,0,0,1,2.733-.413l1.534-.219,1.7-.232q3.572-.474,4.8-1.612m-6.567,63.585-.336.026c-.367.168-.571.356-.615.568l-.044.212a.262.262,0,0,0,.1.306l.425-.45c.155-.221.312-.441.468-.662m13.3-62.52a27.436,27.436,0,0,0,5.963-.027l3.361-.251q2.709-.3,6.643-.914l3.239-.45,3.237-.451.3-.649.336-.025c.139-.149.283-.3.426-.45l.088-.424a.324.324,0,0,0-.292-.187c-.172.292-.315.442-.425.45a2.488,2.488,0,0,1,.3-.649q-3.282.663-8.557,1.37-2.883.32-4.728.458a17.217,17.217,0,0,1-2.331.07,22.088,22.088,0,0,1-3.348.981l-2.038.257-2.039.257a29.33,29.33,0,0,0-7.425,1.495,2.093,2.093,0,0,0-1.279-.219l-.5.038-1.03.182-1.053.288a.471.471,0,0,0,.562.481l.5-.038.483.068a4.736,4.736,0,0,1-1.623.643l-.694.157a3.42,3.42,0,0,0-.906.38,28.466,28.466,0,0,0,3.654-.064q1.344-.1,2.878-.319a13.148,13.148,0,0,0,6.3-2.456M105.861,76.38l.337-.025a2.032,2.032,0,0,0,1.353-.937,3.2,3.2,0,0,0,.555-1.086.706.706,0,0,0-.057-.518,3.916,3.916,0,0,1-.914,1.218l-.593.462a2.818,2.818,0,0,0-.681.886m6.715-17.215.344-.861.323-.755a5.439,5.439,0,0,1,.79-1.417,3.231,3.231,0,0,1-.862.169l-.673.05a.269.269,0,0,1,.1.305.945.945,0,0,1-.257.438l-.3.649-.11.53a1.658,1.658,0,0,0-.008.836l-.336.026c-.014.071-.088.147-.212.224l-.358.132a.994.994,0,0,0-.636.674,4.585,4.585,0,0,0,.987.031,2.306,2.306,0,0,0,1.265-.513,1.5,1.5,0,0,1-.709-.574,2.052,2.052,0,0,1,.651.056M140.92,12.651q-1.83.034-4.011.2a107.067,107.067,0,0,0-10.721,1.428l-7.762,1.519-7.761,1.52q1.825-.032,3.843-.183a108.848,108.848,0,0,0,18.5-3.053,9.988,9.988,0,0,1,1.7-.232l1.828-.032c1.79-.134,3.032-.261,3.719-.382ZM113.749,55.108l.314.081.315.08.168-.012.212-.224.022-.107-.315-.081a1.582,1.582,0,0,0-.716.263m5.579-6.162.147.094-.022.107.169-.012a.8.8,0,0,0,.357-.132c.029-.14-.069-.2-.292-.186s-.343.062-.358.131m9.129-30.453-.526.144-.548.25c-.241.088-.374.2-.4.343l-.021.107q1.364-.205,1.5-.844M252.384,3.386a9.254,9.254,0,0,0,1.367-.206.907.907,0,0,0-.775-.255l-.336.026-.862.169-.84.063-.124-.2-.505.038a6.22,6.22,0,0,1-1.636-.086l-.965-.138L246.7,2.87q.379-.236.4-.343c-.1-.061-.2-.124-.292-.187-.225.017-.344.062-.358.131l-.022.106c-.014.071.074.169.271.293q-18.381.852-34.681,2.068-30.254,2.259-53.969,5.7a1.283,1.283,0,0,0-.8-.149l-.862.169-.336.026c-.672.049-1.092-.058-1.256-.324q-1.546,1.055-5.745,1.369l1.046.549q2.372-.279,5.8-.851l6.015-1.076a25.352,25.352,0,0,1,2.645.011l1.3.111,1.512-.113q2.688-.2,7.821-1l3.93-.607,4.1-.619,8.236-.615q4.893-.47,8.659-1.065c.8-.129,1.7-.232,2.711-.308q2.184-.163,5.167-.176l3.989-.09,3.991-.089,2.206-.269,2.419-.494q3.07-.437,4.75-.564,1.657-.017,4.809-.045l2.309.036,2.645.011,4.011-.2,3.844-.183,1.849-.139a52.857,52.857,0,0,0,6.117-.769,2.447,2.447,0,0,0,1.446.2m-100.13,9.673a7.718,7.718,0,0,0-1.615-.193l.709.574Zm4.412,1.864a1.448,1.448,0,0,0-.57.356.964.964,0,0,1,.271.294,3.078,3.078,0,0,1,.548-.251c-.083-.132-.168-.265-.248-.4M189.314,5.9l-.672.05-.863.169c-.449.034-.693.156-.738.368l-.021.107.482.068.841-.063q.86-.167.972-.7m5.1,4.11c-.029.143.124.2.461.175l.84-.063a1.586,1.586,0,0,0,.738-.369l.022-.106c.014-.07-.03-.137-.125-.2a1.471,1.471,0,0,1-.548.251l-.5.038a1.908,1.908,0,0,0-.885.274m.913,1.186a1.905,1.905,0,0,1,.884-.275l.337-.026.314.081a2.537,2.537,0,0,0,.694-.156.7.7,0,0,0-.438-.281,2.642,2.642,0,0,0-.819-.044c-.24.089-.479.177-.717.263a.933.933,0,0,0-.256.438m5.328-1.757.358-.131.212-.225a1.059,1.059,0,0,0-.716.263l-.4.342-.045.213a.794.794,0,0,0,.358-.131.89.89,0,0,1,.234-.332m2.908,1.142.336-.026.526-.144a.4.4,0,0,0,.4-.343l-.357.131-.336.026c-.351.1-.541.214-.57.356M215.092,8.47l.19-.119.357-.131-.372-.6a3.054,3.054,0,0,1-.549.25Zm2.615.954.022-.106c.014-.071-.036-.1-.147-.094l-.189.118a.505.505,0,0,0-.315-.08l-.525.143a.458.458,0,0,0-.461-.174c-.128.079-.2.154-.212.224l-.044.213L216,9.655a.8.8,0,0,0,.549-.25.488.488,0,0,0,.314.081,2.275,2.275,0,0,0,.526-.144.491.491,0,0,0,.314.081M216,8.089l.394.493,1.265-.513-.394-.492Zm8.285.739c-.03.142.066.2.292.187a2.8,2.8,0,0,0,1.513-.113c.125-.079.2-.154.212-.225s-.035-.1-.146-.094a9.721,9.721,0,0,0-1.871.244m11.8-1.822c.178.2.325.289.438.281l.168-.013-.147-.093-.146-.094a.511.511,0,0,0-.314-.082m49.954-3.1a13.8,13.8,0,0,0,3.522.572,8.162,8.162,0,0,0,1.323.006q1.173-.087,1.432-.525-1.764-.285-4.53-.5l-4.91-.26a89.849,89.849,0,0,1-9.688-1.156,3.439,3.439,0,0,0-1.836.867q-2.158-.778-7.029-.415l-4.034.3a17.322,17.322,0,0,1-3.631-.041,1.878,1.878,0,0,1-.907.381l-.336.025-.483-.068-.168.012c-.226.017-.343.062-.358.131a.541.541,0,0,0,.08.412l3.653-.064,3.822-.077a41.573,41.573,0,0,1,7.22.3l1.513-.112a55.641,55.641,0,0,1,6.95,0l4.091.216a31.491,31.491,0,0,0,4.3-.007m-6.849,2.7.256-.437c-.606.254-.928.487-.972.7l-.044.212.761-.475m7.855-.378a.261.261,0,0,0,.1.305l.672-.049.548-.251c.125-.078.2-.153.213-.224s-.036-.1-.147-.094a.8.8,0,0,1-.357.131.489.489,0,0,1-.315-.08l-.717.262"/>
    <path id="パス_332" data-name="パス 332" d="M151.147,127.366a9.62,9.62,0,0,1,.866,3.8,8.909,8.909,0,0,1-.192,2.522l-.2.955a19.95,19.95,0,0,1-.952,3l-1.1,2.9a35.16,35.16,0,0,1-3.519,5.8,43.465,43.465,0,0,1-11.4,11.089,53.779,53.779,0,0,1-17.331,7.771l-.357.132a32.4,32.4,0,0,1-10.1,2.426l-.5.037a21.466,21.466,0,0,1-6.212-.372,17.589,17.589,0,0,1-4.938-1.72,11.925,11.925,0,0,1-5.323-5.452,16.229,16.229,0,0,1-.887-6.1l.088-.424a11.889,11.889,0,0,0,1.223-2.7l.674-2.454a9.113,9.113,0,0,1,2.985-4.818l.234-.331a48.18,48.18,0,0,1,8.741-11.831q2.292-2.261,4.579-4.52a5.6,5.6,0,0,1,.446-.556l.19-.118q3.048-2.734,6.054-5.257a1.114,1.114,0,0,0,.278-.543l.323-.757a1.893,1.893,0,0,1,.636-.673,23.864,23.864,0,0,0,4.482-3.26l2.055-1.929,1.038-1.017.614-.568a5.771,5.771,0,0,1,.972-.7,4.61,4.61,0,0,1,2.53-1.024,3.868,3.868,0,0,1,.818.042,1.972,1.972,0,0,1,1.9,1.216l.393.493a1.576,1.576,0,0,1,.408,1.223,3.059,3.059,0,0,0,.524,2.259,10.476,10.476,0,0,0,1.745,1.959.992.992,0,0,1,.182.717l-.066.319a5.947,5.947,0,0,1-1,1.641,62.789,62.789,0,0,1,11.975,1.3l.483.068q4.827,2.253,6.645,5.459m-40.52,31.021a6.433,6.433,0,0,0,1.323.005l.672-.05a5.263,5.263,0,0,0,2.361-1.011.913.913,0,0,1,.761-.475,11.925,11.925,0,0,0,5.014-1.837l1.14-.713,1.118-.605a8.345,8.345,0,0,1,2.193-1c.125-.079.2-.154.213-.225s-.03-.137-.124-.2l-.124-.2.066-.319a15.817,15.817,0,0,0,4.862-3.5l1.909-2.022,2.076-2.036a1.1,1.1,0,0,0,.279-.543,1.387,1.387,0,0,1-.014-.731l.089-.424.746-1.2a4.15,4.15,0,0,0,.6-1.3,1.383,1.383,0,0,0-.116-1.036l.526-.144.38-.236a.8.8,0,0,1,.549-.251,5.074,5.074,0,0,1,.081-1.991l.462-2.228q.309-1.485-.758-1.929l-.146-.094.021-.106q.177-.848-1.665-1.547l-1.358-.629a2.4,2.4,0,0,1-1.169-.749c-.113.008-.183.084-.212.225l-.022.106-.19.118-.986-.03-.819-.043-1.469-.1a7.466,7.466,0,0,0-1.155-.018,10.191,10.191,0,0,0-2.419.494l.124.2a3.09,3.09,0,0,0-1.053.288l.066-.318-.168.011-.315-.081-.167.013q-.341.025-.615.568l.672-.051-.189.119a12.911,12.911,0,0,0-3.2,1.075l-.4.343a5.566,5.566,0,0,0-1.155-.018,12.628,12.628,0,0,1-2.325,1.635.95.95,0,0,0-.256.438,5.7,5.7,0,0,1-1.237,1.973,7.54,7.54,0,0,1-2.514,1.754q-.719.265-.805.687l-.088.424a4.527,4.527,0,0,1-.879,1.841l-.848.9-.871,1.005-.848.9-.848.9a2.816,2.816,0,0,0-.578,1.193,1.874,1.874,0,0,0,.014.731l-.045.212a.491.491,0,0,1-.233.331,4.238,4.238,0,0,0-1.617,2.21l-.556,1.086a2.185,2.185,0,0,1-.557,1.085,1.279,1.279,0,0,0,.8.15l.5-.038-.38.237-.38.237c-.491.245-.761.475-.805.686-.014.071.03.139.125.2a2.246,2.246,0,0,1,.152,1.66l-.322.755-.131.636.123.2.877.561.686.679q.854.668,1.271,1.054a4.025,4.025,0,0,0,2.222.461,5.715,5.715,0,0,0,1.556-.325Zm2.707,4.5q16.538-3.949,26.251-14.078A74.945,74.945,0,0,1,121.4,159.88l-.929.487-1.242.407-1.243.406-1.41.419q-3.18.969-3.246,1.286m24.278-14.14a17.879,17.879,0,0,0,5.4-9.282l.088-.424q-2.395,6.761-9.8,12.954l-1.9,1.187-.95.593-1.14.713q-2.43,1.331-2.493,1.648a33.79,33.79,0,0,0,10.8-7.388M134.3,124.027l-.628-.161-.607-.268a.861.861,0,0,0-.46-.175.8.8,0,0,0-.548.251l.46.174.271.294a3.826,3.826,0,0,0,1.256.323Zm1.439,1.042-.066.319c.1.063.139.129.125.2.208.055.415.109.627.161l.066-.319c-.1-.06-.138-.127-.124-.2-.211-.053-.419-.108-.628-.161m2.717,1.259-.438-.28a.864.864,0,0,0-.46-.176.812.812,0,0,0-.358.131.326.326,0,0,1,.292.187l.416.387a1.99,1.99,0,0,0,.651.056.805.805,0,0,0,.358-.131Zm2.52,2.215a2.532,2.532,0,0,0-1.944-1,7.2,7.2,0,0,1,1.227,1.267,8.851,8.851,0,0,0,2.015,2.251c.124-.078.2-.152.212-.225q.044-.209-1.036-1.384Zm3.73,13.927a5.389,5.389,0,0,0,.388-1.073,1.42,1.42,0,0,0-.014-.731l-.344.862-.7.993-.724,1.1-.7.993a7.042,7.042,0,0,0-1.383,1.879l-.512.874a2.569,2.569,0,0,0-.322.755q2.04-2.66,3.124-3.889l.68-.887Zm-1.271-9.829a4,4,0,0,0-1.228-1.266,11.974,11.974,0,0,1,.51,1.529l.138.93-.031.942.139.93-.009.836a2.158,2.158,0,0,0,.577,1.211,4,4,0,0,1,.038-1.779l.031-.942.007-.836.008-.836Zm1.726-2.74-.416-.387-.226-.5c-.055-.274-.192-.4-.416-.386a.791.791,0,0,0-.357.131l.079.411.27.294.248.4.394.492Zm.98,7.238a1.4,1.4,0,0,0-.634-1.729,2.431,2.431,0,0,1-.03.943l-.176.849q-.243,1.169-.492,3.17a.6.6,0,0,0,.425-.449,16.153,16.153,0,0,0,.907-2.785m-.85-5.472-.381.237c.1.063.138.129.125.2l-.191.118a.7.7,0,0,1,.439.281l.381-.237.065-.319q-.295-.185-.438-.28m.86,2.233-.08-.412c-.054-.274-.137-.408-.247-.4l-.169.012-.066.318.059.518c.051.275.19.4.416.386l.336-.025a.714.714,0,0,1-.248-.4" transform="translate(1.613 -13.019)"/>
    <path id="パス_333" data-name="パス 333" d="M277.029,96.962a4.275,4.275,0,0,1,1.293.948,1.1,1.1,0,0,1,.159.824l-.044.212a5.946,5.946,0,0,0-1.14.712l-.68.887-.045.212-.189.119-.549.25-.57.356a2.294,2.294,0,0,1-.759.475l-.914,1.218-.937,1.324-1.083,1.23-1.081,1.23-2,2.447a11.623,11.623,0,0,0-1.367,2.609l-.022.106a78.481,78.481,0,0,0-6.706,7.605l-2.957,3.877-2.976,3.983q-3.725,5.188-6.122,7.978-1.575,2-3.313,4.008l-1.038,1.017-.87,1.006-1.208,1.03-1.44,1.361-.234.331q-.851.9-1.931,2.128l-1.14.712-.4.343-.76.476-1.879,1.08a30.245,30.245,0,0,1-4.554,2.012,27.219,27.219,0,0,1-6.08,1.394l-1.849.138-.315-.08-.5.037-1.155-.018-.651-.056-.168.012-.482-.069-.651-.056-.315-.081-.774-.255a11.822,11.822,0,0,1-4.413-1.864l-.877-.561-.686-.68a5.365,5.365,0,0,1-1.2-1.373l-.7-1.41-.2-.611-.227-.506-.1-.306a6.658,6.658,0,0,0,.1-2.1l-.115-1.036-.329-.812a6.386,6.386,0,0,1-.02-2.3,3.949,3.949,0,0,1,.644-1.511l.066-.318a34.521,34.521,0,0,1,.561-8.3q-2.477,2.38-5.469,5.632l-5.325,5.725-3.437,3.808-3.349,3.385-3.54,3.5a9.543,9.543,0,0,1-1.82,1.6l-1.755,1.28-1.945,1.4-1.622.643-.907.381-.906.381-1.579.431a16.657,16.657,0,0,1-2.733.413l-1.344.1a15.955,15.955,0,0,1-1.871.244,11.964,11.964,0,0,1-4.216-.417,7.155,7.155,0,0,1-4.009-2.207,9.048,9.048,0,0,1-2.524-6.184,21.393,21.393,0,0,1,.142-3.876l.249-2,.031-.942.22-1.061a4.532,4.532,0,0,0,.879-1.841l.038-1.779.22-1.061a5.411,5.411,0,0,1,1.178-2.49l.213-.225a17.875,17.875,0,0,1,.337-2.428,45.032,45.032,0,0,1,2.081-6.841q1.466-3.87,4.011-8.969l-.079-.412-.226-.506a.473.473,0,0,1-.1-.305c.015-.071.087-.146.212-.225a5.681,5.681,0,0,0,1.413-2.822l.162-1.579-.006-1.567c.073-.353.518-.629,1.33-.83a5.623,5.623,0,0,1,1.031-.182,8.442,8.442,0,0,1,1.8.074l.987.032a11.949,11.949,0,0,1,1.951.167,15.479,15.479,0,0,0,3.31.8l1.907.38,1.76.286a1.95,1.95,0,0,1,1.19.642,2.736,2.736,0,0,1,.4,2.059,4.048,4.048,0,0,1-1.237,1.973l-.11.53.124.2-.088.424c-.015.071.088.1.315.081a9.972,9.972,0,0,0-1.449,2.2l-.922,2.053a18.448,18.448,0,0,1-2.539,4.264.945.945,0,0,0-.256.438,2.183,2.183,0,0,1,.094,1.142l-.088.424a3.485,3.485,0,0,1-1.507,1.679c-.255.16-.4.309-.425.45-.014.071.026.139.124.2a2.5,2.5,0,0,1,.152,1.659,6.721,6.721,0,0,1-.71,1.829l-.512.874-.49.768-.089.424a1.639,1.639,0,0,0,.24,1.235l-.045.213a.494.494,0,0,1-.233.331,3.377,3.377,0,0,0-1.069,1.96l-.22,1.061-.366.967a1.234,1.234,0,0,0,.65.056l.673-.051-.4.344-.358.131q-.739.368-.8.686l-.044.213.146.094.147.093-.132.637-.425.449-.4.344-.022.106c.418.109.593.339.519.693l-.242,1.167a3.913,3.913,0,0,0,.16.823.45.45,0,0,0,.461.174.8.8,0,0,0,.357-.131l.168-.012-.021.106a1.159,1.159,0,0,0,.037.624,2.27,2.27,0,0,0,.225.506.487.487,0,0,0,.315.081c.336-.025.68-.364,1.038-1.018.183-.361.334-.546.446-.555l-.022.106a.383.383,0,0,0,.439.281l.19-.118.4-.344.233-.331a2.566,2.566,0,0,1,1.353-.936l.168-.012a.491.491,0,0,0-.1-.306l-.1-.306-.125-.2a2.091,2.091,0,0,0,1.1-.5,7.925,7.925,0,0,0,1.228-1.136l1.865-1.811a17.382,17.382,0,0,1,2.01-1.717.5.5,0,0,0,.235-.331l.044-.212a2,2,0,0,1,.535-.98l.869-1.005a3.954,3.954,0,0,0,1.216-1.867l.043-.212.527-.145.357-.131a.812.812,0,0,1,.358-.131.518.518,0,0,1,.315.081,9.634,9.634,0,0,1,2.53-3.427l1.675-1.691a5.955,5.955,0,0,0,1.171-1.654c.029-.141.162-.256.4-.344a13.174,13.174,0,0,0,1.564-1.161l1.1-1.336a8.872,8.872,0,0,1,2.961-2.31l-.145-.094-.169.012c-.225.017-.329-.01-.314-.081a12.1,12.1,0,0,1,1.1-1.336l.87-1.006a16.332,16.332,0,0,0,2.018-2.553l-.672.049a1.291,1.291,0,0,0,.658-.779l.483.068.19-.118.381-.237c.124-.079.2-.154.211-.225q.044-.212-.416-.387l-.38.237-.212.226.044-.214,1.1-1.335,1.126-1.443.257-.437a8.1,8.1,0,0,0,3.531-2.666l.483.068.044-.212a2.759,2.759,0,0,1,2-.881,3.459,3.459,0,0,1,2.176.673l.248.4,1.133.124,2.067,1.2,2.088,1.1.439.281,2.893.411a2.208,2.208,0,0,1,1.234.43,2.932,2.932,0,0,1,.65,2.458,3.532,3.532,0,0,1-.812,1.523l-.021.106a.532.532,0,0,0,.079.412l.123.2-.066.319c-.029.142.125.2.461.174a10.142,10.142,0,0,0-1.134,2.278l-.608,2.135a12.868,12.868,0,0,1-1.89,4.319.542.542,0,0,0,.08.412,2.644,2.644,0,0,1,.174,1.553,2.838,2.838,0,0,1-1.192,1.761c-.256.16-.4.309-.425.449a.26.26,0,0,0,.1.305,2.424,2.424,0,0,1,.524,2.26,5.653,5.653,0,0,1-.41,1.18l-.344.861-.176.849a1.591,1.591,0,0,0,.51,1.529c.1.063.138.131.124.2a.92.92,0,0,1-.234.331,2.181,2.181,0,0,0-.556,1.086,2.087,2.087,0,0,0-.008.836l-.03.942-.009.836a.81.81,0,0,0,.483.068,4.674,4.674,0,0,0,.862-.169l-.38.238-.213.224q-.547.251-.614.568c-.014.071.025.139.124.2a1.6,1.6,0,0,1,.62,1l-.233.331.079.412.168-.013c.322.047.584.1.8.15l.315.081.168-.013a4.938,4.938,0,0,0,1.411-.418,3.15,3.15,0,0,0,1.542-1.055l.38-.237.336-.026.044-.212-.168.012.147.094.124.2,1.14-.711a1.278,1.278,0,0,0,.468-.663.561.561,0,0,0-.08-.411l-.124-.2a2.07,2.07,0,0,1,.4-.344,8.2,8.2,0,0,0,2.9-2.828l.68-.887.49-.768a9.911,9.911,0,0,1,1.587-1.268l.021-.106c.015-.07-.028-.137-.124-.2l-.291-.187.066-.319a25.176,25.176,0,0,0,3.415-3.7l1.573-2q1.058-1.122,1.887-1.916a.641.641,0,0,0,.256-.437l.22-1.061.871-1.005a4.223,4.223,0,0,0,1.024-1.748.705.705,0,0,0-.057-.518l.5-.038.38-.236a2.564,2.564,0,0,1,.694-.157,9.15,9.15,0,0,1,2.239-3.614l1.338-1.667a9.69,9.69,0,0,0,1.024-1.748c.03-.141.169-.29.425-.449a6.08,6.08,0,0,0,1.419-1.256l1.1-1.336a7.362,7.362,0,0,1,2.838-2.51l-.146-.094-.168.012c-.226.018-.33-.009-.315-.081.312-.44.622-.881.936-1.323l1.082-1.23a30.6,30.6,0,0,0,1.873-2.647l-.694.156a5.017,5.017,0,0,0,.68-.886l.46.174.213-.225.38-.237c.124-.078.2-.153.213-.224.028-.141-.111-.269-.416-.387l-.213.225-.38.237.044-.212a28.564,28.564,0,0,0,2.253-2.884l.256-.437a9.631,9.631,0,0,0,3.7-2.679l.5-.038.213-.225a1.672,1.672,0,0,1,1.308-.724l.335-.025a3.083,3.083,0,0,1,2.2.566l.415.386,1.133.124a31.782,31.782,0,0,0,4.346,2.183M176.117,153.491l.761-.474-.629-.163a1.432,1.432,0,0,1-.569.356l-.885.274c-.577.114-.885.275-.929.488l.84-.063.694-.157Zm3.333-1.712.212-.224.189-.119a1.671,1.671,0,0,0-.482-.069.791.791,0,0,1-.358.131l-.168.013a.944.944,0,0,1-.256.437l.167-.013.315.081c.03-.14.155-.221.381-.237m1.25-1.242.57-.356a.92.92,0,0,0,.234-.331c.014-.07-.083-.132-.292-.187l-.234.331-.57.356c-.128.08-.2.155-.212.225s.025.139.123.2Zm6.245-5.375a.807.807,0,0,0-.549.249l-.446.557-.972.7-.995.806a3.348,3.348,0,0,0-1.126,1.443l-.044.212.826-.793.951-.593a4.254,4.254,0,0,0,1.36-1.773l.336-.026c.014-.07.076-.11.189-.118l.168-.012Zm-2.682-.636-.257.438-.4.343a.9.9,0,0,0-.234.331c-.014.071.026.138.124.2l.381-.237.38-.237a2.278,2.278,0,0,0,.848-.9Zm2.157-1.623a.961.961,0,0,1-.257.437l.5-.038a.632.632,0,0,1,.38-.237.9.9,0,0,1,.234-.331l-.5.038a.808.808,0,0,1-.357.131m.882,2.126a10.62,10.62,0,0,1,1.63-1.479l1.989-1.611a5.823,5.823,0,0,0,2.04-2.659l.066-.319a6.338,6.338,0,0,1-1.507,1.68l-1.63,1.48a7.709,7.709,0,0,0-2.589,2.908m.77-3.713-.4.343c-.127.08-.2.155-.213.225s.025.139.124.2l.38-.236.4-.344a.913.913,0,0,0,.233-.331c.03-.141-.123-.2-.46-.175Zm4.512-4.2-.995.806-.995.806a2.484,2.484,0,0,0-.913,1.217.537.537,0,0,0,.079.412,3.009,3.009,0,0,1,.658-.78l.805-.687a4.259,4.259,0,0,0,1.36-1.773l.147.094a.638.638,0,0,1,.38-.237l.3-.649c-.337.025-.614.291-.827.793m.892-1.111q.423-.449,1.463-1.467l1.821-1.6a5.983,5.983,0,0,0,1.85-2.54l.066-.319a5.136,5.136,0,0,1-1.339,1.667l-1.609,1.373A6.743,6.743,0,0,0,193.477,136m11.429-9.629a14.5,14.5,0,0,1,1.081-1.229l.805-.687.636-.674a5.235,5.235,0,0,0,1.338-1.667l.045-.213a71.1,71.1,0,0,0-7.357,7.549l-3.694,4.245-3.694,4.246a88.953,88.953,0,0,0,10.839-11.569m5.706-8.365a16.321,16.321,0,0,1,1.229-1.136l1.609-1.374a7.674,7.674,0,0,0,1.7-1.8,61.9,61.9,0,0,0-7.963,7.28l-3.839,4.151-3.862,4.259a139.412,139.412,0,0,0,11.13-11.382m13.122,30.88a4.553,4.553,0,0,0,1.77-.55l-.606-.268a1.574,1.574,0,0,1-.739.368l-.84.064q-1.031.181-1.1.5Zm.64-5.479.168-.012-.315-.081Zm4.9,3.5a1.68,1.68,0,0,0-.482-.069.8.8,0,0,1-.359.131l-.168.013a1.459,1.459,0,0,1-.569.356,1.745,1.745,0,0,1,.459.175.816.816,0,0,1,.358-.131l.168-.012a2.967,2.967,0,0,1,.593-.461m1.184-.925.739-.369q.57-.356.593-.461c.029-.141-.125-.2-.461-.175l-.4.343-.57.356c-.256.159-.4.308-.424.448l-.022.107a1.494,1.494,0,0,0,.548-.25m7.721-6.113a1.34,1.34,0,0,0-.738.369l-.447.555-1.162.818-1.184.925a4.122,4.122,0,0,0-1.551,1.892l1.016-.912,1.14-.711a5.225,5.225,0,0,0,1.74-2.011l.337-.025.19-.119.168-.012Zm-2.681-.635-.425.449-.424.449a.89.89,0,0,0-.234.332.259.259,0,0,0,.1.305l.4-.343.38-.237a3.054,3.054,0,0,0,.87-1.005Zm1.945-1.4.482.069a.641.641,0,0,1,.381-.237.94.94,0,0,0,.256-.437l-.482-.069c-.03.143-.1.216-.212.225l-.169.012a.94.94,0,0,1-.256.437m1.116,1.8q.423-.447,1.844-1.7l2.032-1.823a7.976,7.976,0,0,0,2.129-3.085l.066-.318a9.127,9.127,0,0,1-1.383,1.879l-1.843,1.706a10.206,10.206,0,0,0-2.846,3.346m.7-3.4.593-.462a.943.943,0,0,0,.257-.437q.043-.212-.46-.175l-.257.437-.234.331a.884.884,0,0,0-.233.332c-.015.071.024.138.123.2Zm4.944-5.487-.995.8-1.037,1.018a3.012,3.012,0,0,0-.959,1.429.543.543,0,0,0,.08.412,4.816,4.816,0,0,1,.68-.887l.826-.793a5.719,5.719,0,0,0,1.4-1.984l.336-.026c.03-.141.1-.216.213-.225l.322-.755c-.35.1-.643.431-.871,1.006m.936-1.324q.446-.556,1.508-1.68l1.719-1.9a7.046,7.046,0,0,0,1.916-2.86.7.7,0,0,0-.058-.517,6.842,6.842,0,0,1-1.215,1.866l-1.528,1.786a7.7,7.7,0,0,0-2.342,3.309m11.175-11.594,1.273-1.349.681-.886.658-.781a7.145,7.145,0,0,0,1.215-1.866.27.27,0,0,0-.1-.306,95.578,95.578,0,0,0-6.992,8.984l-3.489,4.856-3.679,4.975a84.643,84.643,0,0,0,10.438-13.627m8.245-12.629a10.463,10.463,0,0,0,1.93-2.129,27.533,27.533,0,0,0-4.321,4.084q-1.721,1.906-3.781,4.669l-3.657,4.87-3.68,4.977a171.187,171.187,0,0,0,10.751-13.548q.868-1,2.757-2.922" transform="translate(2.913 -11.022)"/>
    <path id="パス_334" data-name="パス 334" d="M392.433,104.345c.292.186.423.351.394.492a.5.5,0,0,1-.233.331,85.418,85.418,0,0,1-7.314,7.336,48.887,48.887,0,0,1-6.974,4.909l-.045.213a4.875,4.875,0,0,1-2.245,2.047l-1.5.844a3.468,3.468,0,0,0-1.061,1.124l-.189.117q-1.333.834-2.9,1.993l-2.749,2.086a32.469,32.469,0,0,1-6.083,3.8l-.189.12a88.326,88.326,0,0,1-11.735,8.71l-6.652,4.153q-3.827,2.479-6.339,4.234l-.19.119a12.461,12.461,0,0,0-2.844.943L330.47,149.4a22.763,22.763,0,0,1-7.368,2.013c-.014.07-.262.192-.738.368l-.694.156-.717.262-.5.038-.65-.056a8.327,8.327,0,0,1-2.251.481,6.648,6.648,0,0,1-2.893-.41,8.206,8.206,0,0,1-5.455-4.815l.089-.424-.146-.094.021-.106-.124-.2-.16-.823c-.01-.485-.013-1.008-.006-1.567l.118-1.366a13.322,13.322,0,0,0,.125-2.2l.067-.319a.928.928,0,0,1,.256-.438l.826-.792.279-.544q3.273-11,12.346-24.425l.256-.436.155-.744a12.224,12.224,0,0,1,1.778-3.788l.7-.993.724-1.1a5.568,5.568,0,0,0,.41-1.181,3.366,3.366,0,0,0,.053-1.047l.044-.212a1.67,1.67,0,0,1,.446-.557l.021-.1.235-.331a.93.93,0,0,0-.271-.294.516.516,0,0,0-.314-.08.8.8,0,0,0-.359.131l-.525.143-.673.051-.189.118-.761.474-.358.132-5.06,4.452-5.228,4.465q-6.268,5.479-10.544,9.352-11.671,10.8-17.97,19.623l-.379.237a39.582,39.582,0,0,0-6.3,6.424l-2.678,3.334a40.911,40.911,0,0,1-3.371,3.491c.111-.008.154.057.124.2a2.546,2.546,0,0,1-.3.649l-.3.649-.278.543-.213.225-.044.212-1.418,1.256a3.363,3.363,0,0,0-.79,1.417,2.921,2.921,0,0,1-1.981.774,7.115,7.115,0,0,1-1.952-.167l-1.717-.5-.628-.162-1.008.075q-2.746-.319-6.021-.49c-1.973-.062-3.025-.3-3.163-.7a1.268,1.268,0,0,0,.468-.662l-.182-.717.044-.213.381-.237.234-.331a1.357,1.357,0,0,1,.57-.356,4.229,4.229,0,0,1,.015-1.673l.689-1.723a7.525,7.525,0,0,0,.709-1.828,2.218,2.218,0,0,0-.049-1.354l.022-.106a48.507,48.507,0,0,0,3.467-4.751l2.6-4.582a50.223,50.223,0,0,1,6.2-9.132,4.164,4.164,0,0,1,.1-1.261,10.5,10.5,0,0,1,1.288-3.021l1.281-2.186a9.653,9.653,0,0,0,.5-1.6l.154-.743a1.7,1.7,0,0,0,.87-1l.031-.943.065-.318a2.482,2.482,0,0,1,1.171-1.654l.021-.107a17.357,17.357,0,0,1,.36-2.534l.506-2.441.432-1.286.265-1.273.652-2.347-.291-.186-.461-.176c-.1-.061-.138-.127-.123-.2l.021-.106a1.549,1.549,0,0,0,.278-.543,1.5,1.5,0,0,0-.137-.93,3.756,3.756,0,0,0-1.395-1.253l.021-.108c.03-.139.34-.3.929-.487a19.3,19.3,0,0,1,2.8-.731l1.03-.183c.8-.127,1.479-.214,2.039-.255q1.342-.1,3.91-.5l2.185-.161,1.87-.245a3.035,3.035,0,0,1,1.469.1q1.819.8,1.6,1.865a1.775,1.775,0,0,1-.3.649c-.015.072.08.135.291.187l.124.2-.021.105c-.029.144.123.2.459.175a3.119,3.119,0,0,0-.811,1.523l-.4,1.911a5.2,5.2,0,0,1-1.157,2.383l-.044.213a1.2,1.2,0,0,1,.284,1.023q-.131.637-1.228,1.137c-.241.087-.367.168-.381.236s.025.138.124.2a1.192,1.192,0,0,1,.408,1.223,2.62,2.62,0,0,1-.556,1.087l-.447.555-.278.543-.044.213a1.084,1.084,0,0,0,.16.824c.1.063.138.131.124.2l-.19.119a1.868,1.868,0,0,0-1.082,1.231l-.3.648-.468.662a2.486,2.486,0,0,0,1.3.113l-.358.131-.358.131c-.463.105-.709.227-.737.369l-.022.105a.454.454,0,0,1,.226.506,1.277,1.277,0,0,1-.468.662l-.615.568-.424.449-.022.107a2.142,2.142,0,0,1-.007.836l-.066.318,1.14-.711a.3.3,0,0,1-.247-.4l.065-.319-.1-.305a8.053,8.053,0,0,0,1.9-1.188l1.273-1.348a10.174,10.174,0,0,1,3.151-2.429,2.453,2.453,0,0,0,.759-.475,28.755,28.755,0,0,1,4.856-5.063l2.67-2.5a25.9,25.9,0,0,0,2.333-2.474.811.811,0,0,1,.548-.25l.672-.05a.784.784,0,0,0,.359-.131q.768-1.31,4.277-3.87l2.56-1.968a13.286,13.286,0,0,0,2.077-2.036,1.925,1.925,0,0,1,1.139-.711,14.392,14.392,0,0,0,1.455-.631c.381-.238.893-.589,1.543-1.056l1.8-1.492q1.016-.911,1.609-1.373a2.366,2.366,0,0,1,.929-.487l3.414-1.3a29.926,29.926,0,0,1,8-1.85,17.077,17.077,0,0,1,3.3.067,9.549,9.549,0,0,1,4.6,1.745,4.53,4.53,0,0,1,1.627,3.326l.08.413a4.667,4.667,0,0,1,.364,1.434l.159.825-.03.941-.418,2.016a3.181,3.181,0,0,1-.366.967q-.214.229-.636.674a.927.927,0,0,0-.256.439.846.846,0,0,0,.328.81l.27.293.1.306a3.884,3.884,0,0,0-.651-.056,1.065,1.065,0,0,0-.717.264l-.454,1.391-.811,1.523a6.57,6.57,0,0,0-.9,1.949,1.382,1.382,0,0,0,.013.729l-.066.319a.947.947,0,0,1-.256.438,6.821,6.821,0,0,0-1.807,2.328l-.388,1.074-.41,1.18a9.18,9.18,0,0,1-3.3,4.737,1.72,1.72,0,0,0-.3.65l-.066.318a2.365,2.365,0,0,1,.072,1.249,4.329,4.329,0,0,1-.388,1.073,10.556,10.556,0,0,1-1.6,2.1,1.1,1.1,0,0,0-.277.543l-.176.85a15.148,15.148,0,0,1-.586,2.028l-.454,1.391-.6,1.3a18.07,18.07,0,0,0-1.252,3.645,7.567,7.567,0,0,0-.183,1.685c-.336.026-.527.145-.571.356l-.066.319-.234.331a.492.492,0,0,0-.233.33l-.022.107a2.633,2.633,0,0,1,.116,1.036l-.066.318-.672.05-.022.107.168-.013-.57.356-.4.344-.614.568-.636.674a.314.314,0,0,0,.292.187c.11-.008.175-.048.19-.118l.022-.107.188-.118-.291-.187.673-.05-.044.213a6.083,6.083,0,0,0,1.914-.457l.906-.381c.237-.086.6-.218,1.074-.393l.169-.013-.022.106.146.094.168-.012c.089-.424.63-.917,1.631-1.48l1.287-.619a2.4,2.4,0,0,0,.827-.793c.014-.07.083-.145.212-.224a4.784,4.784,0,0,0,1.622-.643l1.332-.831a7.6,7.6,0,0,1,2.975-1.58.26.26,0,0,1-.1-.305l.021-.107-.1-.305a4.8,4.8,0,0,0,2.149-.787l.782-.581a2.323,2.323,0,0,1,1.052-.287c.224-.017.351-.1.381-.237a16.082,16.082,0,0,1,1.228-1.136l1.544-1.055a11.583,11.583,0,0,0,2.6-2.179l.358-.131.146.094.482.069a5.17,5.17,0,0,1,2.032-1.824l1.332-.831a4.751,4.751,0,0,0,.87-1c.029-.142.212-.226.548-.251a2.416,2.416,0,0,0,1.644-.749l.425-.449.278-.544c.014-.071.077-.11.19-.118a8.129,8.129,0,0,0,1.689-.963l1.418-1.255a13.606,13.606,0,0,1,3.634-2.361l.189-.118.425-.449.446-.555a3.556,3.556,0,0,1,1.353-.938c.237-.086.366-.165.381-.237a.5.5,0,0,0-.1-.306l.044-.213-.124-.2a2.117,2.117,0,0,0,.943.244l.614-.568.782-.581a2.468,2.468,0,0,0,1.083-1.229c.03-.14.161-.256.4-.344a2.954,2.954,0,0,0,1.476-.736l.425-.451.446-.555a4.663,4.663,0,0,1,2.852-1.78c.237-.087.373-.2.4-.344l.088-.424a1.844,1.844,0,0,1,.512-.873,4.6,4.6,0,0,1,1.476-.738l.381-.238q.385-1.069,11.646-8.285l.336-.026a4.583,4.583,0,0,1,.987.033,9.658,9.658,0,0,1,2.81,4.8m-123.8,44.031q1.691-3.363,4.267-9.407a126.463,126.463,0,0,0-6.651,12.928,4.008,4.008,0,0,1-.769,1.311l-.49.768-.491.767a6.756,6.756,0,0,0-.834,1.63c-.045.213-.016.349.08.412a65.043,65.043,0,0,0,4.887-8.409m.158-5.548q-.254.438-.79,1.417l-.323.755-.49.769a7.371,7.371,0,0,0-.666,1.616c-.045.213-.016.35.08.412a50.564,50.564,0,0,0,4.259-8.57l1.787-4.625,1.808-4.732a83.013,83.013,0,0,0-5.666,12.958m5.309-6.454,1.025-1.749a7.806,7.806,0,0,0,.966-2.266,2.423,2.423,0,0,0,.03-.941q-.3.649-.856,1.736l-1.214,1.866a7.912,7.912,0,0,0-.733,1.935,2.019,2.019,0,0,0,.073,1.248,6.746,6.746,0,0,1,.709-1.828m2.641-12.733-1.047,1.855a7.912,7.912,0,0,0-.732,1.935,2.02,2.02,0,0,0,.072,1.248,12.448,12.448,0,0,1,.542-1.816l1.025-1.749a7.83,7.83,0,0,0,.966-2.265,2.447,2.447,0,0,0,.03-.942q-.3.651-.856,1.735m.3,5.724.535-.981a2.866,2.866,0,0,0,.343-.859.894.894,0,0,0-.159-.825,2.891,2.891,0,0,1-.345.861l-.49.768a2.8,2.8,0,0,0-.578,1.193,1.831,1.831,0,0,0,.014.73l-.168.012a.491.491,0,0,1-.234.331l-.132.637a.694.694,0,0,0,.447-.556l.088-.424Zm.942-8.532-.021.106c-.015.071-.079.11-.19.119l.036.625a.69.69,0,0,0,.446-.557l.089-.424.49-.768.7-.993a2.626,2.626,0,0,0,.322-.755,1.02,1.02,0,0,0-.284-1.024,2.9,2.9,0,0,1-.344.862l-.512.874a3.163,3.163,0,0,0-.365.968,2.079,2.079,0,0,0-.008.835Zm1.159,3.987c.03-.14-.061-.237-.27-.293l-.066.319-.278.544-.044.213c-.03.141.066.2.292.186l.168-.013Zm.367-.967.021-.107c.014-.069.085-.145.213-.224a.541.541,0,0,1-.08-.411,1.148,1.148,0,0,1-.525.143l-.022.106c-.015.072-.088.146-.212.225l-.045.213.147.094Zm1.449-2.2-.058-.519.257-.436.043-.213c.045-.213-.047-.311-.27-.293l-.234.331-.233.331a3.114,3.114,0,0,0-.367.968Zm-.126-6.572-.234.331-.257.437-.044.212c-.031.143.011.209.124.2l.336-.026.066-.318.256-.438q.087-.424-.247-.4m.264-1.272c-.015.071-.088.146-.213.224l-.088.424a2.385,2.385,0,0,1,.526-.145c.03-.14.1-.216.212-.224l.089-.424a1.154,1.154,0,0,0-.526.145m1.843-1.706.088-.424.278-.544.045-.211c.028-.141-.062-.238-.271-.295l-.4.344-.233.331a3.139,3.139,0,0,0-.366.968Zm32.412-6.285.592-.462a13.289,13.289,0,0,0,1.565-1.163l-.841.063-.636.675-.783.581c-.379.236-.584.426-.614.567-.014.071.035.1.147.094Zm11.5,16.377q-3.028,5.032-5.019,9.044a50.275,50.275,0,0,0-3.558,9.981l-.4,1.909a9.8,9.8,0,0,0,.042,2.191,4.172,4.172,0,0,0,.531,1.422l.257-.437a5.706,5.706,0,0,1-.193-3.851l.22-1.061a38.9,38.9,0,0,1,1.6-5.342q2.065-5.17,6.513-13.857m-4.864,5.9-.344.861-.556,1.086a18.273,18.273,0,0,0-1.156,2.384,12.656,12.656,0,0,0-.989,2.372c-.059.284-.041.457.058.518q.988-2.369,2.913-6.067l1.478-3.139,1.69-3.364q4.259-8.569,6.536-13.963l-2.268,4.556-2.436,4.57q-3,5.657-4.927,10.188m-1.412-25.906a6.507,6.507,0,0,0,.782-.58l-.5.038a1.357,1.357,0,0,1-.57.356,5.846,5.846,0,0,1-.592.461l.5-.036a.646.646,0,0,1,.38-.239m2.157-1.623,1.1-.5a2.76,2.76,0,0,0,.782-.581c.014-.07-.091-.1-.314-.081l-.57.356-.761.475q-.739.368-.783.581l-.021.106.57-.356m3.692-1.842a13.041,13.041,0,0,1,3.435-1.406L331.409,97a9.5,9.5,0,0,1,1.366-.207l.505-.038-.022.107c.223-.018.322.045.292.186l.168-.011.146.093a1.735,1.735,0,0,1,.46.176c.014-.071-.068-.2-.248-.4a1.291,1.291,0,0,0-.8-.15,2.465,2.465,0,0,0-1.447-.206,9.137,9.137,0,0,0-2.083.469,8.122,8.122,0,0,0-3.333,1.712m2.374,19.67,1.346-2.5a13.839,13.839,0,0,0,2.057-4.333l.089-.424a17.378,17.378,0,0,1-1.368,2.609l-.769,1.31-.791,1.418a16.183,16.183,0,0,0-1.822,4l-.131.635q.576-1.19,1.391-2.714m4.179-8.983a8.511,8.511,0,0,0,.768-1.31l.812-1.523a5.213,5.213,0,0,0,.644-1.511,1.386,1.386,0,0,0-.116-1.035,7.641,7.641,0,0,1-.454,1.392l-.578,1.192a10.574,10.574,0,0,0-1.076,2.8l-.168.013a.644.644,0,0,1-.257.438l-.176.848q.357-.128.6-1.3m1.1-14.08a3.952,3.952,0,0,0-.82-.043l-.335.025c-.226.017-.351.1-.381.237a4.931,4.931,0,0,1,3.557,1.2l.066-.318.213-.225-.439-.281-.606-.268a3.989,3.989,0,0,0-1.256-.324m.356,2.271a3.863,3.863,0,0,1,.042,2.191l-.154.743a14.472,14.472,0,0,1-.564,1.923l-.455,1.391-.409,1.18-.176.85a3.092,3.092,0,0,0-.074,1.154,15.6,15.6,0,0,1,.887-2.677l1.01-2.479a7.226,7.226,0,0,0,.433-1.286,2.8,2.8,0,0,0,.052-1.048,2.357,2.357,0,0,0-.591-1.941m2.087,3.5c.044-.211.008-.313-.1-.3a2.908,2.908,0,0,1-.278.543l-.22,1.061c-.044.212-.011.314.1.306l.168-.013Zm-.211-2.178c.1.064.138.13.124.2s-.087.146-.212.224a1.191,1.191,0,0,1,.036.624c.124-.078.252-.156.381-.237l.088-.424-.036-.624-.381.237" transform="translate(4.586 -10.854)"/>
    <path id="パス_335" data-name="パス 335" d="M374.1,154.026a.474.474,0,0,1-.1-.305.489.489,0,0,1,.235-.331,7.684,7.684,0,0,0,1.054-2.69l.154-.743.06-1.885-.108-1.872.021-.106q.133-.637,1.208-1.03a6.461,6.461,0,0,1,1.724-.339,7.487,7.487,0,0,1,1.156.019l.986.032a11.853,11.853,0,0,1,1.951.168,15.636,15.636,0,0,0,3.478.784l1.929.274,1.761.286a1.965,1.965,0,0,1,1.19.642,2.927,2.927,0,0,1,.335,2.378,4.364,4.364,0,0,1-.389,1.074,17.585,17.585,0,0,1-.879,1.841,8.039,8.039,0,0,0-.768,1.31l-.022.107a.55.55,0,0,0,.08.412l-.38.236a6.962,6.962,0,0,1-2.8.731,8.367,8.367,0,0,1-1.323-.005l-2.119-.155a7.26,7.26,0,0,0-1.155-.019,6.277,6.277,0,0,0-1.2.195,25.362,25.362,0,0,1-2.9.424,24.237,24.237,0,0,0-2.682-.634l-.124-.2Z" transform="translate(6.778 -17.024)"/>
  </g>
</svg>
