<svg xmlns="http://www.w3.org/2000/svg" width="189.84" height="75.88" viewBox="0 0 189.84 75.88">
  <path id="パス_1453" data-name="パス 1453" d="M-69.24-13.72A14.831,14.831,0,0,1-72.82-3.64,11.2,11.2,0,0,1-81.6.48,11.99,11.99,0,0,1-90.88-3.7,14.839,14.839,0,0,1-94.64-14a14.6,14.6,0,0,1,3.62-10.22,11.958,11.958,0,0,1,9.26-3.98,11.332,11.332,0,0,1,8.92,4.16A15.213,15.213,0,0,1-69.24-13.72Zm-4.48.2q0-7.32-3-11.4a6.132,6.132,0,0,0-5.24-2.56,6.322,6.322,0,0,0-4.96,1.96q-3.24,3.6-3.24,11.72,0,6.44,2.26,10A7.115,7.115,0,0,0-81.56-.24,6.2,6.2,0,0,0-75.84-3.6Q-73.72-7.32-73.72-13.52Zm47.8-13.96q0,.36-1.36.4a2.127,2.127,0,0,0-2.02,1A34.582,34.582,0,0,0-30.84-22q-1.8,5.48-3.2,9.32Q-36.44-6.12-38.4,0q-.16.52-.4.52-.2,0-.38-.4t-1.06-2.8q-1.12-3.12-2.44-6.28-1.04-2.48-2.04-5.12Q-47.52-7.32-50.28.04q-.16.48-.4.48-.2,0-.48-.68-1.24-2.96-9.2-24.52a9.747,9.747,0,0,0-.84-1.9q-.28-.38-1.4-.42-1.92-.08-1.92-.56,0-.36.64-.36a2.485,2.485,0,0,1,.48.04q2.12.12,4.56.12.48,0,1.66-.06t3.06-.06h.44q.68,0,.68.36,0,.44-1.24.48-2.48.08-2.48.64,0,1.12,7.36,20.84,2.68-6.76,4-9.96l-3.96-10.24a2.031,2.031,0,0,0-.74-1.08,3.683,3.683,0,0,0-1.54-.28q-1.12-.04-1.12-.36,0-.44.84-.44.64,0,1.56.08t3.2.08h3.04l4.4.08q1.48,0,3.56-.16a3.446,3.446,0,0,1,.56-.04q.96,0,.96.4,0,.36-.68.36h-.68a6.056,6.056,0,0,0-2.72.48q-.4.2-1.48,2.88-.48,1.12-1.6,3.8l-.72,1.8q.28.8,1.76,4.44,1.92,4.64,3.16,7.96,2.24-6.48,5.28-15.32a40.363,40.363,0,0,0,1.6-5.2q0-.76-1.4-.76-1.96,0-1.96-.44,0-.4.8-.4.68,0,1.08.04.88.08,1.6.08l3.2-.04a4.076,4.076,0,0,1,1.32.1A.286.286,0,0,1-25.92-27.48Zm-14.44,1.2q0-.72-2.48-.72h-.48l-.68.04q-1.44.08-1.44.52,0,.08,2.36,6.92.92-2,2.16-5.28.16-.44.48-1.16ZM2.6-27.4q0,.4-1,.36l-.88-.04H0q-.64,0-.76.22a4.07,4.07,0,0,0-.12,1.34V-2.48Q-.88-.36-.92,0t-.24.36q-.24,0-.56-.44L-6.84-7.56q-4.44-6.52-10.8-16.28l.04,22.32a.7.7,0,0,0,.6.66,16.217,16.217,0,0,0,2.68.18q.52,0,.52.32,0,.4-1.04.4-.36,0-2.28-.12-.64-.04-1.24-.04.04,0-.7.08t-2.26.08h-.4q-.92,0-.92-.36t.8-.36a7.73,7.73,0,0,0,2.74-.3q.38-.26.38-1.7V-22.4q0-3.32-1.36-4.16a4.619,4.619,0,0,0-2.28-.4q-1.04,0-1.04-.4,0-.36.6-.36.8,0,2.04.04t1.32.04q.12,0,1.12-.04,1.32,0,2.56-.04L-1.96-7.2V-25q0-1.24-.04-1.5a.532.532,0,0,0-.32-.4,6.857,6.857,0,0,0-1.92-.14q-1.44,0-1.44-.36,0-.4.96-.4H-2.2q.64.04.76.04.04,0,.72-.04H1.72Q2.6-27.8,2.6-27.4ZM29.64-6.48q0,.16-.08,1.96t-.08,3.44V.24Q25.56.04,13.96.04q-1.4,0-2.76.04H8.96Q8.2.08,8.2-.28a.257.257,0,0,1,.24-.28q.12,0,1.52-.12Q11-.76,11.22-1.12A4.674,4.674,0,0,0,11.44-3V-25.48q0-1.16-.34-1.38a5.823,5.823,0,0,0-2.18-.22q-.64,0-.64-.36t.88-.36l6.84.04q.36,0,4.52-.04h5.6a13.971,13.971,0,0,0,2.2-.16q.08,1.72.36,4.76l.16,1.72a2.742,2.742,0,0,1,.04.52q0,.4-.36.4-.44,0-.64-1-.76-3.6-2.48-4.56-1.28-.72-6.72-.72H15.4v11.72h.96q4.48,0,5.46-.68t1.34-3.96q.08-.84.44-.84.44,0,.44.72t-.08,2.12q-.08,1.4-.08,2.12,0,4.28.16,5.88.04.4.04.68,0,.52-.44.52-.28,0-.38-.34t-.34-2.22q-.32-2.36-1.96-2.92a16.677,16.677,0,0,0-3.76-.24H15.4V-.84q8.8,0,10.32-.36,2.64-.6,3-5.12.08-1,.52-1Q29.64-7.32,29.64-6.48ZM58.2-1.2Q58.2.48,55.4.48a5.577,5.577,0,0,1-4.88-2.6,6.166,6.166,0,0,1-.98-2.16q-.22-1.04-.66-5.28a4.869,4.869,0,0,0-1.64-3.62,8,8,0,0,0-4.56-1.14v12.6q0,.8,1.28,1,.36.04,1.84.08.52,0,.52.32,0,.36-.68.36h-.48Q44.8,0,41.68,0q-.6,0-2.04.04h-3.4q-.88,0-.88-.36,0-.28,1.16-.32,1.88-.04,2.04-.48a3.893,3.893,0,0,0,.16-1.56V-24.76q0-1.6-.34-1.92a3.918,3.918,0,0,0-2.06-.36q-1,0-1-.36,0-.4.64-.4a2.407,2.407,0,0,1,.36.04l5.32.12q.8,0,2.24-.04,1.6-.08,2.24-.08a9.51,9.51,0,0,1,5.9,1.66,5.357,5.357,0,0,1,2.18,4.5,5.7,5.7,0,0,1-2.24,4.62,10.855,10.855,0,0,1-6.08,2.14q-.36.04-.4.12,0,.16.4.16,4.2.72,5.78,2.94t2.1,8.02Q54.08-.32,56-.32q.6,0,.6-.24a.115.115,0,0,0-.04-.08,1.846,1.846,0,0,1-.2-.72q0-.84.88-.84Q58.2-2.2,58.2-1.2ZM49.92-21.24q0-5.72-4.96-5.72a3.187,3.187,0,0,0-1.8.36,1.505,1.505,0,0,0-.48,1.28v10.16q3.84.04,5.54-1.4T49.92-21.24Zm20.32-3.2a4.514,4.514,0,0,1-2.32,4.24,5.7,5.7,0,0,1-2.68.92q-.44,0-.44-.32,0-.28.48-.4a5.983,5.983,0,0,0,2.56-1.24,2.816,2.816,0,0,0,.72-2.08,3.18,3.18,0,0,0-.52-1.84q0,1.36-1.72,1.36a1.98,1.98,0,0,1-1.46-.58,1.931,1.931,0,0,1-.58-1.42,2.253,2.253,0,0,1,.74-1.7,2.548,2.548,0,0,1,1.82-.7,3.147,3.147,0,0,1,2.44,1.06A3.869,3.869,0,0,1,70.24-24.44ZM95.2-7.8a7.687,7.687,0,0,1-2.62,5.86A8.958,8.958,0,0,1,86.28.48,13.233,13.233,0,0,1,81.12-.84a3.316,3.316,0,0,0-1.2-.36q-.48,0-.6,1.16-.04.6-.52.6-.4,0-.4-.48a2.132,2.132,0,0,1,.04-.48,34.921,34.921,0,0,0,.32-4.52q0-.4-.08-2.24a4.065,4.065,0,0,1-.04-.64q0-.6.48-.6.4,0,.56.96Q80.72-.32,86.44-.32A5.026,5.026,0,0,0,90.22-1.7a5.367,5.367,0,0,0,1.34-3.9,5.818,5.818,0,0,0-1.3-3.82,13.563,13.563,0,0,0-4.46-3.14,16.641,16.641,0,0,1-5.28-3.64,6.543,6.543,0,0,1-1.48-4.36,7.462,7.462,0,0,1,2.14-5.48A7.309,7.309,0,0,1,86.6-28.2a11.382,11.382,0,0,1,3.76.92,3.969,3.969,0,0,0,1.24.32.773.773,0,0,0,.58-.16,2.087,2.087,0,0,0,.26-.84.425.425,0,0,1,.44-.4q.4,0,.4.48a2.132,2.132,0,0,1-.04.48,19.085,19.085,0,0,0-.12,2.32,18.137,18.137,0,0,0,.2,3.04l.04.64q.04.44-.36.44-.44,0-.6-.92a7.14,7.14,0,0,0-2.08-3.94,5.179,5.179,0,0,0-3.68-1.58,4.114,4.114,0,0,0-3.18,1.28,4.935,4.935,0,0,0-1.18,3.48A5.3,5.3,0,0,0,84-18.52a21.019,21.019,0,0,0,4.16,2.48,17.063,17.063,0,0,1,5.4,3.82A6.656,6.656,0,0,1,95.2-7.8ZM-39.88,19.52q0,.32-.76.36A4.193,4.193,0,0,0-43,20.4a5.407,5.407,0,0,0-1.24,2.24l-1.36,3.72q-4.92,13.48-6.92,20.68-.12.48-.4.48-.32,0-1.32-3-1.8-5.48-2.8-8.24-1.08-3.04-3.2-9.08l-1.92-5.4a3.368,3.368,0,0,0-.88-1.5,2.777,2.777,0,0,0-1.6-.42q-1.32-.04-1.58-.08a.285.285,0,0,1-.26-.32q0-.36.8-.36h.36q.72,0,2.5.06t2.54.06q.2,0,1.54-.06t3.82-.06h.56q.72,0,.72.4,0,.44-1.44.48l-2.44.08q-.84.04-.84.52a1.309,1.309,0,0,0,.08.32l.32,1.04q.08.32,3.88,11.28.64,1.88,2.44,7.16,6.6-18.68,6.6-19.64T-47,19.88l-1.24.04q-.48,0-.48-.32,0-.4,1.2-.4h1.36q1.12.04,1.64.04h1.28l2.64-.04Q-39.88,19.2-39.88,19.52ZM-9.6,33.28a14.831,14.831,0,0,1-3.58,10.08,11.2,11.2,0,0,1-8.78,4.12,11.99,11.99,0,0,1-9.28-4.18A14.839,14.839,0,0,1-35,33a14.6,14.6,0,0,1,3.62-10.22,11.958,11.958,0,0,1,9.26-3.98,11.332,11.332,0,0,1,8.92,4.16A15.213,15.213,0,0,1-9.6,33.28Zm-4.48.2q0-7.32-3-11.4a6.132,6.132,0,0,0-5.24-2.56,6.322,6.322,0,0,0-4.96,1.96q-3.24,3.6-3.24,11.72,0,6.44,2.26,10a7.115,7.115,0,0,0,6.34,3.56A6.2,6.2,0,0,0-16.2,43.4Q-14.08,39.68-14.08,33.48ZM7.6,46.68q0,.32-.48.32h-.4a51.2,51.2,0,0,0-5.44-.12q-1,0-2,.08-.52.04-1.6.04-.52,0-.52-.36,0-.32,1.04-.36,1.6-.04,1.88-.38a5.087,5.087,0,0,0,.28-2.3V22.56a5.923,5.923,0,0,0-.2-2.2q-.24-.4-2.2-.48-.76-.04-.76-.32,0-.36.48-.36l5.4.08q.6,0,2.32-.04l1.52-.04q.64,0,.64.36,0,.32-1.76.4-1,.04-1.22.36A3.761,3.761,0,0,0,4.36,22V43.36a7.065,7.065,0,0,0,.2,2.48,4.723,4.723,0,0,0,2.6.52Q7.6,46.36,7.6,46.68Zm29.36-8.6q0-.08-.08,1.08-.16,2.32-.16,4.48,0,.24.08.98a16.892,16.892,0,0,1,.08,1.78v.36q0,.52-.32.52t-.56-.6a4.115,4.115,0,0,0-1.12-1.72,10.152,10.152,0,0,1-6.92,2.52,12.807,12.807,0,0,1-9.74-4.1,14.489,14.489,0,0,1-3.86-10.34A14.86,14.86,0,0,1,17.9,22.78a11.669,11.669,0,0,1,9.14-3.98,12.567,12.567,0,0,1,3.26.34,13.773,13.773,0,0,1,3.02,1.38,3.025,3.025,0,0,0,1.32.52q.36,0,.68-.64.52-1.12.84-1.12a.283.283,0,0,1,.32.32,2.738,2.738,0,0,1-.08.52,38.332,38.332,0,0,0-.44,7.2,1.721,1.721,0,0,1-.12.88.432.432,0,0,1-.32.12q-.4,0-.52-.76a13.531,13.531,0,0,0-1.48-4.76,6.7,6.7,0,0,0-6.16-3.2,6.437,6.437,0,0,0-5.12,2.16q-3.4,3.88-3.4,11.36,0,6.68,2.8,10.36a7.747,7.747,0,0,0,6.48,3.2,7.311,7.311,0,0,0,3.8-1.02,6.88,6.88,0,0,0,2.64-2.78,16.115,16.115,0,0,0,1.48-4.44q.16-.96.52-.96Q36.96,37.48,36.96,38.08Zm28.28,2.44q0,.16-.08,1.96t-.08,3.44v1.32q-3.92-.2-15.52-.2-1.4,0-2.76.04H44.56q-.76,0-.76-.36a.257.257,0,0,1,.24-.28q.12,0,1.52-.12,1.04-.08,1.26-.44A4.674,4.674,0,0,0,47.04,44V21.52q0-1.16-.34-1.38a5.823,5.823,0,0,0-2.18-.22q-.64,0-.64-.36t.88-.36l6.84.04q.36,0,4.52-.04h5.6a13.971,13.971,0,0,0,2.2-.16q.08,1.72.36,4.76l.16,1.72a2.742,2.742,0,0,1,.04.52q0,.4-.36.4-.44,0-.64-1-.76-3.6-2.48-4.56-1.28-.72-6.72-.72H51V31.88h.96q4.48,0,5.46-.68t1.34-3.96q.08-.84.44-.84.44,0,.44.72t-.08,2.12q-.08,1.4-.08,2.12,0,4.28.16,5.88.04.4.04.68,0,.52-.44.52-.28,0-.38-.34t-.34-2.22q-.32-2.36-1.96-2.92a16.677,16.677,0,0,0-3.76-.24H51V46.16q8.8,0,10.32-.36,2.64-.6,3-5.12.08-1,.52-1Q65.24,39.68,65.24,40.52Z" transform="translate(94.64 28.36)"/>
</svg>
